<svg id="Capa_1" enable-background="new 0 0 512 512" height="512" viewBox="0 0 512 512" width="512" xmlns="http://www.w3.org/2000/svg"><g><g><g><path d="m370.871 204.011c20.435 0 39.494 7.636 55.588 20.821 3.607-7.1 8.397-11.692 14.243-12.979 20.69-4.554 46.76 33.991 58.228 86.093 11.469 52.102 3.993 98.031-16.697 102.586-5.276 1.161-10.902-.485-16.546-4.439-16.508 46.566-52.753 78.896-94.817 78.896-57.622 0-104.333-60.661-104.333-135.489s46.712-135.489 104.334-135.489z" fill="#bec8f7"/></g><g><path d="m141.129 204.011c-20.435 0-39.494 7.636-55.588 20.821-3.607-7.1-8.397-11.692-14.243-12.979-20.69-4.554-46.76 33.991-58.228 86.093-11.47 52.103-3.994 98.032 16.696 102.586 5.276 1.161 10.902-.485 16.546-4.439 16.508 46.566 52.753 78.896 94.817 78.896 57.622 0 104.333-60.661 104.333-135.489s-46.711-135.489-104.333-135.489z" fill="#bec8f7"/></g><g><path d="m390.816 82.607c-3.903-3.807-5.946-9.052-5.931-14.505 0-.027 0-.055 0-.082 0-33.424-57.79-60.52-129.077-60.52s-129.076 27.096-129.076 60.52v.082c.016 5.452-2.027 10.698-5.931 14.505-33.482 32.657-54.136 77.406-54.136 126.779 0 22.182 4.175 43.428 11.802 63.067h354.683c7.626-19.64 11.802-40.886 11.802-63.067 0-49.374-20.653-94.122-54.136-126.779z" fill="#617184"/></g><g><path d="m227.81 82.607c3.903-3.807 5.946-9.052 5.931-14.505 0-.027 0-.055 0-.082 0-24.475 30.989-45.555 75.573-55.09-16.301-3.486-34.418-5.43-53.504-5.43-71.287 0-129.077 27.096-129.077 60.52v.082c.016 5.452-2.027 10.698-5.931 14.505-33.482 32.657-54.136 77.406-54.136 126.779 0 22.182 4.175 43.427 11.802 63.067h107.008c-7.626-19.64-11.802-40.886-11.802-63.067 0-49.374 20.653-94.122 54.136-126.779z" fill="#455060"/></g><g><path d="m198.557 343.914h114.504v130.708h-114.504z" fill="#fff2de"/></g><g><path d="m410.369 469.082c-9.031-35.339-29.896-65.94-58.122-87.339l-55.084 46.924-36.881 64.894 36.898 10.939h85.856c18.513 0 31.917-17.482 27.333-35.418z" fill="#dae2fe"/></g><g><path d="m159.782 381.742c-28.226 21.399-49.09 52.001-58.122 87.339-4.584 17.936 8.82 35.418 27.333 35.418h101.014l8.66-27.5z" fill="#e9efff"/></g><g><path d="m309.575 358.672c-3.252 15.024-8.033 30.222-14.433 45.281-14.229 33.478-34.486 61.702-57.708 82.834l48.201 14.29c21.341-20.615 39.92-47.32 53.225-78.625 5.752-13.534 10.185-27.179 13.386-40.71-12.84-9.734-27.204-17.565-42.671-23.07z" fill="#e9efff"/></g><g><path d="m173.168 422.453c14.051 33.061 33.98 61.003 56.839 82.047h67.173c-32.538-21.673-61.611-56.587-80.294-100.547-6.4-15.059-11.181-30.257-14.433-45.281-15.467 5.505-29.831 13.335-42.672 23.07 3.202 13.532 7.635 27.177 13.387 40.711z" fill="#fafcff"/></g><g><circle cx="98.282" cy="261.708" fill="#ffe4c2" r="41.871"/></g><g><circle cx="413.372" cy="261.708" fill="#ffe4c2" r="41.871"/></g><g><path d="m137.671 168.152c-4.104 76.992 8.189 217.157 152.126 217.157 66.752-15.161 116.583-74.853 116.583-146.193 0-2.208-.048-4.404-.144-6.588-.343-7.84-3.703-15.311-9.462-20.641-9.421-8.719-16.734-21.346-19.948-36.231-.024-.111-.048-.222-.071-.333-2.124-10.055-10.237-17.756-20.433-19.046-11.78-1.49-24.239 1.009-35.167 8.16-17.322 11.335-39.945 18.197-64.699 18.197-24.75 0-47.37-6.86-64.691-18.192-11.791-7.714-25.321-10.006-37.866-7.725-6.957 1.266-12.764 5.549-16.228 11.435z" fill="#fff2de"/></g><g><g><path d="m173.016 237.844c.02-2.35.094-4.687.221-7.01.409-7.449 3.511-14.564 8.885-19.738 9.018-8.682 15.996-20.996 19.115-35.438.009-.042.018-.083.027-.125.36-1.681.895-3.293 1.571-4.827-3.884-1.897-7.589-3.984-11.071-6.262-11.791-7.714-25.321-10.006-37.866-7.725-9.621 1.749-17.067 9.251-19.115 18.814-.009.042-.018.083-.027.125-3.119 14.442-10.097 26.756-19.115 35.438-5.374 5.175-8.477 12.289-8.885 19.738-.127 2.323-.202 4.66-.221 7.01-.696 83.728 68.205 152.284 151.928 151.184 10.757-.141 21.236-1.426 31.332-3.719-67.005-15.289-117.375-75.818-116.779-147.465z" fill="#ffe4c2"/></g></g><g><g><g><ellipse cx="173.674" cy="275.57" fill="#ffa1ac" rx="30.545" ry="24.325"/></g><g><path d="m308.693 275.57c0 13.434 13.675 24.325 30.545 24.325 3.307 0 6.492-.419 9.474-1.193 12.232-3.175 21.071-12.331 21.071-23.132 0-13.434-13.675-24.324-30.545-24.324-16.869 0-30.545 10.89-30.545 24.324z" fill="#ffa1ac"/></g></g><g><path d="m191.476 259.655c-4.143 0-7.5-3.358-7.5-7.5v-12.487c0-4.142 3.357-7.5 7.5-7.5s7.5 3.358 7.5 7.5v12.487c0 4.142-3.358 7.5-7.5 7.5z"/></g><g><path d="m321.437 259.655c-4.143 0-7.5-3.358-7.5-7.5v-12.487c0-4.142 3.357-7.5 7.5-7.5s7.5 3.358 7.5 7.5v12.487c0 4.142-3.358 7.5-7.5 7.5z"/></g><g><path d="m256.456 267.088c-8.732 0-17.038-3.782-22.786-10.377-2.721-3.123-2.396-7.86.727-10.582 3.122-2.722 7.859-2.397 10.582.726 2.897 3.325 7.081 5.232 11.478 5.232s8.58-1.907 11.478-5.232c2.723-3.124 7.459-3.448 10.582-.726s3.447 7.459.727 10.582c-5.75 6.595-14.056 10.377-22.788 10.377z"/></g></g></g><path d="m506.255 296.334c-10.361-47.077-32.118-83.452-53.853-90.9-.744-34.808-11.312-68.112-30.421-96.933 26.443-7.585 46.621-18.435 46.621-33.884 0-11.087-9.794-20.328-29.94-28.25-16.496-6.487-40.152-12.054-68.412-16.1-.071-.01-.142-.011-.213-.02-24.211-18.353-65.913-30.247-114.227-30.247-48.31 0-90.01 11.892-114.222 30.244-28.251 4.035-51.912 9.587-68.438 16.062-20.252 7.935-30.097 17.196-30.097 28.312 0 13.812 15.294 24.95 46.608 33.846-19.143 28.857-29.721 62.211-30.448 97.071-13.203 4.64-23.855 18.722-30.629 30.116-9.712 16.336-17.823 37.887-22.841 60.684-5.746 26.103-7.092 51.652-3.789 71.94 3.681 22.616 12.985 36.674 26.197 39.582 3.47.764 8.357.961 14.187-1.198 11.422 27.533 29.458 49.416 51.604 62.555-2.024 10.24.43 20.704 6.868 28.994 6.807 8.764 17.078 13.791 28.181 13.791h254.043c11.103 0 21.373-5.026 28.18-13.79 6.446-8.301 8.897-18.781 6.86-29.034 22.125-13.145 40.176-35.033 51.583-62.518 5.828 2.159 10.715 1.962 14.187 1.198 13.213-2.909 22.518-16.966 26.198-39.582 3.305-20.287 1.959-45.836-3.787-71.939zm-92.374-57.218c0-2.292-.051-4.618-.151-6.915-.072-1.636-.26-3.258-.543-4.86.062 0 .123-.005.185-.005 18.952 0 34.371 15.418 34.371 34.371s-15.419 34.371-34.371 34.371c-3.281 0-6.48-.46-9.566-1.354 6.614-17.546 10.075-36.319 10.075-55.608zm39.721-164.498c0 3.396-8.653 12.426-41.041 20.91-5.058-6.376-10.56-12.489-16.507-18.29-2.375-2.316-3.677-5.553-3.667-9.114v-.104c0-6.959-2.005-13.642-5.736-19.919 54.098 9.778 66.951 22.466 66.951 26.517zm-395.548 0c0-4.059 12.863-16.738 66.91-26.51-3.728 6.276-5.732 12.955-5.732 19.912v.104c.01 3.561-1.292 6.798-3.667 9.114-5.929 5.783-11.416 11.875-16.46 18.23-33.272-8.734-41.051-17.8-41.051-20.85zm47.107 37.775c1.292.293 2.602.583 3.935.871 39.274 8.473 91.385 13.14 146.731 13.14 25.901 0 51.173-1.02 75.111-3.032 4.128-.347 7.192-3.974 6.846-8.102-.348-4.128-3.989-7.196-8.102-6.846-23.523 1.977-48.371 2.979-73.855 2.979-52.829 0-102.505-4.302-140.395-12.134 3.349-3.885 6.879-7.657 10.606-11.293 5.307-5.175 8.216-12.241 8.194-19.956 0-25.605 48.853-53.02 121.577-53.02s121.576 27.415 121.576 53.081c-.021 7.655 2.888 14.72 8.194 19.896 3.74 3.648 7.282 7.434 10.641 11.333-9.918 2.033-21.436 3.975-34.802 5.73-4.106.539-6.999 4.306-6.46 8.413.496 3.775 3.719 6.524 7.427 6.524.325 0 .655-.021.986-.065 14.14-1.856 29.078-4.292 43.12-7.469 20.123 28.434 30.96 61.937 30.96 96.944 0 3.028-.1 6.063-.264 9.093-7.067-3.909-15.185-6.142-23.816-6.142-2.037 0-4.071.14-6.086.388-1.56-2.309-3.368-4.446-5.417-6.342-8.651-8.007-14.941-19.481-17.703-32.272l-.072-.337c-2.795-13.239-13.577-23.26-26.829-24.938-14.033-1.774-28.314 1.537-40.215 9.326-16.727 10.945-38.246 16.973-60.593 16.973-22.344 0-43.859-6.026-60.585-16.968-12.884-8.429-28.266-11.565-43.313-8.828-12.536 2.279-22.391 11.944-25.106 24.622h.001l-.025.113c-2.684 12.428-8.716 23.657-16.986 31.619-2.204 2.123-4.107 4.505-5.694 7.081-2.139-.28-4.3-.436-6.464-.436-8.646 0-16.776 2.241-23.852 6.162-.165-3.037-.264-6.079-.264-9.114-.002-35.029 10.848-68.551 30.993-96.994zm-6.879 114.944c.428 0 .856.017 1.283.032-.136 1.009-.24 2.027-.297 3.055-.133 2.441-.211 4.916-.231 7.357-.162 19.477 3.269 38.592 10.052 56.555-3.459 1.148-7.074 1.742-10.807 1.742-18.952 0-34.37-15.418-34.37-34.371s15.418-34.37 34.37-34.37zm-44.9 166.25c-.783-2.208-2.553-3.924-4.784-4.638-2.235-.715-4.67-.343-6.588 1-4.036 2.826-7.61 3.922-10.631 3.257-6.604-1.454-12.068-11.675-14.618-27.342-3.005-18.462-1.715-42.011 3.633-66.306 8.773-39.854 25.611-68.45 39.225-77.518.188 2.708.441 5.405.748 8.088-7.146 8.566-11.455 19.577-11.455 31.579 0 27.223 22.147 49.371 49.37 49.371 5.823 0 11.457-.99 16.82-2.94 2.931 5.954 6.227 11.758 9.928 17.357 2.284 3.456 6.938 4.406 10.392 2.122 3.456-2.284 4.406-6.937 2.122-10.392-15.614-23.626-23.743-51.054-23.507-79.319.019-2.211.089-4.453.209-6.663.313-5.714 2.657-10.951 6.598-14.745 10.395-10.007 17.939-23.949 21.242-39.249.012-.049.022-.098.033-.147 1.438-6.712 6.588-11.817 13.122-13.005 11.25-2.046 22.765.306 32.417 6.623 19.139 12.521 43.571 19.416 68.798 19.416 25.23 0 49.666-6.897 68.806-19.422 8.923-5.839 19.617-8.322 30.119-6.996 6.919.875 12.56 6.162 14.036 13.157l.078.364c3.414 15.812 11.293 30.073 22.186 40.153 4.229 3.914 6.805 9.55 7.062 15.464.092 2.08.138 4.186.138 6.259 0 77.509-63.034 141.395-140.515 142.412-38.135.48-74.241-14.062-101.637-41.009-2.95-2.903-7.7-2.866-10.605.088-2.905 2.953-2.865 7.702.088 10.606 6.32 6.216 13.063 11.83 20.156 16.826-3.679 2.348-7.255 4.837-10.723 7.455-.308.204-.604.424-.876.668-9.956 7.62-18.999 16.32-26.97 25.896-2.882-3.92-5.424-8.272-7.509-12.88-3.768-8.33-5.889-17.097-6.133-25.355-.122-4.14-3.567-7.411-7.719-7.275-4.141.123-7.397 3.578-7.275 7.718.303 10.222 2.883 20.974 7.46 31.094 3.14 6.941 7.174 13.424 11.81 19.056-8.435 12.276-15.238 25.675-20.137 39.843-19.71-12.877-35.506-34.13-44.914-60.671zm290.372-8.759c-3.04 11.753-6.998 23.401-11.796 34.692-11.022 25.935-26.169 49.406-44.208 68.701-7.663-6.227-14.974-13.179-21.859-20.764 1.845-2.28 3.655-4.596 5.423-6.951 12.167-16.216 22.476-34.196 30.73-53.619.709-1.669 1.401-3.349 2.077-5.036.243-.607.474-1.219.713-1.827.427-1.089.856-2.177 1.269-3.27.263-.697.513-1.397.771-2.096.372-1.011.746-2.022 1.104-3.035.26-.734.507-1.468.76-2.203.228-.663.464-1.326.686-1.989 7.784-2.774 15.336-6.155 22.59-10.134 4.039 2.337 7.958 4.847 11.74 7.531zm-110.758 112.172c-21.896-20.752-40.17-47.468-52.926-77.48-4.799-11.291-8.757-22.938-11.796-34.691 3.962-2.811 8.072-5.434 12.313-7.864 7.038 3.909 14.348 7.252 21.874 10.016 2.225 6.68 4.745 13.371 7.522 19.906 15.245 35.87 37.867 67.164 64.855 90.113zm57.824-102.32c-.207.525-.405 1.053-.615 1.577-.64 1.596-1.294 3.185-1.964 4.763-8.516 20.037-19.341 38.42-32.221 54.758-12.765-16.212-23.71-34.708-32.231-54.758-1.218-2.866-2.375-5.766-3.487-8.679 11.724 2.768 23.835 4.2 36.156 4.2.699 0 1.406-.004 2.106-.014 11.258-.148 22.324-1.482 33.062-3.922-.266.693-.534 1.384-.806 2.075zm-178.16 94.329c-3.993-5.142-5.354-11.729-3.733-18.07 7.529-29.459 23.969-55.96 46.572-75.964 2.948 10.299 6.548 20.488 10.767 30.412 11.426 26.882 27.053 51.324 45.681 71.613h-82.953c-6.437 0-12.39-2.913-16.334-7.991zm286.708 0c-3.943 5.078-9.896 7.991-16.332 7.991h-82.953c18.628-20.289 34.256-44.732 45.68-71.613 4.218-9.924 7.818-20.113 10.767-30.411 22.602 20.006 39.045 46.509 46.573 75.964 1.62 6.341.259 12.927-3.735 18.069zm95.871-123.144c-2.55 15.667-8.015 25.889-14.618 27.342-3.021.663-6.597-.431-10.631-3.257-1.919-1.344-4.354-1.716-6.587-1.001-2.232.714-4.002 2.429-4.785 4.638-9.389 26.486-25.194 47.765-44.891 60.654-4.902-14.166-11.707-27.566-20.144-39.842 4.629-5.628 8.657-12.104 11.793-19.038 4.578-10.12 7.158-20.872 7.461-31.094.122-4.14-3.135-7.596-7.275-7.718-4.129-.133-7.597 3.134-7.719 7.275-.244 8.258-2.365 17.025-6.134 25.355-2.081 4.602-4.619 8.947-7.495 12.862-7.968-9.569-17.005-18.263-26.954-25.878-.269-.242-.561-.459-.866-.662-3.277-2.475-6.652-4.83-10.118-7.064 7.872-5.49 15.302-11.729 22.186-18.699 12.097-12.247 21.942-26.141 29.34-41.165 4.996 1.664 10.213 2.505 15.57 2.505 27.224 0 49.371-22.147 49.371-49.371 0-12.02-4.323-23.046-11.488-31.617.315-2.759.578-5.532.766-8.318 13.707 8.707 30.662 37.247 39.585 77.786 5.348 24.296 6.638 47.844 3.633 66.307z"/></g></svg>