<svg id="Capa_1" enable-background="new 0 0 512 512" height="512" viewBox="0 0 512 512" width="512" xmlns="http://www.w3.org/2000/svg"><g><g><g><path d="m325.84 333.09c-8.106 44.692-31.343 94.932-69.7 130.72-34.623-36.949-59.443-86.731-69.7-130.72 21.52-8.77 45.05-13.59 69.7-13.59 24.66 0 48.19 4.82 69.7 13.59z" fill="#ffddcf"/><path d="m227.67 504.5h-146.25c-5.78 0-10.31-4.88-9.98-10.65 3.14-55.25 30.52-104.01 71.67-135.81 39.478 44.772 67.591 93.619 84.56 146.46z" fill="#f9d171"/><path d="m186.44 333.09 69.7 120.72c-1.361 21.59-11.877 37.725-28.87 50l-84.16-145.77c13.15-10.17 27.71-18.6 43.33-24.95z" fill="#c9885a"/><path d="m430.86 504.5h-146.25c14.402-54.127 43.038-102.773 84.56-146.46 41.15 31.8 68.53 80.56 71.67 135.81.32 5.77-4.21 10.65-9.98 10.65z" fill="#fad989"/><path d="m369.169 358.04-84.56 146.46h-57.74l98.97-171.41c15.62 6.35 30.18 14.78 43.33 24.95z" fill="#d0976f"/><g><g><path d="m395.85 227.56c0 58.89-33.7 109.6-82.13 132.42-73.57 0-124.455-61.646-124.455-123.276 0-64.76 56.828-136.059 133.225-137.044 43.68 24.56 73.36 72.62 73.36 127.9z" fill="#ffddcf"/><g><path d="m313.719 359.98c-17.56 8.27-37.05 12.87-57.58 12.87-77.16 0-139.7-65.05-139.7-145.29 0-80.25 62.54-145.3 139.7-145.3 24.01 0 46.61 6.3 66.35 17.4-61.09 12.42-107.07 66.45-107.07 131.21 0 61.63 41.63 113.53 98.3 129.11z" fill="#ffcbbe"/></g></g></g><ellipse cx="388.592" cy="241.05" fill="#ffddcf" rx="37.255" ry="47.263"/><ellipse cx="123.694" cy="241.05" fill="#ffcbbe" rx="37.255" ry="47.263"/><g><path d="m409.841 202.236-8.961-44.146c-95.27-117.651-192.013-116.109-289.614.41l-8.827 43.732 17.603 39.606c4.387 9.87 19.138 6.739 19.138-4.061v-50.435c0-12.976 12.165-22.516 24.766-19.424l44.505 10.921c31.299 7.68 63.989 7.683 95.289.009l44.598-10.935c12.601-3.09 24.763 6.451 24.763 19.425v50.44c0 10.801 14.752 13.931 19.138 4.061z" fill="#8697a6"/></g><path d="m266.679 184.32c-19.51 1.03-39.13-.79-58.23-5.48l-44.5-10.92c-12.6-3.09-24.77 6.45-24.77 19.42v50.44c0 10.8-14.75 13.93-19.14 4.06l-17.6-39.61 8.83-43.73c46.4-55.4 92.61-84.81 138.56-87.77-7.87 13.65-12.35 29.36-12.35 46.07 0 26.38 11.16 50.25 29.2 67.52z" fill="#7c8798"/><g><g><g><g><ellipse cx="176.584" cy="282.288" fill="#ffa1ac" rx="29.355" ry="23.377"/></g><g><ellipse cx="335.697" cy="282.288" fill="#ffa1ac" rx="29.355" ry="23.377"/></g></g></g></g></g><g><path d="m479.61 183.828c-81.989 12.902-161.935 13.647-239.46 0-39.89-24.569-63.222-51.938-63.222-92.008 0-19.05 13.204-47.974 28.672-64.772 15.64-8.24 30.77-14.61 44.89-18.76 3.6-1.05 7.42-1.05 11.02 0 67.79 19.949 158.9 90.819 218.1 175.54z" fill="#fce3a0"/><path d="m240.15 183.828c-64.06 21.41-133.997 18.591-207.76 0 46.87-67.07 113.75-125.47 173.21-156.78-7.18 16.7-11.12 34.91-11.12 53.96 0 40.07 17.43 76.369 45.67 102.82z" fill="#fad989"/><path d="m480.98 213.828h-449.96c-7.92 0-12.69-8.76-8.41-15.43 3.15-4.9 6.41-9.76 9.78-14.57h447.22c3.37 4.81 6.63 9.67 9.78 14.57 4.28 6.67-.49 15.43-8.41 15.43z" fill="#fab658"/></g></g><g><g><path d="m193.692 267.285c-4.142 0-7.5-3.358-7.5-7.5v-12c0-4.142 3.358-7.5 7.5-7.5s7.5 3.358 7.5 7.5v12c0 4.142-3.358 7.5-7.5 7.5z"/><path d="m318.589 267.285c-4.142 0-7.5-3.358-7.5-7.5v-12c0-4.142 3.358-7.5 7.5-7.5s7.5 3.358 7.5 7.5v12c0 4.142-3.358 7.5-7.5 7.5z"/><path d="m256.141 274.428c-8.478 0-16.54-3.671-22.118-10.073-2.721-3.123-2.396-7.86.727-10.582 3.123-2.721 7.86-2.396 10.582.727 2.729 3.132 6.669 4.928 10.81 4.928s8.081-1.796 10.81-4.928c2.722-3.123 7.459-3.448 10.582-.727 3.123 2.722 3.448 7.459.727 10.582-5.581 6.402-13.643 10.073-22.12 10.073z"/></g><path d="m495.699 194.346c-23.605-36.726-54.596-72.99-89.621-104.871-3.062-2.787-7.806-2.565-10.595.498-2.788 3.063-2.565 7.807.498 10.595 25.706 23.399 49.162 49.199 68.968 75.763h-417.877c25.039-33.532 55.994-65.989 89.338-93.444 40.476-33.327 81.742-57.265 116.182-67.399 2.23-.651 4.587-.651 6.801-.005 32.619 9.6 71.807 31.85 110.345 62.653 3.235 2.587 7.955 2.06 10.541-1.176 2.586-3.235 2.06-7.955-1.176-10.541-40.023-31.99-81.032-55.19-115.492-65.331-4.979-1.454-10.242-1.454-15.237.005-36.349 10.696-79.499 35.631-121.499 70.214-43.122 35.506-82.391 79.2-110.576 123.04-3.464 5.4-3.707 12.249-.632 17.874 3.069 5.617 8.953 9.106 15.355 9.106h50.891c-1.958 6.241-2.971 12.904-2.971 19.722 0 30.195 20.075 54.76 44.75 54.76.226 0 .451-.003.677-.007 7.438 15.451 17.444 29.623 29.75 41.905.732.731 1.471 1.452 2.215 2.165-24.702 15.018-45.891 35.538-61.692 59.84-18.182 27.963-28.793 60.367-30.687 93.707-.276 4.826 1.463 9.603 4.771 13.106 3.284 3.478 7.912 5.472 12.697 5.472h349.439c4.845 0 9.348-1.939 12.679-5.461 3.312-3.5 5.057-8.277 4.789-13.114-1.894-33.343-12.505-65.747-30.687-93.71-15.801-24.302-36.99-44.823-61.692-59.84.744-.713 1.483-1.435 2.215-2.165 12.306-12.282 22.311-26.454 29.75-41.905.226.004.451.007.677.007 24.681 0 44.76-24.565 44.76-54.76 0-6.826-1.012-13.488-2.969-19.72h50.599c6.402 0 12.286-3.489 15.355-9.106 3.071-5.623 2.828-12.472-.639-17.877zm-401.758 46.705c0-6.993 1.357-13.728 3.95-19.722h4.825l6.43 14.466c.781 15.288 3.732 30.168 8.679 44.24-13.605-3.651-23.884-19.743-23.884-38.984zm29.6-9.8c-.073-.184-.153-.364-.24-.54l-4.17-9.382h12.55v16.452c0 1.343-.666 2.166-1.979 2.445-1.319.28-2.261-.203-2.807-1.431zm63.644 218.129 27.493 47.62h-133.257c-.878 0-1.459-.419-1.791-.771-.286-.303-.757-.959-.701-1.953 1.746-30.738 11.528-60.609 28.288-86.384 9.368-14.407 20.788-27.373 33.801-38.477l28.668 49.656c1.389 2.406 3.91 3.751 6.502 3.751 1.272 0 2.562-.324 3.743-1.006 3.587-2.071 4.816-6.658 2.745-10.245l-29.729-51.492c4.949-3.545 10.083-6.839 15.38-9.863 9.218 7.131 19.141 13.069 29.582 17.737l49.57 85.856-20.208 35-27.095-46.928c-2.071-3.588-6.658-4.817-10.245-2.745-3.588 2.07-4.817 6.657-2.746 10.244zm32.478-73.749c11.793 3.114 24.029 4.719 36.477 4.719s24.683-1.605 36.476-4.719l-36.477 63.177zm185.402 32.26c16.759 25.775 26.541 55.646 28.287 86.374.055.999-.42 1.66-.709 1.964-.332.352-.911.77-1.783.77h-133.26l73.663-127.586c13.013 11.104 24.434 24.071 33.802 38.478zm-45.732-47.814-79.054 136.923h-40.418l74.51-129.048c10.44-4.667 20.364-10.606 29.582-17.737 5.297 3.024 10.431 6.317 15.38 9.862zm26.054-121.284c-.547 1.23-1.491 1.711-2.808 1.433-1.313-.279-1.979-1.102-1.979-2.445v-16.45h12.549zm32.963 2.258c0 19.242-10.284 35.334-23.894 38.984 4.947-14.072 7.899-28.952 8.679-44.24l6.429-14.464h4.835c2.593 5.977 3.951 12.712 3.951 19.72zm64.822-36.019c-.265.485-.902 1.299-2.192 1.299h-242.01c-4.142 0-7.5 3.358-7.5 7.5s3.358 7.5 7.5 7.5h126.63v16.45c0 8.478 5.571 15.356 13.864 17.117 1.299.276 2.588.41 3.852.41.808 0 1.605-.055 2.388-.163-5.307 27.307-18.466 52.315-38.136 71.947-24.721 24.671-57.19 38.259-91.427 38.259s-66.706-13.587-91.427-38.259c-19.671-19.632-32.829-44.64-38.137-71.947.783.107 1.58.163 2.388.163 1.264 0 2.553-.134 3.852-.41 8.292-1.761 13.864-8.64 13.864-17.117v-16.452h57.29c4.142 0 7.5-3.358 7.5-7.5s-3.358-7.5-7.5-7.5h-172.95c-1.29 0-1.927-.814-2.192-1.299-.268-.491-.613-1.479.091-2.575 2.385-3.71 4.853-7.42 7.398-11.124h439.369c2.539 3.699 5.004 7.408 7.39 11.12.708 1.102.363 2.09.095 2.581z"/></g></g></svg>