<svg id="Capa_1" enable-background="new 0 0 512.11 512.11" height="512" viewBox="0 0 512.11 512.11" width="512" xmlns="http://www.w3.org/2000/svg"><g><g><g><path d="m451.014 353.207c-26.662-22.208-60.474-34.438-95.207-34.438-33.476 0-65.419 11.071-91.261 31.068 19.797 1.027 38.636 5.67 55.87 13.286 11.244-3.777 23.164-5.764 35.361-5.764 25.731 0 50.779 9.061 70.53 25.511 30.319 25.254 43.645 63.452 38.645 99.935-1.576 11.502 7.535 21.696 19.144 21.696 9.626 0 17.825-7.088 19.116-16.627 6.659-49.178-11.336-100.631-52.198-134.667z" fill="#f6375d"/></g><g><path d="m382.988 504.61c18.513 0 31.917-17.482 27.333-35.418-17.57-68.751-79.924-119.582-154.149-119.582s-136.579 50.831-154.149 119.582c-4.584 17.936 8.82 35.418 27.333 35.418z" fill="#ff8a98"/></g><g><path d="m138.345 242.655c10.586 21.397.63 47.355-21.026 57.399s-47.355.63-57.399-21.026c-10.044-21.657-18.258-39.367-34.089-73.501s71.82-45.129 112.514 37.128z" fill="#ff758f"/></g><g><path d="m373.786 242.655c-10.586 21.397-.63 47.355 21.026 57.399 21.657 10.044 47.355.63 57.399-21.026 10.044-21.657 18.258-39.367 34.089-73.501 15.832-34.134-71.82-45.129-112.514 37.128z" fill="#ff758f"/></g><g><path d="m131.904 409.366c-16.78-3.781-32.416-11.5-46.075-22.877-22.61-18.833-36.537-45.388-39.215-74.775-2.678-29.386 6.219-58.022 25.052-80.632 6.81-8.178 5.699-20.373-2.478-27.185-3.462-2.884-7.846-4.472-12.345-4.472-5.753 0-11.162 2.533-14.84 6.949-52.564 63.107-43.987 157.213 19.119 209.777 15.034 12.523 31.843 21.765 49.817 27.52 5.539-12.351 12.609-23.865 20.965-34.305z" fill="#f6375d"/></g><g><path d="m172.836 469.192c14.689-57.478 60.682-102.422 118.742-115.618-11.387-2.588-23.236-3.963-35.407-3.963-74.226 0-136.579 50.831-154.149 119.582-4.584 17.936 8.82 35.418 27.333 35.418h70.814c-18.513-.001-31.916-17.483-27.333-35.419z" fill="#ff758f"/></g><g><path d="m297.337 54.521c-133.037 0-169.152 81.399-169.152 162.885 0 81.485 47.892 162.884 169.152 162.884 72.863-18.362 126.8-84.321 126.8-162.884s-53.937-144.523-126.8-162.885z" fill="#ff8a98"/></g><g><path d="m170.537 217.405c0-78.564 53.938-144.522 126.8-162.884-13.176-3.321-26.969-5.092-41.176-5.092-92.771 0-167.976 75.206-167.976 167.977s75.205 167.976 167.976 167.976c14.207 0 28-1.772 41.176-5.092-72.862-18.363-126.8-84.322-126.8-162.885z" fill="#ff758f"/></g><g><g><g><ellipse cx="173.052" cy="273.184" fill="#fff" rx="30.666" ry="24.42"/></g><g><ellipse cx="339.27" cy="273.184" fill="#fff" rx="30.666" ry="24.42"/></g><g><path d="m292.006 257.618c0-15.502-16.048-16.958-35.845-16.958s-35.845 1.456-35.845 16.958 16.049 28.068 35.845 28.068c19.797.001 35.845-12.566 35.845-28.068z" fill="#495560"/></g><g><path d="m256.161 293.187c-23.901 0-43.345-15.956-43.345-35.568 0-7.237 2.687-16.817 15.491-21.361 7.245-2.571 16.375-3.098 27.854-3.098 11.48 0 20.61.527 27.855 3.098 12.803 4.543 15.49 14.124 15.49 21.361 0 19.611-19.444 35.568-43.345 35.568zm0-45.027c-23.961 0-28.345 3.185-28.345 9.458 0 11.149 12.98 20.568 28.345 20.568s28.345-9.419 28.345-20.568c0-6.273-4.384-9.458-28.345-9.458z"/></g><g><path d="m203.009 229.187c-.433 0-.871-.038-1.311-.115l-21.726-3.831c-4.08-.72-6.803-4.609-6.084-8.688.719-4.08 4.613-6.804 8.688-6.084l21.726 3.831c4.08.72 6.803 4.609 6.084 8.688-.641 3.638-3.806 6.199-7.377 6.199z"/></g><g><path d="m309.313 229.187c-3.571 0-6.735-2.56-7.377-6.199-.72-4.079 2.004-7.969 6.083-8.688l21.726-3.831c4.079-.718 7.97 2.004 8.688 6.084.72 4.079-2.004 7.969-6.083 8.688l-21.726 3.831c-.44.077-.879.115-1.311.115z"/></g></g><g><path d="m190.924 257.079c-4.142 0-7.5-3.358-7.5-7.5v-12.342c0-4.142 3.358-7.5 7.5-7.5s7.5 3.358 7.5 7.5v12.342c0 4.142-3.358 7.5-7.5 7.5z"/></g><g><path d="m321.398 257.079c-4.143 0-7.5-3.358-7.5-7.5v-12.342c0-4.142 3.357-7.5 7.5-7.5s7.5 3.358 7.5 7.5v12.342c0 4.142-3.358 7.5-7.5 7.5z"/></g></g><g><path d="m174.428 67.988h-6.879c-14.319 0-27.41-8.09-33.813-20.898l-17.212-34.424c-1.584-3.166-4.82-5.166-8.359-5.166-5.162 0-9.346 4.184-9.346 9.346v36.02c0 41.758 33.851 75.609 75.609 75.609 16.703 0 30.244-13.541 30.244-30.244 0-16.703-13.541-30.243-30.244-30.243z" fill="#617184"/></g><g><path d="m337.703 67.988h6.879c14.319 0 27.41-8.09 33.813-20.898l17.212-34.424c1.583-3.166 4.819-5.166 8.359-5.166 5.162 0 9.346 4.184 9.346 9.346v36.02c0 41.758-33.852 75.609-75.609 75.609-16.703 0-30.244-13.541-30.244-30.244 0-16.703 13.541-30.243 30.244-30.243z" fill="#617184"/></g><g><g><path d="m56.151 242.101c-4.458-8.489-13.172-13.888-22.758-14.102-25.372-.565-35.378-33.135-14.7-47.848l56.333-40.083c19.04-13.547 44.988 2.532 41.332 25.611l-10.817 68.287c-3.971 25.066-37.59 30.604-49.39 8.135z" fill="#fa4a6e"/></g></g><g><path d="m309.595 350.324c-5.683-18.215-27.488-31.782-53.523-31.782-25.806 0-47.455 13.331-53.368 31.305-5.922 16.302-2 37.369 11.282 42.936 3.389 1.42 7.072 1.694 10.801 1.061 6.301 14.744 17.957 26.211 31.292 26.211 13.334 0 24.98-11.466 31.273-26.21 3.728.631 7.408.357 10.795-1.062 13.154-5.513 17.124-26.226 11.448-42.459z" fill="#617184"/></g><g><path d="m265.677 393.845c-3.73.633-7.412.359-10.801-1.061-13.282-5.567-17.204-26.634-11.282-42.936 4.257-12.94 16.67-23.472 32.919-28.358-6.319-1.899-13.216-2.947-20.441-2.947-25.806 0-47.455 13.33-53.368 31.305-5.922 16.302-2 37.369 11.282 42.936 3.389 1.42 7.071 1.694 10.801 1.061 6.301 14.744 17.957 26.211 31.292 26.211 7.586 0 14.623-3.714 20.441-9.628-4.412-4.482-8.126-10.227-10.843-16.583z" fill="#455060"/></g></g><path d="m501.951 412.216c-9.477-25.126-25.431-47.524-46.138-64.772-16.246-13.532-35.327-23.692-55.667-29.727 1.572-2.251 3.092-4.529 4.55-6.838 2.756.459 5.514.697 8.25.697 19.37 0 37.631-11.2 46.068-29.393l34.089-73.501c4.598-9.913 3.051-19.633-4.244-26.667-12.331-11.889-37.319-12.773-61.336-2.737-5.358-24.359-15.894-47.217-31.245-67.516 15.143-15.062 24.533-35.901 24.533-58.896v-36.02c.002-9.289-7.555-16.846-16.844-16.846-6.423 0-12.196 3.568-15.067 9.312l-17.212 34.423c-5.166 10.333-15.553 16.752-27.105 16.752h-6.879c-.918 0-1.826.044-2.728.109-24.576-12.38-51.083-18.668-78.814-18.668-27.735 0-54.261 6.289-78.852 18.68-.952-.072-1.911-.121-2.881-.121h-6.879c-11.553 0-21.939-6.419-27.105-16.752l-17.213-34.422c-2.871-5.745-8.645-9.313-15.068-9.313-9.289 0-16.846 7.557-16.846 16.846v36.02c0 23.052 9.44 43.937 24.649 59.007-4.465 5.924-8.558 12.137-12.235 18.567-10.838-4.761-23.12-3.551-33.055 3.518l-56.333 40.082c-12.101 8.61-17.102 23.347-12.74 37.543 2.61 8.497 8.118 15.25 15.292 19.39-15.134 29.888-20.294 64.209-14.511 97.559 6.333 36.522 25.488 69.686 53.937 93.382 13.574 11.306 28.562 20.088 44.641 26.194-2.447 6.253-4.532 12.669-6.208 19.226-2.776 10.863-.436 22.157 6.42 30.985 6.806 8.764 17.077 13.791 28.18 13.791h253.632c11.103 0 21.374-5.027 28.181-13.791 6.855-8.828 9.195-20.122 6.419-30.984-3.81-14.907-9.685-29.218-17.463-42.536-2.089-3.577-6.684-4.784-10.259-2.693-3.577 2.089-4.783 6.682-2.694 10.259 7.075 12.113 12.419 25.128 15.883 38.684 1.621 6.342.26 12.928-3.733 18.07-3.943 5.079-9.897 7.991-16.333 7.991h-253.633c-6.436 0-12.389-2.913-16.333-7.991-3.994-5.143-5.354-11.729-3.734-18.071 10.21-39.949 36.665-74.306 72.716-94.574 4.356 2.037 8.802 3.883 13.317 5.552 2.908 7.93 8.111 14.466 15.766 17.674 2.875 1.205 5.921 1.858 9.105 1.957 8.403 16.104 21.807 25.898 35.887 25.898 14.077 0 27.474-9.793 35.871-25.898 3.181-.099 6.225-.753 9.097-1.957 7.564-3.17 12.738-9.666 15.658-17.552 4.644-1.707 9.195-3.6 13.645-5.673 14.57 8.19 27.626 18.665 38.814 31.166 1.481 1.655 3.532 2.498 5.592 2.498 1.78 0 3.567-.63 4.999-1.912 3.086-2.762 3.349-7.504.587-10.59-10.164-11.356-21.732-21.191-34.484-29.346 2.075-1.233 4.12-2.511 6.139-3.827.756.257 1.563.402 2.405.402h.09c.428-.005.856-.008 1.285-.008 23.98 0 47.323 8.443 65.729 23.774 27.415 22.835 40.878 57.66 36.015 93.155-1.036 7.561 1.263 15.213 6.307 20.996 5.11 5.858 12.498 9.218 20.269 9.218 13.35 0 24.763-9.939 26.549-23.12 3.493-25.809.487-52.319-8.695-76.665zm-23.503-219.404c1.764 1.701 3.477 4.324 1.049 9.559l-34.089 73.501c-5.966 12.863-18.902 20.757-32.593 20.698 12.369-24.391 18.823-51.329 18.823-79.166 0-7.732-.495-15.376-1.463-22.904 20.879-9.759 41.075-8.629 48.273-1.688zm-93.344-142.368 17.212-34.424c.315-.629.947-1.02 1.651-1.02 1.018 0 1.846.828 1.846 1.846v36.02c0 37.556-30.554 68.11-68.109 68.11-12.541 0-22.744-10.203-22.744-22.744s10.203-22.744 22.744-22.744h6.879c17.271 0 32.798-9.596 40.521-25.044zm-278.785 2.422v-36.02c0-1.018.828-1.846 1.846-1.846.704 0 1.336.391 1.651 1.021l17.212 34.423c7.724 15.448 23.25 25.044 40.521 25.044h6.879c12.541 0 22.744 10.203 22.744 22.744s-10.203 22.744-22.744 22.744c-37.556 0-68.109-30.555-68.109-68.11zm.723 381.563-.001-.044c-14.81-5.528-28.616-13.582-41.118-23.996-51.747-43.102-65.824-115.991-34.427-174.996.575.041 1.147.092 1.73.105 6.856.153 13.096 4.019 16.285 10.091.538 1.023 1.132 1.995 1.751 2.942-9.955 19.636-14.146 41.604-12.117 63.865 2.86 31.381 17.735 59.742 41.884 79.857 11.585 9.65 24.434 16.825 38.312 21.408l.047-.029c-4.606 6.616-8.734 13.567-12.346 20.797zm-27.792-170.695c1.894 0 3.817-.156 5.75-.475.564-.093 1.112-.222 1.664-.34 3.12 11.629 7.447 22.908 12.883 33.643-13.772.124-26.862-7.835-32.825-20.689l-5.65-12.184c-.035-.076-.078-.145-.115-.219.553-1.38 1.134-2.75 1.749-4.108 4.955 2.83 10.612 4.372 16.544 4.372zm49.913 137.212c-14.055-3.832-27.002-10.614-38.533-20.219-21.071-17.551-34.05-42.302-36.546-69.693-.781-8.571-.492-17.086.8-25.4 9.032 16.08 26.267 25.93 44.396 25.93 2.775 0 5.572-.238 8.363-.712 5.121 8.132 10.903 15.866 17.32 23.086 12.035 13.541 26.106 25.122 41.573 34.335-14.094 9.017-26.673 20.065-37.373 32.673zm166.085-15.08c-1.927.808-4.164 1.004-6.643.584-3.415-.58-6.789 1.26-8.15 4.45-5.616 13.154-15.184 21.654-24.375 21.654-9.198 0-18.773-8.501-24.396-21.658-1.194-2.795-3.932-4.553-6.893-4.553-.416 0-.836.035-1.257.106-2.483.42-4.72.224-6.649-.584-8.604-3.606-12.069-19.866-7.131-33.458.026-.072.051-.145.075-.217 4.984-15.151 24.432-26.148 46.243-26.148 22.071 0 41.569 11.151 46.362 26.515.025.082.053.162.081.242 4.707 13.46 1.176 29.529-7.267 33.067zm-39.176-74.824c-28.506 0-53.345 14.941-60.456 36.35-1.972 5.467-3.013 11.443-3.089 17.372-45.386-19.691-79.964-60.198-92.028-108.253 6.539-5.108 11.056-12.578 12.449-21.372l3.061-19.321c.648-4.091-2.143-7.933-6.234-8.581-4.089-.648-7.933 2.143-8.581 6.234l-3.061 19.321c-1.571 9.918-9.073 14.596-15.57 15.666-5.12.844-11.544-.251-16.325-5.1-.316-.438-.679-.846-1.093-1.213-.857-1.037-1.654-2.198-2.354-3.532-5.724-10.898-16.924-17.838-29.231-18.112-10.04-.224-15.683-7.029-17.617-13.324-1.934-6.294-1.084-15.094 7.098-20.916l56.333-40.083c7.534-5.36 15.725-3.858 20.878-.665s10.145 9.859 8.698 18.992l-3.268 20.629c-.648 4.091 2.143 7.933 6.234 8.581 4.09.648 7.933-2.143 8.581-6.234l3.268-20.629c1.625-10.255-1.313-20.144-7.833-27.539 3.459-6.196 7.352-12.175 11.609-17.873 13.356 9.16 29.503 14.534 46.886 14.534 20.812 0 37.744-16.932 37.744-37.744 0-12.286-5.903-23.216-15.019-30.113 18.708-7.427 38.494-11.19 59.008-11.19 20.473 0 40.211 3.75 58.877 11.143-9.151 6.894-15.079 17.847-15.079 30.16 0 20.812 16.932 37.744 37.744 37.744 17.44 0 33.634-5.411 47.015-14.626 20.895 27.871 31.919 60.972 31.919 96.056 0 64.199-38.635 122.309-97.066 147.464-.048-5.769-1.01-11.578-2.856-16.901-6.858-21.746-31.772-36.925-60.642-36.925zm239.707 175.825c-.782 5.777-5.805 10.133-11.684 10.133-3.437 0-6.704-1.486-8.965-4.078-2.227-2.553-3.203-5.785-2.749-9.099 5.57-40.654-9.859-80.548-41.276-106.716-17.363-14.462-38.561-23.562-60.841-26.334 7.177-6.153 13.87-12.907 20.023-20.21 20.484 5.167 39.759 14.942 55.926 28.407 37.637 31.349 56.166 79.161 49.566 127.897z"/></g></svg>