<svg id="Capa_1" enable-background="new 0 0 512.05 512.05" height="512" viewBox="0 0 512.05 512.05" width="512" xmlns="http://www.w3.org/2000/svg"><g><g><circle cx="255.682" cy="195.036" fill="#ff9b87" r="187.424"/></g><g><path d="m202.774 195.036c0-79.805 49.884-147.949 120.166-174.981-20.878-8.03-43.551-12.443-67.258-12.443-103.512 0-187.424 83.913-187.424 187.424s83.913 187.424 187.424 187.424c23.707 0 46.38-4.413 67.258-12.443-70.283-27.033-120.166-95.177-120.166-174.981z" fill="#ff8870"/></g><g><path d="m402.787 264.678-147.105-64.648-137.636 47.899-105.796 201.733c-12.211 23.284.664 54.777 22.393 54.777h442.763c21.73 0 34.604-31.493 22.393-54.777z" fill="#848484"/></g><g><path d="m176.606 338.942c0-46.373 14.33-89.392 38.791-124.891l-97.351 33.879-105.796 201.732c-12.211 23.284.664 54.777 22.393 54.777h216.81c-45.885-40.395-74.847-99.56-74.847-165.497z" fill="#6e6e6e"/></g><g><path d="m341.733 148.259c-7.111-13.559-20.523-18.928-32.299-12.93l-22.569 11.495c-19.821 10.095-41.858 10.095-61.679 0l-22.569-11.495c-11.776-5.998-25.189-.629-32.3 12.93l-52.271 99.671c4.518 7.343 10.84 13.846 18.077 17.329 10.039 4.831 19.205-.276 27.625-6.75 5.615-4.318 9.824-10.42 15.619-14.466 3.743-2.614 8.226-4.288 12.651-3.688 10.509 1.423 12.442 14.509 15.515 23.238 7.69 21.839 24.037 53.426 49.416 51.862 10.623-.655 19.642-7.322 26.087-16.126 3.062-4.182 6.225-8.894 7.762-13.93 2.053-6.726 4.103-13.425 7.366-19.61 5-9.477 14.502-19.982 25.619-16.547 5.618 1.736 9.977 6.86 14.576 10.488 12.069 9.521 27.906 16.942 43.248 15.908 8.858-.597 15.779-4.83 21.18-10.958z" fill="#f7f7f7"/></g><g><path d="m192.018 240.353c2.596.351 4.666 1.416 6.362 2.949 24.36-50.504 67.418-90.285 120.186-110.392-3.063.113-6.15.9-9.132 2.418l-22.569 11.495c-19.821 10.095-41.858 10.095-61.679 0l-22.569-11.495c-11.776-5.998-25.189-.628-32.3 12.93l-52.271 99.671c4.518 7.343 10.84 13.846 18.077 17.328 10.039 4.832 19.205-.276 27.625-6.75 5.615-4.318 9.824-10.42 15.619-14.466 3.743-2.613 8.226-4.287 12.651-3.688z" fill="#eaeaea"/></g><g><g><path d="m205.498 414.55c0 12.906-13.139 23.369-29.344 23.369-16.207 0-29.345-10.463-29.345-23.369s13.138-23.369 29.345-23.369c16.205 0 29.344 10.463 29.344 23.369" fill="#fff"/></g><g><path d="m305.867 414.55c0 12.906 13.138 23.369 29.343 23.369 16.208 0 29.345-10.463 29.345-23.369s-13.137-23.369-29.345-23.369c-16.205 0-29.343 10.463-29.343 23.369" fill="#fff"/></g><g><path d="m193.255 399.555c-4.143 0-7.5-3.358-7.5-7.5v-11.996c0-4.142 3.357-7.5 7.5-7.5s7.5 3.358 7.5 7.5v11.996c0 4.142-3.357 7.5-7.5 7.5z"/></g><g><path d="m318.11 399.555c-4.143 0-7.5-3.358-7.5-7.5v-11.996c0-4.142 3.357-7.5 7.5-7.5s7.5 3.358 7.5 7.5v11.996c0 4.142-3.358 7.5-7.5 7.5z"/></g><g><path d="m255.682 406.695c-8.477 0-16.537-3.671-22.113-10.071-2.721-3.123-2.395-7.861.729-10.582 3.123-2.721 7.859-2.396 10.582.728 2.727 3.129 6.664 4.924 10.803 4.924s8.076-1.795 10.804-4.925c2.723-3.124 7.457-3.449 10.582-.727 3.122 2.721 3.448 7.459.727 10.582-5.579 6.4-13.638 10.071-22.114 10.071z"/></g></g><g><path d="m125.881 362.608h-97.428c-11.51 0-20.928-9.417-20.928-20.928 0-11.51 9.417-20.928 20.928-20.928h97.429c11.51 0 20.928 9.417 20.928 20.928-.001 11.51-9.418 20.928-20.929 20.928z" fill="#cff9ff"/></g><g><path d="m52.972 341.68c0-11.51 9.417-20.928 20.928-20.928h-45.447c-11.51 0-20.928 9.417-20.928 20.928 0 11.51 9.417 20.928 20.928 20.928h45.447c-11.511 0-20.928-9.418-20.928-20.928z" fill="#b5efff"/></g><g><path d="m483.597 405.463h-71.438c-11.51 0-20.928-9.417-20.928-20.928 0-11.51 9.418-20.928 20.928-20.928h71.438c11.51 0 20.928 9.417 20.928 20.928 0 11.511-9.418 20.928-20.928 20.928z" fill="#cff9ff"/></g><g><path d="m433.55 384.535c0-11.51 9.418-20.928 20.928-20.928h-42.319c-11.51 0-20.928 9.418-20.928 20.928s9.417 20.928 20.928 20.928h42.319c-11.51 0-20.928-9.417-20.928-20.928z" fill="#b5efff"/></g><path d="m506.442 446.178-17.672-33.695c13.212-2.44 23.255-14.04 23.255-27.948 0-15.675-12.753-28.428-28.428-28.428h-24.392l-34.003-64.836c16.612-29.212 25.403-62.426 25.403-96.235 0-27.421-5.583-53.938-16.594-78.816-10.635-24.028-25.786-45.362-45.034-63.408-3.023-2.835-7.77-2.679-10.602.341-2.833 3.022-2.68 7.768.342 10.601 36.685 34.395 56.888 81.019 56.888 131.282 0 27.922-6.477 55.408-18.818 80.191l-68.414-130.451c-9.041-17.239-26.849-24.021-42.346-16.13l-22.567 11.494c-17.691 9.012-37.18 9.012-54.871 0l-22.568-11.495c-15.498-7.892-33.305-1.11-42.346 16.13l-68.764 131.12c-12.56-24.96-19.153-52.674-19.153-80.859 0-99.21 80.714-179.924 179.924-179.924 35.202 0 69.295 10.164 98.592 29.392 3.461 2.272 8.111 1.309 10.386-2.155 2.272-3.463 1.308-8.113-2.155-10.385-31.749-20.839-68.688-31.853-106.823-31.853-107.481 0-194.924 87.443-194.924 194.924 0 34.064 8.916 67.488 25.762 96.86l-11.2 21.357h-46.867c-15.675 0-28.428 12.752-28.428 28.428s12.753 28.428 28.428 28.428h17.05l-17.143 32.686c-1.924 3.668-.51 8.202 3.158 10.125 1.112.583 2.303.859 3.478.859 2.699 0 5.308-1.461 6.647-4.018l20.796-39.653h63.442c15.675 0 28.428-12.752 28.428-28.428s-12.753-28.428-28.428-28.428h-33.624l26.99-51.465c4.15 4.393 8.789 7.902 13.625 10.229 15.757 7.581 29.556-3.032 35.449-7.563 3.065-2.358 5.617-5.008 8.084-7.571 2.452-2.548 4.77-4.955 7.256-6.691 2.63-1.837 5.24-2.693 7.352-2.406 3.68.499 5.569 5.813 7.838 13.267.509 1.672 1.035 3.402 1.608 5.03 6.106 17.343 23.473 56.929 54.651 56.928.759 0 1.525-.023 2.301-.071 11.909-.734 23.159-7.546 31.677-19.182 3.518-4.805 7.028-10.09 8.884-16.171 1.995-6.539 3.88-12.715 6.826-18.299 3.044-5.769 10.004-14.966 16.771-12.881 2.516.778 5.195 3.165 8.032 5.693 1.313 1.171 2.672 2.381 4.112 3.518 15.41 12.157 33.038 18.538 48.398 17.503 6.775-.457 12.959-2.632 18.487-6.466l41.669 79.455h-30.107c-15.675 0-28.428 12.753-28.428 28.428s12.753 28.428 28.428 28.428h59.926l21.073 40.182c6.319 12.05 4.095 25.8-.913 34.081-2.193 3.627-7.038 9.712-14.839 9.712h-442.764c-7.801 0-12.646-6.085-14.839-9.712-5.008-8.281-7.232-22.031-.913-34.081l7.643-14.573c1.924-3.668.51-8.202-3.158-10.125-3.669-1.923-8.202-.51-10.125 3.159l-7.643 14.573c-7.944 15.147-7.41 34.307 1.361 48.81 6.514 10.772 16.601 16.95 27.674 16.95h442.764c11.073 0 21.16-6.178 27.674-16.95 8.771-14.505 9.305-33.664 1.361-48.812zm-367.133-104.498c0 7.404-6.023 13.428-13.428 13.428h-97.428c-7.404 0-13.428-6.023-13.428-13.428s6.023-13.428 13.428-13.428h97.429c7.404 0 13.427 6.024 13.427 13.428zm241.793-73.527c-11.684.783-25.569-4.43-38.098-14.313-1.088-.858-2.223-1.87-3.425-2.94-3.727-3.321-7.951-7.085-13.583-8.825-15.086-4.658-27.698 7.385-34.467 20.214-3.609 6.843-5.794 13.999-7.906 20.921-1.203 3.944-3.902 7.948-6.64 11.688-3.381 4.618-10.538 12.457-20.496 13.07-23.095 1.416-37.884-35.514-41.881-46.867-.466-1.323-.923-2.825-1.407-4.416-2.658-8.735-6.675-21.936-20.176-23.764-5.847-.792-12.225.973-17.951 4.972-3.689 2.576-6.631 5.632-9.476 8.587-2.181 2.266-4.241 4.407-6.421 6.083-8.902 6.846-14.454 8.509-19.8 5.938-4.452-2.143-8.909-6.077-12.608-11.056l50.19-95.703c5.216-9.944 14.159-13.854 22.254-9.73l22.568 11.495c22.084 11.247 46.404 11.247 68.488 0l22.568-11.495c8.089-4.124 17.038-.215 22.254 9.73l58.457 111.466c-3.716 3.007-7.822 4.633-12.444 4.945zm17.63 116.382c0-7.404 6.023-13.428 13.428-13.428h71.438c7.404 0 13.428 6.024 13.428 13.428s-6.023 13.428-13.428 13.428h-71.438c-7.405 0-13.428-6.024-13.428-13.428z"/></g></svg>