<svg id="Capa_1" enable-background="new 0 0 512 512" height="512" viewBox="0 0 512 512" width="512" xmlns="http://www.w3.org/2000/svg"><g><g><g><path d="m471.83 472.24h-144.93c-109.33-45.897-146.813-137.002-146.813-232.612 0-66.21 30.192-143.811 90.063-179.868h201.68c43.56 134.04 43.56 278.44 0 412.48z" fill="#fd7a6e"/><path d="m326.9 472.24h-286.73c-43.56-134.04-43.56-278.44 0-412.48h229.98c-36.41 49.55-57.91 110.74-57.91 176.95 0 95.61 44.85 180.75 114.66 235.53z" fill="#fb695b"/></g><path d="m484.008 467.708c-3.485 10.436-7.664 19.936-12.265 27.329-3.659 5.879-10.08 9.463-17.005 9.463h-397.476c-6.925 0-13.346-3.583-17.005-9.463-4.601-7.393-8.78-16.893-12.265-27.329-2.168-6.491 2.633-13.208 9.477-13.208h437.062c6.844 0 11.644 6.717 9.477 13.208z" fill="#fad989"/><g><path d="m504.3 97.02c.3 5.71-4.28 10.48-9.99 10.48h-269.49c-44.733-20-44.733-36.923-44.733-59.013 0-14.11 9.966-26.987 32.023-40.987h240.4c15.91 0 30.41 9.38 36.66 24 8.2 19.18 14.01 44.3 15.13 65.52z" fill="#fff8e6"/><g><path d="m202.8 47.52c0 22.09 8.08 42.67 22.02 59.98h-207.13c-5.71 0-10.29-4.77-9.99-10.48 1.12-21.22 6.93-46.34 15.13-65.52 6.25-14.62 20.75-24 36.66-24h152.62c-6.01 12.41-9.31 25.91-9.31 40.02z" fill="#fff1cf"/></g></g><g fill="#fad989"><circle cx="176" cy="107.5" r="20"/><circle cx="96" cy="107.5" r="20"/><circle cx="336" cy="107.5" r="20"/><circle cx="416" cy="107.5" r="20"/></g><g><path d="m209.418 465.536c-8.37 4.832-19.073 1.965-23.905-6.405l-132.5-229.497c-4.832-8.37-1.965-19.073 6.405-23.905 8.37-4.832 19.073-1.965 23.905 6.405l132.5 229.497c4.832 8.37 1.965 19.073-6.405 23.905z" fill="#e4996d"/><path d="m127.243 276.266-40.651 23.47c-5.27 3.043-12.013.712-14.28-4.935l-22.045-54.921 43.301-25 36.541 46.552c3.758 4.786 2.404 11.791-2.866 14.834z" fill="#fad989"/><g><path d="m86.92 253.36c-1.35.78-2.73 1.46-4.14 2.04-30.005-5.948-48.887-29.593-48.887-56.293 0-15.64 9.441-33.839 24.417-44.447 16.7-1.44 32.57 5.56 41.91 21.74 13.81 23.91 10.61 63.15-13.3 76.96z" fill="#fff8e6"/><path d="m82.78 255.4c-23.71 9.85-56.14-6.43-69.16-29-13.81-23.92-3.12-50.17 20.8-63.97 7.74-4.47 15.91-7.09 23.89-7.77-9.21 11.2-14.74 25.53-14.74 41.17 0 26.7 16.15 49.63 39.21 59.57z" fill="#fff1cf"/></g></g><g><path d="m302.582 465.536c8.37 4.832 19.073 1.965 23.905-6.405l132.5-229.497c4.832-8.37 1.965-19.073-6.405-23.905-8.37-4.832-19.073-1.965-23.905 6.405l-132.5 229.497c-4.832 8.37-1.965 19.073 6.405 23.905z" fill="#e4996d"/><path d="m384.757 276.266 40.651 23.47c5.27 3.043 12.013.712 14.28-4.935l22.045-54.921-43.301-25-36.541 46.552c-3.758 4.786-2.404 11.791 2.866 14.834z" fill="#fad989"/><g><path d="m498.38 226.4c-5.54 9.61-14.61 18.08-25.02 23.88-34.878-7.249-52.616-24.7-52.616-47.53 0-15.38 17.737-37.014 37.276-47.53 6.58 1.13 13.22 3.55 19.56 7.21 23.92 13.8 34.61 40.05 20.8 63.97z" fill="#fff8e6"/><path d="m473.36 250.28c-15.5 8.63-33.97 11.34-48.28 3.08-23.91-13.81-27.11-53.05-13.3-76.96 10.15-17.57 28-24.32 46.24-21.18-8.94 11.11-14.3 25.23-14.3 40.61 0 22.83 11.8 42.9 29.64 54.45z" fill="#fff1cf"/></g></g><g><g><g><path d="m256 266.786c14.851 0 28.077 10.08 36.395-7.117 8.438-17.444-10.46-43.329-36.395-43.329s-44.833 25.885-36.395 43.329c8.318 17.197 21.544 7.117 36.395 7.117z" fill="#666667"/></g></g><g><g><g><ellipse cx="176.443" cy="253.334" fill="#fff" rx="29.355" ry="23.377"/></g><g><ellipse cx="335.557" cy="253.334" fill="#fff" rx="29.355" ry="23.377"/></g></g></g></g><circle cx="256" cy="107.5" fill="#fad989" r="20"/></g><g><g><g><g><path d="m278.169 277.2c-4.02 0-7.968-.784-11.469-1.479-3.554-.706-7.229-1.435-10.7-1.435s-7.146.729-10.7 1.435c-10.113 2.007-23.962 4.756-32.446-12.786-4.655-9.624-3.486-21.266 3.209-31.942 8.568-13.664 23.872-22.152 39.938-22.152s31.369 8.488 39.938 22.152c6.695 10.676 7.864 22.318 3.209 31.943-5.549 11.467-13.39 14.264-20.979 14.264zm-22.169-17.914c4.946 0 9.556.915 13.621 1.722 10.187 2.022 12.713 2.236 16.021-4.604 2.325-4.806 1.423-11.326-2.413-17.441-4.584-7.311-14.145-15.122-27.229-15.122s-22.646 7.812-27.229 15.122c-3.836 6.116-4.738 12.636-2.413 17.441 3.31 6.843 5.837 6.627 16.021 4.605 4.065-.808 8.675-1.723 13.621-1.723z"/></g></g><path d="m175.4 229.463c-1.748 0-3.504-.607-4.925-1.846-3.123-2.722-3.447-7.459-.727-10.582 5.122-5.876 12.522-9.246 20.305-9.246s15.184 3.37 20.304 9.247c2.722 3.123 2.396 7.861-.728 10.582-3.122 2.72-7.861 2.396-10.581-.728-2.271-2.606-5.55-4.101-8.995-4.101s-6.725 1.495-8.996 4.102c-1.483 1.701-3.564 2.572-5.657 2.572z"/><path d="m336.6 229.463c-2.093 0-4.174-.871-5.657-2.572-2.271-2.606-5.551-4.102-8.996-4.102s-6.724 1.495-8.995 4.101c-2.722 3.123-7.46 3.448-10.581.728-3.123-2.721-3.449-7.459-.728-10.582 5.12-5.876 12.521-9.247 20.304-9.247 7.782 0 15.183 3.37 20.305 9.246 2.721 3.123 2.396 7.86-.727 10.582-1.421 1.238-3.177 1.846-4.925 1.846z"/></g><path d="m486.035 451.332c21.777-76.205 29.915-154.876 24.19-233.956 2.619-9.643 2.311-19.683-1.021-29.225-.684-1.958-1.502-3.875-2.422-5.754-2.817-22.559-6.816-45.19-11.921-67.425 4.586-.148 8.992-2.097 12.157-5.433 3.279-3.456 5.017-8.162 4.767-12.914-1.162-22.023-7.187-48.107-15.723-68.073-7.416-17.344-24.512-28.552-43.558-28.552h-280.053c-4.143 0-7.5 3.358-7.5 7.5s3.357 7.5 7.5 7.5h280.053c13.03 0 24.713 7.634 29.764 19.448 7.891 18.456 13.461 42.583 14.537 62.965.045.858-.339 1.453-.669 1.801-.278.293-.887.786-1.832.786h-51.858c-3.274-11.528-13.889-20-26.452-20s-23.178 8.472-26.452 20h-27.097c-3.274-11.528-13.889-20-26.452-20s-23.178 8.472-26.452 20h-27.097c-3.274-11.528-13.889-20-26.452-20s-23.178 8.472-26.452 20h-27.097c-3.274-11.528-13.889-20-26.452-20s-23.178 8.472-26.452 20h-27.097c-3.274-11.528-13.889-20-26.452-20s-23.178 8.472-26.452 20h-51.858c-.945 0-1.554-.493-1.832-.786-.33-.348-.714-.942-.669-1.798 1.076-20.384 6.647-44.511 14.537-62.967 5.051-11.815 16.733-19.449 29.764-19.449h77.971c4.143 0 7.5-3.358 7.5-7.5s-3.357-7.5-7.5-7.5h-77.971c-19.045 0-36.142 11.208-43.557 28.552-8.537 19.965-14.561 46.049-15.723 68.075-.25 4.75 1.487 9.456 4.767 12.912 3.165 3.335 7.57 5.284 12.157 5.433-5.108 22.243-9.108 44.875-11.924 67.428-.919 1.878-1.737 3.794-2.42 5.751-3.336 9.556-3.64 19.611-1.008 29.267-5.718 79.062 2.419 157.715 24.19 233.903-.999.87-1.907 1.856-2.695 2.951-3.288 4.565-4.185 10.478-2.399 15.818 3.782 11.302 8.281 21.299 13.015 28.914 5.064 8.138 13.8 12.996 23.366 12.996h397.486c9.567 0 18.302-4.858 23.37-13 4.731-7.611 9.23-17.607 13.013-28.911 1.784-5.338.888-11.251-2.4-15.816-.785-1.091-1.689-2.073-2.683-2.941zm9.008-258.237c3.427 9.818 2.335 20.038-3.159 29.554-11.818 20.466-43.238 35.661-63.057 24.217-19.823-11.445-22.372-46.25-10.556-66.717 5.494-9.516 13.798-15.572 24.015-17.513 10.023-1.905 21.223.329 31.541 6.287 10.319 5.957 17.854 14.542 21.216 24.172zm-106.539 76.68c-.861-.499-1.127-1.28-1.208-1.701-.081-.417-.124-1.233.487-2.013l17.426-22.202c3.997 6.532 9.337 12.081 16.117 15.996 6.78 3.914 14.259 5.759 21.913 5.955l-10.515 26.196c-.371.923-1.104 1.295-1.508 1.435-.401.14-1.206.298-2.065-.197zm21.483 29.724-89.999 155.881c-2.757 4.778-8.886 6.421-13.666 3.664-4.773-2.759-6.415-8.889-3.656-13.66l90.001-155.885zm6.007-204.499c6.893 0 12.5 5.607 12.5 12.5s-5.607 12.5-12.5 12.5-12.5-5.607-12.5-12.5 5.608-12.5 12.5-12.5zm-80.001 0c6.893 0 12.5 5.607 12.5 12.5s-5.607 12.5-12.5 12.5-12.5-5.607-12.5-12.5 5.607-12.5 12.5-12.5zm-80.001 0c6.893 0 12.5 5.607 12.5 12.5s-5.608 12.5-12.5 12.5c-6.893 0-12.5-5.607-12.5-12.5s5.607-12.5 12.5-12.5zm-80.001 0c6.893 0 12.5 5.607 12.5 12.5s-5.607 12.5-12.5 12.5-12.5-5.607-12.5-12.5 5.607-12.5 12.5-12.5zm-80.001 0c6.893 0 12.5 5.607 12.5 12.5s-5.607 12.5-12.5 12.5-12.5-5.607-12.5-12.5 5.607-12.5 12.5-12.5zm-63.459 20h37.007c3.274 11.528 13.889 20 26.452 20s23.178-8.472 26.452-20h27.097c3.274 11.528 13.889 20 26.452 20s23.178-8.472 26.452-20h27.097c3.274 11.528 13.889 20 26.452 20s23.178-8.472 26.452-20h27.097c3.274 11.528 13.889 20 26.452 20s23.178-8.472 26.452-20h27.097c3.274 11.528 13.889 20 26.452 20s23.178-8.472 26.452-20h37.007c3.545 15.08 6.57 30.357 9.056 45.678-2.262-1.703-4.66-3.289-7.182-4.746-13.431-7.754-28.289-10.609-41.841-8.033-14.426 2.74-26.574 11.53-34.206 24.749-9.052 15.677-11.624 37.049-6.731 55.401l-22.566 28.749c-3.132 3.989-4.377 9.133-3.418 14.112.864 4.483 3.445 8.415 7.152 11.015l-90.04 155.955c-1.675 2.896-2.696 5.993-3.119 9.12h-61.133c-.423-3.127-1.444-6.224-3.119-9.12l-90.041-155.954c3.707-2.6 6.288-6.531 7.152-11.015.959-4.979-.286-10.123-3.418-14.112l-22.565-28.749c4.893-18.352 2.321-39.724-6.731-55.401-7.632-13.219-19.78-22.009-34.206-24.749-13.552-2.576-28.411.279-41.841 8.033-2.524 1.457-4.923 3.045-7.186 4.749 2.486-15.319 5.514-30.597 9.061-45.682zm86.787 174.499 90.001 155.885c2.759 4.771 1.116 10.9-3.656 13.66-4.78 2.757-10.909 1.114-13.666-3.664l-89.999-155.881zm-36.485 3.745c-.859.495-1.664.337-2.065.197-.404-.14-1.137-.512-1.508-1.435l-10.515-26.196c7.654-.196 15.133-2.04 21.913-5.955 6.781-3.915 12.12-9.464 16.117-15.996l17.426 22.202c.611.779.568 1.596.487 2.013-.081.421-.347 1.203-1.208 1.701zm-65.892-100.149c3.362-9.63 10.897-18.214 21.216-24.172 10.318-5.958 21.519-8.192 31.541-6.287 10.217 1.941 18.521 7.997 24.015 17.513 11.817 20.466 9.267 55.272-10.556 66.717-19.82 11.444-51.24-3.75-63.057-24.217-5.494-9.517-6.586-19.736-3.159-29.554zm-1.476 48.366c9.513 10.411 22.577 18.551 36.269 22.236l13.606 33.9c1.893 4.711 5.73 8.364 10.527 10.022 1.86.643 3.792.96 5.717.96 2.535 0 5.055-.559 7.386-1.645l80.867 140.066h-129.511c-19.137-67.051-27.48-136.052-24.861-205.539zm405.629 220.539h53.431c1.107 0 1.741.65 2.02 1.037.284.395.707 1.217.348 2.293-3.417 10.212-7.403 19.116-11.525 25.747-2.309 3.709-6.284 5.923-10.633 5.923h-397.486c-4.349 0-8.324-2.214-10.63-5.919-4.124-6.634-8.11-15.539-11.527-25.749-.36-1.077.063-1.9.347-2.294.278-.387.912-1.037 2.02-1.037h141.039l.507.878c3.338 5.784 8.73 9.921 15.182 11.651 2.155.578 4.343.864 6.517.864 4.332 0 8.608-1.136 12.462-3.36 4.246-2.455 7.495-5.979 9.616-10.033h66.422c2.121 4.054 5.369 7.577 9.616 10.033 3.855 2.225 8.13 3.36 12.462 3.36 2.174 0 4.361-.286 6.517-.864 6.452-1.73 11.844-5.867 15.182-11.651l.507-.878h52.607c4.143 0 7.5-3.358 7.5-7.5s-3.357-7.5-7.5-7.5h-43.946l80.868-140.066c2.33 1.086 4.851 1.645 7.386 1.645 1.925 0 3.857-.317 5.717-.96 4.797-1.658 8.634-5.311 10.526-10.022l13.606-33.9c13.696-3.685 26.764-11.829 36.277-22.244 2.619 69.489-5.715 138.494-24.851 205.547h-50.582c-4.143 0-7.5 3.358-7.5 7.5s3.355 7.499 7.498 7.499z"/></g></g></svg>