<svg id="Capa_1" enable-background="new 0 0 511.989 511.989" height="512" viewBox="0 0 511.989 511.989" width="512" xmlns="http://www.w3.org/2000/svg"><g><g><g><path d="m438.954 135.614c-18.726-59.75-65.914-106.908-125.685-125.594-16.833-5.262-34.839-2.097-49.657 7.467-2.31 1.49-4.892 2.324-7.617 2.324s-5.307-.834-7.617-2.324c-14.818-9.563-32.824-12.729-49.657-7.466-59.771 18.684-106.959 65.842-125.686 125.593z" fill="#e9efff"/></g><g><path d="m164.7 135.614c14.828-48.354 46.457-89.36 88.084-116.203-1.547-.384-3.026-1.034-4.406-1.925-14.818-9.563-32.824-12.729-49.657-7.467-59.771 18.686-106.959 65.844-125.686 125.595z" fill="#dae2fe"/></g><g><path d="m448.471 244.125h-384.953c-1.48 23.99-6.615 47.622-14.64 70.358-3.53 9.999-5.452 20.739-5.452 31.907 0 53.101 43.446 96.547 96.547 96.547h232.044c53.101 0 96.547-43.446 96.547-96.547 0-11.168-1.922-21.908-5.452-31.907-8.026-22.736-13.161-46.368-14.641-70.358z" fill="#bec8f7"/></g><g><path d="m382.811 504.489c18.513 0 31.917-17.482 27.333-35.418-17.57-68.751-79.923-119.582-154.149-119.582s-136.579 50.831-154.149 119.582c-4.584 17.936 8.82 35.418 27.333 35.418z" fill="#ffddcf"/></g><g><path d="m172.66 469.071c14.689-57.478 60.682-102.422 118.742-115.618-11.387-2.588-23.236-3.963-35.407-3.963-74.226 0-136.579 50.831-154.149 119.582-4.584 17.936 8.82 35.418 27.333 35.418h70.814c-18.513-.001-31.917-17.483-27.333-35.419z" fill="#ffcbbe"/></g><g><g><path d="m198.555 346.636-72.878 10.029c-21.765 2.995-31.562 29.003-17.094 45.538 35.891 41.02 88.625 66.928 147.413 66.928 58.787 0 111.521-25.907 147.412-66.927 14.467-16.535 4.671-42.543-17.094-45.538l-72.878-10.03c-.712-.098-1.429-.147-2.147-.147h-110.587c-.718 0-1.436.049-2.147.147z" fill="#fad989"/></g></g><g><g><path d="m175.076 388.384c0-13.866 2.451-27.159 6.939-39.472l-56.339 7.753c-21.765 2.995-31.562 29.003-17.094 45.538 24.252 27.718 56.201 48.52 92.505 59.107-16.255-19.865-26.011-45.255-26.011-72.926z" fill="#f9d171"/></g></g><g><circle cx="93.45" cy="247.119" fill="#ffcbbe" r="41.871"/></g><g><circle cx="418.54" cy="247.119" fill="#ffcbbe" r="41.871"/></g><g><path d="m421.391 258.831c-6.714-7.847-10.226-17.925-10.224-28.253 0-.023 0-.045 0-.068 0-29.583-8.005-58.753-21.965-84.33h-265.798c-14.311 25.578-22.582 54.747-22.582 84.33 0 1.09.017 2.112-.23 4.19-1.11 9.341-5.085 18.057-11.017 25.358-2.469 3.038-4.749 6.419-6.76 10.101-11.856 21.703-9.914 45.608 4.339 53.394 4.836 2.642 10.468 3.082 16.263 1.669 1.782-.435 3.403 1.062 3.093 2.87-3.62 21.081 3.595 40.008 17.651 44.004 7.824 2.224 16.282-.6 23.625-6.963 1.305-1.131 3.316-.584 3.949 1.022 5.915 15.013 17.015 24.86 28.861 23.863 4.23-.356 8.132-2.067 11.554-4.833 1.496-1.209 3.671-.947 4.785.621 12.99 18.29 33.992 30.181 57.707 30.181 24.305 0 45.77-12.484 58.671-31.552 1.137-1.68 3.498-1.997 4.974-.605 3.777 3.563 8.226 5.776 13.112 6.187 11.845.997 22.946-8.85 28.861-23.863.633-1.607 2.644-2.153 3.949-1.022 7.343 6.362 15.801 9.187 23.625 6.963 14.055-3.996 21.27-22.922 17.651-44.004-.31-1.808 1.311-3.304 3.093-2.87 5.794 1.413 11.426.973 16.263-1.669 14.252-7.786 16.195-31.691 4.339-53.394-2.292-4.184-4.925-7.98-7.789-11.327z" fill="#e9efff"/></g><g><path d="m168.326 217.682c0-25.062 4.038-49.12 11.439-71.5h-56.354c-14.313 25.577-22.589 54.745-22.589 84.33 0 1.09.017 2.112-.23 4.19-1.11 9.341-5.085 18.057-11.017 25.358-2.469 3.038-4.749 6.419-6.76 10.101-11.856 21.703-9.914 45.608 4.339 53.394 4.836 2.642 10.468 3.082 16.263 1.669 1.782-.435 3.403 1.062 3.093 2.87-3.62 21.081 3.595 40.008 17.651 44.004 7.824 2.224 16.282-.6 23.625-6.963 1.305-1.131 3.316-.584 3.949 1.022 5.915 15.013 17.015 24.86 28.861 23.863 4.23-.356 8.132-2.067 11.554-4.833 1.496-1.209 3.671-.946 4.785.622 12.99 18.29 33.992 30.181 57.707 30.181 9.243 0 18.073-1.81 26.18-5.096-66.706-35.487-112.496-108.672-112.496-193.212z" fill="#dae2fe"/></g><g><path d="m139.807 247.217c9.583 22.891 36.141 33.371 58.923 23.533 16.173-6.984 35.348-11.028 55.909-11.028 21.368 0 41.238 4.367 57.798 11.863 22.213 10.054 48.611.252 58.69-21.95 4.96-10.925 7.671-22.747 7.671-35.088 0-55.585-54.981-100.646-122.804-100.646s-122.804 45.061-122.804 100.646c.001 11.435 2.329 22.426 6.617 32.67z" fill="#ffddcf"/></g><g><path d="m168.326 217.682c0-30.229 5.863-59.003 16.433-85.126-31.215 18.249-51.569 48.171-51.569 81.99 0 11.436 2.328 22.427 6.616 32.671 6.374 15.225 20.259 24.95 35.547 26.867-4.573-17.982-7.027-36.887-7.027-56.402z" fill="#ffcbbe"/></g><g><path d="m379.466 97.233-23.923-43.398c-4.668-8.467-16.837-8.467-21.505 0l-22.41 40.654c-4.842 8.785-17.468 8.785-22.31 0l-22.41-40.654c-4.668-8.467-16.837-8.467-21.505 0l-22.41 40.654c-4.842 8.785-17.468 8.785-22.31 0l-22.41-40.654c-4.668-8.467-16.837-8.467-21.505 0l-24.029 43.591c-3.952 7.17-13.544 8.803-19.646 3.345l-17.929-16.035c-7.91-7.074-20.463-1.46-20.463 9.152v24.866 39.699c0 11.736 9.514 21.249 21.249 21.249h320.089c11.736 0 21.249-9.514 21.249-21.249v-39.699-24.867c0-10.612-12.553-16.226-20.463-9.152l-17.713 15.842c-6.101 5.458-15.693 3.825-19.646-3.344z" fill="#fad989"/></g><g><g><path d="m191.389 161.163v-39.699-24.867c0-4.281 2.044-7.747 5.001-9.896l-18.118-32.866c-4.668-8.467-16.837-8.467-21.505 0l-24.029 43.591c-3.952 7.169-13.544 8.803-19.646 3.345l-17.928-16.035c-7.91-7.074-20.463-1.46-20.463 9.151v24.866 39.699c0 11.736 9.514 21.249 21.249 21.249h106.307c-6.484-3.638-10.868-10.574-10.868-18.538z" fill="#f9d171"/></g></g><g><path d="m441.817 210.852h-371.645c-14.781 0-26.874-12.093-26.874-26.874 0-14.781 12.093-26.874 26.874-26.874h371.645c14.781 0 26.874 12.093 26.874 26.874 0 14.781-12.093 26.874-26.874 26.874z" fill="#f6ca56"/></g><g><path d="m157.833 183.978c0-14.781 12.093-26.874 26.874-26.874h-114.535c-14.781 0-26.874 12.093-26.874 26.874 0 14.781 12.093 26.874 26.874 26.874h114.535c-14.781 0-26.874-12.093-26.874-26.874z" fill="#f3c23b"/></g><g><g><path d="m191.014 254.862c-4.142 0-7.5-3.358-7.5-7.5v-12.486c0-4.142 3.358-7.5 7.5-7.5s7.5 3.358 7.5 7.5v12.486c0 4.142-3.358 7.5-7.5 7.5z"/></g><g><path d="m320.975 254.862c-4.142 0-7.5-3.358-7.5-7.5v-12.486c0-4.142 3.358-7.5 7.5-7.5s7.5 3.358 7.5 7.5v12.486c0 4.142-3.358 7.5-7.5 7.5z"/></g><g><path d="m255.995 303.295c-8.733 0-17.039-3.782-22.786-10.377-2.721-3.123-2.396-7.86.727-10.582 3.124-2.721 7.861-2.396 10.582.727 2.897 3.325 7.081 5.232 11.478 5.232 4.396 0 8.58-1.907 11.478-5.232 2.722-3.123 7.459-3.447 10.582-.727 3.123 2.722 3.448 7.459.727 10.582-5.75 6.595-14.055 10.377-22.788 10.377z"/></g></g></g><path d="m459.864 274.149c5.161-7.89 8.046-17.234 8.046-27.03 0-11.853-4.254-23.107-11.733-31.922 11.801-5.45 20.014-17.39 20.014-31.219 0-17.952-13.835-32.725-31.402-34.237v-55.854c0-7.908-4.484-14.826-11.703-18.054-5.267-2.355-11.024-2.306-16.043-.065-25.13-34.437-60.972-60.226-101.535-72.906-18.438-5.765-38.835-2.731-55.963 8.323-2.314 1.493-4.784 1.494-7.1 0-17.128-11.055-37.525-14.089-55.963-8.324-40.571 12.684-76.402 38.468-101.534 72.907-5.019-2.241-10.777-2.29-16.044.065-7.219 3.229-11.704 10.146-11.704 18.055v55.854c-17.567 1.513-31.402 16.285-31.402 34.237 0 13.823 8.206 25.759 19.999 31.212-7.478 8.797-11.718 20.025-11.718 31.928 0 9.723 2.917 19.06 8.063 26.953-2.427 12.586-5.896 25.334-10.336 37.915-3.901 11.051-5.879 22.626-5.879 34.404 0 22.317 7.036 43.63 20.348 61.636 11.744 15.886 28.055 28.301 46.344 35.415-3.269 7.69-5.957 15.627-8.038 23.771-2.776 10.863-.437 22.156 6.419 30.985 6.806 8.764 17.077 13.791 28.18 13.791h253.633c11.103 0 21.374-5.026 28.18-13.791 6.856-8.829 9.195-20.122 6.419-30.985-2.079-8.136-4.766-16.065-8.032-23.75 40.061-15.489 66.685-53.971 66.685-97.073 0-11.777-1.978-23.352-5.879-34.404-4.433-12.553-7.895-25.273-10.322-37.837zm-20.409.229c-1.071-2.638-2.299-5.252-3.698-7.813-2.487-4.552-5.402-8.794-8.667-12.609-5.433-6.35-8.424-14.652-8.423-23.444 0-4.025-.16-8.093-.445-12.159h19.18c.115.088.226.179.348.262 9.492 6.413 15.159 17.069 15.159 28.505.001 10.804-5.05 20.811-13.454 27.258zm-38.335 45.961c-2.472 2.306-3.604 5.678-3.031 9.022 2.94 17.12-2.467 32.723-12.31 35.521-6.817 1.941-13.367-2.562-16.663-5.417-2.434-2.109-5.755-2.91-8.886-2.141-3.158.775-5.757 3.05-6.952 6.082-4.774 12.117-13.32 19.81-21.254 19.139-3.042-.256-5.933-1.659-8.594-4.168-2.29-2.16-5.399-3.201-8.533-2.855-3.167.35-6.009 2.067-7.799 4.713-11.97 17.692-31.581 28.254-52.459 28.254-20.288 0-39.575-10.103-51.592-27.022-1.715-2.416-4.378-4.033-7.307-4.437-2.952-.404-5.979.441-8.308 2.323-2.349 1.899-4.862 2.973-7.469 3.192-7.953.664-16.48-7.023-21.253-19.139-1.195-3.033-3.794-5.307-6.953-6.082-3.129-.766-6.45.032-8.885 2.141-3.296 2.856-9.84 7.359-16.663 5.417-9.842-2.798-15.25-18.4-12.31-35.52.574-3.343-.558-6.716-3.029-9.022-2.477-2.311-5.929-3.209-9.233-2.403-4.185 1.02-7.848.697-10.889-.965-6.21-3.393-7.729-11.17-8.081-15.504-.692-8.518 1.76-18.619 6.728-27.712 1.753-3.209 3.772-6.226 6-8.967 7.029-8.651 11.401-18.75 12.644-29.204.285-2.398.283-3.778.282-4.887v-.187c0-4.02.171-8.092.494-12.159h16.969c.452 10.874 2.826 21.542 7.104 31.761 5.377 12.845 15.474 22.796 28.431 28.021 13.081 5.274 27.423 5.098 40.384-.5 15.776-6.812 34.081-10.413 52.936-10.413 19.608 0 38.524 3.871 54.705 11.195 6.94 3.142 14.216 4.628 21.379 4.628 19.723 0 38.589-11.272 47.233-30.31 5-11.013 7.765-22.562 8.255-34.382h16.977c.312 4.07.478 8.155.478 12.225-.002 12.298 4.269 24.063 12.025 33.129 2.589 3.027 4.911 6.408 6.9 10.049 4.968 9.094 7.42 19.194 6.729 27.712-.353 4.334-1.871 12.111-8.081 15.504-3.039 1.661-6.704 1.987-10.89.964-3.3-.802-6.752.094-9.229 2.404zm-342.041-73.22c0-11.648 5.816-22.379 15.564-28.767h19.137c-.294 4.067-.458 8.136-.458 12.159v.2c.001.926.001 1.595-.178 3.104-.907 7.63-4.154 15.069-9.39 21.514-2.802 3.447-5.332 7.228-7.522 11.235-1.401 2.564-2.629 5.179-3.701 7.819-8.339-6.434-13.452-16.514-13.452-27.264zm81.706-28.766h230.411c-.481 9.671-2.79 19.134-6.898 28.181-8.368 18.43-30.247 26.603-48.769 18.218-18.11-8.197-39.165-12.53-60.891-12.53-20.883 0-41.245 4.026-58.883 11.643-9.253 3.997-19.492 4.125-28.827.359-9.211-3.715-16.387-10.783-20.205-19.902-3.503-8.373-5.495-17.091-5.938-25.969zm60.173-201.176c14.177-4.431 29.977-2.022 43.353 6.61 3.571 2.305 7.611 3.522 11.684 3.522s8.113-1.218 11.684-3.522c13.376-8.633 29.178-11.041 43.353-6.61 37.674 11.778 70.95 35.79 94.208 67.859l-11.126 9.951c-1.637 1.463-3.441 1.417-4.371 1.259s-2.647-.711-3.708-2.635l-23.923-43.398c-3.479-6.31-10.115-10.23-17.321-10.23-7.205 0-13.842 3.92-17.32 10.23l-22.411 40.656c-1.348 2.445-3.656 2.709-4.586 2.709s-3.239-.264-4.587-2.709l-22.411-40.654c-3.479-6.311-10.115-10.23-17.32-10.23s-13.842 3.919-17.321 10.23l-22.41 40.654c-1.348 2.445-3.657 2.709-4.587 2.709s-3.239-.264-4.586-2.709l-22.411-40.654c-3.479-6.31-10.115-10.23-17.321-10.23-7.205 0-13.842 3.92-17.32 10.23l-24.029 43.59c-1.06 1.924-2.778 2.477-3.708 2.635-.927.158-2.733.207-4.371-1.259l-11.341-10.143c23.26-32.071 56.525-56.08 94.207-67.861zm-130.786 147.427h290.947c4.142 0 7.5-3.358 7.5-7.5s-3.358-7.5-7.5-7.5h-278.918v-55.716c0-2.795 1.977-3.981 2.827-4.362.851-.38 3.052-1.063 5.136.8l17.929 16.035c4.622 4.132 10.778 5.905 16.889 4.866 6.112-1.041 11.333-4.751 14.326-10.181l24.029-43.59c1.229-2.23 3.335-2.471 4.184-2.471s2.955.241 4.184 2.471l22.411 40.654c3.613 6.555 10.238 10.468 17.723 10.468 7.484 0 14.11-3.913 17.724-10.468l22.41-40.654c1.229-2.23 3.335-2.471 4.184-2.471s2.955.241 4.184 2.471l22.409 40.654c3.613 6.555 10.239 10.468 17.724 10.468 7.484 0 14.109-3.913 17.723-10.468l22.411-40.654c1.229-2.23 3.335-2.471 4.184-2.471s2.955.241 4.184 2.471l23.923 43.398c2.993 5.429 8.215 9.14 14.327 10.181 6.111 1.041 12.268-.733 16.888-4.866l17.713-15.842c2.083-1.863 4.287-1.18 5.136-.8.85.38 2.827 1.566 2.827 4.361v55.717h-37.544c-4.142 0-7.5 3.358-7.5 7.5s3.358 7.5 7.5 7.5h49.573c10.683 0 19.374 8.691 19.374 19.374s-8.691 19.374-19.374 19.374h-371.647c-10.683 0-19.374-8.691-19.374-19.374s8.691-19.375 19.374-19.375zm-19.246 181.787c0-10.072 1.69-19.967 5.024-29.411 3.48-9.86 6.392-19.826 8.717-29.755 1.158.836 2.361 1.618 3.598 2.354-.696 4.465-.891 8.872-.547 13.103 1.031 12.687 6.656 22.436 15.84 27.453 4.438 2.425 9.428 3.551 14.726 3.356-.81 10.421.789 20.03 4.334 27.804-11.207 13.163-11.33 32.531.32 45.846 3.859 4.41 7.89 8.63 12.074 12.663-2.084 3.302-4.046 6.666-5.886 10.09-34.958-12.97-58.2-46.089-58.2-83.503zm348.218 142.608c-3.944 5.078-9.896 7.991-16.333 7.991h-253.633c-6.436 0-12.389-2.913-16.333-7.991-3.994-5.143-5.354-11.729-3.733-18.071 3.696-14.465 9.49-28.215 17.247-40.967 22.086 18.325 47.779 31.768 75.67 39.428.665.182 1.333.27 1.991.27 3.293 0 6.313-2.186 7.228-5.516 1.097-3.994-1.251-8.122-5.246-9.219-35.587-9.774-67.323-29.712-91.775-57.659-6.386-7.299-6.125-16.531-2.213-23.32 2.969 2.464 6.349 4.302 10.094 5.367 8.282 2.353 17.086.736 25.309-4.542 7.824 15.066 20.609 23.83 33.805 22.724 4.213-.354 8.333-1.721 12.106-3.995 14.927 18.853 37.548 29.991 61.311 29.991 24.369 0 47.309-11.564 62.229-31.153 4.247 2.978 8.979 4.743 13.898 5.157 13.199 1.109 25.981-7.657 33.805-22.724 8.224 5.279 17.03 6.896 25.309 4.542 3.744-1.064 7.122-2.901 10.091-5.363 3.9 6.789 4.161 16.037-2.209 23.318-35.791 40.905-87.462 64.365-141.767 64.365-6.744 0-13.54-.36-20.2-1.07-4.112-.439-7.813 2.543-8.252 6.663-.439 4.119 2.543 7.813 6.663 8.252 7.186.766 14.517 1.155 21.79 1.155 47.645 0 93.412-16.726 129.625-46.692 7.763 12.76 13.559 26.52 17.257 40.989 1.62 6.341.259 12.927-3.734 18.07zm3.711-59.117c-1.839-3.423-3.798-6.789-5.883-10.091 4.185-4.027 8.221-8.239 12.079-12.648 11.619-13.279 11.508-32.683.319-45.845 3.546-7.774 5.145-17.385 4.336-27.806 5.279.194 10.288-.931 14.726-3.355 9.184-5.017 14.809-14.767 15.84-27.453.344-4.23.149-8.635-.547-13.099 1.24-.736 2.441-1.519 3.6-2.35 2.325 9.927 5.235 19.889 8.714 29.745 3.333 9.444 5.023 19.34 5.023 29.412.001 37.279-23.291 70.512-58.207 83.49z"/></g></svg>