<svg id="Capa_1" enable-background="new 0 0 512.004 512.004" height="512" viewBox="0 0 512.004 512.004" width="512" xmlns="http://www.w3.org/2000/svg"><g><path d="m438.559 419.171c15.736-13.445 30.521-29.693 43.693-48.809 3.111-4.515 3.111-10.645 0-15.16-12.571-18.243-26.611-33.875-41.545-46.951-70.8-61.99-176.642-43.579-225.669 38.911-5.669 9.538-5.669 21.703 0 31.24l.222.374c48.406 81.446 152.713 100.704 223.299 40.395z" fill="#ffdee4"/><path d="m255.192 419.171c15.736-13.445 30.521-29.693 43.693-48.809 3.111-4.515 3.111-10.645 0-15.16-12.571-18.243-26.611-33.875-41.545-46.951-70.8-61.99-176.642-43.579-225.669 38.911-5.669 9.538-5.669 21.703 0 31.24l.222.374c48.406 81.446 152.712 100.704 223.299 40.395z" fill="#ffdee4"/><path d="m158.914 393.122c9.884 42.363 37.039 81.363 79.63 106.677 10.555 6.273 24.017 6.273 34.572 0l.414-.246c42.426-25.215 69.603-64.137 79.527-106.421l-97.071-58.609z" fill="#55d47b"/><path d="m277.631 213.903c-7.92 4.206-15.195 9.466-21.629 15.601-6.49-6.188-13.836-11.485-21.835-15.709-14.602 11.303-27.492 23.488-38.683 36.269-36.594 41.794-47.863 94.622-36.563 143.056 9.379 2.998 19.372 4.621 29.745 4.621 20.893 0 40.253-6.566 56.129-17.746 6.73-4.74 15.684-4.74 22.414 0 15.876 11.181 35.236 17.746 56.129 17.746 10.361 0 20.343-1.619 29.711-4.61 11.159-47.547.508-99.345-34.818-140.69-11.625-13.607-25.153-26.566-40.6-38.538z" fill="#00c755"/><path d="m175.594 72.514c-15.846-11.297-33.892-21.015-54.017-28.519-4.727-1.763-10.067-.248-13.165 3.734-12.76 16.405-22.775 33.55-30.254 50.892-34.74 80.55 8.942 173.353 93.048 198.28l9.344 2.769c4.294 1.272 8.936-.044 11.922-3.382l6.506-7.272c57.985-64.812 47.427-166.02-23.384-216.502z" fill="#ff899f"/><path d="m336.41 72.514c15.846-11.297 33.892-21.015 54.017-28.519 4.727-1.763 10.067-.248 13.165 3.734 12.76 16.405 22.775 33.55 30.254 50.892 34.74 80.55-8.942 173.353-93.048 198.28l-9.344 2.769c-4.293 1.272-8.936-.044-11.922-3.382l-6.506-7.272c-57.985-64.812-47.428-166.02 23.384-216.502z" fill="#ff899f"/><path d="m114.309 137.521c-2.165-1.017-4.36-2.019-6.586-3.005-18.536-8.123-38.588-16.104-60.189-23.492-5.064-1.736-10.039.326-12.149 5.35-8.668 20.656-12.971 43.259-12.851 66.307-.831 53.459 33.219 110.783 80.446 142.607 25.153 17.695 54.112 28.025 81.918 30.549l1.155-119.324z" fill="#ffb3c2"/><path d="m262.603 319.247c-11.163-44.14-31.367-81.278-56.67-111.791-24.334-28.914-53.242-51.889-91.627-69.93-15.716 55.207-11.628 119.309 34.223 179.367 10.439 13.466 22.552 26.573 36.371 38.932 23.932 2.172 47.012-1.426 66.074-11.1 3.119-1.502 6.211-3.035 9.274-4.599 4.227-2.161 6.03-6.481 4.831-11.008-.87-3.292-1.695-6.583-2.476-9.871z" fill="#ff9eb1"/><path d="m397.76 137.491c2.144-1.007 4.317-1.999 6.521-2.975 18.536-8.123 38.588-16.104 60.189-23.492 5.064-1.736 10.039.326 12.149 5.35 8.668 20.656 12.971 43.259 12.851 66.307.831 53.459-33.219 110.783-80.446 142.607-25.046 17.619-53.865 27.936-81.562 30.516l-3.414-103.438z" fill="#ffb3c2"/><path d="m306.07 207.456c-25.302 30.513-45.507 67.651-56.67 111.791-.781 3.288-1.606 6.578-2.476 9.871-1.199 4.527.604 8.847 4.831 11.008 3.063 1.563 6.155 3.096 9.274 4.599 19.156 9.722 42.37 13.312 66.43 11.071 12.843-11.496 24.2-23.643 34.115-36.116 47.543-60.737 52.056-126.106 36.187-182.184-38.416 18.046-67.343 41.03-91.691 69.96z" fill="#ff9eb1"/><path d="m284.258 343.875c22.996-15.092 41.728-32.777 56.495-51.354 42.237-53.958 42.171-112.472 24.44-160.39-18.181-48.62-54.028-86.645-93.736-115.835-2.996-2.125-5.95-4.295-8.863-6.509-4.017-3.045-8.993-3.044-13.008.003-.06.045-.119.091-.179.136l-42.326 49.1-52.368 128.771 67.302 143.478z" fill="#ffdee4"/><path d="m212.48 152.126c0-51.63 13.417-100.118 36.926-142.202-2.858 2.171-5.755 4.302-8.693 6.387-39.37 28.958-75.037 66.682-93.441 114.813-17.95 47.463-18.638 105.335 22.453 159.159 18.193 23.469 42.64 45.62 73.95 63.078 7.348 4.116 17.589 4.113 24.935-.006 5.422-3.026 10.629-6.199 15.642-9.489-44.697-51.299-71.772-118.355-71.772-191.74z" fill="#ffb3c2"/></g><g><path d="m446.239 303.15c32.503-34.826 51.351-79.318 50.734-120.505.117-24.38-4.403-47.652-13.437-69.178-3.603-8.571-12.646-12.582-21.497-9.538-5.361 1.838-10.742 3.755-16.081 5.715-1.526-4.739-3.258-9.425-5.228-13.988-7.941-18.434-18.444-36.11-31.221-52.541-5.141-6.601-13.858-9.073-21.695-6.149-19.217 7.16-37.172 16.54-53.439 27.847-15.859-19.34-35.49-37.672-58.471-54.563-.037-.027-.075-.055-.113-.082-2.826-1.997-5.74-4.136-8.668-6.362-6.703-5.081-15.367-5.076-22.076.014-2.924 2.221-5.843 4.366-8.676 6.377-.035.025-.069.049-.103.075-22.987 16.912-42.633 35.265-58.517 54.624-16.308-11.349-34.301-20.755-53.558-27.93-7.837-2.924-16.558-.452-21.701 6.153-12.774 16.428-23.277 34.104-31.216 52.533-1.969 4.562-3.702 9.25-5.23 13.997-5.299-1.949-10.676-3.865-16.076-5.716-8.855-3.045-17.899.964-21.505 9.54-9.032 21.521-13.552 44.795-13.435 69.175-.118 8.003.506 16.26 1.855 24.542.599 3.68 3.782 6.295 7.393 6.295.401 0 .807-.032 1.215-.099 4.088-.666 6.863-4.52 6.197-8.608-1.211-7.438-1.77-14.833-1.66-21.978.001-.051.001-.103.001-.154-.116-22.377 4.011-43.697 12.264-63.364.387-.918 1.021-1.777 2.803-1.162 7.843 2.689 15.645 5.507 23.197 8.379 11.965 4.532 24.217 9.54 36.388 14.873 9.673 4.287 18.919 8.968 27.568 13.943-9.236 41.975-2.93 83.328 18.377 119.931 16.991 28.82 41.188 52.792 68.805 71.904-2.814.489-5.673.888-8.582 1.172-17.137 1.698-35.787-.162-53.941-5.385-17.731-5.089-34.423-13.091-49.611-23.784-.043-.03-.086-.06-.13-.089-9.97-6.709-19.457-14.71-28.201-23.786-16.362-16.954-29.524-37.047-38.062-58.107-1.557-3.839-5.932-5.688-9.769-4.133-3.838 1.556-5.689 5.93-4.133 9.769 8.246 20.34 20.459 39.819 35.532 56.784-14.695 12.094-27.224 26.776-37.315 43.749-3.467 5.844-5.3 12.568-5.3 19.447s1.833 13.603 5.305 19.455l.218.367c29.737 50.037 80.902 79.405 135.208 79.405 7.319 0 14.695-.543 22.083-1.63 13.984 18.252 31.449 33.669 51.971 45.87 6.33 3.764 13.634 5.754 21.124 5.754 7.495 0 14.798-1.991 21.117-5.756l.415-.247c20.107-11.949 37.306-27.034 51.181-44.876 5.384.572 10.752.866 16.089.866 35.906 0 70.389-12.836 98.803-37.116 16.734-14.308 31.871-31.216 44.995-50.259 4.875-7.084 4.873-16.596-.002-23.665-12.385-17.987-26.583-34.061-42.189-47.805zm-53.186-252.128c1.643-.612 3.543-.074 4.619 1.307 11.993 15.423 21.845 31.997 29.285 49.269 1.883 4.362 3.534 8.843 4.966 13.375-10.132 3.946-20.41 8.185-30.678 12.685-8.845 3.919-17.35 8.152-25.394 12.628-1.106-3.615-2.314-7.216-3.632-10.777-6.826-18.262-16.456-35.993-28.658-52.809 15.08-10.403 31.7-19.05 49.492-25.678zm-312.967 63.951c1.434-4.539 3.082-9.022 4.964-13.381 7.438-17.266 17.29-33.84 29.279-49.259 1.079-1.385 2.979-1.925 4.624-1.311 17.83 6.643 34.503 15.289 49.619 25.728-11.952 16.45-21.46 33.81-28.317 51.726-1.482 3.927-2.824 7.886-4.042 11.843-8.077-4.495-16.607-8.741-25.481-12.673-10.244-4.491-20.52-8.73-30.646-12.673zm101.956 178.577c-6.745-7.824-13.308-16.96-18.449-25.849-20.227-34.747-25.59-74.245-15.509-114.224 0-.002.001-.003.001-.005.005-.019.01-.037.015-.056 1.645-6.513 3.726-13.122 6.176-19.612 7.188-18.779 17.555-36.973 30.813-54.076.002-.002.003-.005.005-.007 15.753-20.328 35.943-39.616 60.012-57.33 2.946-2.093 5.978-4.321 9.008-6.623 1.331-1.01 2.622-1.013 3.937-.015 3.038 2.31 6.073 4.538 9.023 6.624 24.063 17.691 44.233 36.958 59.956 57.268 13.514 17.452 23.989 35.995 31.126 55.092 10.032 26.588 13.197 55.507 8.736 83.446.035 5.123 5.983 8.832 10.662 6.492 3.884-1.63 4.459-5.984 4.85-9.683.434-3.291.807-6.591 1.042-9.904 1.272-16.665-.089-33.487-3.653-49.806 8.616-4.958 17.848-9.625 27.498-13.9 12.199-5.346 24.451-10.354 36.416-14.885.116-.043.23-.09.343-.139 7.528-2.849 15.215-5.621 22.861-8.242 1.776-.613 2.41.246 2.795 1.16 8.255 19.671 12.382 40.992 12.266 63.369 0 .052 0 .104.001.156.617 39.559-18.816 82.763-51.988 115.574-7.845 7.768-16.308 14.729-25.154 20.689-.042.028-.083.057-.125.086-15.201 10.695-31.896 18.698-49.629 23.787-18.572 5.347-37.624 7.169-55.094 5.271-2.43-.265-4.816-.624-7.176-1.03 27.6-19.161 51.635-42.909 68.508-71.594 3.904-6.714 7.353-13.667 10.251-20.668 1.585-3.827-.233-8.214-4.06-9.798-3.826-1.584-8.214.233-9.798 4.06-.661 1.596-1.353 3.189-2.076 4.777-2.168 4.766-4.609 9.487-7.285 14.09-19.675 33.227-49.803 59.866-83.403 78.766-8.031 4.338-16.092 1.613-23.057-3.125-22.613-13.325-43.063-30.374-59.845-50.136zm-143.705 81.389-.215-.362c-2.094-3.528-3.2-7.606-3.2-11.793 0-4.186 1.106-8.264 3.197-11.787 9.397-15.805 21.099-29.411 34.83-40.536 8.109 7.864 16.752 14.918 25.779 21 14.949 10.515 31.241 18.633 48.493 24.191-.18 31.803 8.863 63.443 25.857 90.763-4.134.378-8.259.588-12.366.588-49.074-.002-95.39-26.66-122.375-72.064zm231.358 118.171-.422.251c-4 2.383-8.648 3.643-13.441 3.643-4.792 0-9.445-1.261-13.458-3.647-20.14-11.973-37.054-27.284-50.276-45.512-18.752-25.804-29.177-56.761-29.839-88.074 12.07 2.742 24.24 4.16 36.031 4.16 4.748 0 9.436-.227 14.029-.682 8.649-.844 17-2.501 24.878-4.934 11.112 7.444 26.652 7.483 37.784.054 7.396 2.269 15.243 3.866 23.38 4.752 5.015.545 10.139.815 15.335.815 11.8 0 23.967-1.418 36.041-4.164-.666 31.64-11.362 62.907-30.608 88.946-13.119 17.759-29.749 32.693-49.434 44.392zm206.381-127.002c-12.382 17.967-26.644 33.903-42.387 47.364-27.243 23.28-60.632 34.894-95.142 33.363 17.247-27.459 26.416-59.23 26.227-91.184 17.25-5.559 33.544-13.676 48.502-24.191 7.765-5.237 15.242-11.185 22.312-17.711.057.05.118.1.175.15 14.912 13.045 28.475 28.373 40.314 45.563 1.348 1.954 1.346 4.689-.001 6.646z"/><path d="m193.553 164.904c-4.142 0-7.5 3.358-7.5 7.5v12c0 4.142 3.358 7.5 7.5 7.5s7.5-3.358 7.5-7.5v-12c0-4.142-3.358-7.5-7.5-7.5z"/><path d="m318.451 191.904c4.142 0 7.5-3.358 7.5-7.5v-12c0-4.142-3.358-7.5-7.5-7.5s-7.5 3.358-7.5 7.5v12c0 4.142 3.357 7.5 7.5 7.5z"/><path d="m256.002 199.048c8.478 0 16.54-3.671 22.119-10.073 2.721-3.123 2.396-7.86-.727-10.582-3.124-2.721-7.861-2.396-10.582.727-2.729 3.132-6.669 4.929-10.81 4.929s-8.081-1.796-10.81-4.929c-2.722-3.123-7.459-3.448-10.582-.727-3.123 2.722-3.448 7.459-.727 10.582 5.579 6.401 13.641 10.073 22.119 10.073z"/></g></svg>