<svg viewBox="-12 0 512 512.00104" xmlns="http://www.w3.org/2000/svg"><path d="m102.914062 325.503906-30.863281 30.863282-58.160156-58.15625c-8.519531-8.523438-8.519531-22.34375 0-30.867188 8.523437-8.519531 22.34375-8.519531 30.867187 0zm0 0" fill="#5c626b"/><path d="m23.679688 261.699219c-3.585938.957031-6.976563 2.835937-9.789063 5.644531-8.519531 8.523438-8.519531 22.34375 0 30.867188l58.160156 58.15625 15.433594-15.429688-58.160156-58.160156c-5.710938-5.710938-7.589844-13.796875-5.644531-21.078125zm0 0" fill="#535860"/><path d="m72.046875 356.367188 30.863281-30.863282 84.078125 84.078125-30.863281 30.863281zm0 0" fill="#dfe0e0"/><path d="m72.046875 356.367188 15.433594-15.433594 84.078125 84.078125-15.433594 15.433593zm0 0" fill="#c9caca"/><path d="m129.855469 325.613281-57.695313 57.695313c-1.769531 1.773437-4.640625 1.773437-6.414062 0l-20.636719-20.636719c-1.773437-1.769531-1.773437-4.640625 0-6.414063l57.695313-57.695312c1.769531-1.773438 4.644531-1.773438 6.414062 0l20.636719 20.636719c1.773437 1.769531 1.773437 4.644531 0 6.414062zm0 0" fill="#fbe067"/><path d="m86.957031 362.097656-20.636719-20.636718c-1.769531-1.773438-1.769531-4.644532 0-6.417969l-21.210937 21.214843c-1.773437 1.769532-1.773437 4.644532 0 6.414063l20.636719 20.636719c1.769531 1.773437 4.640625 1.773437 6.414062 0l21.214844-21.210938c-1.773438 1.769532-4.644531 1.769532-6.417969 0zm0 0" fill="#e7ce5f"/><path d="m384.085938 325.503906 30.863281 30.863282 58.160156-58.15625c8.523437-8.523438 8.523437-22.34375 0-30.867188-8.523437-8.519531-22.34375-8.519531-30.867187 0zm0 0" fill="#5c626b"/><path d="m463.324219 261.699219c3.582031.957031 6.972656 2.835937 9.785156 5.644531 8.523437 8.523438 8.523437 22.34375 0 30.867188l-58.160156 58.15625-15.429688-15.429688 58.15625-58.160156c5.710938-5.710938 7.589844-13.796875 5.648438-21.078125zm0 0" fill="#535860"/><path d="m330.871094 440.453125-30.863282-30.867187 84.078126-84.078126 30.863281 30.867188zm0 0" fill="#dfe0e0"/><path d="m315.433594 425.015625 84.078125-84.078125 15.433593 15.429688-84.078124 84.078124zm0 0" fill="#c9caca"/><path d="m357.144531 325.613281 57.695313 57.695313c1.773437 1.773437 4.644531 1.773437 6.414062 0l20.636719-20.636719c1.773437-1.769531 1.773437-4.640625 0-6.414063l-57.695313-57.695312c-1.769531-1.773438-4.640624-1.773438-6.414062 0l-20.636719 20.636719c-1.773437 1.769531-1.773437 4.644531 0 6.414062zm0 0" fill="#fbe067"/><path d="m400.042969 362.097656 20.636719-20.636718c1.769531-1.773438 1.769531-4.644532 0-6.417969l21.210937 21.214843c1.773437 1.769532 1.773437 4.644532 0 6.414063l-20.636719 20.636719c-1.769531 1.773437-4.640625 1.773437-6.414062 0l-21.210938-21.210938c1.769532 1.769532 4.640625 1.769532 6.414063 0zm0 0" fill="#e7ce5f"/><path d="m76.992188 504.5c0-91.960938 74.546874-166.507812 166.507812-166.507812s166.507812 74.546874 166.507812 166.507812zm0 0" fill="#494f57"/><path d="m410.007812 504.5h-273.890624l158.460937-158.515625c66.972656 21.5625 115.429687 84.375 115.429687 158.515625zm0 0" fill="#535860"/><path d="m191.476562 504.472656h-55.359374l158.4375-158.488281c13.402343 4.316406 26.0625 10.289063 37.742187 17.667969zm0 0" fill="#cb556a"/><path d="m76.992188 504.5h273.894531l-158.464844-158.515625c-66.96875 21.5625-115.429687 84.375-115.429687 158.515625zm0 0" fill="#5c626b"/><path d="m259.136719 338.726562c-5.148438-.476562-10.363281-.734374-15.636719-.734374-91.960938 0-166.507812 74.546874-166.507812 166.507812h31.273437c-.003906-86.6875 66.242187-157.890625 150.871094-165.773438zm0 0" fill="#535860"/><path d="m295.5 504.472656h55.359375l-158.4375-158.488281c-13.402344 4.316406-26.0625 10.289063-37.742187 17.667969zm0 0" fill="#e15f76"/><path d="m201.429688 354.996094-9.007813-9.011719c-13.402344 4.316406-26.0625 10.289063-37.742187 17.667969l13.191406 13.195312c10.214844-8.5625 21.476562-15.914062 33.558594-21.851562zm0 0" fill="#cb556a"/><path d="m422.386719 186.386719c0 98.792969-80.089844 178.882812-178.886719 178.882812s-178.886719-80.089843-178.886719-178.882812c0-98.796875 80.089844-178.886719 178.886719-178.886719s178.886719 80.089844 178.886719 178.886719zm0 0" fill="#5c626b"/><path d="m94.617188 186.386719c0-93.746094 72.109374-170.632813 163.882812-178.253907-4.945312-.410156-9.945312-.632812-15-.632812-98.792969 0-178.882812 80.089844-178.882812 178.886719 0 98.792969 80.085937 178.886719 178.882812 178.886719 5.054688 0 10.054688-.222657 15-.632813-91.773438-7.621094-163.882812-84.511719-163.882812-178.253906zm0 0" fill="#535860"/><path d="m64.617188 186.386719c0 4.378906.164062 8.722656.472656 13.023437.683594.054688 1.371094.089844 2.0625.089844h352.699218c.6875 0 1.375-.035156 2.058594-.089844.308594-4.300781.476563-8.644531.476563-13.023437 0-13.625-1.53125-26.886719-4.414063-39.636719h-348.941406c-2.886719 12.75-4.414062 26.011719-4.414062 39.636719zm0 0" fill="#535860"/><path d="m309.050781 262.457031-22.304687-9.289062c-27.679688-11.527344-58.8125-11.527344-86.492188 0l-22.304687 9.289062c-26.699219 11.117188-56.117188-8.5-56.117188-37.421875 0-22.386718 18.148438-40.535156 40.535157-40.535156h162.265624c22.386719 0 40.535157 18.148438 40.535157 40.535156 0 28.921875-29.417969 48.539063-56.117188 37.421875zm0 0" fill="#f7c2ad"/><path d="m324.632812 184.5h-162.265624c-22.386719 0-40.535157 18.148438-40.535157 40.535156 0 28.707032 28.984375 48.230469 55.523438 37.644532-14.582031-5.859376-25.523438-20.015626-25.523438-37.644532 0-.097656 0-.195312.003907-.289062.097656-14.027344 11.722656-25.246094 25.746093-25.246094h178.523438c-7.429688-9.148438-18.765625-15-31.472657-15zm0 0" fill="#efb5a0"/><path d="m67.152344 184.5h352.699218c6.953126 0 12.488282-5.917969 11.921876-12.851562-1.589844-19.515626-6.304688-38.148438-13.65625-55.390626-1.878907-4.402343-6.214844-7.257812-11-7.257812h-327.230469c-4.789063 0-9.121094 2.855469-11 7.257812-7.351563 17.242188-12.070313 35.875-13.660157 55.390626-.5625 6.933593 4.96875 12.851562 11.925782 12.851562zm0 0" fill="#e15f76"/><path d="m85.226562 171.648438c1.589844-19.515626 6.308594-38.148438 13.660157-55.390626 1.878906-4.402343 6.210937-7.257812 11-7.257812h-30c-4.789063 0-9.125 2.855469-11 7.257812-7.351563 17.242188-12.070313 35.875-13.660157 55.390626-.5625 6.933593 4.96875 12.851562 11.921876 12.851562h30c-6.953126 0-12.484376-5.917969-11.921876-12.851562zm0 0" fill="#cb556a"/><path d="m307.191406 203.753906c-4.144531 0-7.5 3.359375-7.5 7.5v11.355469c0 4.144531 3.355469 7.5 7.5 7.5 4.140625 0 7.5-3.355469 7.5-7.5v-11.355469c0-4.140625-3.359375-7.5-7.5-7.5zm0 0"/><path d="m179.8125 203.753906c-4.144531 0-7.5 3.359375-7.5 7.5v11.355469c0 4.144531 3.355469 7.5 7.5 7.5 4.140625 0 7.5-3.355469 7.5-7.5v-11.355469c0-4.140625-3.359375-7.5-7.5-7.5zm0 0"/><path d="m478.410156 262.042969c-5.539062-5.539063-12.902344-8.589844-20.734375-8.589844s-15.199219 3.050781-20.734375 8.589844l-39.332031 39.328125-4.265625-4.269532c22.425781-30.273437 35.902344-67.546874 36.503906-107.886718 1.589844-.953125 3.058594-2.113282 4.335938-3.496094 3.65625-3.964844 5.5-9.316406 5.066406-14.675781-1.625-19.964844-6.417969-39.390625-14.238281-57.726563-2.742188-6.429687-8.664063-10.808594-15.480469-11.65625-15.03125-29.410156-37.582031-54.328125-65.484375-72.238281-29.988281-19.25-64.753906-29.421875-100.546875-29.421875-35.789062 0-70.558594 10.171875-100.546875 29.421875-27.898437 17.90625-50.449219 42.828125-65.484375 72.238281-6.816406.847656-12.738281 5.226563-15.480469 11.65625-7.820312 18.335938-12.609375 37.757813-14.234375 57.722656-.4375 5.363282 1.410156 10.710938 5.066406 14.679688 1.273438 1.382812 2.742188 2.542969 4.332032 3.492188.601562 40.34375 14.082031 77.617187 36.507812 107.890624l-4.269531 4.269532-39.328125-39.328125c-5.539062-5.539063-12.902344-8.589844-20.738281-8.589844-7.832031 0-15.195313 3.050781-20.734375 8.589844-5.539063 5.539062-8.589844 12.902343-8.589844 20.734375 0 7.835937 3.050781 15.199218 8.589844 20.734375l9.585937 9.585937c0 .003906 0 .003906.003907.003906 0 .003907 0 .003907.003906.003907l17.691406 17.695312h.003906v.003907l12.039063 12.039062-8.109375 8.113281c-4.695313 4.691407-4.695313 12.328125 0 17.019531l20.636718 20.636719c2.34375 2.347657 5.429688 3.519531 8.511719 3.519531s6.164063-1.171874 8.507813-3.519531l8.113281-8.113281 19.132813 19.136719c-22.382813 29.65625-35.214844 66.304687-35.214844 104.863281 0 4.144531 3.355468 7.5 7.5 7.5h333.015625c4.144531 0 7.5-3.355469 7.5-7.5 0-38.546875-12.835938-75.195312-35.222657-104.859375l19.140626-19.140625 8.109374 8.113281c2.347657 2.347657 5.429688 3.519531 8.511719 3.519531s6.164063-1.171874 8.511719-3.519531l20.636719-20.636719c4.691406-4.691406 4.691406-12.328124 0-17.019531l-8.113281-8.113281 12.042968-12.039062v-.003907h.003906l17.691407-17.695312s.003906 0 .003906-.003907c0 0 .003906 0 .003906-.003906l9.585938-9.585937c5.539062-5.539063 8.589843-12.898438 8.589843-20.734375-.007812-7.832032-3.058593-15.195313-8.597656-20.734375zm-414.5625-86.492188c-.484375-.527343-1.277344-1.652343-1.144531-3.292969 1.496094-18.351562 5.894531-36.203124 13.082031-53.054687.699219-1.644531 2.308594-2.703125 4.101563-2.703125h238.410156c4.140625 0 7.5-3.359375 7.5-7.5s-3.359375-7.5-7.5-7.5h-223.710937c30.289062-52.914062 87.472656-86.5 148.914062-86.5s118.628906 33.585938 148.914062 86.5h-46.117187c-4.140625 0-7.5 3.359375-7.5 7.5s3.359375 7.5 7.5 7.5h58.507813c.007812 0 .019531.003906.027343.003906.011719 0 .023438-.003906.035157-.003906h2.25c1.789062 0 3.398437 1.0625 4.101562 2.703125 7.1875 16.851563 11.585938 34.703125 13.082031 53.054687.132813 1.640626-.660156 2.769532-1.144531 3.292969-.5.542969-1.59375 1.449219-3.304688 1.449219h-352.699218c-1.714844 0-2.808594-.90625-3.304688-1.449219zm293.820313 49.484375c0 11.234375-5.359375 21.25-14.707031 27.484375-9.347657 6.230469-20.65625 7.332031-31.027344 3.011719l-22.304688-9.289062c-29.316406-12.207032-62.941406-12.207032-92.257812 0l-22.304688 9.289062c-10.371094 4.316406-21.679687 3.21875-31.027344-3.011719-9.34375-6.234375-14.707031-16.25-14.707031-27.484375 0-18.214844 14.820313-33.035156 33.035157-33.035156h162.265624c18.214844 0 33.035157 14.820312 33.035157 33.035156zm-285.453125-33.035156h55.332031c-8.179687 8.617188-13.214844 20.246094-13.214844 33.035156 0 16.09375 7.996094 31.035156 21.386719 39.964844s30.257812 10.566406 45.113281 4.378906l22.304688-9.289062c25.648437-10.679688 55.074219-10.679688 80.722656 0l22.308594 9.289062c5.957031 2.480469 12.230469 3.703125 18.480469 3.703125 9.335937 0 18.609374-2.734375 26.632812-8.082031 13.390625-8.929688 21.382812-23.871094 21.382812-39.964844 0-12.789062-5.03125-24.417968-13.210937-33.035156h55.328125c-2.972656 91.914062-78.65625 165.769531-171.28125 165.769531-92.621094 0-168.308594-73.855469-171.285156-165.769531zm287.738281 147.03125-20.382813 20.378906c-3.710937-2.460937-7.53125-4.789062-11.457031-6.976562 9.792969-5.011719 19.082031-10.867188 27.78125-17.464844zm-77.457031 29.621094c9.640625-2.058594 19.003906-4.863282 28.027344-8.355469 3.28125 1.527344 6.496093 3.15625 9.632812 4.886719l-48.964844 48.96875-17.097656-17.09375zm-39.007813 17.796875-14.21875-14.21875c4.699219.355469 9.445313.539062 14.230469.539062 4.777344 0 9.515625-.183593 14.203125-.535156zm-84.601562-34.015625c-3.921875 2.1875-7.746094 4.511718-11.457031 6.976562l-20.382813-20.378906 4.0625-4.0625c8.699219 6.597656 17.988281 12.453125 27.777344 17.464844zm-96.972657-47.671875c-2.925781-2.929688-7.675781-2.929688-10.605468 0l-10.128906 10.128906-7.089844-7.09375 10.128906-10.128906c2.929688-2.925781 2.929688-7.675781 0-10.605469s-7.679688-2.929688-10.605469 0l-10.128906 10.128906-4.285156-4.285156c-2.707031-2.703125-4.199219-6.300781-4.199219-10.128906 0-3.824219 1.492188-7.421875 4.199219-10.128906 2.703125-2.703126 6.300781-4.195313 10.128906-4.195313 3.824219 0 7.421875 1.492187 10.128906 4.195313l39.328125 39.328124-20.257812 20.261719-6.738282-6.738281 10.128907-10.128906c2.925781-2.929688 2.925781-7.679688-.003907-10.609375zm7.039063 71.148437-16.445313-16.445312 50.609376-50.609375c5.105468 5.84375 10.574218 11.363281 16.359374 16.53125zm27.230469-6.015625 20.257812-20.257812 18.714844 18.714843c-7.511719 5.996094-14.488281 12.570313-20.863281 19.65625zm202.449218 127.105469-79.390624-79.386719c-2.925782-2.929687-7.675782-2.929687-10.605469 0-2.929688 2.925781-2.929688 7.675781 0 10.605469l68.785156 68.78125h-192.753906c2.367187-50.023438 28.304687-95.789062 69.027343-123.722656l36.863282 36.863281c1.464844 1.464844 3.386718 2.195313 5.304687 2.195313s3.839844-.730469 5.300781-2.195313c2.929688-2.929687 2.929688-7.679687 0-10.605469l-34.335937-34.339844c3.144531-1.734374 6.363281-3.367187 9.648437-4.898437 9.015626 3.488281 18.367188 6.289063 27.996094 8.351563l128.351563 128.351562zm103.699219 0h-48.292969l-72.242187-72.242188 51.496094-51.492187c40.726562 27.933594 66.667969 73.722656 69.039062 123.734375zm-29.632812-108.988281c-6.371094-7.082031-13.347657-13.664063-20.859375-19.65625l18.71875-18.71875 20.257812 20.257812zm45.347656-12.101563-50.523437-50.523437c5.785156-5.167969 11.253906-10.6875 16.359374-16.53125l50.609376 50.609375zm49.757813-83.003906-4.285157 4.285156-10.128906-10.128906c-2.929687-2.929688-7.675781-2.929688-10.605469 0-2.929687 2.929688-2.929687 7.679688 0 10.605469l10.128906 10.128906-7.089843 7.09375-10.128907-10.128906c-2.929687-2.929688-7.679687-2.929688-10.609374 0-2.925782 2.929687-2.925782 7.679687 0 10.605469l10.128906 10.128906-6.738282 6.738281-20.257812-20.257813 39.328125-39.328124c2.707031-2.707032 6.304687-4.195313 10.128906-4.195313 3.828125 0 7.425781 1.488281 10.128907 4.195313 2.707031 2.707031 4.199218 6.300781 4.199218 10.128906-.003906 3.828125-1.492187 7.425781-4.199218 10.128906zm0 0"/></svg>