<svg id="Capa_1" enable-background="new 0 0 512 512" height="512" viewBox="0 0 512 512" width="512" xmlns="http://www.w3.org/2000/svg"><g><g><g><path d="m475.53 266.89c-.79 1.38-1.63 2.72-2.5 4.03-27.72 23.36-94.795 27.98-129.785-1.39-55.87-44.44-25.67-153.879 44.346-145h.02c17.53 2.26 34.3 7.48 47.63 15.17 43.039 24.85 65.149 84.14 40.289 127.19z" fill="#fff8e6"/><path d="m473.03 270.92c-26.32 39.65-86.13 48.73-127.79 24.67-43.05-24.86-81.62-93.66-56.77-136.7 17.16-29.72 60.06-39.39 99.14-34.36-55.465-5.498-70.999 89.68-15.117 134.129 34.99 29.369 72.817 35.621 100.537 12.261z" fill="#fff1cf"/><path d="m440.89 256.88c-.25.44-.51.88-.78 1.3-18.373 8.737-34.485 6.257-44.495.477-23.91-13.8-24.65-47.747-10.85-71.656.25-.44 6.015-4.631 6.015-4.631 10.62-1.48 21.8.44 31.81 6.22 23.91 13.81 32.1 44.38 18.3 68.29z" fill="#fab658"/><path d="m440.11 258.18c-14.15 22.9-44.04 30.56-67.51 17-23.92-13.8-32.11-44.38-18.3-68.29 8.03-13.9 21.72-22.49 36.48-24.52-.27.42-.53.85-.78 1.29-13.8 23.91-5.61 54.49 18.3 68.29 10.01 5.78 21.19 7.71 31.81 6.23z" fill="#f8ad3e"/></g><g><path d="m91.941 127.636c19.136-6.965 43.66 12.145 52.462 36.328 14.952 41.079-7.837 86.276-7.837 86.276s-46.509-19.974-61.461-61.054c-8.802-24.182-2.3-54.585 16.836-61.55z" fill="#9cda82"/><path d="m18.3 195.093c-8.606 18.456 8.294 44.552 31.618 55.428 39.62 18.475 86.631-.288 86.631-.288s-15.845-48.073-55.465-66.548c-23.324-10.876-54.177-7.048-62.784 11.408z" fill="#ace094"/></g><g><path d="m70.5 126.886c0 8.244 6.582 14.979 14.823 15.169l408.946 9.422c5.612.129 10.23-4.384 10.23-9.997v-19.767c0-5.523-4.477-10-10-10h-408.827c-8.379 0-15.172 6.793-15.172 15.173z" fill="#77899b"/><path d="m312.46 38.98 5.547-8.783c6.223-9.852-.857-22.697-12.509-22.697-5.077 0-9.799 2.603-12.51 6.895l-8.782 13.905c-10.301 16.31-20.301 37.09-10 53.399l6.392 10.12c4.12 6.524 4.12 14.836 0 21.36l-6.392 10.12c-10.301 16.309-.301 37.09 10 53.399l-3.608 10.12c4.12 6.524 4.12 14.836 0 21.36l-6.392 10.12c-10.301 16.309-10.301 37.09 0 53.399l6.392 10.12c4.12 6.524 4.12 14.836 0 21.36l-6.392 10.12c-10.301 16.31-.301 37.09 10 53.399l13.137 20.8h35l-23.255-36.82c-4.12-6.524-4.12-14.836 0-21.36l6.392-10.12c10.301-16.31 10.301-37.09 0-53.399l-3.019-4.781c-6.18-9.786-6.18-22.254 0-32.04l3.019-4.781c10.301-16.309 10.301-37.09 0-53.399l-3.019-4.781c-6.18-9.786-6.18-22.254 0-32.04l3.019-4.781c10.301-16.31 10.301-37.09 0-53.399l-3.019-4.781c-6.181-9.78-6.181-22.248-.001-32.034z" fill="#fab658"/><path d="m279.46 38.98 5.547-8.783c6.223-9.852-.857-22.697-12.509-22.697-5.077 0-9.799 2.603-12.51 6.895l-8.782 13.905c-10.301 16.31-20.301 37.09-10 53.399l6.392 10.12c4.12 6.524 4.12 14.836 0 21.36l-6.392 10.12c-10.301 16.309-.301 37.09 10 53.399l-3.608 10.12c4.12 6.524 4.12 14.836 0 21.36l-6.392 10.12c-10.301 16.309-10.301 37.09 0 53.399l6.392 10.12c4.12 6.524 4.12 14.836 0 21.36l-6.392 10.12c-10.301 16.31-.301 37.09 10 53.399l13.137 20.8h35l-23.255-36.82c-4.12-6.524-4.12-14.836 0-21.36l6.392-10.12c10.301-16.31 10.301-37.09 0-53.399l-3.019-4.781c-6.18-9.786-6.18-22.254 0-32.04l3.019-4.781c10.301-16.309 10.301-37.09 0-53.399l-3.019-4.781c-6.18-9.786-6.18-22.254 0-32.04l3.019-4.781c10.301-16.31 10.301-37.09 0-53.399l-3.019-4.781c-6.181-9.78-6.181-22.248-.001-32.034z" fill="#fad989"/><path d="m246.46 38.98 5.547-8.783c6.223-9.852-.857-22.697-12.509-22.697-5.077 0-9.799 2.603-12.51 6.895l-8.782 13.905c-10.301 16.31-20.301 37.09-10 53.399l6.392 10.12c4.12 6.524 4.12 14.836 0 21.36l-6.392 10.12c-10.301 16.309-.301 37.09 10 53.399l-3.608 10.12c4.12 6.524 4.12 14.836 0 21.36l-6.392 10.12c-10.301 16.309-10.301 37.09 0 53.399l6.392 10.12c4.12 6.524 4.12 14.836 0 21.36l-6.392 10.12c-10.301 16.31-.301 37.09 10 53.399l13.137 20.8h35l-23.255-36.82c-4.12-6.524-4.12-14.836 0-21.36l6.392-10.12c10.301-16.31 10.301-37.09 0-53.399l-3.019-4.781c-6.18-9.786-6.18-22.254 0-32.04l3.019-4.781c10.301-16.309 10.301-37.09 0-53.399l-3.019-4.781c-6.18-9.786-6.18-22.254 0-32.04l3.019-4.781c10.301-16.31 10.301-37.09 0-53.399l-3.019-4.781c-6.181-9.78-6.181-22.248-.001-32.034z" fill="#fab658"/><path d="m213.46 38.98 5.547-8.783c6.223-9.852-.857-22.697-12.509-22.697-5.077 0-9.799 2.603-12.51 6.895l-8.782 13.905c-10.301 16.31-20.301 37.09-10 53.399l6.392 10.12c4.12 6.524 4.12 14.836 0 21.36l-6.392 10.12c-10.301 16.309-.301 37.09 10 53.399l-3.608 10.12c4.12 6.524 4.12 14.836 0 21.36l-6.392 10.12c-10.301 16.309-10.301 37.09 0 53.399l6.392 10.12c4.12 6.524 4.12 14.836 0 21.36l-6.392 10.12c-10.301 16.31-.301 37.09 10 53.399l13.137 20.8h35l-23.255-36.82c-4.12-6.524-4.12-14.836 0-21.36l6.392-10.12c10.301-16.31 10.301-37.09 0-53.399l-3.019-4.781c-6.18-9.786-6.18-22.254 0-32.04l3.019-4.781c10.301-16.309 10.301-37.09 0-53.399l-3.019-4.781c-6.18-9.786-6.18-22.254 0-32.04l3.019-4.781c10.301-16.31 10.301-37.09 0-53.399l-3.019-4.781c-6.181-9.78-6.181-22.248-.001-32.034z" fill="#fad989"/><path d="m180.46 38.98 5.547-8.783c6.223-9.852-.857-22.697-12.509-22.697-5.077 0-9.799 2.603-12.51 6.895l-8.782 13.905c-10.301 16.31-20.301 37.09-10 53.399l6.392 10.12c4.12 6.524 4.12 14.836 0 21.36l-6.392 10.12c-10.301 16.309-.301 37.09 10 53.399l-3.608 10.12c4.12 6.524 4.12 14.836 0 21.36l-6.392 10.12c-10.301 16.309-10.301 37.09 0 53.399l6.392 10.12c4.12 6.524 4.12 14.836 0 21.36l-6.392 10.12c-10.301 16.31-.301 37.09 10 53.399l13.137 20.8h35l-23.255-36.82c-4.12-6.524-4.12-14.836 0-21.36l6.392-10.12c10.301-16.31 10.301-37.09 0-53.399l-3.019-4.781c-6.18-9.786-6.18-22.254 0-32.04l3.019-4.781c10.301-16.309 10.301-37.09 0-53.399l-3.019-4.781c-6.18-9.786-6.18-22.254 0-32.04l3.019-4.781c10.301-16.31 10.301-37.09 0-53.399l-3.019-4.781c-6.181-9.78-6.181-22.248-.001-32.034z" fill="#fab658"/><path d="m147.46 38.98 5.547-8.783c6.223-9.852-.857-22.697-12.509-22.697-5.077 0-9.799 2.603-12.51 6.895l-8.782 13.905c-10.301 16.31-10.301 37.09 0 53.399l6.392 10.12c4.12 6.524 4.12 14.836 0 21.36l-6.392 10.12c-10.301 16.309-10.301 37.09 0 53.399l6.392 10.12c4.12 6.524 4.12 14.836 0 21.36l-6.392 10.12c-10.301 16.309-10.301 37.09 0 53.399l6.392 10.12c4.12 6.524 4.12 14.836 0 21.36l-6.392 10.12c-10.301 16.31-10.301 37.09 0 53.399l13.137 20.8h35l-23.255-36.82c-4.12-6.524-4.12-14.836 0-21.36l6.392-10.12c10.301-16.31 10.301-37.09 0-53.399l-3.019-4.781c-6.18-9.786-6.18-22.254 0-32.04l3.019-4.781c10.301-16.309 10.301-37.09 0-53.399l-3.019-4.781c-6.18-9.786-6.18-22.254 0-32.04l3.019-4.781c10.301-16.31 10.301-37.09 0-53.399l-3.019-4.781c-6.181-9.78-6.181-22.248-.001-32.034z" fill="#fad989"/><path d="m70.5 60.682c0 8.38 6.793 15.173 15.173 15.173h408.827c5.523 0 10-4.477 10-10v-19.767c0-5.613-4.619-10.127-10.23-9.997l-408.947 9.423c-8.241.19-14.823 6.925-14.823 15.168z" fill="#8697a6"/></g><path d="m331 504.5h-150c-16.569 0-30-13.431-30-30v-70h210v70c0 16.569-13.431 30-30 30z" fill="#f85647"/><g><path d="m504.5 274.5v30c0 82.84-67.16 150-150 150h-53.83c-108.732-37.57-168.586-136.793-65.02-210h238.85c16.57 0 30 13.43 30 30z" fill="#fd7a6e"/><path d="m300.67 454.5h-143.17c-82.84 0-150-67.16-150-150v-30c0-16.57 13.43-30 30-30h198.15c-37.512 73.067-5.234 172.345 65.02 210z" fill="#fb695b"/></g><g><path d="m203.749 355.865c.007 13.438-13.667 24.338-30.541 24.346s-30.559-10.878-30.566-24.315c-.007-13.438 13.667-24.338 30.541-24.347s30.559 10.878 30.566 24.316z" fill="#fff"/><path d="m308.251 355.812c.007 13.438 13.691 24.324 30.566 24.315 16.874-.008 30.548-10.908 30.541-24.346s-13.691-24.325-30.566-24.316c-16.874.009-30.548 10.909-30.541 24.347z" fill="#fff"/><path d="m285.944 344.824c-.009-18.509-13.419-20.242-29.96-20.233-16.54.008-29.949 1.754-29.939 20.263.009 18.509 13.426 33.506 29.966 33.498 16.541-.008 29.942-15.019 29.933-33.528z" fill="#666667"/></g></g><g><g><path d="m255.999 385.853c-20.644.001-37.443-18.386-37.454-40.994-.006-11.429 4.324-19.423 12.868-23.762 6.536-3.318 14.548-4.001 24.568-4.006h.117c9.966 0 17.941.683 24.455 3.981 8.548 4.33 12.885 12.32 12.891 23.748.012 22.614-16.778 41.021-37.428 41.032-.006.001-.012.001-.017.001zm.115-53.762c-.042 0-.083 0-.126 0-6.808.003-13.674.294-17.784 2.381-2.422 1.229-4.663 3.338-4.659 10.379.007 14.339 10.08 26.001 22.454 26.002h.009c12.378-.007 22.443-11.681 22.436-26.024-.003-7.041-2.246-9.147-4.669-10.374-4.087-2.071-10.895-2.364-17.661-2.364z"/><path d="m321.698 335.47c-.005 0-.009 0-.014 0-4.143-.008-7.494-3.372-7.486-7.514l.022-12c.008-4.138 3.364-7.486 7.5-7.486h.014c4.143.008 7.494 3.372 7.486 7.514l-.022 12c-.008 4.137-3.364 7.486-7.5 7.486z"/><path d="m210.124 334.371c-.006 0-.011 0-.017 0-4.142-.009-7.493-3.374-7.483-7.517.004-1.753-.675-3.402-1.912-4.645s-2.883-1.929-4.636-1.933c-.004 0-.009 0-.014 0-3.612 0-6.555 2.935-6.563 6.549-.009 4.136-3.366 7.483-7.5 7.483-.006 0-.011 0-.017 0-4.142-.009-7.493-3.374-7.483-7.517.026-11.873 9.695-21.516 21.562-21.516h.047c5.76.013 11.17 2.268 15.234 6.349 4.063 4.082 6.294 9.502 6.282 15.262-.01 4.137-3.366 7.485-7.5 7.485z"/></g><path d="m494.5 68.35h-84.99c-4.143 0-7.5 3.357-7.5 7.5s3.357 7.5 7.5 7.5h84.99c9.649 0 17.5-7.851 17.5-17.5v-19.76c0-4.754-1.871-9.2-5.27-12.521-3.397-3.32-7.855-5.062-12.634-4.978l-168.768 3.887c3.429-6.62 3.354-14.314-.306-20.952-3.98-7.216-11.279-11.526-19.522-11.526-3.763 0-7.487.961-10.734 2.758-2.164 1.182-4.11 2.729-5.761 4.546-.063-.07-.122-.143-.187-.212-4.237-4.573-10.032-7.092-16.318-7.092-3.763 0-7.487.961-10.734 2.758-2.164 1.182-4.11 2.729-5.76 4.546-.063-.07-.123-.143-.187-.213-4.238-4.572-10.033-7.091-16.319-7.091-3.762 0-7.487.96-10.735 2.758-2.164 1.182-4.109 2.729-5.759 4.546-.063-.07-.123-.143-.187-.213-4.238-4.572-10.033-7.091-16.319-7.091-3.762 0-7.487.96-10.735 2.758-2.164 1.182-4.109 2.729-5.759 4.546-.063-.07-.123-.143-.187-.213-4.238-4.572-10.033-7.091-16.319-7.091-3.762 0-7.487.96-10.735 2.758-2.164 1.182-4.109 2.729-5.759 4.546-.063-.07-.123-.143-.187-.213-4.238-4.572-10.033-7.091-16.319-7.091-3.762 0-7.487.96-10.735 2.758-3.307 1.807-6.117 4.454-8.115 7.637l-8.778 13.896c-2.625 4.15-4.677 8.582-6.156 13.224l-21.57.497c-12.211.282-22.146 10.451-22.146 22.668 0 12.506 10.17 22.68 22.67 22.68l25.805-.001c.446.787.905 1.57 1.393 2.345l6.392 10.123c1.596 2.525 2.196 5.51 1.804 8.383h-35.394c-12.5 0-22.67 10.174-22.67 22.68 0 5.645 2.125 10.849 5.614 14.845-3.678 8.557-5.324 18.735-4.754 29.151-7.032-1.003-14.155-.992-20.89.103-15.142 2.463-26.317 9.896-31.468 20.934-4.36 9.355-3.896 20.752 1.306 32.092 2.541 5.54 6.122 10.899 10.486 15.789-13.652 5.609-23.294 19.045-23.294 34.696v30c0 82.127 63.189 149.762 143.5 156.871v13.129c0 20.678 16.822 37.5 37.5 37.5h150c20.678 0 37.5-16.822 37.5-37.5v-13.129c80.311-7.109 143.5-74.744 143.5-156.871v-30c0-14.246-7.986-26.66-19.715-33.006 4.491-28.299-4.685-59.368-24-83.112l25.81.596c.14.003.278.005.417.005 4.593 0 8.916-1.761 12.215-4.984 3.4-3.321 5.272-7.768 5.272-12.519v-19.77c0-9.649-7.851-17.5-17.5-17.5h-163.895c.206-7.052-.849-14.135-3.207-20.859l47.113-.002c4.143 0 7.5-3.358 7.5-7.5 0-4.143-3.358-7.5-7.5-7.5l-288.84.011c-4.229 0-7.67-3.445-7.67-7.681 0-4.135 3.361-7.576 7.493-7.672l408.951-9.42c.953-.047 1.523.437 1.804.71.281.275.753.873.753 1.792v19.76c-.001 1.38-1.122 2.501-2.501 2.501zm-408.83 50.86h27.252l-.052.082c-3.117 4.931-5.401 10.245-6.87 15.736l-20.508-.476c-4.131-.095-7.492-3.532-7.492-7.662 0-4.235 3.441-7.68 7.67-7.68zm33.59 71.617c2.562 4.054 2.562 9.292-.002 13.349l-.244.386c-10.267-12.396-21.925-21.683-34.763-27.668-1.62-.756-3.279-1.449-4.965-2.081-1.22-9.056-.327-18.207 2.467-25.603 1.106.196 2.239.312 3.392.338l18.881.438c-.003 10.694 2.944 21.389 8.841 30.718zm-94.164 7.435c6.386-13.684 32.051-17.463 52.815-7.773 12.121 5.651 23.115 14.96 32.738 27.682-3.111 5.894-5.182 12.257-6.102 18.829h-62.373c-14.591-11.378-22.06-28.049-17.078-38.738zm471.904 76.238v30c0 78.575-63.925 142.5-142.5 142.5h-120.48c-4.142 0-7.5 3.357-7.5 7.5s3.358 7.5 7.5 7.5h119.48v12.5c0 12.406-10.094 22.5-22.5 22.5h-150c-12.407 0-22.5-10.094-22.5-22.5v-12.5h40.52c4.142 0 7.5-3.357 7.5-7.5s-3.358-7.5-7.5-7.5h-41.52c-78.575 0-142.5-63.925-142.5-142.5v-30c0-12.406 10.093-22.5 22.5-22.5h338.85c4.143 0 7.5-3.357 7.5-7.5s-3.357-7.5-7.5-7.5h-20.939c-1.123-9.093.719-18.278 5.385-26.361 11.711-20.29 37.752-27.267 58.043-15.554 14.86 8.582 22.96 25.243 20.937 41.915h-28.426c-4.143 0-7.5 3.357-7.5 7.5s3.357 7.5 7.5 7.5h63.15c12.406 0 22.5 10.094 22.5 22.5zm-178.199-136.514 3.021-4.781c2.783-4.407 4.89-9.123 6.357-13.995h166.321c1.379 0 2.5 1.121 2.5 2.5v19.771c0 .915-.474 1.515-.755 1.79-.281.274-.906.77-1.803.712l-176.708-4.079c.326-.652.674-1.295 1.067-1.918zm128.514 19.913c22.447 20.699 34.127 51.458 30.445 79.252-1.075-.093-2.161-.151-3.26-.151h-19.637c1.952-21.95-8.958-43.606-28.524-54.906-27.461-15.847-62.689-6.407-78.535 21.047-6.001 10.399-8.544 22.147-7.474 33.859h-23.533c.531-1.393 1.198-2.738 2.004-4.014l3.021-4.781c11.778-18.652 11.778-42.758-.001-61.411l-3.02-4.778c-1.405-2.225-2.375-4.65-2.924-7.151zm-158.494-24.694c9.462-14.98 11.316-33.485 5.572-49.853h16.723c6.645 13.199 6 29.213-1.977 41.842l-3.021 4.782c-7.679 12.164-7.679 27.883.001 40.049l3.02 4.779c8.707 13.787 8.707 31.604.001 45.39l-3.021 4.781c-2.346 3.714-4.002 7.785-4.928 12.024h-17.395c.531-1.393 1.198-2.738 2.004-4.014l3.021-4.781c11.778-18.652 11.778-42.758-.001-61.411l-3.02-4.778c-4.607-7.299-4.607-16.732-.001-24.029zm-33 0c9.462-14.98 11.316-33.484 5.573-49.851h16.719c6.648 13.197 6.004 29.211-1.973 41.841l-3.021 4.782c-7.679 12.164-7.679 27.883.001 40.049l3.02 4.779c8.707 13.787 8.707 31.604.001 45.39l-3.021 4.781c-2.346 3.714-4.002 7.785-4.928 12.024h-17.395c.531-1.393 1.199-2.738 2.004-4.014l3.021-4.781c11.779-18.652 11.779-42.758 0-61.411l-3.019-4.778c-4.608-7.299-4.608-16.732-.001-24.029zm-33 .001c9.462-14.979 11.316-33.484 5.574-49.851h16.719c6.648 13.197 6.003 29.211-1.974 41.84l-3.021 4.782c-7.68 12.164-7.68 27.883.001 40.049l3.02 4.779c8.707 13.787 8.707 31.604 0 45.39l-3.021 4.781c-2.345 3.714-4.001 7.785-4.927 12.024h-17.395c.531-1.393 1.199-2.738 2.004-4.014l3.021-4.781c11.779-18.652 11.779-42.758 0-61.411l-3.019-4.778c-4.608-7.299-4.608-16.732-.001-24.029zm-33 0c9.46-14.977 11.317-33.481 5.579-49.85h16.714c6.647 13.197 6.003 29.21-1.975 41.839l-3.021 4.782c-7.68 12.164-7.68 27.883.001 40.049l3.02 4.779c8.706 13.787 8.706 31.604 0 45.39l-3.021 4.781c-2.345 3.714-4.001 7.785-4.927 12.024h-17.395c.531-1.393 1.199-2.738 2.004-4.014l3.021-4.781c11.779-18.652 11.779-42.758 0-61.411l-3.019-4.778c-4.608-7.299-4.608-16.732-.001-24.029zm-33 0c9.46-14.976 11.317-33.48 5.58-49.849h16.722c6.64 13.199 5.992 29.212-1.983 41.837l-3.021 4.782c-7.68 12.164-7.68 27.883.001 40.049l3.02 4.779c8.706 13.787 8.706 31.604 0 45.39l-3.021 4.781c-2.345 3.714-4.001 7.785-4.927 12.024h-17.395c.531-1.393 1.199-2.738 2.004-4.014l3.021-4.781c11.779-18.652 11.779-42.758 0-61.411l-3.019-4.778c-4.608-7.299-4.608-16.732-.001-24.029zm-24.879-45.39-2.815-4.458 16.996-.001c6.639 13.199 5.991 29.211-1.984 41.836l-3.021 4.782c-7.68 12.164-7.68 27.883.001 40.049l3.02 4.779c8.706 13.787 8.706 31.604 0 45.39l-3.021 4.781c-2.345 3.714-4.001 7.785-4.927 12.024h-16.427c.993-5.188 2.931-10.176 5.787-14.696l6.388-10.117c5.638-8.922 5.638-20.451.002-29.37l-6.392-10.124c-8.714-13.785-8.714-31.6.002-45.389l6.388-10.117c5.639-8.92 5.639-20.45.003-29.369zm15.861-64.962c-.092 1.171-.474 2.296-1.133 3.34l-5.554 8.787c-.365.578-.709 1.169-1.042 1.766l-17.156.395c.77-1.66 1.645-3.275 2.633-4.836l8.792-13.918c.649-1.034 1.552-1.887 2.648-2.485 1.067-.59 2.281-.902 3.509-.902 2.643 0 4.349 1.243 5.315 2.286 1.417 1.528 2.141 3.563 1.988 5.567zm33 0c-.092 1.171-.474 2.296-1.133 3.34l-5.551 8.782c-.204.322-.38.669-.575 1l-15.538.358 1.346-2.129c1.598-2.531 2.643-5.258 3.139-8.135l4.852-7.681c.649-1.034 1.552-1.887 2.648-2.485 1.067-.59 2.28-.902 3.509-.902 2.643 0 4.349 1.243 5.315 2.286 1.417 1.527 2.141 3.562 1.988 5.566zm33 0c-.092 1.171-.474 2.296-1.133 3.34l-5.549 8.779c-.048.076-.089.156-.136.233l-15.492.357.858-1.358c1.598-2.531 2.643-5.258 3.139-8.135l4.852-7.681c.649-1.034 1.552-1.887 2.648-2.485 1.067-.59 2.28-.902 3.509-.902 2.643 0 4.349 1.243 5.315 2.286 1.418 1.527 2.142 3.562 1.989 5.566zm33 0c-.092 1.171-.474 2.296-1.133 3.34l-5.209 8.241-15.48.357.371-.587c1.598-2.531 2.643-5.258 3.139-8.135l4.852-7.681c.649-1.034 1.552-1.887 2.648-2.485 1.067-.59 2.28-.902 3.509-.902 2.643 0 4.349 1.243 5.315 2.286 1.417 1.527 2.141 3.562 1.988 5.566zm33.001-.003c-.093 1.173-.475 2.299-1.134 3.343l-4.722 7.469-15.492.357c1.534-2.479 2.551-5.142 3.035-7.95l4.852-7.682c.648-1.034 1.552-1.887 2.649-2.485 1.067-.591 2.279-.903 3.508-.903 2.643 0 4.35 1.243 5.315 2.286 1.417 1.529 2.141 3.565 1.989 5.565zm31.866 3.342-4.234 6.698-15.544.358c1.281-2.26 2.163-4.658 2.599-7.181l4.852-7.681c.648-1.034 1.552-1.887 2.649-2.485 1.067-.59 2.279-.902 3.508-.902 3.888 0 5.762 2.638 6.388 3.771.626 1.136 1.857 4.132-.218 7.422z"/></g></g></svg>