<?xml version="1.0" encoding="iso-8859-1"?>
<!-- Generator: Adobe Illustrator 19.0.0, SVG Export Plug-In . SVG Version: 6.00 Build 0)  -->
<svg version="1.1" id="Capa_1" xmlns="http://www.w3.org/2000/svg" xmlns:xlink="http://www.w3.org/1999/xlink" x="0px" y="0px"
	 viewBox="0 0 511.998 511.998" style="enable-background:new 0 0 511.998 511.998;" xml:space="preserve">
<path style="fill:#F3CE72;" d="M444.976,118.927c-12.212,12.212-49.621,29.82-61.833,17.607
	c-12.212-12.212,5.395-49.621,17.607-61.833c12.213-12.212,32.013-12.212,44.226,0C457.19,86.913,457.189,106.715,444.976,118.927z"
	/>
<path style="opacity:0.1;enable-background:new    ;" d="M444.976,118.927c-12.212,12.212-49.621,29.82-61.833,17.607
	c-12.212-12.212,5.395-49.621,17.607-61.833c12.213-12.212,32.013-12.212,44.226,0C457.19,86.913,457.189,106.715,444.976,118.927z"
	/>
<path style="fill:#F3CE72;" d="M411.744,196.297c-12.212-12.213-29.82-49.621-17.607-61.833
	c12.212-12.212,49.621,5.395,61.833,17.607c12.212,12.212,12.212,32.013,0,44.226C443.758,208.509,423.957,208.509,411.744,196.297z
	"/>
<path style="opacity:0.1;enable-background:new    ;" d="M411.744,196.297c-12.212-12.213-29.82-49.621-17.607-61.833
	c12.212-12.212,49.621,5.395,61.833,17.607c12.212,12.212,12.212,32.013,0,44.226C443.758,208.509,423.957,208.509,411.744,196.297z
	"/>
<g>
	<circle style="fill:#F0BDD5;" cx="105.351" cy="414.785" r="22.821"/>
	<circle style="fill:#F0BDD5;" cx="221.055" cy="444.983" r="22.821"/>
	<circle style="fill:#F0BDD5;" cx="34.969" cy="319.301" r="22.821"/>
	<circle style="fill:#F0BDD5;" cx="290.94" cy="444.983" r="22.821"/>
	<circle style="fill:#F0BDD5;" cx="477.03" cy="319.301" r="22.821"/>
</g>
<path style="fill:#E978A0;" d="M65.337,246.94c19.286,3.561,38.902,5.283,58.511,5.391c24.034,0.133,48.743-2.334,72.527-5.735
	l1.988-0.279c25.232-3.537,48.553,14.049,52.091,39.281c3.535,25.216-14.026,48.523-39.232,52.084
	c-27.905,3.943-58.706,1.932-86.766,0.312c-31.975-1.846-66.666-5.752-95.48-20.261c-19.233-9.684-26.973-33.125-17.289-52.358
	c8.183-16.252,26.189-24.298,43.178-20.559C58.343,245.586,61.834,246.293,65.337,246.94z"/>
<path style="opacity:0.1;enable-background:new    ;" d="M220.286,321.288c-27.905,3.943-58.705,1.932-86.765,0.312
	c-31.975-1.846-66.666-5.752-95.48-20.261c-16.813-8.465-24.843-27.445-20.127-44.936c-2.429,2.623-4.54,5.62-6.228,8.971
	c-9.683,19.233-1.944,42.673,17.289,52.358c28.814,14.509,63.505,18.415,95.48,20.261c28.06,1.62,58.86,3.631,86.766-0.312
	c18.259-2.58,32.498-15.524,37.621-32.047C241.794,313.858,231.849,319.655,220.286,321.288z"/>
<path style="fill:#E978A0;" d="M77.444,339.443c12.417-6.587,24.529-13.765,35.776-22.637
	c24.617-19.416,45.721-41.804,68.097-63.589c17.481-17.019,45.742-17.877,63.816-1.188c18.719,17.284,19.881,46.47,2.597,65.189
	c-12.793,13.854-28.784,25.777-43.565,37.418c-19.391,15.271-39.487,30.177-60.948,42.431c-15.515,8.896-31.607,16.205-49.115,20.11
	c-21.017,4.688-41.854-8.549-46.541-29.566c-3.961-17.759,4.877-35.39,20.392-43.257C71.128,342.745,74.296,341.113,77.444,339.443z
	"/>
<path style="opacity:0.1;enable-background:new    ;" d="M255.508,266.133c-3.949-2.807-8.401-5.045-13.289-6.534
	c-15.859-4.831-33.484-0.601-45.438,10.885c-14.24,13.682-17.378,36.678-23.997,54.501c-9.842,26.503-21.663,52.361-36.918,76.142
	c2.466-1.311,4.916-2.662,7.35-4.057c21.462-12.253,41.559-27.159,60.948-42.431c14.781-11.641,30.772-23.565,43.565-37.419
	C260.891,302.966,263.345,282.649,255.508,266.133z"/>
<g>
	<path style="fill:#E978A0;" d="M154.266,404.641c14.162-29.068,23.16-60.324,29.473-92.005
		c3.716-18.646,3.177-41.849,15.073-57.611c9.987-13.232,26.72-20.197,43.144-17.936c25.24,3.475,42.884,26.753,39.409,51.994
		c-0.172,1.249-0.392,2.48-0.659,3.691c0,0-0.042,0.178-0.042,0.179c-6.454,27.225-13.809,54.318-23.05,80.74
		c-10.02,28.654-21.792,59.23-42.302,82.177l-2.816,3.068c-14.56,15.864-39.224,16.921-55.088,2.361
		c-13.403-12.301-16.237-31.815-8.013-47.14C151.085,411.014,152.707,407.84,154.266,404.641z"/>
	<path style="fill:#E978A0;" d="M446.658,246.94c-19.286,3.561-38.902,5.283-58.511,5.391c-24.034,0.133-48.743-2.334-72.527-5.735
		l-1.988-0.279c-25.232-3.537-48.553,14.049-52.091,39.281c-3.535,25.216,14.026,48.523,39.232,52.084
		c27.905,3.943,58.706,1.932,86.766,0.312c31.975-1.846,66.666-5.752,95.48-20.261c19.232-9.684,26.972-33.125,17.289-52.358
		c-8.184-16.252-26.189-24.298-43.178-20.559C453.652,245.586,450.161,246.293,446.658,246.94z"/>
</g>
<path style="opacity:0.1;enable-background:new    ;" d="M291.708,321.288c27.905,3.943,58.706,1.932,86.766,0.312
	c31.975-1.846,66.666-5.752,95.48-20.261c16.813-8.465,24.843-27.445,20.127-44.936c2.429,2.623,4.54,5.62,6.228,8.971
	c9.684,19.233,1.944,42.673-17.289,52.358c-28.814,14.509-63.505,18.415-95.48,20.261c-28.06,1.62-58.86,3.631-86.766-0.312
	c-18.259-2.58-32.498-15.524-37.621-32.047C270.2,313.858,280.146,319.655,291.708,321.288z"/>
<circle style="fill:#F0BDD5;" cx="406.644" cy="414.785" r="22.821"/>
<path style="fill:#E978A0;" d="M434.551,339.443c-12.417-6.587-24.529-13.765-35.776-22.637
	c-24.617-19.416-45.721-41.804-68.098-63.589c-17.481-17.019-45.742-17.877-63.816-1.188c-18.719,17.284-19.881,46.47-2.597,65.189
	c12.793,13.854,28.784,25.777,43.565,37.418c19.391,15.271,39.487,30.177,60.948,42.431c15.515,8.896,31.607,16.205,49.115,20.11
	c21.017,4.688,41.854-8.549,46.541-29.566c3.961-17.759-4.877-35.39-20.392-43.257C440.867,342.745,437.699,341.113,434.551,339.443
	z"/>
<path style="opacity:0.1;enable-background:new    ;" d="M256.488,266.133c3.949-2.807,8.401-5.045,13.289-6.534
	c15.859-4.831,33.484-0.601,45.438,10.885c14.24,13.682,17.378,36.678,23.997,54.501c9.841,26.503,21.663,52.361,36.918,76.142
	c-2.466-1.311-4.916-2.662-7.35-4.057c-21.462-12.253-41.559-27.159-60.948-42.431c-14.781-11.641-30.773-23.565-43.565-37.419
	C251.103,302.966,248.65,282.649,256.488,266.133z"/>
<g>
	<path style="fill:#E978A0;" d="M357.73,404.641c-14.162-29.068-23.16-60.324-29.473-92.005
		c-3.716-18.646-3.177-41.849-15.073-57.611c-9.987-13.232-26.72-20.197-43.144-17.936c-25.241,3.475-42.884,26.753-39.409,51.994
		c0.172,1.249,0.393,2.48,0.659,3.691c0,0,0.042,0.178,0.043,0.179c6.454,27.225,13.809,54.318,23.05,80.74
		c10.02,28.654,21.792,59.23,42.302,82.177l2.816,3.068c14.56,15.864,39.224,16.921,55.088,2.361
		c13.403-12.301,16.237-31.815,8.013-47.14C360.91,411.014,359.288,407.84,357.73,404.641z"/>
	<circle style="fill:#E978A0;" cx="255.993" cy="210.197" r="169.77"/>
</g>
<path style="opacity:0.1;enable-background:new    ;" d="M419.467,164.309c0.005,0,0.01-0.001,0.015-0.001
	c-3.335-11.905-7.939-23.279-13.65-33.972H131.248c26.716-50.015,77.734-85.091,137.291-89.441
	c-4.142-0.302-8.323-0.462-12.542-0.462c-93.76,0-169.767,76.008-169.767,169.767c0,44.28,16.953,84.602,44.723,114.826
	c2.879,3.133,7.453,4.044,11.29,2.209l0,0c5.513-2.636,7.196-9.659,3.502-14.528c-21.609-28.482-34.432-63.997-34.432-102.507
	c0-15.904,2.197-31.293,6.287-45.891L419.467,164.309L419.467,164.309z"/>
<path style="fill:#485358;" d="M281.081,229.195c0,13.659-11.315,24.676-25.084,24.186c-13.114-0.467-23.319-11.643-23.319-24.766
	v-17.022c0-3.645,2.955-6.599,6.599-6.599h35.205c3.645,0,6.599,2.954,6.599,6.599V229.195z"/>
<path style="fill:#F3CE72;" d="M419.467,152.049H93.999c-9.381,0-16.986-7.605-16.986-16.986s7.605-16.986,16.986-16.986h325.469
	c9.381,0,16.986,7.605,16.986,16.986S428.848,152.049,419.467,152.049z"/>
<path style="opacity:0.1;enable-background:new    ;" d="M100.519,135.063c0-9.381,7.605-16.986,16.986-16.986H93.999
	c-9.381,0-16.986,7.605-16.986,16.986s7.605,16.986,16.986,16.986h23.506C108.123,152.049,100.519,144.445,100.519,135.063z"/>
<path d="M171.933,196.387c-4.142,0-7.5,3.358-7.5,7.5v14.338c0,4.142,3.358,7.5,7.5,7.5s7.5-3.358,7.5-7.5v-14.338
	C179.433,199.745,176.075,196.387,171.933,196.387z M507.007,262.002c-9.564-18.997-30.733-29.077-51.494-24.509
	c-3.374,0.746-6.811,1.442-10.216,2.071c-4.818,0.889-9.798,1.662-14.867,2.338c1.721-9.53,2.661-19.219,2.809-28.98
	c0.191,0.003,0.383,0.019,0.574,0.019c10.164,0,20.111-3.991,27.459-11.341c7.324-7.323,11.356-17.06,11.356-27.415
	c0-10.356-4.033-20.094-11.355-27.416c-4.056-4.055-10.222-8.423-17.336-12.33c-0.039-1.527-0.213-3.019-0.52-4.465
	c2.686-1.949,5.012-3.892,6.861-5.742c7.324-7.323,11.356-17.06,11.356-27.416s-4.033-20.093-11.355-27.415
	c-7.323-7.324-17.06-11.356-27.416-11.356c-10.355,0-20.093,4.033-27.416,11.356c-4.057,4.057-8.426,10.25-12.291,17.274
	C350.1,52.566,304.581,32.934,255.997,32.934c-32.755,0-64.755,9.007-92.542,26.048c-3.531,2.165-4.638,6.784-2.473,10.313
	c2.165,3.53,6.782,4.638,10.313,2.473c25.426-15.594,54.715-23.836,84.7-23.836c47.879,0,92.509,20.829,123.149,56.604
	c0.13,0.166,0.271,0.325,0.416,0.48c1.542,1.815,3.046,3.671,4.515,5.561H127.924c5.235-6.72,10.99-13.037,17.219-18.868
	c3.024-2.831,3.181-7.577,0.35-10.6c-2.831-3.024-7.577-3.181-10.6-0.35c-9.579,8.967-18.14,18.99-25.511,29.818H93.999
	c-13.501,0-24.486,10.984-24.486,24.486c0,10.867,7.119,20.099,16.936,23.29c-5.118,16.742-7.717,34.139-7.717,51.847
	c0,10.727,0.956,21.325,2.826,31.701c-5.068-0.676-10.045-1.448-14.859-2.337c-3.41-0.629-6.846-1.326-10.221-2.072
	c-20.748-4.567-41.923,5.512-51.488,24.51c-5.585,11.09-6.516,23.693-2.623,35.484c1.176,3.563,2.757,6.918,4.687,10.026
	c-1.571,3.713-2.405,7.708-2.405,11.788c0,16.719,13.602,30.32,30.32,30.32c10,0,19.145-4.863,24.748-12.792
	c1.454,0.367,2.922,0.724,4.414,1.068c-18.667,9.711-28.484,30.749-23.89,51.349c4.142,18.566,18.919,32.053,36.489,35.5
	c4.174,11.926,15.606,20.357,28.627,20.357c16.719,0,30.32-13.601,30.32-30.32c0-1.656-0.138-3.291-0.4-4.901
	c3.568-1.809,7.205-3.767,10.931-5.89c-1.121,2.238-2.26,4.462-3.419,6.621c-10.044,18.717-6.118,41.833,9.549,56.212
	c8.912,8.181,20.178,12.218,31.415,12.217c8.406-0.001,16.79-2.273,24.163-6.751c4.074,1.968,8.529,3.01,13.138,3.01
	c16.719,0,30.321-13.602,30.321-30.321c0-7.161-2.488-13.931-6.958-19.315c4.312-8.433,8.112-17.145,11.578-25.918
	c3.466,8.769,7.267,17.48,11.581,25.914c-4.471,5.384-6.96,12.155-6.96,19.318c0,16.719,13.602,30.32,30.32,30.32
	c4.603,0,9.049-1.039,13.117-3c6.628,4.045,14.202,6.378,22.175,6.72c0.682,0.029,1.36,0.044,2.038,0.044
	c11.663,0,22.741-4.305,31.387-12.24c15.667-14.379,19.594-37.495,9.549-56.212c-1.161-2.165-2.299-4.387-3.419-6.621
	c3.728,2.123,7.365,4.081,10.931,5.89c-0.262,1.61-0.4,3.246-0.4,4.902c0,16.719,13.602,30.321,30.32,30.321
	c13.009,0,24.433-8.415,28.615-20.326c5.632-1.096,11.066-3.243,16.054-6.412c10.481-6.659,17.743-17,20.446-29.119
	c4.595-20.6-5.222-41.638-23.891-51.349c1.492-0.344,2.961-0.701,4.415-1.068c5.602,7.93,14.746,12.792,24.748,12.792
	c16.72,0,30.321-13.602,30.321-30.321c0-4.081-0.834-8.077-2.405-11.789c1.93-3.108,3.511-6.464,4.688-10.025
	C513.523,285.695,512.591,273.093,507.007,262.002z M450.668,157.373c4.49,4.491,6.963,10.46,6.963,16.811
	c0,6.35-2.473,12.319-6.964,16.81c-4.744,4.744-11.25,7.193-17.827,6.919c-0.912-13.33-3.315-26.432-7.172-39.161
	c5.656-1.482,10.515-4.943,13.801-9.591C444.126,151.924,448.147,154.852,450.668,157.373z M406.052,80.005
	c4.491-4.49,10.461-6.963,16.81-6.963c6.351,0,12.319,2.473,16.81,6.963c4.49,4.491,6.963,10.46,6.963,16.81
	c0,6.351-2.473,12.32-6.964,16.811c-1.017,1.017-2.312,2.125-3.808,3.271c-4.344-3.925-10.096-6.319-16.397-6.319h-16.855
	c-2.785-4.095-5.723-8.048-8.8-11.858C397.532,91.004,402.124,83.933,406.052,80.005z M381.566,125.576h17.035
	c0.005,0,0.01,0.001,0.016,0.001c0.005,0,0.009-0.001,0.014-0.001h20.837c5.231,0,9.486,4.256,9.486,9.486
	c0,0.631-0.065,1.248-0.183,1.845c-0.012,0.047-0.019,0.094-0.029,0.141c-0.916,4.281-4.725,7.502-9.274,7.502h-56.875
	L381.566,125.576z M276.973,125.576h83.38L341.38,144.55h-83.38L276.973,125.576z M170.615,125.576h85.146l-18.974,18.974h-85.146
	L170.615,125.576z M84.512,135.063c0-5.231,4.256-9.486,9.486-9.486h19.366c0.005,0,0.009,0.001,0.014,0.001
	s0.011-0.001,0.016-0.001h36.009l-18.974,18.974h-36.43C88.767,144.55,84.512,140.294,84.512,135.063z M34.968,334.622
	c-7.901,0-14.42-6.011-15.233-13.699c1.852,1.299,3.81,2.473,5.867,3.509c5.6,2.82,11.575,5.333,17.951,7.566
	C41.073,333.673,38.105,334.622,34.968,334.622z M32.348,311.035c-4.164-2.097-7.735-5.026-10.541-8.578
	c-0.094-0.126-0.187-0.253-0.29-0.374c-2.118-2.766-3.784-5.895-4.908-9.299c-2.637-7.987-2.006-16.523,1.776-24.036
	c6.479-12.87,20.817-19.699,34.861-16.608c3.539,0.782,7.149,1.514,10.729,2.175c6.798,1.255,13.882,2.302,21.113,3.147
	c5.147,18.674,13.372,36.425,24.482,52.668c-0.334,0.266-0.669,0.534-0.994,0.79c-6.826,5.384-14.318,10.41-23.442,15.698
	C64.044,323.387,46.748,318.286,32.348,311.035z M105.356,430.104c-4.527,0-8.663-2.023-11.497-5.241
	c0.625-0.113,1.25-0.225,1.875-0.364c8.216-1.833,16.389-4.41,24.819-7.853C119.628,424.217,113.172,430.104,105.356,430.104z
	 M139.484,390.563c-17.152,9.835-32.092,15.967-47.016,19.296c-16.943,3.782-33.809-6.932-37.589-23.879
	c-3.137-14.063,3.633-28.43,16.464-34.936c3.596-1.824,6.741-3.452,9.614-4.977c3.315-1.758,6.434-3.471,9.405-5.159
	c0.029-0.017,0.059-0.033,0.088-0.05c10.758-6.117,19.463-11.893,27.413-18.164c0.227-0.179,0.462-0.367,0.692-0.55
	c12.731,15.645,27.888,28.895,44.919,39.312c-2.067,6.367-4.245,12.484-6.555,18.397
	C150.934,383.77,145.204,387.298,139.484,390.563z M221.405,460.285c5.346-6.053,10.099-12.571,14.395-19.402
	c0.365,1.319,0.577,2.69,0.577,4.098C236.377,453.312,229.691,460.096,221.405,460.285z M275.618,444.981
	c0-1.411,0.213-2.784,0.58-4.106c4.295,6.828,9.048,13.347,14.395,19.41C282.307,460.098,275.618,453.313,275.618,444.981z
	 M349.514,455.775c-6.197,5.687-14.212,8.617-22.642,8.262c-6.608-0.283-12.813-2.585-17.93-6.565
	c-0.046-0.035-0.092-0.073-0.139-0.107c-1.339-1.054-2.607-2.217-3.781-3.497l-2.75-2.995
	c-15.913-17.804-26.437-40.759-35.082-63.775c23.729-1.49,46.814-7.709,67.97-18.278c4.66,13.99,9.862,26.865,15.826,39.106
	c1.608,3.302,3.292,6.592,5.003,9.779C362.79,430.378,360.127,446.033,349.514,455.775z M406.639,430.104
	c-7.817,0-14.272-5.888-15.196-13.459c8.43,3.444,16.604,6.021,24.819,7.854c0.624,0.139,1.249,0.251,1.875,0.365
	C415.302,428.081,411.165,430.104,406.639,430.104z M457.116,385.981c-1.831,8.21-6.749,15.214-13.849,19.725
	c-4.393,2.791-9.295,4.417-14.339,4.82c-0.133,0.005-0.264,0.015-0.395,0.027c-2.981,0.2-6.008-0.023-9.005-0.693
	c-14.922-3.328-29.862-9.459-47.029-19.303c-5.631-3.215-11.486-6.821-17.424-10.702c-2.315-5.925-4.496-12.055-6.567-18.436
	c0.409-0.25,0.826-0.485,1.233-0.74c16.661-10.399,31.399-23.451,43.696-38.535c0.231,0.184,0.467,0.373,0.695,0.552
	c7.95,6.271,16.652,12.046,27.408,18.162c0.033,0.02,0.068,0.038,0.102,0.058c2.969,1.687,6.086,3.398,9.396,5.154
	c2.894,1.535,6.039,3.162,9.615,4.976C453.483,357.551,460.254,371.917,457.116,385.981z M477.027,334.623
	c-3.137,0-6.106-0.949-8.584-2.625c6.376-2.233,12.351-4.747,17.952-7.566c2.057-1.036,4.016-2.21,5.868-3.509
	C491.448,328.611,484.927,334.623,477.027,334.623z M495.387,292.783c-1.125,3.406-2.79,6.535-4.909,9.3
	c-0.102,0.12-0.193,0.245-0.286,0.37c-2.808,3.554-6.379,6.484-10.544,8.582c-14.401,7.252-31.698,12.353-52.787,15.583
	c-9.123-5.288-16.615-10.314-23.442-15.698c-0.328-0.259-0.666-0.529-1.003-0.797c4.198-6.143,8.035-12.549,11.446-19.211
	c1.889-3.687,0.431-8.206-3.256-10.094c-3.686-1.886-8.206-0.431-10.093,3.256c-4.089,7.982-8.781,15.507-13.978,22.563
	c-0.024,0.028-0.05,0.052-0.073,0.08c-0.221,0.267-0.413,0.548-0.591,0.835c-13.368,17.886-30.101,32.607-49.075,43.485
	c-0.643,0.254-1.231,0.591-1.76,0.992c-23.675,13.181-50.728,20.439-79.038,20.439c-8.268,0-16.569-0.627-24.675-1.863
	c-4.099-0.624-7.92,2.189-8.545,6.284c-0.624,4.095,2.189,7.921,6.283,8.545c5.191,0.791,10.454,1.347,15.739,1.677
	c-8.643,23.01-19.159,45.952-35.012,63.69l-2.815,3.068c-1.191,1.297-2.469,2.465-3.813,3.516c-0.014,0.01-0.027,0.021-0.04,0.031
	c-11.904,9.281-29.157,8.897-40.64-1.64c-10.613-9.741-13.276-25.397-6.475-38.069c1.706-3.179,3.389-6.469,5.003-9.78
	c5.961-12.235,11.162-25.105,15.821-39.088c5.508,2.746,11.166,5.233,16.982,7.412c0.867,0.325,1.756,0.479,2.63,0.479
	c3.037,0,5.895-1.859,7.024-4.871c1.453-3.879-0.513-8.201-4.392-9.654c-7.786-2.917-15.281-6.408-22.448-10.423
	c-0.244-0.164-0.503-0.311-0.769-0.447c-20.691-11.744-38.587-27.921-52.536-47.688c-11.719-16.607-20.087-35.006-24.872-54.415
	c-0.056-0.305-0.127-0.605-0.219-0.898c-2.975-12.372-4.5-25.149-4.5-38.133c0-17.344,2.72-34.355,8.072-50.651h308.391
	c4.768,14.519,7.44,29.606,7.966,44.989c0.001,0.06,0.003,0.12,0.006,0.18c0.06,1.824,0.1,3.65,0.1,5.481
	c0,15.942-2.305,31.689-6.85,46.802c-1.192,3.967,1.057,8.148,5.022,9.341c0.721,0.217,1.447,0.32,2.163,0.32
	c3.224,0,6.203-2.096,7.18-5.342c0.385-1.281,0.75-2.568,1.106-3.857c7.235-0.844,14.327-1.893,21.134-3.15
	c3.576-0.66,7.186-1.392,10.724-2.174c14.047-3.093,28.387,3.737,34.867,16.607C497.393,276.26,498.024,284.797,495.387,292.783z
	 M274.482,197.494h-35.205c-7.774,0-14.098,6.325-14.098,14.098v17.022c0,17.19,13.705,31.662,30.552,32.261
	c0.39,0.014,0.777,0.021,1.165,0.021c8.258,0,16.031-3.132,21.996-8.888c6.248-6.03,9.689-14.131,9.689-22.813v-17.603
	C288.581,203.818,282.257,197.494,274.482,197.494z M273.582,229.195c0,4.574-1.814,8.842-5.106,12.02
	c-3.29,3.175-7.63,4.833-12.212,4.671c-8.87-0.315-16.086-8.064-16.086-17.271v-16.122h33.404V229.195z M340.061,196.387
	c-4.143,0-7.5,3.358-7.5,7.5v14.338c0,4.142,3.357,7.5,7.5,7.5s7.5-3.358,7.5-7.5v-14.338
	C347.56,199.745,344.203,196.387,340.061,196.387z"/>
<g>
</g>
<g>
</g>
<g>
</g>
<g>
</g>
<g>
</g>
<g>
</g>
<g>
</g>
<g>
</g>
<g>
</g>
<g>
</g>
<g>
</g>
<g>
</g>
<g>
</g>
<g>
</g>
<g>
</g>
</svg>
