<svg id="Capa_1" enable-background="new 0 0 511.939 511.939" height="512" viewBox="0 0 511.939 511.939" width="512" xmlns="http://www.w3.org/2000/svg"><g><g><path d="m501.087 318.087c-3.754-16.038-10.235-31.295-17.744-45.906-16.9-32.883-36.787-64.445-56.366-95.815-20.049-32.123-41.404-63.582-66.459-92.051-20.97-23.827-46.562-43.644-78.005-50.918-8.776-2.03-17.671-3.116-26.543-3.319-8.873.203-17.767 1.289-26.543 3.319-31.443 7.274-57.035 27.09-78.005 50.918-25.055 28.469-46.41 59.928-66.459 92.051-19.579 31.37-39.466 62.932-56.366 95.815-7.509 14.611-13.99 29.868-17.744 45.906-7.745 33.087-1.982 68.432 15.152 97.7 23.923 40.865 68.004 66.075 115.342 66.075h114.623s114.623 0 114.623 0c47.338 0 91.419-25.21 115.342-66.075 17.134-29.268 22.897-64.614 15.152-97.7z" fill="#f7f7f7"/></g><g><path d="m126.777 346.97c0-134.159 87.929-247.766 209.296-286.377-15.667-12.717-33.41-22.534-53.559-27.195-8.776-2.03-17.671-3.116-26.543-3.319-8.873.203-17.767 1.289-26.543 3.319-31.443 7.274-57.035 27.09-78.005 50.918-25.055 28.469-46.41 59.928-66.459 92.051-19.579 31.37-39.466 62.932-56.366 95.815-7.509 14.611-13.99 29.868-17.744 45.906-7.745 33.087-1.982 68.432 15.152 97.7 23.923 40.865 68.004 66.075 115.342 66.075h17.357c-20.417-40.567-31.928-86.383-31.928-134.893z" fill="#eaeaea"/></g><g><g><path d="m204.148 248.506c0 13.071-13.306 23.665-29.717 23.665-16.414 0-29.717-10.594-29.717-23.665 0-13.07 13.304-23.665 29.717-23.665 16.411 0 29.717 10.595 29.717 23.665" fill="#ffa1ac"/></g><g><path d="m305.789 248.506c0 13.071 13.305 23.665 29.717 23.665s29.717-10.594 29.717-23.665c0-13.07-13.305-23.665-29.717-23.665s-29.717 10.595-29.717 23.665" fill="#ffa1ac"/></g><g><path d="m278.928 230.324c0-14.808-10.727-16.199-23.959-16.199s-23.959 1.391-23.959 16.199c0 14.807 10.727 26.81 23.959 26.81 13.231 0 23.959-12.004 23.959-26.81" fill="#495560"/></g><g><path d="m179.398 227.753c-4.142 0-7.5-3.358-7.5-7.5v-12.135c0-4.142 3.358-7.5 7.5-7.5s7.5 3.358 7.5 7.5v12.135c0 4.142-3.358 7.5-7.5 7.5z"/></g><g><path d="m254.968 264.634c-17.347 0-31.46-15.392-31.46-34.31 0-12.149 6.05-17.768 11.125-20.342 5.495-2.787 12.103-3.357 20.334-3.357s14.839.571 20.334 3.357c5.075 2.574 11.125 8.192 11.125 20.342.002 18.918-14.111 34.31-31.458 34.31zm0-43.009c-15.794 0-16.46 2.667-16.46 8.699 0 10.647 7.384 19.31 16.46 19.31s16.459-8.663 16.459-19.31c.001-6.032-.665-8.699-16.459-8.699z"/></g><g><path d="m330.539 227.753c-4.142 0-7.5-3.358-7.5-7.5v-12.135c0-4.142 3.358-7.5 7.5-7.5s7.5 3.358 7.5 7.5v12.135c0 4.142-3.358 7.5-7.5 7.5z"/></g></g><g><path d="m141.346 481.861h114.623s114.623 0 114.623 0c7.198 0 14.319-.591 21.308-1.723v-144.361c0-17.822-13.851-32.404-30.78-32.404h-210.301c-16.929 0-30.78 14.582-30.78 32.404v144.361c6.988 1.132 14.109 1.723 21.307 1.723z" fill="#848484"/></g><g><path d="m194.608 340.031c0-18.819 13.553-34.458 30.889-36.658h-74.679c-16.929 0-30.78 14.582-30.78 32.404v144.361c6.988 1.132 14.109 1.723 21.308 1.723h53.262z" fill="#6e6e6e"/></g><g><path d="m56.329 369.581c-3.21-2.593-7.958-2.089-10.551 1.122-2.593 3.21-2.088 7.958 1.122 10.552l11.673 9.43c3.21 2.593 7.958 2.088 10.551-1.122 2.593-3.21 2.088-7.958-1.122-10.551z"/><path d="m96.287 255.543-12.552 8.224c-3.452 2.262-4.425 6.936-2.164 10.388 2.262 3.452 6.936 4.425 10.388 2.164l12.552-8.224c3.452-2.262 4.425-6.936 2.164-10.388-2.262-3.452-6.937-4.426-10.388-2.164z"/><path d="m173.309 146.695c-3.21-2.593-7.958-2.088-10.551 1.122-2.593 3.21-2.088 7.958 1.122 10.551l11.673 9.43c3.21 2.593 7.958 2.089 10.551-1.122 2.593-3.21 2.088-7.958-1.122-10.552z"/><path d="m428.83 267.151-12.552 8.224c-3.452 2.262-4.425 6.936-2.164 10.388 2.262 3.452 6.936 4.425 10.388 2.164l12.552-8.224c3.452-2.262 4.425-6.936 2.164-10.388-2.262-3.452-6.936-4.426-10.388-2.164z"/><path d="m350.771 143.663c-3.21-2.593-7.958-2.088-10.551 1.122s-2.088 7.958 1.122 10.552l11.673 9.43c3.21 2.593 7.958 2.088 10.551-1.122s2.088-7.958-1.122-10.552z"/><path d="m252.805 92.844 12.552-8.224c3.452-2.262 4.425-6.936 2.164-10.388s-6.936-4.425-10.388-2.164l-12.552 8.224c-3.452 2.262-4.425 6.936-2.164 10.388 2.261 3.452 6.936 4.426 10.388 2.164z"/><path d="m428.765 392.449c-2.593 3.21-2.088 7.958 1.122 10.552l11.673 9.43c3.21 2.593 7.958 2.088 10.551-1.122s2.088-7.958-1.122-10.551l-11.673-9.43c-3.209-2.594-7.958-2.089-10.551 1.121z"/><path d="m508.39 316.377c-3.48-14.87-9.32-30.003-18.376-47.625-16.252-31.621-35.403-62.291-53.923-91.951l-2.751-4.406c-5.796-9.287-11.139-17.619-16.334-25.474-2.285-3.455-6.939-4.403-10.393-2.118-3.455 2.285-4.403 6.938-2.118 10.393 5.122 7.743 10.395 15.967 16.12 25.14l2.752 4.409c18.357 29.398 37.34 59.798 53.306 90.862 8.481 16.502 13.918 30.542 17.112 44.187 7.199 30.751 1.979 64.357-14.322 92.201-17.575 30.021-46.841 51.165-80.062 59.005v-135.223c0-22.003-17.172-39.904-38.28-39.904h-210.302c-21.108 0-38.28 17.901-38.28 39.904v50.546c0 4.142 3.358 7.5 7.5 7.5s7.5-3.358 7.5-7.5v-50.546c0-13.732 10.443-24.904 23.28-24.904h210.302c12.837 0 23.28 11.172 23.28 24.904v137.805c-4.56.506-9.166.779-13.808.779h-229.247c-4.641 0-9.248-.273-13.808-.779v-56.58c0-4.142-3.358-7.5-7.5-7.5s-7.5 3.358-7.5 7.5v54c-33.22-7.839-62.487-28.984-80.062-59.005-16.3-27.844-21.521-61.45-14.322-92.201 3.193-13.645 8.631-27.685 17.112-44.187 15.966-31.064 34.948-61.464 53.306-90.862l2.752-4.409c16.372-26.231 38.638-60.289 65.727-91.068 23.373-26.558 47.599-42.443 74.065-48.565 8.081-1.87 16.441-2.92 24.853-3.124 8.412.204 16.772 1.254 24.853 3.124 26.466 6.122 50.692 22.008 74.065 48.565 10.574 12.015 20.884 25.005 31.519 39.715 2.427 3.356 7.114 4.11 10.472 1.684 3.357-2.427 4.111-7.116 1.684-10.472-10.917-15.101-21.52-28.458-32.413-40.836-25.515-28.992-52.32-46.417-81.945-53.27-9.131-2.112-18.572-3.293-28.062-3.51-.114-.003-.229-.003-.343 0-9.49.217-18.932 1.397-28.062 3.51-29.625 6.853-56.43 24.278-81.945 53.27-27.809 31.599-50.516 66.318-67.19 93.036l-2.751 4.407c-18.52 29.66-37.671 60.33-53.923 91.951-9.058 17.619-14.898 32.752-18.378 47.622-8.065 34.457-2.24 72.071 15.982 103.198 25.2 43.046 71.876 69.786 121.814 69.786h229.247c49.938 0 96.614-26.74 121.814-69.786 18.223-31.127 24.048-68.741 15.983-103.198z"/></g></g></svg>