<svg id="Capa_1" enable-background="new 0 0 512.01 512.01" height="512" viewBox="0 0 512.01 512.01" width="512" xmlns="http://www.w3.org/2000/svg"><g><path d="m221.501 481.704 2.938-2.938-42.361-38.802-50.808-34.915c-3.341-2.296-7.301-3.526-11.355-3.526h-102.375c-11.482 0-13.949 16.169-2.989 19.593l191.023 59.676c1.935.605 3.951.912 5.979.912z" fill="#fc979e"/><path d="m252.885 385.232h108.709v-125.72l-60.442-224.142c-1.917-7.111-12.172-6.597-13.369.669l-34.897 211.762v137.431z" fill="#ffa8ad"/><path d="m252.885 247.802v137.43h108.709v-125.721l-18.175-67.399-27.587 75.931-53.595-76.992z" fill="#fc979e"/><path d="m360.366 402.205-223.149-320.567c-5.249-7.541-17.087-3.827-17.087 5.362v269.609c0 2.077.689 4.096 1.959 5.739l87.871 113.69c2.762 3.574 7.025 5.667 11.542 5.667h59.365z" fill="#ffc6c2"/><path d="m280.867 481.705 79.499-79.5-61.289-88.046-60.873 167.546z" fill="#ffa8ad"/><path d="m413.86 148.298-13.815 5.385-119.178 328.021h115.548c13.861 0 25.097-11.236 25.097-25.097v-302.924z" fill="#ffd7d1"/><path d="m400.044 153.683-14.568 40.098h36.036v-40.098l-7.652-5.385z" fill="#ffc6c2"/><g><path d="m400.044 153.683h100.079c4.388 0 6.045-5.738 2.333-8.078l-72.088-45.427c-4.554-2.869-10.594-.801-12.431 4.258z" fill="#ffd7d1"/></g><path d="m506.455 139.26-72.089-45.429c-4.099-2.583-9.078-3.165-13.664-1.593-4.583 1.57-8.161 5.082-9.814 9.636l-17.893 49.246c-.001.002-.001.005-.002.007l-30.34 83.505-54.26-201.213c-1.772-6.58-7.788-10.944-14.57-10.596-.088.004-.174.018-.261.024-.009 0-.018 0-.027 0-.059.003-.116.014-.175.019-6.591.537-11.895 5.386-12.978 11.954l-31.894 193.537-105.116-151.004c-4.302-6.181-11.729-8.72-18.912-6.464-7.187 2.255-11.83 8.578-11.83 16.11v210.381c0 4.143 3.357 7.5 7.5 7.5s7.5-3.357 7.5-7.5v-192.084l142.305 368.909h-48.434c-2.179 0-4.274-1.029-5.606-2.754l-87.87-113.688c-.255-.329-.395-.739-.395-1.154v-26.313c0-4.143-3.357-7.5-7.5-7.5s-7.5 3.357-7.5 7.5v26.313c0 3.716 1.251 7.383 3.524 10.326l30.705 39.727-11.341-7.793c-4.611-3.17-10.007-4.845-15.603-4.845h-102.375c-8.863 0-15.987 6.119-17.324 14.882-1.337 8.762 3.639 16.728 12.099 19.371l191.022 59.675c2.662.832 5.427 1.254 8.216 1.254h67.818c.268 0 .532-.015.793-.043.192.018.385.032.579.035.042.001.083.01.125.01.014 0 .029-.002.043-.002h115.503c17.975 0 32.598-14.623 32.598-32.598v-229.65c0-4.143-3.357-7.5-7.5-7.5s-7.5 3.357-7.5 7.5v201.722l-87.68-50.151 78.967-217.347h8.713v35.952c0 4.143 3.357 7.5 7.5 7.5s7.5-3.357 7.5-7.5v-35.952h71.111c5.342 0 9.928-3.448 11.409-8.581 1.483-5.132-.558-10.494-5.077-13.341zm-329.592 306.22 18.835 24.369-49.873-15.58 19.751-16.545zm-161.818-34.313c.217-1.422 1.057-2.144 2.495-2.144h102.376c2.549 0 5.006.763 7.106 2.207l25.721 17.676-23.933 20.048-112.023-34.996c-1.373-.429-1.96-1.368-1.742-2.791zm338.691-151.991-28.736 79.095-6.964-10.005-14.12-253.84zm-64.802-183.999 12.773 229.633-40.927-58.794zm29.798 280.345-38.076 104.799-137.994-357.732zm95.28 90.439v10.646c0 9.703-7.895 17.598-17.598 17.598h-104.844l29.563-81.368zm-3.263-299.779 14.237-39.186c.102-.28.296-.472.578-.568.28-.094.554-.064.805.094l62.936 39.66z"/></g></svg>