<svg id="Capa_1" enable-background="new 0 0 512 512" height="512" viewBox="0 0 512 512" width="512" xmlns="http://www.w3.org/2000/svg"><g><g><g><path d="m256 262.465c-93.151 0-168.664 65.114-168.664 145.435 0 1.03.012 2.058.037 3.083 1.052 43.596 31.551 79.589 71.993 90.277l96.639-33.345 96.623 33.417c40.393-10.576 70.831-46.501 71.991-90.029.03-1.131.045-2.265.045-3.402 0-80.323-75.513-145.436-168.664-145.436z" fill="#6a647f"/></g><g><path d="m159.366 501.259 55.215-19.052c-20.691-17.062-34.178-42.492-34.872-71.225-.025-1.025-.037-2.052-.037-3.083 0-66.518 51.789-122.605 122.496-139.919-14.673-3.593-30.16-5.516-46.168-5.516-93.151 0-168.664 65.114-168.664 145.435 0 1.03.012 2.058.037 3.083 1.052 43.596 31.551 79.589 71.993 90.277z" fill="#5c586f"/></g><g><path d="m353.019 492.698c0-53.582-43.437-97.019-97.019-97.019s-97.019 43.437-97.019 97.019c0 2.886.138 5.739.385 8.561 7.987 2.111 16.358 3.241 24.97 3.241h143.647c8.499 0 16.761-1.105 24.645-3.169.251-2.845.391-5.723.391-8.633z" fill="#f7f7f7"/></g><g><path d="m182.071 429.878c-14.397 16.927-23.09 38.857-23.09 62.82 0 2.886.138 5.739.385 8.561 7.987 2.111 16.358 3.241 24.97 3.241h92.336c-45.733 0-84.762-31.685-94.601-74.622z" fill="#eaeaea"/></g><g><path d="m381.864 50.292h-251.728c-46.728 35.699-76.699 89.718-76.699 146.377 0 36.974 12.76 67.21 34.612 90.562h335.902c21.852-23.352 34.612-53.588 34.612-90.562 0-56.659-29.971-110.678-76.699-146.377z" fill="#5c586f"/></g><g><path d="m361.713 397.653c18.288 21.074 43.829 32.129 69.688 32.673 33.027.695 51.266-38.047 29.615-62.997l-89.83-103.516c-39.574 34.343-43.815 94.265-9.473 133.84z" fill="#4f4c5e"/></g><g><path d="m150.287 397.653c-18.288 21.074-43.829 32.129-69.688 32.673-33.027.695-51.266-38.047-29.615-62.997l89.83-103.516c39.574 34.343 43.815 94.265 9.473 133.84z" fill="#4f4c5e"/></g><g><path d="m221.569 50.292h-91.433c-46.728 35.699-76.699 89.718-76.699 146.377 0 36.974 12.76 67.21 34.612 90.562h91.44c-21.853-23.352-34.616-53.588-34.616-90.562.001-56.658 29.969-110.678 76.696-146.377z" fill="#4f4c5e"/></g><g><path d="m305.521 142.77c2.218-28.786 21.532-53.412 48.96-62.425 15.119-4.968 24.41-16.826 27.383-30.052-34.565-26.407-78.297-42.793-125.864-42.793s-91.299 16.386-125.864 42.792c2.973 13.226 12.264 25.083 27.383 30.052 27.428 9.013 46.742 33.64 48.96 62.425l8.253 107.113h82.536z" fill="#6a647f"/></g><g><path d="m338.503 132.09c-24.973.588-47.674 10.35-64.867 26.045-10.827 9.883-27.255 10.054-38.494.641-17.721-14.842-40.672-23.645-65.688-23.241-53.826.869-97.63 44.966-98.158 98.797-.162 16.49 3.676 32.068 10.602 45.824 35.34 43.572 100.078 65.773 174.102 65.773 69.909 0 131.547-19.795 167.951-58.698 10.862-16.263 17.082-35.889 16.745-56.991-.883-55.124-47.076-99.447-102.193-98.15z" fill="#f7f7f7"/></g><g><ellipse cx="255.623" cy="277.88" fill="#ffb15c" rx="35.557" ry="29.256"/></g><g><path d="m305.784 228.84c0 27.703-22.458 50.162-50.162 50.162s-50.162-22.458-50.162-50.162 100.324-27.703 100.324 0z" fill="#ffca8a"/></g><g><path d="m144.874 196.669c0-20.606 3.977-40.86 11.268-60.015-47.556 7.224-84.362 48.363-84.846 97.679-.162 16.49 3.676 32.068 10.602 45.824 35.34 43.572 100.078 65.772 174.102 65.772 15.712 0 31-1.009 45.683-3-89.836-12.206-156.809-61.553-156.809-146.26z" fill="#eaeaea"/></g><g><path d="m157.519 80.344c8.37 2.75 15.979 6.961 22.582 12.294 28.225-38.798 71.324-68.527 121.588-79.993-14.684-3.347-29.975-5.145-45.689-5.145-47.567 0-91.299 16.386-125.864 42.792 2.974 13.226 12.265 25.084 27.383 30.052z" fill="#5c586f"/></g><g><path d="m242.416 228.84c0-10.377 14.077-16.867 31.684-19.47-29.398-4.346-68.639 2.143-68.639 19.47 0 27.704 22.458 50.162 50.162 50.162 6.528 0 12.757-1.26 18.477-3.529-18.556-7.36-31.684-25.457-31.684-46.633z" fill="#ffbe73"/></g><g><g><ellipse cx="156.411" cy="241.401" fill="#ffa1ac" rx="31.499" ry="25.084"/></g><g><ellipse cx="355.589" cy="241.401" fill="#ffa1ac" rx="31.499" ry="25.084"/></g></g></g><g><path d="m466.682 362.413-50.189-57.834c4.631-3.89 8.949-7.977 12.948-12.252.064-.069.132-.133.193-.205 23.936-25.69 36.429-58.146 36.429-95.453 0-49.671-22.471-99.596-61.652-136.975-40.35-38.494-93.057-59.694-148.411-59.694s-108.061 21.2-148.411 59.694c-39.181 37.379-61.652 87.304-61.652 136.975 0 43.624 17.079 80.615 49.57 107.91l-50.189 57.835c-11.974 13.799-14.595 32.642-6.84 49.177 7.627 16.261 23.373 26.244 41.263 26.244.337 0 .677-.003 1.016-.011 1.097-.023 2.192-.078 3.286-.136 6.041 20.346 18.506 38.66 35.473 51.955 18.402 14.417 41.422 22.357 64.82 22.357h143.647c23.354 0 46.316-7.939 64.659-22.354 16.91-13.29 29.329-31.603 35.341-51.948 1.085.058 2.171.104 3.26.127.339.008.677.011 1.015.011 17.889 0 33.637-9.984 41.263-26.244 7.756-16.536 5.135-35.379-6.839-49.179zm-93.636-308.846c-3.595 9.359-10.993 16.395-20.907 19.652-27.278 8.964-47.326 31.73-52.834 59.753-11.195 4.71-21.608 11.302-30.725 19.625-7.949 7.254-20.253 7.438-28.622.43-8.083-6.769-17.07-12.229-26.626-16.317-4.349-29.444-25.002-54.135-53.472-63.491-9.864-3.242-17.302-10.293-20.911-19.649 33.105-23.974 73.978-38.57 117.051-38.57 43.072 0 83.942 14.595 117.046 38.567zm-246.274 9.53c5.683 11.518 15.629 20.173 28.406 24.372 20.526 6.746 36.033 23.333 41.682 43.714-8.935-2.208-18.181-3.293-27.527-3.146-27.999.451-54.373 11.728-74.265 31.75-18.031 18.15-28.843 41.58-30.911 66.662-2.128-9.477-3.22-19.417-3.22-29.78 0-51.589 25.906-99.797 65.835-133.572zm-38.595 212.82c-6.363-12.963-9.524-26.922-9.381-41.511.486-49.583 41.209-90.571 90.779-91.371 22.219-.315 43.775 7.273 60.751 21.491 14.102 11.811 34.894 11.444 48.366-.852 16.44-15.008 37.745-23.562 59.986-24.087 11.266-.27 22.353 1.515 32.931 5.291 3.901 1.394 8.192-.643 9.585-4.542 1.393-3.901-.641-8.192-4.542-9.585-12.314-4.396-25.2-6.461-38.327-6.16-7.479.177-14.86 1.158-22.046 2.851 6.424-18.774 21.25-33.635 40.542-39.974 12.632-4.15 22.672-12.936 28.384-24.39 39.942 33.776 65.857 81.992 65.857 133.591 0 10.074-1.031 19.749-3.043 28.988-1.802-31.505-17.259-60.307-42.887-79.563-3.312-2.488-8.013-1.82-10.501 1.491s-1.821 8.013 1.491 10.501c23.104 17.359 36.617 43.702 37.074 72.275.298 18.589-4.908 36.553-15.043 52.019-6.727 7.169-14.443 13.754-23.145 19.688-34.39 23.448-83.758 36.362-139.008 36.362s-104.618-12.914-139.009-36.362c-11.256-7.676-20.876-16.433-28.814-26.151zm96.159 221.083c-6.079 0-12.03-.613-17.801-1.757-.026-.855-.054-1.713-.054-2.546 0-49.36 40.158-89.519 89.519-89.519s89.519 40.158 89.519 89.519c0 .851-.028 1.725-.055 2.597-5.67 1.11-11.513 1.706-17.481 1.706zm176.161-6.028c-.925-56.838-47.442-102.793-104.497-102.793-57.028 0-103.528 45.911-104.496 102.712-24.554-9.509-44.027-29.469-52.361-55.16 15.37-3.159 29.973-9.793 42.332-19.421 3.268-2.546 3.853-7.259 1.308-10.526s-7.259-3.853-10.525-1.308c-14.686 11.44-33.087 17.958-51.816 18.353-12.281.256-23.167-6.488-28.382-17.607-5.2-11.086-3.441-23.722 4.589-32.976l50.807-58.548c.364.253.719.512 1.086.762 16.576 11.302 35.83 20.237 57.272 26.688-.986 15.378-5.976 30.146-14.578 42.951-2.31 3.438-1.395 8.099 2.043 10.408 1.284.862 2.737 1.275 4.175 1.275 2.415 0 4.785-1.164 6.232-3.318 9.528-14.183 15.28-30.415 16.864-47.36 23.109 5.498 48.43 8.326 75.45 8.326 27.027 0 52.353-2.829 75.467-8.33 2.001 21.148 10.576 41.328 24.582 57.468 14.846 17.107 34.923 28.7 56.832 33.192-8.319 25.752-27.811 45.74-52.384 55.212zm99.444-85.751c-5.215 11.119-16.112 17.833-28.382 17.607-24.645-.52-48.038-11.487-64.182-30.092-12.516-14.422-19.967-32.618-21.2-51.586 21.445-6.451 40.702-15.387 57.281-26.69.367-.25.722-.51 1.086-.762l50.807 58.547c8.032 9.254 9.79 21.89 4.59 32.976z"/><path d="m177.564 228.96c4.142 0 7.5-3.357 7.5-7.5v-12.816c0-4.143-3.358-7.5-7.5-7.5s-7.5 3.357-7.5 7.5v12.816c0 4.143 3.358 7.5 7.5 7.5z"/><path d="m334.436 228.96c4.142 0 7.5-3.357 7.5-7.5v-12.816c0-4.143-3.358-7.5-7.5-7.5s-7.5 3.357-7.5 7.5v12.816c0 4.143 3.357 7.5 7.5 7.5z"/><path d="m212.566 277.88c0 20.268 19.315 36.756 43.057 36.756s43.057-16.488 43.057-36.756c0-3.147-.463-6.25-1.374-9.26 9.887-10.356 15.979-24.365 15.979-39.78 0-20.872-31.062-28.277-57.662-28.277-26.599 0-57.661 7.405-57.661 28.277 0 15.418 6.094 29.43 15.985 39.787-.911 3.005-1.381 6.101-1.381 9.253zm43.057 21.756c-14.888 0-27.099-9.04-27.998-20.412 8.297 4.629 17.842 7.278 27.998 7.278s19.702-2.649 27.998-7.278c-.899 11.372-13.11 20.412-27.998 20.412zm0-84.074c12.101 0 23.727 1.725 31.895 4.732 6.742 2.482 10.767 5.677 10.767 8.545 0 23.524-19.138 42.662-42.662 42.662-23.523 0-42.661-19.138-42.661-42.662-.001-6.279 17.52-13.277 42.661-13.277z"/></g></g></svg>