<svg id="Capa_1" enable-background="new 0 0 512 512" height="512" viewBox="0 0 512 512" width="512" xmlns="http://www.w3.org/2000/svg"><g><path d="m81.366 214.378 33.636 3.685-23.11 47.527-23.788-22.77c-14.193-13.586-6.268-30.582 13.262-28.442z" fill="#fab658"/><path d="m78.662 146.654c-2.154 13.374-10.642 23.13-29.185 20.143s-43.998-18.209-41.844-31.583 31.101-19.835 49.644-16.848c18.544 2.987 23.539 14.915 21.385 28.288z" fill="#55d47b"/><path d="m69.295 76.641c-7.934-10.98-8.83-23.88 6.394-34.88s43.987-18.235 51.921-7.255-7.967 36.017-23.191 47.017-27.19 6.098-35.124-4.882z" fill="#55d47b"/><path d="m74.107 64.138c-10.514 11.398-24.265 15.815-38.641 2.553s-26.942-41.958-16.428-53.355 40.127-1.182 54.504 12.081 11.08 27.324.565 38.721z" fill="#00c755"/><path d="m476.995 488.898c-13.02 10.12-29.93 16.13-48.03 14.41-29.16-1.74-52.69-18.66-65.51-33.38-5.15-5.95-8.64-11.89-10.63-17.56l63.152-40.593 68.708-15.847c2.22 1.3 4.35 2.83 6.36 4.64 2.02 1.81 3.92 3.9 5.67 6.33 4.2 5.66 6.95 13.69 7.62 22.81l-4.339 7.629 3.389 8.691c-1.29 6.87-3.74 13.92-7.55 20.71-1.6 3-3.46 5.92-5.56 8.7l-12.247 4.272z" fill="#ffebce"/><path d="m459.331 388.598c-27.05-2.871-51.898 3.737-75.91 15.784-19.211 9.252-39.457 24.153-30.599 47.982 45.783 8.065 93.245-7.04 122.951-43.833 3.277-4.059 6.238-8.273 8.915-12.606-7.883-4.628-16.821-6.322-25.357-7.327z" fill="#ffd9a0"/><path d="m239.449 477.264c62.288 6.895 125.817-21.6 166.013-74.965-63.143-30.276-99.387-96.245-97.739-166.403.754-32.118-12.619-61.498-35.365-80.397l-51.481-5.026-100.347 115.117 48.772 174.673z" fill="#fff4e5"/><path d="m174.842 328.853c0-73.444 39.046-137.768 97.511-173.348-6.535-5.43-13.839-10.001-21.809-13.517-39.721-17.523-87.201-5.34-116.587 30.371-11.395 13.847-21.161 29.546-28.812 46.889-42.251 95.773-4.004 205.396 85.427 244.849 15.899 7.014 32.345 11.327 48.878 13.158-39.743-37.021-64.608-89.804-64.608-148.402z" fill="#ffe0b7"/><path d="m495.305 327.298s.01.01 0 .01c-3.61 19.62-11.91 38.44-25.15 54.83-1.99 2.46-4.05 4.82-6.19 7.09h-.01c-28.13 29.81-69 42.76-109.37 37.84-25.26-3.07-50.31-13.13-71.94-30.42-10.63-8.5-19.74-18.17-27.28-28.63-19.6-27.23-19.32-62.9.41-87.67 17.78-22.32 47.88-31.22 76.82-23 42.08 11.96 87.19 3.65 119.97-23.68 8.84-7.37 22.91-4.35 28.6 6.32 2.1 3.93 4 7.95 5.69 12.02l-1.079 11.93 6.919 5.09c3.24 11.92 4.82 24.15 4.71 36.31l-4.71 12.146z" fill="#ffebce"/></g><g><path d="m502.767 402.468c-7.178-9.93-16.276-14.997-25.076-17.811 15.845-20.503 25.148-45.095 26.906-71.324 1.779-26.333-4.036-52.915-16.815-76.875-3.854-7.227-10.683-12.274-18.735-13.848-7.693-1.502-15.45.423-21.286 5.287-13.003 10.846-28.091 18.61-44.844 23.077-4.002 1.067-6.381 5.177-5.314 9.179s5.178 6.381 9.179 5.314c18.876-5.033 35.896-13.798 50.584-26.049 2.351-1.96 5.562-2.72 8.803-2.086 3.604.704 6.657 2.958 8.377 6.185 2.605 4.884 4.87 9.893 6.823 14.985-25.908 48.788-72.018 40.683-74.004 40.307-4.053-.783-7.983 1.858-8.782 5.914-.801 4.064 1.845 8.008 5.909 8.808.342.067 4.913.939 12.02.939 6.002 0 13.814-.622 22.412-2.876 14.254-3.737 33.037-12.698 48.172-33.872 2.301 10.729 3.19 21.672 2.635 32.578-26.414 36.841-65.627 29.953-67.401 29.62-4.054-.791-7.989 1.855-8.789 5.913-.8 4.064 1.846 8.007 5.91 8.808.609.12 5.233.979 12.277.979 12.993 0 34.211-2.953 53.644-18.834-4.217 14.793-11.308 28.568-21.049 40.635-1.796 2.22-3.68 4.384-5.604 6.436-.075.073-.148.147-.22.224-19.575 20.746-46.706 33.55-76.392 36.054-8.83.739-17.782.568-26.619-.512-24.759-3.009-48.329-12.979-68.164-28.834-9.859-7.876-18.565-17.013-25.875-27.153-17.455-24.238-17.376-56.569.19-78.624 11.125-13.965 28.192-22.392 46.842-23.12 7.357-.301 14.774.596 22.061 2.67 12.942 3.679 26.252 5.566 39.562 5.61h.025c4.13 0 7.486-3.342 7.5-7.476.014-4.142-3.333-7.511-7.476-7.524-11.938-.039-23.885-1.734-35.506-5.038-6.386-1.818-12.87-2.879-19.353-3.192-.126-3.613-.159-7.246-.072-10.868 1.04-44.347-23.16-83.971-61.651-100.948-21.081-9.298-44.277-11.087-67.079-5.174-22.749 5.9-42.918 18.916-58.329 37.641-10.401 12.639-19.299 26.571-26.529 41.459l-19.459-2.13c-.193-.021-.383-.033-.575-.051 3.253-19.045 4.684-38.462 4.255-57.865.072-.385.146-.768.209-1.16 1.033-6.415.61-12.352-1.2-17.504-1-12.14-2.737-24.338-5.2-36.472.965.32 1.941.589 2.931.794 1.804.375 3.624.562 5.457.562 6.774 0 13.732-2.554 20.753-7.627 8.488-6.131 17.104-16.099 22.485-26.016 6.952-12.812 7.801-23.988 2.394-31.466-9.427-13.053-32.19-9.026-48.224-2.254-1.716-2.61-3.935-5.285-6.835-7.959-8.048-7.427-20.258-13.951-31.863-17.027-14.656-3.884-26.458-1.976-33.238 5.372-6.779 7.348-7.73 19.268-2.679 33.562 4 11.32 11.485 22.965 19.534 30.391 7.343 6.774 15.268 10.142 23.171 10.142 2.613 0 5.223-.38 7.809-1.116 2.755 10.674 4.914 21.442 6.481 32.213-2.828-1.102-5.953-1.931-9.372-2.481-21.667-3.487-55.132 3.759-58.242 23.061-3.108 19.302 26.386 36.69 48.056 40.181 2.655.427 5.195.641 7.617.641 5.489 0 10.364-1.108 14.596-3.292-.692 12.654-2.208 25.244-4.548 37.649-5.63 2.576-9.742 7.008-11.568 12.651-2.108 6.512-.868 13.683 3.364 20.177-8.239 26.197-17.833 43.17-20.673 47.894-.336.56-.756 1.257-1.03 2.352-1.007 4.018 1.433 8.091 5.451 9.099.612.153 1.226.227 1.83.227 2.723 0 5.248-1.494 6.561-3.874l.044-.075c3.517-5.85 11.733-20.685 19.508-43.181l13.639 13.052c-4.419 27.462-3.181 55.821 3.645 82.285.873 3.383 3.918 5.629 7.257 5.629.62 0 1.25-.078 1.878-.24 4.011-1.034 6.424-5.125 5.389-9.135-6.621-25.67-7.567-53.289-2.737-79.875 2.726-15.019 7.268-29.792 13.495-43.895.296-.666.591-1.333.906-1.998.016-.035.033-.069.048-.104 7.068-15.562 16.083-30.051 26.792-43.065 26.952-32.749 71.27-44.374 107.772-28.274 32.917 14.518 53.606 48.617 52.709 86.866-.096 3.948-.058 7.912.083 11.855-20.019 2.659-38.092 12.641-50.402 28.093-10.754 13.501-16.491 29.943-16.591 47.548-.1 17.541 5.42 34.55 15.963 49.19 8.109 11.249 17.759 21.378 28.682 30.103 22.01 17.593 48.192 28.661 75.713 32.006 2.735.334 5.48.583 8.23.761-4.382 3.285-8.894 6.376-13.525 9.235-47.879 29.602-105.74 34.359-154.779 12.728-35.575-15.694-63.481-43.04-80.704-79.083-1.786-3.737-6.263-5.319-10-3.534-3.738 1.786-5.32 6.263-3.534 10 18.521 38.761 49.839 69.424 88.184 86.34 22.16 9.774 46.292 14.808 70.607 14.808 5.3 0 10.609-.239 15.908-.72 25.769-2.341 51.402-10.396 74.661-23.37 2.314 4.458 5.343 8.864 9.074 13.175 6.828 7.84 32.08 33.58 70.578 35.933 2.183.203 4.369.304 6.554.304 20.696 0 41.232-8.993 56.004-24.792 4.585-4.907 8.448-10.278 11.482-15.964 5.67-10.139 8.954-21.466 9.499-32.757.67-13.562-2.663-26.354-9.147-35.107zm-381.24-363.565c1.377 1.904.894 7.574-3.421 15.525-4.309 7.941-11.407 16.188-18.084 21.011-5.366 3.878-10.206 5.403-14.375 4.538-3.469-.72-6.751-3.115-9.771-7.081 1.267-1.128 2.518-2.344 3.744-3.674 6.903-7.483 10.614-15.342 11.028-23.359.062-1.193.049-2.5-.077-3.896 13.812-6.088 28.102-7.016 30.956-3.064zm-80.977 22.273c-6.267-5.781-12.375-15.344-15.562-24.363-2.974-8.416-3.142-15.463-.438-18.394 1.538-1.667 4.479-2.515 8.319-2.515 2.908 0 6.332.486 10.05 1.472 9.246 2.451 19.27 7.77 25.536 13.551 5.032 4.642 7.458 9.406 7.212 14.16-.285 5.512-4.004 10.636-7.074 13.963-12.506 13.558-21.994 7.706-28.043 2.126zm25.002 95.809c-3.339 2.65-8.347 3.46-14.883 2.407-17.405-2.803-36.676-16.5-35.632-22.986.881-5.471 17.097-11.275 32.598-11.275 2.875 0 5.727.2 8.449.639 6.537 1.053 11.038 3.394 13.375 6.958 2.05 3.125 2.655 7.409 1.797 12.732-.857 5.324-2.777 9.201-5.704 11.525zm6.353 78.967c-.059-.074-.119-.148-.181-.22-2.799-3.272-3.92-6.649-3.074-9.263.677-2.091 2.664-3.633 5.634-4.351 1.802-.445 3.911-.541 6.264-.285l14.721 1.611c-3.476 8.731-6.363 17.665-8.632 26.728l-13.339-12.765c-.511-.491-.97-.97-1.393-1.455zm357.759 259.889c-.087-.008-.175-.015-.262-.021-32.743-1.954-54.425-24.083-60.276-30.802-3.221-3.72-5.734-7.458-7.547-11.165 8.56-5.673 16.724-12.048 24.363-19.018 30.958-3.181 59.342-16.41 80.605-37.532 11.405 2.283 18.737 6.567 24.086 13.982.021.028.042.057.062.085 3.75 5.046 5.99 12.707 6.268 21.067-25.822 11.256-49.671 2.312-50.075 2.156-3.844-1.518-8.191.361-9.721 4.203-1.532 3.848.346 8.21 4.194 9.742.779.31 11.982 4.648 27.917 4.648 7.668 0 16.432-1.007 25.656-3.949-1.299 4.776-3.18 9.441-5.641 13.831-.027.048-.053.096-.079.145-1.986 3.731-4.438 7.302-7.296 10.654-20.463.789-35.515-7.91-35.856-8.11-3.543-2.128-8.141-.987-10.28 2.551-2.143 3.545-1.005 8.156 2.54 10.298.598.361 11.023 6.544 26.901 9.162-10.866 6.291-23.324 9.232-35.559 8.073z"/><path d="m143.044 232.493c3.063 0 5.94-1.892 7.048-4.937l3.673-10.092c1.417-3.892-.59-8.196-4.482-9.613-3.892-1.416-8.197.59-9.613 4.483l-3.673 10.092c-1.417 3.893.59 8.196 4.483 9.613.846.308 1.712.454 2.564.454z"/></g></svg>