<svg id="Capa_1" enable-background="new 0 0 511.989 511.989" height="512" viewBox="0 0 511.989 511.989" width="512" xmlns="http://www.w3.org/2000/svg"><g><g><g><g><path d="m443.012 339.271h-187.017-187.017l-22.296 88.908c-7.487 29.854 15.089 58.791 45.868 58.791h163.445 163.445c30.779 0 53.355-28.937 45.868-58.791z" fill="#dae2fe"/></g><g><path d="m370.815 197.119c20.426 0 39.477 7.633 55.564 20.812 3.605-7.096 8.393-11.686 14.237-12.973 20.681-4.552 46.739 33.976 58.203 86.055 11.463 52.079 3.991 97.988-16.69 102.54-5.274 1.161-10.897-.485-16.538-4.437-16.501 46.545-52.73 78.861-94.775 78.861-57.596 0-104.287-60.634-104.287-135.429s46.69-135.429 104.286-135.429z" fill="#455060"/></g><g><path d="m141.174 197.12c-20.426 0-39.477 7.633-55.564 20.812-3.605-7.096-8.394-11.686-14.237-12.973-20.681-4.552-46.739 33.976-58.203 86.055-11.463 52.079-3.991 97.988 16.69 102.54 5.274 1.161 10.897-.485 16.538-4.437 16.501 46.545 52.73 78.861 94.775 78.861 57.596 0 104.287-60.634 104.287-135.429s-46.689-135.429-104.286-135.429z" fill="#455060"/></g><g><path d="m312.311 9.977c-16.551-5.174-34.257-2.062-48.827 7.342-2.271 1.466-4.81 2.285-7.489 2.285-2.68 0-5.219-.82-7.49-2.285-14.57-9.404-32.276-12.516-48.827-7.342-76.594 23.946-132.181 95.439-132.181 179.926 0 23.094 4.161 45.214 11.761 65.662h353.472c7.6-20.448 11.761-42.568 11.761-65.662.001-84.487-55.585-155.98-132.18-179.926z" fill="#e9efff"/></g><g><path d="m157.082 194.737c0-73.645 38.147-138.377 95.755-175.526-1.521-.378-2.976-1.017-4.333-1.893-14.57-9.404-32.276-12.516-48.827-7.342-76.593 23.947-132.18 95.44-132.18 179.927 0 23.094 4.161 45.214 11.761 65.662h86.839c-5.854-19.247-9.015-39.667-9.015-60.828z" fill="#dae2fe"/></g><g><path d="m410.086 469.087c-8.273-32.373-26.483-60.768-51.185-81.751l-.005.013h-23.306l-21.396-26.792.001-.007c-18.023-7.091-37.651-10.991-58.191-10.991-20.548 0-40.182 3.903-58.21 10.998l-21.396 26.792h-23.306c-24.694 20.983-42.897 49.372-51.169 81.738-4.582 17.928 8.816 35.403 27.321 35.403h21.292l37.458-18.25 51.309 18.25h33.929l53.262-25.75 35.504 25.75h20.766c18.506-.001 31.904-17.475 27.322-35.403z" fill="#ffddcf"/></g><g><path d="m197.795 360.556-21.396 26.792h-23.306c-24.694 20.983-42.897 49.372-51.169 81.738-4.582 17.928 8.816 35.403 27.321 35.403h21.292l25.983-12.66c-4.225-6.391-5.916-14.516-3.813-22.743 14.683-57.452 60.656-102.376 118.69-115.567-11.382-2.587-23.226-3.962-35.391-3.962-20.548.001-40.183 3.904-58.211 10.999z" fill="#ffcbbe"/></g><g><path d="m153.093 387.349c3.14 16.365 4.871 34.113 4.871 52.669 0 23.112-2.67 44.984-7.427 64.471h88.767c-25.794-38.148-41.498-88.6-41.509-143.933-16.409 6.458-31.486 15.563-44.702 26.793z" fill="#4a66a0"/></g><g><path d="m359.373 387.734c-13.185-11.288-28.239-20.454-44.633-26.974-.049 55.253-15.744 105.628-41.507 143.73h88.767c-4.757-19.487-7.427-41.359-7.427-64.471-.001-18.413 1.706-36.026 4.8-52.285z" fill="#687daa"/></g><g><path d="m141.325 243.43c10.581 21.388.63 47.334-21.017 57.374s-47.334.63-57.374-21.017-18.25-39.35-34.074-73.469 71.789-45.109 112.465 37.112z" fill="#ffcbbe"/></g><g><path d="m370.665 243.43c-10.581 21.388-.63 47.334 21.017 57.374s47.334.63 57.374-21.017 18.25-39.35 34.074-73.469-71.79-45.109-112.465 37.112z" fill="#ffcbbe"/></g><g><path d="m285.51 386.608c73.561-13.833 129.217-78.41 129.217-155.989 0-25.016-5.792-48.678-16.102-69.724-3.03-6.185-11.981-5.794-14.47.629l-10.325 26.647c-4.94 12.749-17.207 21.152-30.88 21.152h-174.7c-13.673 0-25.94-8.403-30.88-21.152l-9.975-25.742c-1.505-3.885-5.341-5.529-8.823-4.886 5.021 62.73 31.139 229.017 166.938 229.065z" fill="#ffddcf"/></g><g><g><path d="m321.2 26.87c11.436-11.436 29.226-13.497 42.987-4.999 26.512 16.374 68.826 40.36 88.465 39.86 29.762-.759 26.921-50.768 39.732-53.911s23.14 61.291-11.889 96.321c-29.841 29.841-95.686 19.864-155.365-24.574-17.095-12.73-19.001-37.625-3.93-52.697z" fill="#617184"/></g></g><g><g><path d="m190.789 26.87c-11.436-11.436-29.226-13.497-42.987-4.999-26.512 16.374-68.826 40.36-88.465 39.86-29.762-.758-26.921-50.768-39.732-53.911s-23.14 61.291 11.889 96.321c29.841 29.841 95.686 19.864 155.365-24.574 17.096-12.73 19.001-37.625 3.93-52.697z" fill="#617184"/></g></g><g><path d="m155.818 230.563c0-7.856.577-15.577 1.68-23.127-9.057-3.12-16.524-10.071-20.115-19.337l-9.978-25.751c-2.511-6.48-11.513-6.777-14.526-.515-10.005 20.797-15.616 44.107-15.616 68.73 0 87.644 73.215 159.891 160.852 158.775 9.369-.119 18.542-1.054 27.453-2.729-73.194-13.891-129.75-79.017-129.75-156.046z" fill="#ffcbbe"/></g><g><g><g><ellipse cx="172.923" cy="292.008" fill="#ffa1ac" rx="30.652" ry="24.41"/></g><g><ellipse cx="339.067" cy="292.008" fill="#ffa1ac" rx="30.652" ry="24.41"/></g><g><path d="m291.824 276.449c0-15.495-16.041-16.951-35.829-16.951s-35.829 1.456-35.829 16.951 16.041 28.056 35.829 28.056 35.829-12.561 35.829-28.056z" fill="#495560"/></g><g><path d="m255.995 312.005c-23.892 0-43.329-15.95-43.329-35.556 0-7.234 2.687-16.812 15.485-21.354 7.243-2.57 16.369-3.097 27.844-3.097s20.601.526 27.844 3.097c12.799 4.542 15.485 14.12 15.485 21.354 0 19.606-19.438 35.556-43.329 35.556zm0-45.007c-23.947 0-28.329 3.183-28.329 9.451 0 11.143 12.973 20.556 28.329 20.556s28.329-9.413 28.329-20.556c0-6.268-4.382-9.451-28.329-9.451z"/></g><g><path d="m202.867 248.033c-.433 0-.87-.037-1.312-.115l-21.716-3.829c-4.079-.719-6.803-4.609-6.083-8.688.72-4.078 4.604-6.807 8.688-6.083l21.716 3.829c4.079.719 6.803 4.609 6.083 8.688-.641 3.638-3.805 6.198-7.376 6.198z"/></g><g><path d="m309.123 248.033c-3.571 0-6.735-2.56-7.377-6.198-.72-4.079 2.004-7.97 6.083-8.688l21.716-3.829c4.078-.725 7.97 2.004 8.688 6.083.72 4.079-2.004 7.97-6.083 8.688l-21.716 3.829c-.44.078-.879.115-1.311.115z"/></g></g><g><path d="m190.787 275.913c-4.143 0-7.5-3.357-7.5-7.5v-12.336c0-4.143 3.357-7.5 7.5-7.5s7.5 3.357 7.5 7.5v12.336c0 4.143-3.358 7.5-7.5 7.5z"/></g><g><path d="m321.203 275.913c-4.143 0-7.5-3.357-7.5-7.5v-12.336c0-4.143 3.357-7.5 7.5-7.5s7.5 3.357 7.5 7.5v12.336c0 4.143-3.358 7.5-7.5 7.5z"/></g></g></g></g><path d="m481.991 226.597 7.942-17.124c4.782-10.311 2.8-20.638-5.303-27.625-7.431-6.409-19.574-9.492-33.334-8.466-1.286-15.399-4.37-30.513-9.201-45.107 17.575-1.631 32.69-7.818 43.703-18.831 17.48-17.479 23.393-39.737 25.274-55.331 2.144-17.765-.046-35.589-5.577-45.408-5.281-9.376-12.177-8.839-14.897-8.169-9.056 2.222-12.279 12.403-16.013 24.192-5.409 17.084-10.163 29.2-22.124 29.505-.153.005-.31.007-.468.007-13.434 0-43.926-14.082-83.864-38.749-10.212-6.306-22.152-7.848-33.081-4.959-6.665-2.94-13.55-5.54-20.5-7.714-18.162-5.68-38.259-2.69-55.133 8.199-2.234 1.441-4.606 1.442-6.843-.001-16.872-10.888-36.967-13.875-55.132-8.197-6.943 2.171-13.832 4.771-20.501 7.713-10.928-2.888-22.866-1.348-33.078 4.96-39.941 24.667-70.432 38.748-83.864 38.748-.158 0-.315-.003-.468-.007-11.961-.305-16.715-12.421-22.124-29.505-3.734-11.788-6.957-21.97-16.013-24.192-2.719-.668-9.615-1.206-14.897 8.169-5.531 9.819-7.721 27.644-5.577 45.408 1.882 15.594 7.794 37.852 25.273 55.33 11.015 11.015 26.127 17.203 43.703 18.833-4.826 14.58-7.908 29.677-9.197 45.057-14.403-1.031-26.461 2.453-33.55 8.699-7.921 6.979-9.824 17.237-5.092 27.441l7.94 17.12c-10.328 16.644-18.865 38.8-24.149 62.808-5.744 26.091-7.089 51.629-3.788 71.91 3.68 22.607 12.98 36.659 26.189 39.566 3.469.766 8.358.962 14.187-1.199.749 1.794 1.529 3.565 2.336 5.315-.012.045-.029.087-.04.133l-5.324 21.229c-4.135 16.486-.509 33.627 9.946 47.027 10.455 13.401 26.199 21.087 43.196 21.087h5.989c.764 1.284 1.604 2.533 2.536 3.733 6.804 8.761 17.071 13.786 28.17 13.786h253.521c11.099 0 21.366-5.024 28.17-13.786.932-1.2 1.773-2.449 2.536-3.733h5.969c16.997 0 32.741-7.686 43.196-21.087 10.455-13.4 14.081-30.541 9.946-47.027l-5.256-20.958c-.03-.119-.071-.232-.106-.348.808-1.764 1.59-3.552 2.342-5.367 5.825 2.157 10.711 1.961 14.178 1.195 13.209-2.907 22.51-16.959 26.189-39.566 3.301-20.281 1.956-45.819-3.788-71.91-5.271-23.965-13.826-46.167-24.149-62.804zm-7.157-33.39c2.032 1.752 4.037 4.468 1.492 9.956l-34.074 73.469c-6.188 13.343-19.714 21.279-33.897 20.663 9.091-20.758 13.872-43.361 13.872-66.676 0-10.599-.988-21.017-2.92-31.211 24.207-14.441 47.512-13.114 55.527-6.201zm-114.588-164.954c44.716 27.617 75.888 41.402 92.598 40.977 23.574-.602 31.077-24.295 36.042-39.973 1.172-3.701 2.772-8.755 4.236-11.852 1.527 3.442 3.309 9.959 3.692 19.66.358 9.061-.142 40.291-21.623 61.772-27.158 27.158-89.746 16.289-145.581-25.286-6.432-4.789-10.453-12.109-11.033-20.085-.576-7.918 2.312-15.68 7.927-21.293h.001c5.295-5.296 12.269-8.036 19.322-8.036 4.951.001 9.942 1.351 14.419 4.116zm-345.071 8.813c.384-9.701 2.165-16.218 3.692-19.66 1.464 3.097 3.064 8.15 4.236 11.852 4.965 15.678 12.468 39.371 36.042 39.973 16.7.408 47.882-13.36 92.598-40.977 10.853-6.701 24.729-5.092 33.741 3.921h.001c5.614 5.613 8.503 13.375 7.927 21.293-.58 7.976-4.602 15.296-11.033 20.085-35.163 26.183-72.996 40.188-102.979 40.186-17.627-.001-32.546-4.844-42.602-14.9-21.481-21.482-21.981-52.713-21.623-61.773zm21.89 156.22c7.818-6.889 31.262-8.402 55.619 6.12-1.935 10.198-2.921 20.617-2.921 31.213 0 23.27 4.826 45.809 14.143 66.677-14.29.758-27.905-7.16-34.168-20.664l-34.074-73.469c-2.522-5.437-.577-8.135 1.401-9.877zm5.032 189.688c-4.032 2.824-7.608 3.913-10.624 3.256-6.599-1.453-12.06-11.669-14.608-27.328-3.004-18.454-1.714-41.991 3.631-66.275 4.034-18.326 10.035-35.378 17.256-49.312l18.379 39.628c8.502 18.332 26.549 29.415 45.857 29.415 3.02 0 6.07-.278 9.12-.835 4.1 7.219 8.768 14.194 13.999 20.878 1.479 1.89 3.684 2.877 5.911 2.877 1.617 0 3.246-.521 4.618-1.594 3.262-2.554 3.836-7.268 1.283-10.529-21.037-26.876-32.156-58.874-32.156-92.535 0-22.925 5.003-44.946 14.869-65.454.07-.146.13-.291.435-.275.241.01.272.089.334.248l9.975 25.742c6.013 15.517 21.232 25.941 37.873 25.941h140.883c4.143 0 7.5-3.357 7.5-7.5s-3.357-7.5-7.5-7.5h-140.883c-10.495 0-20.095-6.575-23.887-16.361l-9.975-25.742c-2.251-5.81-7.512-9.571-13.729-9.816-6.151-.242-11.865 3.195-14.543 8.76-3.995 8.305-7.259 16.836-9.796 25.556-7.064-3.813-14.058-6.541-20.781-8.337 1.242-16.212 4.637-32.092 10.12-47.313 32.082-1.679 69.965-16.388 105.682-42.984 9.929-7.394 16.138-18.703 17.035-31.027.893-12.268-3.584-24.292-12.281-32.989-.001 0 0 .001-.001 0-.624-.624-1.267-1.216-1.92-1.794 2.569-.934 5.15-1.827 7.744-2.638 13.904-4.347 29.401-1.982 42.522 6.484 3.531 2.28 7.527 3.485 11.557 3.485 4.029 0 8.025-1.205 11.556-3.484 13.122-8.469 28.621-10.83 42.522-6.485 2.595.812 5.176 1.705 7.744 2.639-.652.577-1.296 1.17-1.919 1.793-.001.001 0 0-.001 0-8.696 8.697-13.174 20.723-12.281 32.989.897 12.324 7.106 23.634 17.035 31.027 35.721 26.598 73.599 41.307 105.682 42.984 5.488 15.235 8.885 31.13 10.124 47.36-6.245 1.654-13.284 4.261-20.776 8.297-2.646-9.098-6.087-17.988-10.321-26.629-2.731-5.576-8.268-8.869-14.491-8.607-6.21.268-11.463 4.032-13.707 9.826l-10.325 26.646c-3.792 9.786-13.393 16.361-23.888 16.361h-3.121c-4.143 0-7.5 3.357-7.5 7.5s3.357 7.5 7.5 7.5h3.121c16.641 0 31.861-10.425 37.874-25.941l10.325-26.647c.056-.144.097-.247.365-.259.258-.009.308.081.376.221 10.177 20.772 15.337 43.121 15.337 66.425 0 82.334-66.959 150.17-149.264 151.219-.629.008-1.257.012-1.886.012-35.907 0-70.794-13.079-98.427-36.943-3.134-2.705-7.87-2.359-10.579.774-2.707 3.136-2.36 7.871.774 10.579 5.439 4.697 11.139 9.007 17.052 12.928-5.656 3.709-11.067 7.749-16.203 12.094-.346.251-.671.527-.966.831-6.023 5.175-11.667 10.762-16.883 16.715-4.122-4.811-7.72-10.484-10.497-16.624-3.768-8.329-5.887-17.092-6.13-25.342-.122-4.14-3.58-7.373-7.718-7.276-4.141.122-7.398 3.578-7.276 7.718.302 10.215 2.88 20.963 7.457 31.082 3.768 8.33 8.823 15.996 14.665 22.319-8.503 11.679-15.495 24.447-20.731 37.967-20.542-12.641-37.497-34.843-47.146-62.061-.783-2.208-2.553-3.924-4.784-4.638-2.23-.715-4.668-.346-6.588.998zm310.545 114.015h-65.811c19.409-32.891 31.264-71.771 34.507-113.433 3.942-1.685 7.815-3.53 11.618-5.52 6.417 3.792 12.52 8.043 18.266 12.705-2.744 15.874-4.15 32.421-4.15 49.277 0 19.774 1.876 38.891 5.57 56.971zm-109.31 0c-19.94-30.732-32.471-67.722-36.567-107.77 15.877 5.016 32.489 7.631 49.311 7.631.691 0 1.386-.005 2.078-.014 16.379-.208 32.379-2.778 47.609-7.536-4.111 40.021-16.653 77.006-36.559 107.689zm-52.152-113.566c3.223 41.717 15.077 80.618 34.524 113.567h-65.81c3.694-18.081 5.571-37.197 5.571-56.972 0-17.005-1.428-33.68-4.214-49.654 5.725-4.606 11.802-8.805 18.187-12.553 3.847 2.025 7.763 3.899 11.742 5.612zm-98.631 96.047c-12.344 0-23.777-5.582-31.37-15.313s-10.226-22.18-7.224-34.152l1.454-5.796c10.922 16.655 24.756 30.135 40.331 39.004-.377 1.333-.738 2.673-1.082 4.017-1.04 4.071-1.362 8.201-.997 12.24zm20.373 9.533c-3.991-5.14-5.352-11.722-3.731-18.059 6.619-25.902 20.176-49.578 38.759-68.529 1.663 12.209 2.514 24.801 2.514 37.602 0 19.872-1.988 39.004-5.901 56.972h-15.319c-6.431 0-12.38-2.911-16.322-7.986zm269.843 7.986h-14.793c-3.912-17.969-5.9-37.101-5.9-56.972 0-12.625.832-25.056 2.454-37.124 18.345 18.876 31.734 42.382 38.293 68.05 1.62 6.337.26 12.92-3.73 18.059-3.942 5.076-9.892 7.987-16.324 7.987zm75.269-66.985c3.002 11.973.369 24.421-7.224 34.152s-19.026 15.313-31.37 15.313h-1.091c.365-4.039.044-8.169-.997-12.239-.344-1.348-.706-2.69-1.084-4.026 15.764-8.935 29.492-22.233 40.346-38.864zm37.091-71.102c-2.549 15.659-8.01 25.875-14.608 27.328-3.021.662-6.591-.432-10.624-3.256-1.919-1.345-4.357-1.714-6.587-1.001-2.231.714-4.002 2.429-4.785 4.638-9.635 27.178-26.606 49.408-47.131 62.048-5.238-13.514-12.234-26.281-20.74-37.96 5.839-6.322 10.892-13.985 14.66-22.312 4.576-10.119 7.154-20.867 7.456-31.082.122-4.14-3.136-7.596-7.276-7.718-4.142-.093-7.596 3.137-7.718 7.276-.243 8.25-2.362 17.013-6.129 25.342-2.776 6.135-6.371 11.804-10.489 16.613-5.068-5.784-10.542-11.22-16.372-16.27-.321-.335-.674-.641-1.055-.913-5.142-4.379-10.56-8.452-16.225-12.191 9.548-6.319 18.514-13.663 26.744-21.992 10.716-10.844 19.76-22.911 27.011-35.88 2.889.502 5.78.767 8.645.767 19.338 0 37.491-11.14 45.958-29.396l18.379-39.628c7.224 13.944 13.231 31.023 17.256 49.311 5.343 24.284 6.634 47.821 3.63 66.276z"/></g></svg>