<svg height="511pt" viewBox="0 -2 511.99929 511" width="511pt" xmlns="http://www.w3.org/2000/svg"><path d="m289.664062 248.183594h-67.332031l10-140h47.332031zm0 0" fill="#ff8997"/><path d="m462.839844 232.308594h-413.683594c-6.742188 0-12.207031 5.464844-12.207031 12.207031v19.996094c0 6.746093 5.464843 12.210937 12.207031 12.210937h413.683594c6.742187 0 12.210937-5.464844 12.210937-12.210937v-19.996094c0-6.742187-5.46875-12.207031-12.210937-12.207031zm0 0" fill="#fc5c70"/><path d="m96 135.515625h46v288.417969h-46zm0 0" fill="#ff8997"/><path d="m416 423.933594h-46v-288.417969h46zm0 0" fill="#ff8997"/><g fill="#fc5c70"><path d="m370 202.894531c17.203125-1.875 32.585938-4.238281 46-7.074219v-60.304687h-46zm0 0"/><path d="m256 208.183594c10.578125 0 20.839844-.109375 30.785156-.320313l-7.121094-99.679687h-47.332031l-7.121093 99.679687c9.945312.210938 20.207031.320313 30.789062.320313zm0 0"/><path d="m96 195.820312c13.410156 2.835938 28.792969 5.199219 46 7.074219v-67.378906h-46zm0 0"/></g><path d="m36.945312 84.375s.042969 13.554688 18.160157 53.257812c5.113281 11.210938 14.714843 19.753907 26.449219 23.5 23.554687 7.519532 73.347656 17.050782 174.441406 17.050782 101.097656 0 150.886718-9.53125 174.441406-17.050782 11.738281-3.746093 21.339844-12.292968 26.453125-23.5 18.117187-39.703124 18.15625-53.257812 18.15625-53.257812zm0 0" fill="#ff8997"/><path d="m256 115.707031c172.617188 0 219.050781-31.332031 219.050781-31.332031 24.074219-26.90625 28.777344-55.304688 29.441407-69.863281.210937-4.664063-4.628907-7.902344-8.859376-5.910157-57.597656 27.117188-106.945312 64.667969-239.632812 64.667969-132.691406 0-182.035156-37.550781-239.636719-64.667969-4.230469-1.992187-9.070312 1.246094-8.859375 5.910157.664063 14.558593 5.367188 42.957031 29.441406 69.863281.003907 0 46.4375 31.332031 219.054688 31.332031zm0 0" fill="#4f4c5f"/><path d="m162.550781 486.738281-7.660156-84.777343c-.601563-6.667969-6.195313-11.78125-12.890625-11.78125h-46c-6.699219 0-12.289062 5.109374-12.894531 11.78125l-7.660157 84.777343c-.683593 7.578125 5.285157 14.109375 12.890626 14.109375h61.324218c7.609375 0 13.574219-6.53125 12.890625-14.109375zm0 0" fill="#4f4c5f"/><path d="m349.445312 486.738281 7.660157-84.777343c.605469-6.667969 6.195312-11.78125 12.894531-11.78125h46c6.695312 0 12.289062 5.109374 12.890625 11.78125l7.660156 84.777343c.6875 7.578125-5.28125 14.109375-12.890625 14.109375h-61.320312c-7.609375 0-13.578125-6.53125-12.894532-14.109375zm0 0" fill="#4f4c5f"/><path d="m174.089844 135.519531v13.464844c0 4.144531 3.359375 7.5 7.5 7.5s7.5-3.355469 7.5-7.5v-13.464844c0-4.144531-3.359375-7.5-7.5-7.5s-7.5 3.355469-7.5 7.5zm0 0"/><path d="m322.90625 135.519531v13.464844c0 4.144531 3.359375 7.5 7.5 7.5 4.144531 0 7.5-3.355469 7.5-7.5v-13.464844c0-4.144531-3.355469-7.5-7.5-7.5-4.140625 0-7.5 3.355469-7.5 7.5zm0 0"/><path d="m268.714844 143.113281c-3.085938 3.53125-7.722656 5.5625-12.714844 5.5625-4.996094 0-9.628906-2.027343-12.71875-5.5625-2.726562-3.121093-7.464844-3.4375-10.582031-.710937-3.121094 2.726562-3.4375 7.464844-.710938 10.582031 5.9375 6.792969 14.6875 10.6875 24.011719 10.6875 9.320312 0 18.074219-3.894531 24.011719-10.6875 2.726562-3.117187 2.40625-7.855469-.710938-10.582031-3.121093-2.726563-7.855469-2.410156-10.585937.710937zm0 0"/><path d="m48.28125 140.75c7.769531 17.027344 22.824219 25.617188 40.21875 30.203125v53.859375h-39.34375c-10.867188 0-19.707031 8.839844-19.707031 19.707031v19.996094c0 10.871094 8.839843 19.710937 19.707031 19.710937h39.34375v99.859376c-7.019531 2.738281-12.140625 9.234374-12.863281 17.203124 0 0-7.65625 84.75-7.660157 84.777344-1.066406 11.789063 8.535157 22.285156 20.359376 22.285156h61.324218c11.835938 0 21.425782-10.496093 20.359375-22.285156l-7.660156-84.777344c-.71875-7.96875-5.839844-14.464843-12.863281-17.203124v-99.859376h213v99.859376c-7.019532 2.738281-12.140625 9.234374-12.859375 17.203124 0 0-7.65625 84.738282-7.664063 84.777344-1.0625 11.792969 8.535156 22.285156 20.363282 22.285156h61.320312c11.824219 0 21.425781-10.515624 20.363281-22.285156l-7.660156-84.777344c-.722656-7.96875-5.84375-14.464843-12.863281-17.203124v-99.859376h39.339844c10.871093 0 19.710937-8.839843 19.710937-19.710937v-19.996094c0-10.867187-8.839844-19.707031-19.710937-19.707031h-39.335938v-53.859375c17.4375-4.59375 32.429688-13.144531 40.214844-30.203125 14.242187-31.207031 17.722656-47.035156 18.566406-53.253906 24.1875-28.078125 29.011719-57.4375 29.703125-72.636719.222656-4.84375-2.058594-9.34375-6.097656-12.035156-4.039063-2.691407-9.0625-3.066407-13.445313-1.003907-9.011718 4.242188-17.59375 8.621094-26.671875 13.253907-48.867187 24.921875-99.398437 50.699219-209.769531 50.699219-38.839844 0-97.300781-2.671876-156.304688-25.773438-3.855468-1.511719-8.207031.390625-9.714843 4.25-1.511719 3.855469.390625 8.207031 4.25 9.71875 46.707031 18.285156 98.109375 26.804688 161.769531 26.804688 113.976562 0 168.488281-27.808594 216.582031-52.339844 8.308594-4.238282 16.191407-8.257813 24.292969-12.121094-.96875 13.90625-5.90625 38.578125-26.695312 62.242188-1.28125.726562-2.609376 1.363281-3.933594 2.003906-1.226563.574218-2.519532 1.039062-3.726563 1.644531-15.027343 6.289063-31.027343 10.132813-46.945312 13.355469-3.972657.800781-6.910157 4.8125-6.101563 8.863281.929688 4.65625 5.457032 6.5625 9.730469 5.703125 10.734375-2.160156 21.46875-4.753906 31.941406-7.957031 4.453125-1.359375 9-2.90625 13.390625-4.609375-2.40625 8.011718-6.726562 20.003906-14.464844 36.964844-6.789062 14.878906-20.835937 19.714843-35.625 23.246093-.058593.011719-.117187.015625-.175781.03125-42.210937 10.097657-86.5 11.535157-129.710937 12.617188-.019532 0-.039063-.003907-.058594 0-18.980469.472656-38.015625.46875-57 0-.019531 0-.039062 0-.058594 0-43.1875-.835938-87.519531-2.625-129.710937-12.617188-.058594-.015625-.117188-.019531-.175781-.03125-14.835938-3.542969-28.824219-8.34375-35.625-23.246093-7.730469-16.941407-12.046876-28.929688-14.457032-36.9375.414063.160156 3.765625 1.402343 5.011719 1.847656 35.671875 12.703125 74.511719 17.238281 112.070313 20.347656 30.410156 2.515625 60.9375 3.429688 91.445312 3.429688 50.304688 0 94.878906-2.660157 132.484375-7.90625 4.035156-.5625 6.953125-4.433594 6.394531-8.464844-.574218-4.101563-4.367187-6.960938-8.464844-6.390625-43.171874 6.019531-86.863281 7.761719-130.414062 7.761719-29.441406 0-58.917969-.886719-88.269531-3.25-88.464844-7.121094-121.054688-23.664063-125.929688-26.410157-20.773437-23.660156-25.710937-48.332031-26.679687-62.238281 8.101562 3.859375 15.984375 7.878906 24.289062 12.117188 8.769532 4.472656 17.839844 9.097656 27.351563 13.601562 3.742187 1.773438 8.214843.175781 9.988281-3.566406 1.773438-3.746094.171875-8.214844-3.570312-9.988282-9.3125-4.410156-18.28125-8.984374-26.953126-13.410156-9.082031-4.628906-17.660156-9.003906-26.667968-13.25-4.382813-2.0625-9.410156-1.6875-13.445313 1.003906-4.039062 2.695313-6.320312 7.195313-6.097656 12.039063.691406 15.195313 5.515625 44.558594 29.703125 72.636719.847656 6.21875 4.335938 22.070312 18.5625 53.253906zm81.96875 38.09375c.035156.007812.070312.011719.105469.015625 1.34375.179687 2.714843.359375 4.105469.535156.011718 0 .023437.003907.039062.003907v203.285156h-31v-208.269532c7.652344 1.550782 16.515625 3.054688 26.75 4.429688zm125.75 6.839844c7.222656 0 14.449219-.046875 21.671875-.152344l2.804687 39.277344h-48.957031l2.804688-39.277344c1.71875.027344 16.183593.152344 21.675781.152344zm106.5 39.125h-66.984375l-2.828125-39.574219c27.609375-.707031 50.632812-2.195313 69.8125-4.136719zm-146.015625 0h-66.984375v-43.710938c19.175781 1.941406 42.203125 3.429688 69.808594 4.136719zm-167.328125 44.417968c-2.59375 0-4.707031-2.113281-4.707031-4.710937v-19.996094c0-2.59375 2.113281-4.707031 4.707031-4.707031h39.34375v29.414062zm104.507812 222.339844c-.996093 1.089844-2.425781 1.785156-4.003906 1.785156 0 0-61.234375 0-61.320312 0-3.164063 0-5.707032-2.789062-5.421875-5.933593l7.660156-84.777344c.253906-2.824219 2.585937-4.953125 5.421875-4.957031h46c2.835938.003906 5.167969 2.132812 5.421875 4.957031 0 0 7.644531 84.601563 7.660156 84.777344.140625 1.578125-.421875 3.058593-1.417969 4.148437zm-4.164062-222.339844v-29.417968h213v29.417968zm278.164062 222.339844c-.996093 1.089844-2.425781 1.785156-4.003906 1.785156 0 0-61.09375 0-61.320312 0-3.148438 0-5.707032-2.808593-5.425782-5.933593l7.664063-84.777344c.253906-2.824219 2.582031-4.953125 5.421875-4.957031h46c2.835938.003906 5.167969 2.132812 5.421875 4.957031 0 0 7.644531 84.585937 7.660156 84.777344.140625 1.578125-.421875 3.058593-1.417969 4.148437zm35.175782-251.757812c2.597656 0 4.710937 2.113281 4.710937 4.710937v19.996094c0 2.597656-2.113281 4.710937-4.710937 4.710937h-39.339844v-29.417968zm-54.339844 142.875h-31v-203.285156h.027344c1.398437-.179688 2.773437-.355469 4.125-.539063.027344-.003906.054687-.007813.085937-.011719 10.238281-1.378906 19.101563-2.882812 26.757813-4.433594v208.269532zm0 0"/></svg>