<svg id="Capa_1" enable-background="new 0 0 512 512" height="512" viewBox="0 0 512 512" width="512" xmlns="http://www.w3.org/2000/svg"><g><g><g><ellipse cx="118.334" cy="397.143" fill="#73da8c" rx="95.361" ry="70.052" transform="matrix(.619 -.785 .785 .619 -266.758 244.074)"/></g><g><path d="m462.153 171.052c-7.751-21.033-18.7-40.538-32.249-57.959l-128.641-80.175c-14.607-3.034-29.745-4.64-45.263-4.64-80.12 0-150.197 42.538-188.488 106.044l.104.004-22.47 170.986-.111-.018c5.086 17.626 12.357 34.338 21.514 49.827h378.904c18.929-32.019 29.825-69.258 29.93-109.015z" fill="#f0ac99"/></g><g><path d="m307.659 36.905-6.376-3.974c-14.613-3.041-29.757-4.652-45.283-4.652-80.12 0-150.197 42.538-188.488 106.044l.104.004-22.47 170.985-.111-.018c5.086 17.625 12.357 34.338 21.514 49.827h113c-19.021-32.174-29.935-69.618-29.935-109.592 0-98.897 66.738-182.343 158.045-208.624z" fill="#ed9b83"/></g><g><path d="m105.965 273.143c33.028-37.336 32.675-91.599-.787-121.2-10.844-9.593-23.834-15.401-37.563-17.616-19.614 32.532-30.896 70.56-30.896 111.202 0 20.737 2.944 40.791 8.426 59.784 22.049-2.353 44.106-13.276 60.82-32.17z" fill="#e27858"/></g><g><ellipse cx="393.667" cy="397.143" fill="#73da8c" rx="70.052" ry="95.361" transform="matrix(.785 -.619 .619 .785 -161.378 329.163)"/></g><g><path d="m453.834 385.862h-395.667c-27.867 0-50.667-22.8-50.667-50.667 0-27.867 22.8-50.667 50.667-50.667h395.667c27.867 0 50.667 22.8 50.667 50.667-.001 27.867-22.801 50.667-50.667 50.667z" fill="#ed9b83"/></g><g><path d="m170.273 335.195c0-27.867 22.8-50.667 50.667-50.667h-162.667c-27.867 0-50.667 22.8-50.667 50.667 0 27.867 22.8 50.667 50.667 50.667h162.667c-27.867 0-50.667-22.8-50.667-50.667z" fill="#e7886e"/></g><g><ellipse cx="218.279" cy="100.296" fill="#e7886e" rx="39.906" ry="32.418" transform="matrix(.991 -.136 .136 .991 -11.637 30.7)"/></g><g><path d="m213.858 68.18c-21.833 3.005-37.554 19.82-35.113 37.557.916 6.655 4.259 12.494 9.232 17.034 13.729-19.811 30.695-37.248 50.133-51.58-7.09-3.013-15.496-4.216-24.252-3.011z" fill="#e27858"/></g><g><path d="m301.263 32.918c-4.195 31.369 13.639 64.813 46.367 81.606 27.907 14.319 59.336 12.783 82.274-1.432-31.323-40.273-76.584-69.36-128.641-80.174z" fill="#e7886e"/></g><g><path d="m430.187 319.084c0 81.989-78.033 131.524-174.293 131.524s-174.293-49.536-174.293-131.524 78.033-165.383 174.293-165.383 174.293 83.394 174.293 165.383z" fill="#b9ecc2"/></g><g><path d="m186.632 320.138c0-66.917 51.984-134.761 123.43-157.446-17.021-5.772-35.188-8.99-54.061-8.99-96.259 0-174.293 83.394-174.293 165.383s78.033 131.523 174.292 131.523c17.355 0 34.113-1.619 49.932-4.739-69.31-15.285-119.3-60.111-119.3-125.731z" fill="#8ce09f"/></g><g><g><g><ellipse cx="167.227" cy="329.293" fill="#fff" rx="26.085" ry="32.756" transform="matrix(.002 -1 1 .002 -162.432 495.798)"/></g><g><ellipse cx="344.773" cy="329.682" fill="#fff" rx="26.085" ry="32.756" transform="matrix(.002 -1 1 .002 14.338 673.733)"/></g></g></g><g><path d="m462.153 171.052c-11.464-.668-22.147 3.392-28.621 12.053-11.413 15.267-5.43 39.033 13.364 53.083 8.884 6.642 19.04 9.918 28.487 9.919 0-.193.005-.385.005-.577-.001-26.165-4.674-51.248-13.235-74.478z" fill="#e7886e"/></g></g><g><path d="m254.837 124.279c8.204-8.775 11.899-19.588 10.405-30.447s-7.974-20.271-18.244-26.504c-9.77-5.93-21.904-8.267-34.162-6.577-12.261 1.688-23.311 7.214-31.116 15.562-8.204 8.775-11.899 19.589-10.405 30.447 1.495 10.859 7.974 20.272 18.244 26.505 7.697 4.671 16.86 7.111 26.397 7.111 2.568 0 5.164-.177 7.765-.535 12.261-1.688 23.311-7.215 31.116-15.562zm-57.496-3.838c-6.333-3.844-10.299-9.429-11.165-15.727-.867-6.298 1.442-12.746 6.502-18.158 5.459-5.84 13.345-9.727 22.203-10.946 1.929-.266 3.848-.396 5.74-.396 6.797 0 13.25 1.693 18.595 4.938 6.333 3.844 10.299 9.429 11.165 15.726.867 6.298-1.442 12.747-6.501 18.158-5.459 5.84-13.345 9.727-22.204 10.946-8.861 1.219-17.502-.395-24.335-4.541z"/><path d="m512 335.195c0-22.779-13.168-42.529-32.286-52.07 2.067-12.154 3.131-24.564 3.166-36.968 0-.017.003-.033.003-.05 0-.01-.002-.021-.002-.031 0-.182.006-.365.006-.547 0-60.047-23.609-116.496-66.479-158.948-42.851-42.433-99.818-65.802-160.408-65.802s-117.557 23.369-160.407 65.802c-42.87 42.452-66.479 98.901-66.479 158.948 0 12.61 1.077 25.238 3.178 37.593-19.121 9.54-32.292 29.292-32.292 52.073 0 24.149 14.795 44.903 35.795 53.687-11.94 35.865-4.803 70.375 18.831 89.02 11.173 8.813 24.923 13.32 40.002 13.32 7.342 0 15-1.068 22.827-3.229 22.623-6.244 44.14-21.001 60.765-41.596 23.595 7.667 49.971 11.711 77.673 11.711 27.766 0 54.199-4.062 77.836-11.763 12.879 15.969 28.76 28.504 46.029 36.284 1 .451 2.046.664 3.076.664 2.859 0 5.592-1.645 6.842-4.421 1.702-3.777.02-8.218-3.757-9.919-13.711-6.177-26.479-15.839-37.243-28.123 12.706-5.262 24.41-11.666 34.833-19.145 11.694-8.391 21.556-17.883 29.54-28.323h40.784c2.672 0 5.297-.197 7.875-.548 10.277 30.062 5.095 58.542-13.624 73.309-9.578 7.555-21.976 10.972-35.861 9.863-4.14-.334-7.742 2.753-8.07 6.883s2.754 7.742 6.883 8.07c2.117.168 4.208.252 6.274.252 15.222 0 28.972-4.542 40.064-13.291 23.622-18.637 30.767-53.16 18.831-89.02 21-8.783 35.795-29.536 35.795-53.685zm-44.274-97.433c-5.701-1.242-11.32-3.829-16.341-7.582-15.452-11.551-20.766-30.654-11.848-42.585 3.87-5.178 10.016-8.323 17.292-8.98 6.371 18.685 10.136 38.543 10.897 59.147zm-49.469-126.963c-20.392 9.186-45.379 8.249-67.203-2.948-26.474-13.584-42.93-39.223-42.911-65.638 43.672 10.981 81.969 35.425 110.114 68.586zm-374.143 134.73c0-37.332 9.915-72.411 27.258-102.81 10.794 2.555 20.683 7.629 28.837 14.842 13.381 11.837 21.348 28.617 22.603 47.415-3.331 3.513-6.54 7.154-9.608 10.923-15.299 18.79-26.418 39.67-32.805 61.131h-22.232c-3.934 0-7.776.397-11.493 1.146-1.696-10.75-2.56-21.705-2.56-32.647zm-29.114 89.666c0-23.802 19.365-43.166 43.167-43.166h18.555c-1.731 9.014-2.62 18.069-2.62 27.055 0 21.608 5.045 41.542 14.828 59.278h-30.763c-23.802 0-43.167-19.364-43.167-43.167zm98.464 138.338c-19.184 5.295-36.78 2.664-49.548-7.409-18.728-14.774-23.902-43.243-13.623-73.309 2.577.35 5.202.547 7.874.547h40.571c7.983 10.441 17.846 19.932 29.54 28.323 10.462 7.507 22.215 13.93 34.977 19.204-14.14 16.119-31.611 27.627-49.791 32.644zm142.43-30.425c-98.205 0-166.792-51.001-166.792-124.024 0-66.895 55.318-133.905 125.936-152.557 4.005-1.058 6.394-5.161 5.336-9.166-1.058-4.006-5.164-6.397-9.167-5.336-27.379 7.23-53.188 21.135-74.997 40.115-3.608-17.958-12.587-33.894-26.063-45.814-8.783-7.77-19.185-13.509-30.515-16.911 38.02-56.403 102.88-93.636 176.368-93.636 12.695 0 25.132 1.114 37.218 3.242-1.365 33.105 18.433 65.472 50.989 82.176 14.092 7.231 29.348 10.832 44.282 10.831 13.758 0 27.238-3.068 39.281-9.16 9.346 12.79 17.28 26.653 23.555 41.375-9.748 1.798-18.114 6.763-23.801 14.371-13.871 18.556-7.196 47.077 14.88 63.58 7.653 5.721 16.436 9.433 25.335 10.807-.301 8.448-1.11 16.869-2.419 25.172-3.715-.747-7.555-1.144-11.486-1.144h-22.439c-8.26-27.785-24.408-54.458-46.991-76.723-35.388-34.89-81.027-54.104-128.509-54.104-4.041 0-8.134.144-12.165.426-4.132.289-7.247 3.874-6.957 8.006.29 4.131 3.882 7.239 8.005 6.957 3.684-.258 7.423-.389 11.116-.389 95.462 0 166.792 83.354 166.792 157.882.001 73.023-68.587 124.024-166.792 124.024zm197.939-64.746h-30.975c9.783-17.737 14.828-37.67 14.828-59.278 0-9-.895-18.054-2.621-27.055h18.768c23.802 0 43.167 19.364 43.167 43.166 0 23.803-19.364 43.167-43.167 43.167z"/><path d="m186.632 289.052c-4.142 0-7.5 3.357-7.5 7.5v13.312c0 4.143 3.358 7.5 7.5 7.5s7.5-3.357 7.5-7.5v-13.312c0-4.142-3.358-7.5-7.5-7.5z"/><path d="m325.177 289.052c-4.142 0-7.5 3.357-7.5 7.5v13.312c0 4.143 3.358 7.5 7.5 7.5s7.5-3.357 7.5-7.5v-13.312c0-4.142-3.358-7.5-7.5-7.5z"/><path d="m288.177 310.301c-4.142 0-7.5 3.357-7.5 7.5 0 4.706-3.829 8.535-8.535 8.535s-8.535-3.829-8.535-8.535c0-4.143-3.358-7.5-7.5-7.5s-7.5 3.357-7.5 7.5c0 4.706-3.829 8.535-8.535 8.535s-8.535-3.829-8.535-8.535c0-4.143-3.358-7.5-7.5-7.5s-7.5 3.357-7.5 7.5c0 12.978 10.558 23.535 23.535 23.535 6.192 0 11.829-2.407 16.035-6.33 4.206 3.923 9.843 6.33 16.035 6.33 12.978 0 23.535-10.558 23.535-23.535 0-4.142-3.358-7.5-7.5-7.5z"/></g></g></svg>