<svg id="Capa_1" enable-background="new 0 0 512.03 512.03" height="512" viewBox="0 0 512.03 512.03" width="512" xmlns="http://www.w3.org/2000/svg"><g><g><g><path d="m239.739 214.334h-84.035c-22.056 25.942-47.859 52.334-76.703 75.016-12.431 9.776-12.644 28.548-.523 38.706 5.114 4.285 6.741 11.448 3.975 17.52-5.347 11.738-15.656 31.904-31.549 53.038-15.76 20.958-14.819 50.15 2.159 70.133 3.22 3.79 6.554 7.481 9.995 11.067 15.234 15.874 36.374 24.717 58.376 24.717h49.897l68.407-68.407z" fill="#78cbed"/></g><g><path d="m168.484 131.379c15.903 17.786 43.686 18.221 61.066 1.876s18.221-43.686 1.876-61.066-29.712-31.595-55.474-58.99-68.603 49.804-7.468 118.18z" fill="#bec8f7"/></g><g><path d="m428.144 131.415c-15.724 17.944-43.501 18.656-61.045 2.485-17.543-16.171-18.656-43.501-2.485-61.045s29.395-31.89 54.882-59.541c25.487-27.65 69.097 49.118 8.648 118.101z" fill="#bec8f7"/></g><g><path d="m424.805 504.53c18.501 0 31.897-17.471 27.316-35.396-17.559-68.708-79.873-119.506-154.052-119.506s-136.493 50.799-154.052 119.506c-4.581 17.925 8.815 35.396 27.316 35.396z" fill="#dae2fe"/></g><g><path d="m214.786 469.134c14.68-57.441 60.644-102.357 118.667-115.546-11.38-2.587-23.221-3.961-35.385-3.961-74.179 0-136.493 50.799-154.052 119.506-4.581 17.925 8.815 35.396 27.316 35.396h70.769c-18.501.001-31.896-17.47-27.315-35.395z" fill="#bec8f7"/></g><g><path d="m472.351 183.855c0-6.018-.894-12.014-2.786-17.726-23.825-71.943-91.863-124.223-171.53-124.223-79.657 0-147.688 52.266-171.521 124.195-1.898 5.73-2.794 11.744-2.794 17.78v100.439c0 13.788 4.806 27.22 13.868 37.611.059.068.118.135.178.203l36.832 41.952c15.541 17.702 37.955 27.85 61.511 27.85h62.012.214 61.897c23.623 0 46.094-10.206 61.638-27.995l36.562-41.843c.059-.067.117-.134.176-.202 8.982-10.347 13.743-23.698 13.743-37.4z" fill="#e9efff"/></g><g><path d="m469.491 165.905c-12.732-38.276-37.985-70.967-70.841-93.159l-97.302 27.284-103.928-27.284c-32.848 22.187-58.097 54.868-70.832 93.133-1.931 5.801-2.868 11.889-2.868 18.003v100.438c0 13.788 4.806 27.22 13.868 37.611.059.068.118.135.178.203l36.832 41.952c15.541 17.702 37.955 27.85 61.511 27.85h62.012.214 61.897c23.623 0 46.094-10.206 61.638-27.995l36.562-41.843c.028-.032.055-.063.083-.095 8.926-10.251 13.836-23.39 13.836-36.983v-101.165c0-6.096-.936-12.165-2.86-17.95z" fill="#e9efff"/></g><g><path d="m246.407 364.086-36.833-41.952c-.059-.068-.118-.135-.178-.203-9.062-10.391-13.868-23.823-13.868-37.611v-100.438c0-6.036.896-12.05 2.794-17.78 10.25-30.935 28.688-58.218 52.697-79.284l-53.599-14.072c-32.912 22.23-58.195 54.995-70.906 93.356-1.898 5.73-2.794 11.744-2.794 17.78v100.438c0 13.788 4.806 27.22 13.868 37.611.059.068.118.135.178.203l36.832 41.952c15.541 17.702 37.955 27.85 61.511 27.85h62.013.214 9.584c-23.557 0-45.971-10.148-61.513-27.85z" fill="#dae2fe"/></g><g><path d="m298.035 41.907c-37.175 0-71.816 11.386-100.615 30.839 5.074 18.207 18.251 34.1 36.522 45.302 18.634 11.425 29.832 31.841 28.775 53.673l-5.164 106.649h40.482 40.482l-5.164-106.649c-1.057-21.832 10.141-42.248 28.775-53.673 18.27-11.202 31.447-27.095 36.522-45.302-28.8-19.453-63.44-30.839-100.615-30.839z" fill="#fafcff"/></g><g><path d="m226.496 112.995c26.1-34.039 63.994-58.616 107.432-67.473-11.609-2.366-23.611-3.616-35.893-3.616-37.175 0-71.815 11.386-100.615 30.839 4.354 15.625 14.689 29.536 29.076 40.25z" fill="#e9efff"/></g><g><path d="m346.44 256.607c-9.13-6.968-20.298-10.742-31.783-10.742h-16.622-16.622c-11.485 0-22.653 3.774-31.783 10.742l-40.431 30.856c-16.331 12.464-23.871 33.322-19.283 53.347l8.89 38.798c5.455 23.809 26.64 40.688 51.066 40.688h48.163 48.163c24.426 0 45.61-16.88 51.066-40.688l8.89-38.798c4.588-20.025-2.951-40.884-19.283-53.347z" fill="#fafcff"/></g><g><path d="m263.422 379.607-8.89-38.798c-4.588-20.025 2.951-40.884 19.283-53.347l40.431-30.856c4.872-3.718 10.327-6.516 16.097-8.328-5.044-1.583-10.329-2.415-15.686-2.415h-16.621-16.622c-11.485 0-22.653 3.774-31.783 10.742l-40.431 30.856c-16.331 12.463-23.871 33.322-19.283 53.347l8.89 38.798c5.455 23.809 26.64 40.688 51.066 40.688h48.163 16.452c-24.426.002-45.611-16.878-51.066-40.687z" fill="#e9efff"/></g><g><path d="m298.035 126.53c5.704 0 11.313-.244 16.804-.715 10.647-.914 18.014-11.057 15.654-21.479l-19.523-86.205c-1.242-5.484-5.694-9.807-11.274-10.498-6.84-.848-13.039 3.628-14.52 10.17l-19.597 86.533c-2.36 10.422 5.007 20.565 15.654 21.479 5.489.471 11.098.715 16.802.715z" fill="#fad989"/></g></g><g><path d="m476.666 163.713c-6.115-18.444-14.969-35.543-26.03-50.866 14.991-26.26 16.548-49.497 15.16-64.484-1.761-19.016-9.27-35.161-20.086-43.189-10.588-7.858-22.746-6.688-31.729 3.059l-39.29 42.625c-16.321-7.347-33.797-12.407-51.976-14.819l-4.43-19.563c-1.965-8.676-9.065-15.22-17.668-16.287-10.615-1.308-20.398 5.547-22.757 15.958l-4.504 19.886c-18.114 2.402-35.525 7.428-51.79 14.723l-40.151-42.695c-9.133-9.713-21.358-10.72-31.904-2.63-10.807 8.29-18.12 24.726-19.562 43.965-1.114 14.863.789 37.658 15.622 63.238-11.127 15.381-20.031 32.56-26.177 51.108-2.107 6.358-3.175 13.135-3.175 20.14v62.247c-13.822 13.786-27.89 26.344-41.854 37.325-7.685 6.042-12.179 15.125-12.331 24.919-.153 9.842 4.084 19.111 11.627 25.431 2.52 2.112 3.329 5.674 1.967 8.662-5.688 12.487-15.635 31.583-30.718 51.64-8.639 11.489-13.149 25.756-12.7 40.174.45 14.398 5.826 28.363 15.138 39.323 3.307 3.893 6.772 7.729 10.3 11.404 16.482 17.174 39.731 27.023 63.787 27.023h303.37c11.097 0 21.363-5.024 28.166-13.784 6.852-8.823 9.191-20.111 6.416-30.969-8.083-31.627-25.734-60.608-50.091-82.533 6.75-4.43 12.861-9.733 18.222-15.868l36.753-42.062c10.047-11.573 15.58-26.602 15.58-42.316v-100.643c0-6.99-1.072-13.766-3.185-20.142zm-51.655-145.316c3.75-4.068 7.377-4.432 11.759-1.18 12.461 9.249 23.207 43.972 3.727 82.788-10.908-12.651-23.437-23.802-37.214-33.157-.265-.208-.55-.394-.845-.566-4.473-3.002-9.075-5.816-13.795-8.43zm-162.518 104.699c4.282 5.857 10.878 9.572 18.096 10.191 5.741.493 11.611.743 17.446.743s11.705-.25 17.445-.743c7.219-.619 13.815-4.334 18.097-10.191 4.296-5.877 5.838-13.318 4.23-20.416l-2.568-11.34c-.916-4.04-4.929-6.577-8.972-5.658-4.04.915-6.573 4.932-5.658 8.971l2.568 11.34c.65 2.869.026 5.876-1.71 8.251-1.748 2.391-4.33 3.847-7.271 4.099-10.632.914-21.69.914-32.325 0-2.94-.252-5.522-1.708-7.27-4.099-1.736-2.375-2.359-5.382-1.709-8.251l19.597-86.531c.649-2.863 3.355-4.748 6.284-4.385 2.348.291 4.31 2.185 4.882 4.712l9.785 43.205c.915 4.04 4.929 6.579 8.972 5.658 4.04-.915 6.573-4.932 5.658-8.971l-1.797-7.934c22.817 3.792 44.313 12.138 63.423 24.151-5.372 13.936-16.37 26.489-31.487 35.758-21.13 12.954-33.524 36.109-32.347 60.429l3.296 68.079c-4.729-1.185-9.605-1.799-14.501-1.799h-33.243c-4.897 0-9.773.614-14.502 1.799l3.296-68.079c1.178-24.319-11.217-47.475-32.346-60.429-15.122-9.273-26.122-21.832-31.493-35.773 19.106-12.005 40.602-20.339 63.427-24.13l-11.534 50.927c-1.607 7.097-.065 14.54 4.231 20.416zm-103.852-105.763c4.381-3.362 8.035-3.051 11.848 1.003l37.073 39.422c-4.861 2.686-9.598 5.582-14.196 8.678-.015.01-.03.02-.045.03-13.941 9.394-26.614 20.621-37.636 33.384-19.628-38.376-9.421-73.023 2.956-82.517zm-27.422 166.549c0-5.399.812-10.588 2.414-15.421 11.266-34.001 32.592-63.011 60.112-83.88 6.928 15.667 19.504 29.578 36.277 39.861 16.459 10.092 26.117 28.069 25.204 46.917l-3.63 74.973c-2.259 1.293-4.44 2.728-6.516 4.312l-40.431 30.856c-18.623 14.212-27.275 38.15-22.043 60.984l5.605 24.462c-2.836-2.39-5.503-4.991-7.977-7.809l-36.882-42.009-.112-.128c-7.751-8.889-12.021-20.495-12.021-32.682zm-62.749 290.738c-3.318-3.458-6.579-7.067-9.691-10.73-14.625-17.212-15.416-42.77-1.88-60.769 15.896-21.138 26.382-41.271 32.38-54.437 4.147-9.104 1.687-19.95-5.983-26.378-4.062-3.404-6.345-8.397-6.263-13.7.082-5.255 2.489-10.125 6.605-13.361 10.862-8.542 21.774-18.001 32.582-28.209v17.283c0 15.812 5.581 30.919 15.694 42.516l37.048 42.199c5.299 6.036 11.328 11.255 17.971 15.629-24.418 21.943-42.078 50.899-50.183 82.614-2.649 10.367-.626 21.121 5.526 29.753h-20.841c-19.992 0-39.296-8.168-52.965-22.41zm376.383-3.628c1.62 6.336.26 12.916-3.73 18.054-3.94 5.074-9.888 7.984-16.319 7.984h-253.472c-6.431 0-12.379-2.91-16.319-7.984-3.99-5.138-5.35-11.718-3.73-18.054 7.368-28.831 23.422-55.16 45.623-75.125 5.999 11.423 15.562 20.663 27.601 26.296 3.751 1.758 8.216.137 9.972-3.614 1.756-3.752.138-8.216-3.614-9.972-11.059-5.175-19.353-14.396-23.327-25.733-.081-1.07-.4-2.129-.951-3.104-.163-.6-.329-1.198-.468-1.808l-8.89-38.798c-3.921-17.115 2.564-35.058 16.522-45.711l40.431-30.855c7.778-5.936 17.45-9.204 27.233-9.204h33.243c9.784 0 19.456 3.269 27.233 9.204l40.431 30.855c13.958 10.653 20.444 28.596 16.522 45.711l-8.89 38.798c-4.704 20.526-22.696 34.863-43.755 34.863h-88.016c-4.142 0-7.5 3.357-7.5 7.5s3.358 7.5 7.5 7.5h88.016c22.787 0 42.882-12.583 53.011-31.95 22.199 19.96 38.284 46.35 45.643 75.147zm19.998-186.495c0 12.102-4.229 23.638-11.923 32.502l-36.706 42.008c-2.6 2.975-5.421 5.704-8.424 8.206l5.666-24.729c5.232-22.834-3.42-46.772-22.043-60.984l-40.432-30.855c-2.076-1.584-4.256-3.019-6.515-4.312l-3.63-74.973c-.913-18.848 8.745-36.825 25.205-46.917 16.764-10.278 29.336-24.18 36.267-39.838 27.52 20.874 48.854 49.872 60.112 83.828 1.608 4.851 2.423 10.039 2.423 15.422z"/><path d="m224.347 249.404c4.142 0 7.5-3.357 7.5-7.5v-11.938c0-4.143-3.358-7.5-7.5-7.5s-7.5 3.357-7.5 7.5v11.938c0 4.143 3.358 7.5 7.5 7.5z"/><path d="m371.927 222.467c-4.142 0-7.5 3.357-7.5 7.5v11.938c0 4.143 3.358 7.5 7.5 7.5s7.5-3.357 7.5-7.5v-11.938c0-4.143-3.358-7.5-7.5-7.5z"/><path d="m272.669 306.915c2.716-3.127 2.382-7.864-.746-10.58-3.129-2.716-7.866-2.382-10.581.746-1.292 1.488-3.157 2.342-5.115 2.342s-3.822-.854-5.115-2.342c-2.715-3.126-7.452-3.461-10.581-.746-3.127 2.716-3.461 7.453-.746 10.58 4.143 4.771 10.135 7.508 16.441 7.508 6.308 0 12.3-2.736 16.443-7.508z"/><path d="m339.842 314.423c6.305 0 12.297-2.736 16.44-7.508 2.716-3.127 2.382-7.864-.746-10.58-3.129-2.716-7.866-2.382-10.581.746-1.292 1.488-3.156 2.342-5.114 2.342s-3.822-.854-5.115-2.342c-2.715-3.126-7.452-3.461-10.581-.746-3.127 2.716-3.461 7.453-.746 10.58 4.145 4.772 10.138 7.508 16.443 7.508z"/></g></g></svg>