<svg id="Capa_1" enable-background="new 0 0 512 512" height="512" viewBox="0 0 512 512" width="512" xmlns="http://www.w3.org/2000/svg"><g><g><path d="m470.374 512h-428.748c-22.989 0-41.626-18.637-41.626-41.626v-428.748c0-22.989 18.637-41.626 41.626-41.626h428.748c22.989 0 41.626 18.637 41.626 41.626v428.748c0 22.989-18.637 41.626-41.626 41.626z" fill="#e19974"/></g><g><path d="m41.626 480.78c-5.738 0-10.407-4.669-10.407-10.406v-428.748c0-5.738 4.668-10.407 10.407-10.407h428.748c5.738 0 10.406 4.669 10.406 10.407v428.748c0 5.738-4.668 10.406-10.406 10.406z" fill="#fed2a4"/></g><g><path d="m470.374 31.22h-33.301c5.738 0 10.406 4.669 10.406 10.407v428.748c0 5.738-4.668 10.406-10.406 10.406h33.301c5.738 0 10.406-4.669 10.406-10.406l23.957-213.828-23.957-214.921c0-5.738-4.668-10.406-10.406-10.406z" fill="#ffbd86"/></g><path d="m480.78 186.316c4.142 0 7.5-3.357 7.5-7.5s-3.358-7.5-7.5-7.5h-62.912v-62.185h62.912c4.142 0 7.5-3.357 7.5-7.5s-3.358-7.5-7.5-7.5h-62.912v-62.911c0-4.143-3.358-7.5-7.5-7.5s-7.5 3.357-7.5 7.5v62.912h-62.184v-62.912c0-4.143-3.358-7.5-7.5-7.5s-7.5 3.357-7.5 7.5v62.912h-62.184v-62.912c0-4.143-3.358-7.5-7.5-7.5s-7.5 3.357-7.5 7.5v62.912h-62.184v-62.912c0-4.143-3.358-7.5-7.5-7.5s-7.5 3.357-7.5 7.5v62.912h-62.184v-62.912c0-4.143-3.358-7.5-7.5-7.5s-7.5 3.357-7.5 7.5v62.912h-62.912c-4.142 0-7.5 3.357-7.5 7.5s3.358 7.5 7.5 7.5h62.912v62.185h-62.912c-4.142 0-7.5 3.357-7.5 7.5s3.358 7.5 7.5 7.5h62.912v62.183h-62.912c-4.142 0-7.5 3.357-7.5 7.5s3.358 7.5 7.5 7.5h62.912v62.184h-62.912c-4.142 0-7.5 3.357-7.5 7.5s3.358 7.5 7.5 7.5h62.912v62.185h-62.912c-4.142 0-7.5 3.357-7.5 7.5s3.358 7.5 7.5 7.5h62.912v62.912c0 4.143 3.358 7.5 7.5 7.5s7.5-3.357 7.5-7.5v-62.912h62.184v62.912c0 4.143 3.358 7.5 7.5 7.5s7.5-3.357 7.5-7.5v-62.912h62.184v62.912c0 4.143 3.358 7.5 7.5 7.5s7.5-3.357 7.5-7.5v-62.912h62.184v62.912c0 4.143 3.358 7.5 7.5 7.5s7.5-3.357 7.5-7.5v-62.912h62.184v62.912c0 4.143 3.358 7.5 7.5 7.5s7.5-3.357 7.5-7.5v-62.912h62.912c4.142 0 7.5-3.357 7.5-7.5s-3.358-7.5-7.5-7.5h-62.912v-62.185h62.912c4.142 0 7.5-3.357 7.5-7.5s-3.358-7.5-7.5-7.5h-62.912v-62.184h62.912c4.142 0 7.5-3.357 7.5-7.5s-3.358-7.5-7.5-7.5h-62.912v-62.184zm-77.912-77.184v62.185h-62.184v-62.185zm-77.184 0v62.185h-62.184v-62.185zm-77.184 0v62.185h-62.184v-62.185zm-139.368 0h62.184v62.185h-62.184zm0 293.736v-62.185h62.184v62.185zm77.184 0v-62.185h62.184v62.185zm77.184 0v-62.185h62.184v62.185zm139.368 0h-62.184v-62.185h62.184zm0-154.368h-48.871c-4.142 0-7.5 3.357-7.5 7.5s3.358 7.5 7.5 7.5h48.871v62.184h-293.736v-62.184h48.871c4.142 0 7.5-3.357 7.5-7.5s-3.358-7.5-7.5-7.5h-48.871v-62.184h293.736z" fill="#e19974"/><g><g><g><path d="m307.129 333.184h-102.258c-6.088 0-10.876-5.204-10.371-11.271l9.024-108.292c.278-3.337 2.145-6.336 5.016-8.059l42.105-25.263c3.296-1.977 7.413-1.977 10.708 0l42.105 25.263c2.871 1.723 4.738 4.722 5.016 8.059l9.024 108.292c.507 6.068-4.281 11.271-10.369 11.271z" fill="#dff6fd"/></g><g><path d="m317.5 321.913-9.024-108.292c-.278-3.337-2.145-6.336-5.016-8.059l-22.713-13.628c1.708 1.882 2.794 4.282 3.01 6.876l10.142 121.707c.568 6.819-4.813 12.667-11.655 12.667h24.886c6.087 0 10.875-5.204 10.37-11.271z" fill="#c8effe"/></g></g><path d="m276.813 285.033h-13.313v-20.987h6.028c4.142 0 7.5-3.357 7.5-7.5s-3.358-7.5-7.5-7.5h-6.028v-16.22h6.028c4.142 0 7.5-3.357 7.5-7.5s-3.358-7.5-7.5-7.5h-27.057c-4.142 0-7.5 3.357-7.5 7.5s3.358 7.5 7.5 7.5h6.028v16.22h-6.028c-4.142 0-7.5 3.357-7.5 7.5s3.358 7.5 7.5 7.5h6.028v20.987h-13.313c-4.142 0-7.5 3.357-7.5 7.5s3.358 7.5 7.5 7.5h41.626c4.142 0 7.5-3.357 7.5-7.5s-3.357-7.5-7.499-7.5z" fill="#99e6fc"/></g><g><path d="m470.374 0h-31.22c22.989 0 41.626 18.637 41.626 41.626v428.748c0 22.989-18.637 41.626-41.626 41.626h31.22c22.989 0 41.626-18.637 41.626-41.626v-428.748c0-22.989-18.637-41.626-41.626-41.626z" fill="#dc8758"/></g></g></svg>