<svg id="Capa_1" enable-background="new 0 0 504.5 504.5" height="512" viewBox="0 0 504.5 504.5" width="512" xmlns="http://www.w3.org/2000/svg"><g><g><path d="m157.553 331.443c-4.142 0-7.5-3.358-7.5-7.5v-101.285c0-4.142 3.358-7.5 7.5-7.5s7.5 3.358 7.5 7.5v101.285c0 4.142-3.358 7.5-7.5 7.5z" fill="#fbc56d"/></g><g><path d="m129.283 344.437c-4.142 0-7.5-3.358-7.5-7.5v-129.123c0-4.142 3.358-7.5 7.5-7.5s7.5 3.358 7.5 7.5v129.122c0 4.143-3.358 7.501-7.5 7.501z" fill="#fbc56d"/></g><path d="m362.681 193.127h-218.099l-29.344-69.15c-7.538-17.763-8.912-37.538-3.902-56.172l3.528-13.123c8.672-32.26 37.918-54.682 71.323-54.682h133.888c33.405 0 62.651 22.422 71.323 54.682l3.638 13.534c4.942 18.382 3.674 37.882-3.607 55.47z" fill="#766e6e"/><path d="m395.037 68.215-3.638-13.534c-8.673-32.259-37.919-54.681-71.324-54.681h-20.77c33.405 0 62.651 22.422 71.323 54.682l3.638 13.534c4.942 18.382 3.674 37.882-3.608 55.47l-28.748 69.441h20.77l28.748-69.441c7.283-17.588 8.551-37.088 3.609-55.471z" fill="#605a5a"/><path d="m434.661 497h-74.77l-107.121-6.312-106.399 6.312h-74.65c-7.51 0-12.42-7.88-9.1-14.62l20.24-41.17c9.21-18.74 25-33.43 44.36-41.27 2.74-1.11 5.59-2.27 8.51-3.45 12.77-5.18 27.71-11.24 40.01-16.22l134.36.03 20.78.01 40.55 16.32 7.84 3.16c19.62 7.89 35.59 22.81 44.79 41.85l19.73 40.8c3.26 6.74-1.65 14.56-9.13 14.56z" fill="#fe646f"/><path d="m434.661 497h-4.6l-26.77-55.36c-9.2-19.04-25.17-33.96-44.79-41.85l-7.84-3.16-40.55-16.32-.01-.01-32.27-12.98h20.77l32.28 12.99 40.55 16.32 7.84 3.16c19.62 7.89 35.59 22.81 44.79 41.85l19.73 40.8c3.26 6.74-1.65 14.56-9.13 14.56z" fill="#fd4755"/><path d="m330.881 380.31-75.88 52.68-25.57-17.01-13.35-8.88-40.34-26.83c1.25-.51 31.92-12.95 31.92-12.95h90.94z" fill="#fdb4ba"/><g><path d="m254.501 397.92-25.07 18.06-10.614-7.06 24.989-17.986 10.445-.341z" fill="#fe99a0"/></g><path d="m298.597 367.322h-20.77l32.287 12.989-65.724 45.623 10.607 7.055 75.887-52.678z" fill="#fe99a0"/><path d="m298.594 367.322v-55.311h-90.925v55.311l46.836 30.602z" fill="#ffdfcf"/><path d="m277.824 312.011v42.515c0 8.015-3.927 15.522-10.512 20.092l-23.506 16.315 10.699 6.99 44.088-30.602v-55.311h-20.769z" fill="#ffcebf"/><path d="m150.053 222.658-20.77-4.331c-8.437-5.178-14.064-14.488-14.064-25.112v-.177c0-16.261 13.182-29.443 29.443-29.443h5.392l7.5 29.531z" fill="#ffdfcf"/><path d="m144.661 163.595c-5.637 0-10.902 1.586-15.378 4.334v50.395c4.476 2.747 9.741 4.334 15.378 4.334h5.392l7.5-29.531-7.5-29.531h-5.392z" fill="#ffcebf"/><path d="m355.876 222.658h5.392c16.261 0 29.443-13.182 29.443-29.443v-.177c0-16.261-13.182-29.443-29.443-29.443h-5.392l-9.414 28.357z" fill="#ffdfcf"/><path d="m361.268 163.595h-5.392l-1.578 4.753c8.436 5.178 15.643 14.066 15.643 24.69v.177c0 10.624-6.971 19.889-15.407 25.067l1.342 4.376h5.392c16.261 0 29.443-13.182 29.443-29.443v-.177c0-16.261-13.182-29.443-29.443-29.443z" fill="#ffcebf"/><path d="m355.876 163.595v63.93c0 56.836-46.075 102.911-102.911 102.911-56.836 0-102.911-46.075-102.911-102.911v-63.93l37.695-28.621c10.801-8.201 25.67-8.463 36.753-.647l20.387 14.376c4.847 3.418 11.316 3.432 16.177.034l20.682-14.453c11.097-7.755 25.934-7.446 36.698.764z" fill="#f9f3f1"/><path d="m318.445 135.048c-8.492-6.476-19.512-8.014-29.237-4.577 2.987 1.06 5.849 2.58 8.467 4.577l31.752 24.216c3.579 2.729 5.679 6.973 5.679 11.474v56.788c0 53.331-40.567 97.185-92.527 102.392 3.415.342 6.879.519 10.385.519 56.837 0 102.912-46.075 102.912-102.912v-63.93z" fill="#f3eae6"/><circle cx="309.604" cy="250.157" fill="#fdb4ba" r="17.24"/><circle cx="196.658" cy="249.762" fill="#fdb4ba" r="17.24"/><path d="m253.17 238.82h-.077c-7.053 0-12.77-5.717-12.77-12.77v-14.291c0-7.053 5.717-12.77 12.77-12.77h.077c7.053 0 12.77 5.717 12.77 12.77v14.291c0 7.053-5.718 12.77-12.77 12.77z" fill="#ffcebf"/><path d="m355.881 81.39v35.85l-3.19-5.83c-.52-.95-1.06-1.89-1.63-2.81-10.38-17.25-26.99-29.52-46.05-34.57-1-.27-2-.52-3.01-.74-5.42-1.21-11.01-1.84-16.7-1.84h-64.67c-28.08 0-53.92 15.32-67.39 39.96l-3.19 5.83v-35.85c0-25.91 21.01-46.91 46.92-46.91h111.99c5.88 0 11.51 1.08 16.7 3.06 4.23 1.61 8.17 3.82 11.72 6.52 11.24 8.57 18.5 22.1 18.5 37.33z" fill="#fbc56d"/><path d="m355.881 81.39v35.85l-3.19-5.83c-.52-.95-1.06-1.89-1.63-2.81-10.38-17.25-26.99-29.52-46.05-34.57 1.39-1.82 2.12-4.04 2.12-6.29 0-2.05-.6-4.11-1.86-5.92-1.3-1.87-1.88-3.91-1.88-5.89 0-5.69 4.79-10.93 11.28-10.39.3.03.59.04.89.04 4.84 0 9.02-3.37 10.1-8.04 4.23 1.61 8.17 3.82 11.72 6.52 11.24 8.57 18.5 22.1 18.5 37.33z" fill="#e9b665"/><path d="m381.777 29.709c6.235-6.192 16.863-2.324 17.659 6.427.517 5.684 5.524 9.885 11.211 9.407 8.756-.736 14.412 9.059 9.396 16.275-3.258 4.686-2.123 11.123 2.541 14.413 7.181 5.065 5.217 16.203-3.263 18.507-5.508 1.496-8.776 7.156-7.318 12.674 2.245 8.496-6.419 15.766-14.396 12.079-5.181-2.394-11.323-.159-13.752 5.005-3.741 7.951-15.051 7.951-18.792 0-2.43-5.164-8.572-7.4-13.752-5.005-7.977 3.686-16.641-3.584-14.396-12.079 1.458-5.518-1.81-11.178-7.318-12.674-8.48-2.303-10.444-13.442-3.263-18.507 4.664-3.289 5.799-9.726 2.541-14.413-5.016-7.215.64-17.01 9.396-16.275 5.687.478 10.694-3.723 11.211-9.407.796-8.751 11.424-12.62 17.659-6.427 4.05 4.022 10.587 4.022 14.636 0z" fill="#fe646f"/><g><path d="m422.585 76.231c-4.664-3.289-5.799-9.726-2.541-14.413 5.016-7.215-.64-17.01-9.396-16.275-5.687.478-10.694-3.723-11.211-9.407-.796-8.751-11.424-12.62-17.659-6.427-3.142 3.12-7.776 3.808-11.589 2.087.737 1.256 1.227 2.713 1.374 4.34.517 5.684 5.524 9.885 11.211 9.407 8.756-.736 14.412 9.059 9.396 16.275-3.258 4.686-2.123 11.123 2.541 14.413 7.181 5.065 5.217 16.203-3.263 18.507-5.508 1.496-8.776 7.157-7.317 12.674 2.245 8.496-6.419 15.766-14.396 12.079-3.058-1.413-6.445-1.203-9.212.26 1.921 1.016 3.545 2.63 4.541 4.746 3.741 7.951 15.051 7.951 18.792 0 2.43-5.164 8.572-7.4 13.752-5.005 7.977 3.687 16.641-3.584 14.396-12.079-1.458-5.518 1.81-11.178 7.317-12.674 8.48-2.304 10.444-13.443 3.264-18.508z" fill="#fd4755"/></g><path d="m359.891 458.5-6.02 7.5 6.02 7.5v23.5h-213.52v-23.5l6.1-7.5-6.1-7.5v-9.66c0-8.75 7.09-15.85 15.85-15.85h181.82c8.76 0 15.85 7.1 15.85 15.85z" fill="#6c7fd8"/><path d="m359.891 458.5-6.02 7.5 6.02 7.5v23.5h-20.77v-48.16c0-8.75-7.09-15.85-15.85-15.85h20.77c8.76 0 15.85 7.1 15.85 15.85z" fill="#4f66d0"/><g><path d="m253.126 291.32c-6.492 0-12.597-2.529-17.189-7.122-1.509-1.509-2.811-3.208-3.868-5.047-2.063-3.591-.825-8.176 2.767-10.239 3.59-2.065 8.175-.826 10.239 2.767.399.694.893 1.338 1.468 1.914 1.759 1.759 4.097 2.728 6.583 2.728 3.314 0 6.408-1.787 8.072-4.662 2.076-3.585 6.665-4.809 10.248-2.734 3.585 2.075 4.81 6.663 2.734 10.248-4.336 7.493-12.403 12.147-21.054 12.147z" fill="#ffcebf"/></g><g><g><path d="m302.079 216.155c-2.932 0-5.716-1.73-6.92-4.603-1.602-3.82.198-8.215 4.019-9.816l16.897-7.082c3.814-1.601 8.215.197 9.815 4.018 1.602 3.82-.198 8.215-4.019 9.816l-16.897 7.082c-.945.397-1.928.585-2.895.585z" fill="#766e6e"/></g><g><path d="m204.182 216.155c-.967 0-1.949-.188-2.896-.585l-16.897-7.082c-3.82-1.601-5.619-5.996-4.018-9.816 1.601-3.821 5.996-5.619 9.816-4.018l16.897 7.082c3.82 1.601 5.619 5.996 4.018 9.816-1.204 2.873-3.988 4.603-6.92 4.603z" fill="#766e6e"/></g></g><g><path d="m150.063 124.737c-2.48 0-4.907-1.229-6.336-3.477l-55.379-87.093c-2.222-3.496-1.19-8.131 2.305-10.354 3.496-2.222 8.131-1.191 10.354 2.305l55.378 87.094c2.222 3.496 1.19 8.131-2.305 10.354-1.248.792-2.641 1.171-4.017 1.171z" fill="#f9f3f1"/></g><g><path d="m150.046 124.737c-1.525 0-3.065-.464-4.395-1.427l-82.867-54.104c-3.354-2.43-4.103-7.12-1.672-10.474 2.432-3.354 7.121-4.102 10.474-1.672l82.868 54.104c3.354 2.431 4.103 7.12 1.672 10.474-1.468 2.024-3.758 3.099-6.08 3.099z" fill="#f3eae6"/></g><g><path d="m146.371 458.5h213.52v15h-213.52z" fill="#fdb4ba"/><path d="m339.121 458.5h20.77v15h-20.77z" fill="#fe99a0"/></g><g><path d="m276.734 504.5c-2.271 0-4.516-1.028-5.99-2.98l-17.566-23.253-18.481 23.383c-2.569 3.251-7.287 3.801-10.535 1.234-3.25-2.569-3.802-7.285-1.234-10.535l24.5-30.998c1.44-1.822 3.64-2.904 5.966-2.849 2.322.025 4.502 1.125 5.902 2.979l23.416 30.998c2.497 3.305 1.842 8.008-1.464 10.505-1.352 1.022-2.94 1.516-4.514 1.516z" fill="#fe99a0"/></g><g fill="#fdb4ba"><circle cx="374.46" cy="78.57" r="7.676"/><circle cx="398.001" cy="463.15" r="7.676"/><circle cx="109.406" cy="463.15" r="7.676"/></g></g></svg>