<svg id="Capa_1" enable-background="new 0 0 512 512" height="512" viewBox="0 0 512 512" width="512" xmlns="http://www.w3.org/2000/svg"><g><path d="m356.256 130.931-13.115 35.367 121.913 45.209c2.74 1.016 5.785-.381 6.801-3.121l9.436-25.446c1.016-2.74-.381-5.785-3.121-6.801z" fill="#d97b7b"/><path d="m370.399 168.273-31.467 20.801 71.703 108.468c1.611 2.438 4.894 3.107 7.332 1.496l22.639-14.966c2.438-1.611 3.108-4.894 1.496-7.332z" fill="#d97b7b"/><path d="m116.125 326.427c-91.857 65.256-119.826 185.573-34.602 185.573h101.659l25.818-12 21.133 12h162.54c85.224 0 57.255-120.319-34.604-185.575-27.577-19.591-214.366-19.59-241.944.002z" fill="#766d78"/><path d="m259.395 287.286c-12.185-1.588-26.345-1.792-39.042-.615 1.885.175 3.737.378 5.546.614 163.536 21.306 244.087 224.715 133.277 224.715h33.497c85.224 0 57.255-120.319-34.604-185.575-5.649-4.013-14.539 2.183-20.659-1.373-4.044-2.349-5.188-14.59-9.429-16.71-20.68-10.336-43.67-17.809-68.586-21.056z" fill="#655e67"/><path d="m259.395 287.286c24.921 3.238 47.905 10.723 68.582 21.061-17.228 31.154-37.155 63.436-58.647 94.685-10.688 15.535-21.46 30.418-32.232 44.534-10.772-14.127-21.545-29.01-32.232-44.534-21.492-31.249-41.42-63.532-58.647-94.685 20.677-10.339 43.672-17.823 68.582-21.061 13.989-1.83 30.605-1.83 44.594 0z" fill="#655e67"/><path d="m295.586 295.255c-15.769-4.939-31.953-7.92-45.27-8.87-9.666-.694-20.104-.617-29.802.273-.052.005-.109.008-.161.013 1.883.175 3.739.379 5.546.614 35.558 4.633 67.191 17.877 93.788 35.766 2.824-4.923 5.595-9.828 8.291-14.703-10.439-5.22-21.29-9.613-32.392-13.093z" fill="#544f56"/><path d="m391.749 132.279h-13.946v-38.395l-20-28.801c0-8.986 18.179-17.547 14.885-25.333-9.88-23.36-33.01-39.75-59.969-39.75h-151.242c-26.475 0-49.258 15.809-59.425 38.501-3.636 8.116 14.342 17.113 14.342 26.582l-20 28.801v38.396h-13.947c-9.509 0-17.217 7.708-17.217 17.217v36.727c0 9.509 7.708 17.217 17.217 17.217h13.946v32.71c0 24.247 19.656 43.903 43.903 43.903 5.276 0 10.142 2.842 12.735 7.436l2.216 3.927c10.955 19.415 31.52 31.424 53.813 31.424h56.075c22.293 0 42.857-12.008 53.812-31.424l2.216-3.927c2.593-4.595 7.459-7.436 12.734-7.436 24.247 0 43.903-19.656 43.903-43.903v-32.71h13.946c9.509 0 17.217-7.708 17.217-17.217v-36.727c.002-9.51-7.706-17.218-17.214-17.218z" fill="#766d78"/><path d="m329.043 200.531h-183.89c-8.825 0-15.979-7.154-15.979-15.979v-41.417c0-8.825 7.154-15.979 15.979-15.979h183.89c8.825 0 15.979 7.154 15.979 15.979v41.417c-.001 8.825-7.155 15.979-15.979 15.979z" fill="#ffcdbe"/><path d="m329.043 127.157h-183.89c-8.825 0-15.979 7.154-15.979 15.979v19.903c0-8.825 7.154-15.979 15.979-15.979h183.89c8.825 0 15.979 7.154 15.979 15.979v-19.903c-.001-8.825-7.155-15.979-15.979-15.979z" fill="#ebae9d"/><g fill="#544f56"><path d="m171.799 173.897c-4.267 0-7.726-3.459-7.726-7.726v-4.653c0-4.267 3.459-7.726 7.726-7.726s7.726 3.459 7.726 7.726v4.653c.001 4.267-3.459 7.726-7.726 7.726z"/><path d="m302.396 173.897c-4.268 0-7.726-3.459-7.726-7.726v-4.653c0-4.267 3.459-7.726 7.726-7.726 4.268 0 7.726 3.459 7.726 7.726v4.653c.001 4.267-3.458 7.726-7.726 7.726z"/></g><path d="m377.802 93.884v-28.801c0-9.469-2.039-18.457-5.675-26.574h-270.058c-3.636 8.116-5.675 17.104-5.675 26.574v28.801z" fill="#d97b7b"/><path d="m279.411 93.884h-84.626c-8.746 0-15.835-7.09-15.835-15.835v-23.705c0-8.746 7.09-15.835 15.835-15.835h84.626c8.746 0 15.835 7.09 15.835 15.835v23.704c0 8.746-7.089 15.836-15.835 15.836z" fill="#f3d69e"/><path d="m230.133 512c27.852-32.585 51.671-65.324 68.042-89.127 22.08-32.102 42.331-64.818 59.89-96.444-9.381-6.665-19.427-12.752-30.088-18.081-17.232 31.156-37.156 63.439-58.647 94.685-28.686 41.705-58.049 78.721-86.149 108.967z" fill="#c5bec6"/><g fill="#b5adb7"><path d="m319.687 323.051c10.009 6.732 19.303 14.121 27.825 21.957 3.615-6.225 10.553-18.579 10.553-18.579-4.687-3.329-9.545-6.519-14.558-9.538l-.011-.007c-5.015-3.02-10.191-5.874-15.52-8.537.002.001-5.465 9.782-8.289 14.704z"/><path d="m237.098 447.567c-10.771-14.124-21.549-29.002-32.232-44.534-21.492-31.246-41.415-63.53-58.647-94.685-10.662 5.329-20.709 11.418-30.09 18.083 17.56 31.626 37.812 64.34 59.892 96.442 10.251 14.904 23.423 33.312 38.675 52.992 7.442-9.044 14.92-18.487 22.402-28.298z"/></g></g></svg>