<svg id="Capa_1" enable-background="new 0 0 512 512" height="512" viewBox="0 0 512 512" width="512" xmlns="http://www.w3.org/2000/svg"><g><g><path d="m477.49 510.308h-377.06c-7.02 0-11.99-6.88-9.77-13.55l34.24-103.21c7.72-23.27 29.11-39.17 53.47-39.98l91.86 115.24 91.63-115.28h35.73c25.17 0 47.51 16.13 55.44 40.02l34.24 103.21c2.21 6.67-2.75 13.55-9.78 13.55z" fill="#fb4a59"/><path d="m372.221 353.533-124.618 156.771h-57.696l124.618-156.771z" fill="#f82f40"/><path d="m477.499 510.304h-27.149l-38.74-116.764c-7.918-23.889-30.257-40.007-55.434-40.007h41.421c25.167 0 47.506 16.118 55.434 40.007l34.246 103.218c2.212 6.669-2.752 13.546-9.778 13.546z" fill="#f82f40"/><path d="m366.982 353.533-96.75 121.718-96.698-121.32c2.241-.262 4.503-.398 6.797-.398z" fill="#ffcec0"/><path d="m366.985 353.533-96.75 121.718-26.266-32.959 70.556-88.759z" fill="#fdb0a0"/><g><path d="m273.374 452.703-31.513 31.503h-.649l-96.112-118.849c9.908-7.499 22.192-11.824 35.231-11.824h12.85z" fill="#fb8189"/><path d="m273.377 452.703-31.514 31.502h-.649l-15.416-19.06 28.581-35.944z" fill="#fb6672"/></g><g><path d="m272.84 510.304 126.772-156.775h-57.645l-126.773 156.775z" fill="#fc9aa1"/></g></g><g><path d="m260.91 395.379c-26.186-26.186-34.249-60.514-22.121-94.181 9.046-25.113 28.548-47.381 56.394-64.395 28.48-17.4 65.155-28.633 106.061-32.485 48.965-4.611 64.838-38.211 63.551-65.583-.792-16.86-7.677-32.534-19.387-44.135-13.318-13.194-32.139-20.167-54.427-20.167-57.84 0-113.607 15.983-165.75 47.504-37.542 22.696-61.034 46.432-66.759 53.194-2.793 4.656-7.198 8.375-12.753 10.226-8.851 2.949-18.667.398-24.943-6.503-6.288-6.913-7.896-16.932-4.096-25.524 3.126-7.067 14.953-18.742 24.325-27.291 11.096-10.122 29.471-25.422 53.994-40.828 42.048-26.417 110.181-57.906 195.982-57.906 34.974 0 65.264 11.693 87.595 33.815 20.124 19.936 31.949 46.714 33.297 75.404 1.307 27.838-7.523 54.48-24.866 75.016-19.231 22.772-47.36 36.5-81.344 39.7-75.473 7.107-113.178 39.959-122.535 65.931-5.851 16.245-2.011 31.766 11.107 44.884z" fill="#ffcec0"/></g><g><path d="m487.006 211.54c-19.228 22.768-47.359 36.499-81.344 39.703-1.613.147-3.205.314-4.786.503 23.522-6.462 43.285-18.694 57.968-36.08 17.752-21.03 26.79-48.291 25.449-76.788-1.372-29.366-13.479-56.774-34.079-77.186-19.857-19.679-45.882-31.293-75.856-33.995 5.457-.262 11.007-.398 16.621-.398 34.98 0 65.268 11.698 87.596 33.817 20.129 19.941 31.953 46.72 33.294 75.406 1.309 27.837-7.52 54.48-24.863 75.018z" fill="#fdb0a0"/></g><g><g><path d="m5.483 168.468c-3.488-1.892-5.651-5.595-5.473-9.559 3.403-75.797 65.932-136.203 142.569-136.203s139.165 60.407 142.568 136.204c.178 3.964-1.985 7.667-5.473 9.559l-137.095 74.381z" fill="#384848"/><g fill="#303a3a"><path d="m211.373 40.35-8.983 66.148c-2.081 15.329-15.319 26.898-30.792 26.898h-58.03c-15.473 0-28.711-11.569-30.792-26.898l-8.984-66.148c20.398-11.25 43.845-17.647 68.785-17.647 24.951 0 48.398 6.398 68.796 17.647z"/><path d="m285.149 158.913c.178 3.959-1.99 7.666-5.477 9.551l-25.429 13.793c1.979-2.011 3.1-4.765 2.974-7.656-3.404-75.804-65.938-136.212-142.569-136.212-19.637 0-38.352 3.969-55.381 11.143 23.439-16.872 52.219-26.821 83.313-26.821 76.63 0 139.165 60.398 142.569 136.202z"/></g></g><path d="m142.579 269.419c-44.021 0-79.707-35.686-79.707-79.707v-23.041c0-44.021 35.686-79.707 79.707-79.707 44.021 0 79.707 35.686 79.707 79.707v23.041c0 44.021-35.686 79.707-79.707 79.707z" fill="#ffcec0"/><path d="m200.968 112.422c-4.234 12.29-15.968 20.974-29.37 20.974h-58.03c-13.403 0-25.136-8.684-29.37-20.974 14.536-15.659 35.315-25.456 58.38-25.456 22.005 0 41.939 8.921 56.361 23.344.69.69 1.369 1.391 2.029 2.112z" fill="#fdb0a0"/><path d="m222.289 166.673v23.041c0 44.018-35.692 79.7-79.71 79.7-4.765 0-9.426-.419-13.961-1.225 37.357-6.598 65.729-39.222 65.729-78.474v-23.041c0-22.014-8.923-41.945-23.344-56.366-11.3-11.3-25.973-19.218-42.384-22.119 4.535-.806 9.195-1.225 13.961-1.225 22.004 0 41.934 8.923 56.366 23.344 14.42 14.421 23.343 34.351 23.343 56.365z" fill="#fdb0a0"/><g><g fill="#557983"><path d="m234.353 95.131c-14.726-6.723-28.844-8.352-39.532-8.238 4.259-2.975 9.338-5.761 14.529-6.865 4.174-.888 6.838-4.991 5.95-9.165s-4.99-6.839-9.165-5.95c-18.101 3.851-33.344 20.566-33.984 21.276-1.977 2.192-2.462 5.204-1.523 7.799-.516 1.442-.614 3.05-.178 4.641 1.123 4.106 5.367 6.523 9.479 5.416.23-.062 23.375-6.103 48.008 5.143 1.04.475 2.131.7 3.204.7 2.932-.001 5.736-1.678 7.033-4.52 1.771-3.881.06-8.464-3.821-10.237z"/><path d="m113.007 86.189c-.64-.71-15.883-17.425-33.984-21.276-4.174-.889-8.277 1.776-9.165 5.95s1.776 8.277 5.95 9.165c5.191 1.104 10.27 3.89 14.529 6.865-10.688-.114-24.805 1.515-39.531 8.238-3.882 1.773-5.592 6.356-3.82 10.237 1.298 2.842 4.101 4.52 7.033 4.52 1.073 0 2.164-.225 3.204-.7 24.54-11.204 47.601-5.252 48.004-5.144 4.105 1.128 8.35-1.281 9.488-5.386.444-1.6.345-3.22-.178-4.672.933-2.595.446-5.606-1.53-7.797z"/></g><path d="m181.97 103.724 11.388-83.861c.681-5.014-2.31-9.827-7.127-11.373-13.761-4.418-28.429-6.798-43.653-6.798-15.222 0-29.895 2.387-43.651 6.8-4.819 1.546-7.81 6.359-7.129 11.374l11.388 83.858c.705 5.192 5.138 9.064 10.378 9.064h58.029c5.239 0 9.672-3.872 10.377-9.064z" fill="#3f5959"/><path d="m193.363 19.862-11.395 83.858c-.702 5.195-5.132 9.07-10.379 9.07h-26.863c5.582 0 10.305-4.126 11.06-9.667l12.138-89.366c.566-4.158-1.236-8.19-4.493-10.546 7.823 1.131 15.437 2.912 22.8 5.278 4.817 1.55 7.813 6.357 7.132 11.373z" fill="#384848"/></g></g><g><g><path d="m197.389 165.71c-13.5 9.992-28.565 13.265-38.801 14.257-1.902.184-3.71-.953-4.283-2.776-.003-.01-.007-.021-.01-.031-.839-2.701-1.294-5.598-1.294-8.615 0-14.579 10.666-26.399 23.818-26.399 10.388 0 19.223 7.378 22.48 17.658l.011.036c.682 2.165-.097 4.519-1.921 5.87z" fill="#fb4a59"/></g><g><path d="m87.768 165.71c13.5 9.992 28.565 13.265 38.801 14.257 1.902.184 3.71-.953 4.283-2.776.003-.01.007-.021.01-.031.839-2.701 1.294-5.598 1.294-8.615 0-14.579-10.666-26.399-23.818-26.399-10.388 0-19.223 7.378-22.48 17.658l-.011.036c-.682 2.165.097 4.519 1.921 5.87z" fill="#fb4a59"/></g></g><g fill="#fc9aa1"><circle cx="99.216" cy="206.017" r="11.134"/><circle cx="191.828" cy="206.017" r="11.134"/></g><g><path d="m142.578 245.267c-11.655 0-21.137-9.482-21.137-21.138 0-4.267 3.459-7.726 7.726-7.726s7.726 3.459 7.726 7.726c0 3.135 2.55 5.685 5.685 5.685 3.134 0 5.685-2.55 5.685-5.685 0-4.267 3.459-7.726 7.726-7.726s7.726 3.459 7.726 7.726c.001 11.655-9.482 21.138-21.137 21.138z" fill="#fb4a59"/></g></g></svg>