<?xml version="1.0" encoding="UTF-8" standalone="no"?>
<svg
   id="Capa_1"
   enable-background="new 0 0 512 512"
   height="512"
   viewBox="0 0 512 512"
   width="512"
   version="1.1"
   xmlns="http://www.w3.org/2000/svg"
   xmlns:svg="http://www.w3.org/2000/svg">
  <defs
     id="defs43127" />
  <path
     d="m 124.137,158.648 c 0,-9.957 -8.071,-18.028 -18.028,-18.028 -9.957,0 -18.028,8.071 -18.028,18.028 v 54.6 l 53.779,-3.054 z"
     fill="#e4dfe3"
     id="path43072" />
  <path
     d="m 402.286,210.193 v -51.545 c 0,-9.957 -8.071,-18.028 -18.028,-18.028 -9.957,0 -21.387,5.766 -21.387,15.723 l -10.302,51.331 z"
     fill="#cfc5ce"
     id="path43074" />
  <path
     d="m 143.71,396.62 c -45.516,0 -82.414,36.898 -82.414,82.414 v 12.362 C 61.296,502.775 70.521,512 81.9,512 h 45.328 L 246.348,496.964 363.139,512 h 16.483 c 11.379,0 20.604,-9.225 20.604,-20.604 v -12.362 c 0,-45.516 -36.898,-82.414 -82.414,-82.414 z"
     fill="#fff0ab"
     id="path43076" />
  <path
     d="m 429.07,479.034 v 12.362 c 0,11.384 -9.22,20.604 -20.604,20.604 h -30.905 c 11.384,0 20.604,-9.22 20.604,-20.604 v -12.362 c 0,-45.513 -36.901,-82.414 -82.414,-82.414 h 30.905 c 45.513,0 82.414,36.901 82.414,82.414 z"
     fill="#ffe270"
     id="path43078" />
  <path
     d="M 339.418,483.736 327.082,512 H 127.227 V 391.729 c 0,-5.288 3.997,-9.791 9.265,-10.25 2.378,-0.207 16.49,-0.312 16.49,-0.312 5.69,0 10.302,4.612 10.302,10.302 v 80.354 c 0,2.845 2.306,5.151 5.151,5.151 h 153.497 c 2.845,0 5.151,-2.306 5.151,-5.151 z"
     fill="#bd8580"
     id="path43080" />
  <path
     d="M 363.139,391.726 V 512 H 327.083 V 391.469 c 0,-5.687 4.615,-10.302 10.302,-10.302 0,0 14.113,0.103 16.493,0.309 5.264,0.464 9.261,4.966 9.261,10.25 z"
     fill="#a4766e"
     id="path43082" />
  <g
     fill="#ffd2bf"
     id="g43090">
    <path
       d="m 200.37,343.563 v 53.054 c 0,24.749 20.063,44.813 44.813,44.813 24.749,0 44.813,-20.063 44.813,-44.813 v -53.054 z"
       id="path43084" />
    <path
       d="m 144.74,196.765 h -37.602 c -17.353,0 -31.42,14.067 -31.42,31.42 0,17.353 14.067,31.42 31.42,31.42 h 37.602 z"
       id="path43086" />
    <path
       d="m 345.626,196.765 h 37.602 c 17.353,0 31.421,14.067 31.421,31.42 0,17.353 -14.067,31.42 -31.421,31.42 h -37.602 z"
       id="path43088" />
  </g>
  <path
     d="m 383.742,235.911 h -38.117 c -4.268,0 -7.726,-3.459 -7.726,-7.726 0,-4.268 3.459,-7.726 7.726,-7.726 h 38.117 c 4.268,0 7.726,3.459 7.726,7.726 10e-4,4.268 -3.458,7.726 -7.726,7.726 z"
     fill="#ffaf89"
     id="path43092" />
  <path
     d="m 144.74,235.911 h -38.117 c -4.267,0 -7.726,-3.459 -7.726,-7.726 0,-4.268 3.459,-7.726 7.726,-7.726 h 38.117 c 4.267,0 7.726,3.459 7.726,7.726 0.001,4.268 -3.458,7.726 -7.726,7.726 z"
     fill="#ffaf89"
     id="path43094" />
  <path
     d="m 245.183,27.815 c -66.852,0 -121.046,54.194 -121.046,121.046 v 95.807 c 0,66.852 54.194,121.046 121.046,121.046 66.852,0 121.046,-54.194 121.046,-121.046 v -95.807 c 0,-66.852 -54.194,-121.046 -121.046,-121.046 z"
     fill="#ffd899"
     id="path43096" />
  <path
     d="m 245.183,27.815 c -66.852,0 -121.046,54.194 -121.046,121.046 v 95.807 c 0,61.971 46.57,113.066 106.623,120.196 4.761,-0.223 27.826,-2.627 27.826,-2.627 0,0 75.045,-9.131 89.1,-117.569 v -95.807 c 0,-66.852 -35.651,-121.046 -102.503,-121.046 z"
     fill="#ffddcf"
     id="path43098" />
  <path
     d="m 366.229,148.861 v 95.807 c 0,33.419 -13.547,63.686 -35.459,85.587 -21.902,21.912 -52.168,35.459 -85.588,35.459 -5.233,0 -10.395,-0.33 -15.453,-0.979 27.248,-3.472 51.664,-15.999 70.135,-34.48 21.912,-21.902 35.459,-52.168 35.459,-85.587 v -95.807 c 0,-61.615 -46.039,-112.475 -105.594,-120.068 5.058,-0.649 10.219,-0.979 15.453,-0.979 66.85,0.001 121.047,54.199 121.047,121.047 z"
     fill="#ffd2bf"
     id="path43100" />
  <path
     d="m 273.358,13.047 c -2.19,-0.412 -4.242,-1.521 -5.835,-3.25 C 261.971,3.774 254.02,0 245.183,0 c -8.837,0 -16.788,3.774 -22.339,9.796 -2.996,3.251 -7.611,4.309 -11.716,2.667 -3.486,-1.394 -7.289,-2.162 -11.273,-2.162 -16.784,0 -30.39,13.606 -30.39,30.39 v 3.091 c 0,16.784 13.606,30.39 30.39,30.39 3.984,0 7.788,-0.767 11.273,-2.162 4.105,-1.642 8.719,-0.584 11.716,2.667 5.551,6.022 13.502,9.796 22.339,9.796 8.837,0 16.788,-3.774 22.339,-9.796 1.137,-1.234 2.508,-2.152 3.996,-2.727 2.431,-0.939 4.35,-1.955 6.897,-0.937 23.504,-6.924 33.189,-30.323 33.189,-30.323 0,-16.782 -36.32,-27.281 -38.246,-27.643 z"
     fill="#e4dfe3"
     id="path43102" />
  <path
     d="m 320.901,40.692 v 3.091 c 0,8.386 -3.4,15.988 -8.901,21.49 -5.501,5.501 -13.104,8.901 -21.49,8.901 -3.987,0 -7.788,-0.762 -11.27,-2.163 -2.555,-1.02 -5.316,-0.999 -7.747,-0.051 3.606,-1.628 6.851,-3.935 9.601,-6.686 5.501,-5.501 8.901,-13.104 8.901,-21.49 v -3.091 c 0,-11.837 -6.768,-22.427 -16.637,-27.65 1.926,0.371 3.956,0.185 5.882,-0.577 3.482,-1.401 7.283,-2.163 11.27,-2.163 16.783,-0.001 30.391,13.607 30.391,30.389 z"
     fill="#cfc5ce"
     id="path43104" />
  <path
     d="m 306.479,251.364 c -4.268,0 -7.726,-3.459 -7.726,-7.726 v -15.453 c 0,-4.268 3.459,-7.726 7.726,-7.726 4.267,0 7.726,3.459 7.726,7.726 v 15.453 c 0,4.267 -3.459,7.726 -7.726,7.726 z"
     fill="#ffaf89"
     id="path43106" />
  <path
     d="m 183.887,251.364 c -4.267,0 -7.726,-3.459 -7.726,-7.726 v -15.453 c 0,-4.268 3.459,-7.726 7.726,-7.726 4.267,0 7.726,3.459 7.726,7.726 v 15.453 c 0.001,4.267 -3.459,7.726 -7.726,7.726 z"
     fill="#ffaf89"
     id="path43108" />
  <path
     d="m 244.34122,283.69407 c 15.03384,-0.93675 30.36815,3.43108 43.51887,13.26027 3.41854,2.55536 4.118,7.39723 1.56359,10.8147 -2.55448,3.41647 -7.39636,4.11594 -10.81476,1.56258 -20.12856,-15.04434 -46.96807,-13.36497 -65.26999,4.08999 -3.08691,2.94367 -7.97753,2.82859 -10.92332,-0.26019 -2.94373,-3.08791 -2.82865,-7.97853 0.26019,-10.92333 11.9267,-11.37472 26.64554,-17.60814 41.66542,-18.54402 z"
     fill="#ffaf89"
     id="path43110" />
  <path
     d="M 291.026,158.133 H 199.34 c -4.267,0 -7.726,-3.459 -7.726,-7.726 0,-4.268 3.459,-7.726 7.726,-7.726 h 91.686 c 4.268,0 7.726,3.459 7.726,7.726 10e-4,4.267 -3.458,7.726 -7.726,7.726 z"
     fill="#ffd2bf"
     id="path43112" />
  <path
     d="M 319.871,189.038 H 170.495 c -4.267,0 -7.726,-3.459 -7.726,-7.726 0,-4.267 3.459,-7.726 7.726,-7.726 h 149.376 c 4.268,0 7.726,3.459 7.726,7.726 0,4.267 -3.458,7.726 -7.726,7.726 z"
     fill="#ffd2bf"
     id="path43114" />
</svg>
