<svg id="Capa_1" enable-background="new 0 0 512 512" height="512" viewBox="0 0 512 512" width="512" xmlns="http://www.w3.org/2000/svg"><g><path d="m276.188 308.543c-12.671-1.651-27.706-1.651-40.377 0-148.065 19.29-220.997 203.457-120.669 203.457h15.843l125.015-10 125.015 10h15.843c100.328 0 27.396-184.167-120.67-203.457z" fill="#766d78"/><path d="m276.188 308.543c-12.671-1.651-27.706-1.651-40.377 0-.539.07-1.074.15-1.612.225 130.116 18.07 201.502 163.418 146.819 196.533-7.087 4.292-.004 6.699-.004 6.699h15.843c100.329 0 27.397-184.166-120.669-203.457z" fill="#655e67"/><path d="m407.811 122.64 25.473-62.166c1.374-3.353-1.165-7.009-4.787-6.893l-105.179 3.373c-1.289.041-2.545-.417-3.504-1.28l-60.47-54.392c-1.901-1.71-4.786-1.71-6.687 0l-60.471 54.392c-.959.863-2.215 1.321-3.504 1.28l-105.179-3.373c-3.622-.116-6.161 3.539-4.787 6.893l25.473 62.166c1.077 2.628-.249 5.624-2.918 6.594l-36.706 13.347c-3.444 1.252-4.415 5.661-1.817 8.244l92.244 91.715c.937.931 2.204 1.454 3.525 1.454h194.963c1.321 0 2.588-.523 3.525-1.454l92.244-91.715c2.598-2.583 1.627-6.992-1.817-8.244l-36.706-13.347c-2.666-.97-3.992-3.966-2.915-6.594z" fill="#766d78"/><g fill="#d97b7b"><path d="m496.087 174.551-150.444 6.647 6.95 51.043c0 17.446 14.657 31.468 32.329 30.424 15.447-.912 27.939-13.635 28.6-29.094.124-2.905-.161-5.723-.801-8.403-.73-3.059 1.056-6.164 4.015-7.229l82.083-29.531c2.835-1.02 4.725-3.709 4.725-6.721.001-4.069-3.392-7.316-7.457-7.136z"/><path d="m15.913 174.551 150.444 6.647-6.95 51.043c0 17.446-14.657 31.468-32.329 30.424-15.447-.912-27.939-13.635-28.6-29.094-.124-2.905.161-5.723.801-8.403.73-3.059-1.056-6.164-4.015-7.229l-82.083-29.531c-2.835-1.02-4.725-3.709-4.725-6.721-.001-4.069 3.392-7.316 7.457-7.136z"/></g><path d="m363.355 308.843c-4.595 12.547-34.315 39.013-61.316 61.182-1.174.969-2.369 1.885-3.595 2.772-2.483 1.792-4.389 4.296-5.254 7.242-4.595 15.71-19.501 27.217-37.19 27.217s-32.595-11.507-37.19-27.217c-.865-2.946-2.771-5.45-5.254-7.242-1.226-.886-2.421-1.803-3.595-2.772-27.001-22.169-56.722-48.635-61.316-61.182-13.661-37.351-9.246-137.601-6.112-186.227.986-15.298 13.68-27.195 29.01-27.195h13.079c10.291 0 20.362 2.892 29.137 8.267 10.444 6.397 20.362 13.652 29.612 21.676 7.244 6.285 18.013 6.285 25.257 0 9.25-8.025 19.168-15.279 29.612-21.676 8.776-5.375 18.846-8.267 29.137-8.267h13.079c15.33 0 28.024 11.897 29.01 27.195 3.135 48.627 7.55 148.877-6.111 186.227z" fill="#d97b7b"/><path d="m369.467 122.616c-.986-15.298-13.68-27.195-29.01-27.195h-1.906c4.434 4.75 7.306 10.996 7.755 17.949 3.134 48.627 7.549 148.877-6.112 186.227-4.595 12.547-34.315 39.013-61.316 61.182-1.174.969-2.369 1.885-3.595 2.772-2.483 1.792-4.389 4.296-5.254 7.242-4.595 15.71-19.501 27.217-37.19 27.217-.789 0-1.571-.031-2.349-.076 6.806 5.8 15.731 9.322 25.51 9.322 17.688 0 32.595-11.507 37.19-27.217.865-2.946 2.771-5.45 5.254-7.242 1.226-.886 2.421-1.803 3.595-2.772 27.001-22.169 56.722-48.635 61.316-61.182 13.661-37.35 9.246-137.601 6.112-186.227z" fill="#d16161"/><g fill="#655e67"><path d="m236.986 190.109c-1.364-3.762-6.408-4.626-8.826-1.438-3.828 5.045-9.468 8.236-15.76 8.236-6.293 0-11.933-3.19-15.76-8.236-2.4-3.163-7.439-2.356-8.803 1.373-1.188 3.251-1.749 6.805-1.535 10.515.781 13.533 12.1 24.365 25.654 24.59 14.642.243 26.587-11.553 26.587-26.139 0-3.126-.55-6.123-1.557-8.901z"/><path d="m324.187 190.109c-1.364-3.762-6.408-4.626-8.826-1.438-3.828 5.045-9.468 8.236-15.76 8.236-6.293 0-11.933-3.19-15.76-8.236-2.4-3.163-7.439-2.356-8.803 1.373-1.188 3.251-1.749 6.805-1.535 10.515.781 13.533 12.1 24.365 25.654 24.59 14.642.243 26.587-11.553 26.587-26.139-.001-3.126-.55-6.123-1.557-8.901z"/></g><path d="m230.341 353.013c-3.01 0-5.866-1.315-7.824-3.6-10.744-12.54-45.88-54.58-50.977-73.892-1.286-4.872-.133-15.404 1.172-23.924.55-3.596 5.288-4.483 7.129-1.345 9.079 15.478 27.223 32.039 38.871 41.78 6.638 5.552 15.029 8.57 23.682 8.57h27.213c8.654 0 17.044-3.019 23.682-8.57 11.648-9.741 29.792-26.302 38.871-41.78 1.841-3.138 6.578-2.251 7.129 1.345 1.304 8.52 2.458 19.053 1.172 23.924-5.097 19.311-40.233 61.352-50.977 73.892-1.958 2.286-4.814 3.6-7.824 3.6z" fill="#f7f3f1"/><path d="m371.507 7.63c.054 58.54-26.255 87.438-47.332 105.17-9.582 8.061-11.226 22.182-3.675 32.171 7.6 10.054 21.854 12.415 32.133 5.121 46.513-33.006 47.033-100.906 26.058-144.137-1.757-3.621-7.188-2.35-7.184 1.675z" fill="#f3d69e"/><path d="m378.691 5.955c-1.146-2.362-3.848-2.632-5.592-1.426 12.738 42.217 6.922 96.875-33.312 125.426-7.265 5.155-16.507 5.467-23.991 1.668.153 4.676 1.678 9.344 4.705 13.348 7.6 10.054 21.854 12.414 32.133 5.121 46.512-33.007 47.032-100.906 26.057-144.137z" fill="#eec06b"/><path d="m140.493 7.63c-.054 58.54 26.255 87.438 47.332 105.17 9.582 8.061 11.226 22.182 3.675 32.171-7.6 10.054-21.854 12.415-32.133 5.121-46.513-33.006-47.033-100.906-26.058-144.137 1.757-3.621 7.188-2.35 7.184 1.675z" fill="#f3d69e"/><path d="m133.309 5.955c1.146-2.362 3.848-2.632 5.592-1.426-12.738 42.217-6.922 96.875 33.312 125.426 7.265 5.155 16.507 5.467 23.991 1.668-.153 4.676-1.678 9.344-4.705 13.348-7.6 10.054-21.854 12.414-32.133 5.121-46.512-33.007-47.032-100.906-26.057-144.137z" fill="#eec06b"/><path d="m485.623 475.439h-54.594c-4.151 0-7.676-3.098-8.133-7.223-1.108-10.006-3.933-20.976-8.395-32.17 14.598-4.585 32.43-8.437 52.89-10.549 10.008 17.851 17.898 37.376 21.12 45.75.778 2.022-.72 4.192-2.888 4.192z" fill="#f3d69e"/><path d="m26.377 475.439h54.594c4.151 0 7.676-3.098 8.133-7.223 1.108-10.006 3.933-20.976 8.395-32.17-14.598-4.585-32.43-8.437-52.89-10.549-10.008 17.851-17.898 37.376-21.12 45.75-.778 2.022.72 4.192 2.888 4.192z" fill="#f3d69e"/><path d="m492.158 419.189c1.322 2.014-.073 4.708-2.481 4.79-7.733.263-15.166.782-22.287 1.517-20.46 2.112-38.292 5.965-52.89 10.549-5.068-12.733-12.249-25.775-21.428-38.034 18.224-9.292 39.394-17.492 60.379-23.53 13.987 12.707 27.223 27.208 38.707 44.708z" fill="#eec06b"/><path d="m19.842 419.189c-1.322 2.014.073 4.708 2.481 4.79 7.733.263 15.166.782 22.287 1.517 20.46 2.112 38.292 5.965 52.89 10.549 5.068-12.733 12.249-25.775 21.428-38.034-18.224-9.292-39.394-17.492-60.379-23.53-13.987 12.707-27.223 27.208-38.707 44.708z" fill="#eec06b"/><g fill="#f3d69e"><path d="m480.481 363.057c1.698 1.756.784 4.696-1.61 5.179-8.299 1.671-16.845 3.775-25.419 6.245-20.985 6.037-42.155 14.237-60.379 23.53-8.609-11.518-18.978-22.348-30.993-31.605-3.104-2.391-4.103-6.647-2.265-10.107 7.902-14.877 22.701-28.407 38.947-39.111 3.051-2.01 6.901-2.422 10.313-1.113 24.551 9.417 49.941 24.787 71.406 46.982z"/><path d="m31.519 363.057c-1.698 1.756-.784 4.696 1.61 5.179 8.299 1.671 16.845 3.775 25.419 6.245 20.985 6.037 42.155 14.237 60.379 23.53 8.609-11.518 18.978-22.348 30.993-31.605 3.104-2.391 4.103-6.647 2.265-10.107-7.902-14.877-22.701-28.407-38.947-39.111-3.051-2.01-6.901-2.422-10.313-1.113-24.551 9.417-49.941 24.787-71.406 46.982z"/><path d="m349.564 475.439h-187.128v-28.651c0-4.365 3.538-7.903 7.903-7.903h171.323c4.365 0 7.903 3.538 7.903 7.903v28.651z"/></g><path d="m381.015 512v-28.658c0-4.365-3.538-7.903-7.903-7.903h-234.224c-4.365 0-7.903 3.538-7.903 7.903v28.658z" fill="#eec06b"/><path d="m257.93 276.54c-4.729 0-9.146-2.33-11.817-6.232l-10.471-15.297c-2.34-3.418-1.466-8.086 1.952-10.425s8.087-1.466 10.425 1.952l9.91 14.478 9.911-14.478c2.34-3.419 7.007-4.293 10.425-1.952 3.418 2.339 4.292 7.007 1.952 10.425l-10.472 15.298c-2.67 3.901-7.087 6.231-11.815 6.231z" fill="#d16161"/></g></svg>