<svg height="512pt" viewBox="-39 0 512 512" width="512pt" xmlns="http://www.w3.org/2000/svg"><path d="m326.820312 126.246094s85.640626-25.097656 108.128907-16.90625l-20.664063-49.945313c.003906-.003906-90.363281-6.136719-87.464844 66.851563zm0 0" fill="#2748a8"/><path d="m322.183594 122.25s78.304687 42.808594 88.414062 64.503906l20.707032-49.929687s-59.5625-68.234375-109.121094-14.574219zm0 0" fill="#2748a8"/><path d="m406.125 512h-384.835938c-11.757812 0-21.289062-9.53125-21.289062-21.289062v-18.339844c0-82.105469 66.558594-148.664063 148.664062-148.664063h130.089844c82.105469 0 148.664063 66.558594 148.664063 148.664063v18.339844c0 11.757812-9.53125 21.289062-21.292969 21.289062zm0 0" fill="#f8d6c9"/><path d="m278.753906 323.707031h-31c82.101563 0 148.664063 66.558594 148.664063 148.660157v18.34375c0 11.757812-9.535157 21.289062-21.292969 21.289062h31c11.761719 0 21.292969-9.53125 21.292969-21.289062v-18.34375c0-82.101563-66.558594-148.660157-148.664063-148.660157zm0 0" fill="#f9bfac"/><path d="m112.992188 220.886719c0 22.339843-18.113282 40.449219-40.453126 40.449219-22.339843 0-40.453124-18.109376-40.453124-40.449219 0-22.34375 18.113281-40.453125 40.453124-40.453125 22.339844 0 40.453126 18.109375 40.453126 40.453125zm0 0" fill="#f8d6c9"/><path d="m383.777344 220.886719c0 22.339843-18.109375 40.449219-40.449219 40.449219-22.34375 0-40.453125-18.109376-40.453125-40.449219 0-22.34375 18.109375-40.453125 40.453125-40.453125 22.339844 0 40.449219 18.109375 40.449219 40.453125zm0 0" fill="#f8d6c9"/><path d="m241.929688 383.566406h-67.996094c-56 0-101.394532-45.394531-101.394532-101.394531v-183.875c0-56 45.398438-98.296875 101.398438-98.296875h67.992188c56 0 91.0625 41.121094 91.0625 97.121094v183.871094c0 56.003906-35.0625 102.574218-91.0625 102.574218zm0 0" fill="#f8d6c9"/><path d="m312.324219 139.390625v142.78125c0 56-45.394531 101.394531-101.394531 101.394531h31c56 0 101.398437-45.394531 101.398437-101.394531v-142.78125zm0 0" fill="#f9bfac"/><path d="m343.328125 101.386719v-3.089844c0-56-45.398437-98.296875-101.398437-98.296875h-67.996094c-56 0-101.394532 42.296875-101.394532 98.296875v3.089844zm0 0" fill="#4c4c4c"/><path d="m241.929688 0h-31c56 0 101.394531 42.296875 101.394531 98.296875v3.089844h31v-3.089844c.003906-56-45.394531-98.296875-101.394531-98.296875zm0 0" fill="#313131"/><path d="m343.328125 141.320312v-40.027343c0-.082031-.003906-.164063-.003906-.246094h-270.78125c0 .082031-.003907.164063-.003907.246094v40.027343zm0 0" fill="#405db2"/><path d="m343.324219 101.046875h-31.003907c0 .082031.003907.164063.003907.246094v40.027343h31v-40.027343c.003906-.082031 0-.164063 0-.246094zm0 0" fill="#2748a8"/><path d="m305.882812 186.5h-37.785156c-14.726562 0-26.707031 11.980469-26.707031 26.703125v5.769531c0 4.28125 3.46875 7.75 7.75 7.75h37.785156c14.726563 0 26.707031-11.976562 26.707031-26.703125v-5.769531c0-4.28125-3.46875-7.75-7.75-7.75zm0 0" fill="#4c4c4c"/><path d="m166.726562 259.917969c-4.195312 0-7.613281-3.332031-7.746093-7.492188h-5.320313c-4.28125 0-7.75-3.472656-7.75-7.75 0-4.28125 3.46875-7.753906 7.75-7.753906h13.066406c4.28125 0 7.75 3.472656 7.75 7.753906v7.492188c0 4.28125-3.46875 7.75-7.75 7.75zm0 0" fill="#4c4c4c"/><path d="m147.769531 186.5h-37.785156c-4.28125 0-7.75 3.46875-7.75 7.75v5.765625c0 14.726563 11.980469 26.707031 26.703125 26.707031h37.789062c4.28125 0 7.75-3.46875 7.75-7.75v-5.769531c0-14.722656-11.980468-26.703125-26.707031-26.703125zm0 0" fill="#4c4c4c"/><path d="m249.140625 259.917969c-4.28125 0-7.75-3.46875-7.75-7.75v-7.492188c0-4.28125 3.46875-7.753906 7.75-7.753906h13.0625c4.28125 0 7.75 3.472656 7.75 7.753906 0 4.277344-3.46875 7.75-7.75 7.75h-5.316406c-.136719 4.160157-3.550781 7.492188-7.746094 7.492188zm0 0" fill="#4c4c4c"/><g fill="#f9bfac"><path d="m324.109375 479.3125h-20.585937c-4.28125 0-7.75-3.46875-7.75-7.75 0-4.277344 3.46875-7.75 7.75-7.75h20.585937c4.28125 0 7.75 3.472656 7.75 7.75 0 4.28125-3.46875 7.75-7.75 7.75zm0 0"/><path d="m123.890625 479.3125h-20.582031c-4.28125 0-7.75-3.46875-7.75-7.75 0-4.277344 3.46875-7.75 7.75-7.75h20.582031c4.28125 0 7.753906 3.472656 7.753906 7.75 0 4.28125-3.472656 7.75-7.753906 7.75zm0 0"/><path d="m221.460938 511.90625v-63.265625c0-4.28125-3.472657-7.75-7.753907-7.75s-7.75 3.46875-7.75 7.75v63.265625zm0 0"/><path d="m110.515625 299.558594c-2.3125 0-4.605469-1.035156-6.132813-3.003906-2.621093-3.382813-2.003906-8.253907 1.378907-10.875l13.761719-10.660157c3.386718-2.625 8.253906-2.003906 10.875 1.378907 2.621093 3.382812 2.003906 8.25-1.378907 10.871093l-13.761719 10.664063c-1.414062 1.09375-3.085937 1.625-4.742187 1.625zm0 0"/><path d="m138.679688 299.558594c-2.3125 0-4.605469-1.035156-6.132813-3.003906-2.621094-3.382813-2.003906-8.253907 1.378906-10.875l13.761719-10.660157c3.386719-2.625 8.253906-2.003906 10.875 1.378907 2.621094 3.382812 2.003906 8.25-1.378906 10.871093l-13.761719 10.664063c-1.414063 1.09375-3.085937 1.625-4.742187 1.625zm0 0"/><path d="m309.722656 299.558594c-1.660156 0-3.328125-.53125-4.742187-1.625l-13.761719-10.664063c-3.382812-2.621093-4-7.488281-1.378906-10.871093 2.621094-3.386719 7.488281-4 10.871094-1.378907l13.761718 10.660157c3.382813 2.621093 4.003906 7.492187 1.382813 10.875-1.527344 1.96875-3.820313 3.003906-6.132813 3.003906zm0 0"/><path d="m281.558594 299.558594c-1.660156 0-3.332032-.53125-4.742188-1.625l-13.761718-10.664063c-3.386719-2.621093-4.003907-7.488281-1.382813-10.871093 2.621094-3.386719 7.492187-4.003907 10.875-1.378907l13.761719 10.660157c3.382812 2.621093 4 7.492187 1.378906 10.875-1.523438 1.96875-3.816406 3.003906-6.128906 3.003906zm0 0"/><path d="m262.25 316.976562h-96.652344c-4.28125 0-7.75 3.472657-7.75 7.75v11.777344c0 4.277344 3.46875 7.75 7.75 7.75s7.75-3.472656 7.75-7.75v-4.023437h81.152344v4.023437c0 4.277344 3.46875 7.75 7.75 7.75s7.75-3.472656 7.75-7.75v-11.777344c0-4.277343-3.46875-7.75-7.75-7.75zm0 0"/></g></svg>