<svg  version="1.1" viewBox="0 0 269.38 324.52" xmlns="http://www.w3.org/2000/svg">
 <g transform="translate(70.265 -61.877)">
  <g transform="translate(-570.62 -1841.8)">
   <path d="m635.04 1910.6a170.48 207.1 0 0 0 120.76 51.774 170.48 207.1 0 0 1-120.76 258.87 170.48 207.1 0 0 1-120.76-258.87 170.48 207.1 0 0 0 120.76-51.774" fill="#699ec5" stroke="#adbac9" stroke-linecap="round" stroke-linejoin="round" stroke-width="13.88"/>
   <g transform="matrix(2.8352 0 0 2.8352 549.99 1980.9)">
    <path d="M 14.081,53.61 A 45.78,45.78 0 0 1 30,51 45.78,45.78 0 0 1 45.919,53.61 L 47,26 H 13 Z" fill="#5b2733"/>
    <path d="m58.82 45.49c0.1 1.26 0.16 2.58 0.18 3.97a3.407 3.407 0 0 1-0.51 1.84 18.044 18.044 0 0 1-10.82 7.65 1.329 1.329 0 0 1-1.67-1.28c-0.01-0.87-0.02-1.72-0.04-2.55z" fill="#f2b620"/>
    <path d="m14.04 55.12c-0.02 0.83-0.03 1.68-0.04 2.55a1.329 1.329 0 0 1-1.67 1.28 18.044 18.044 0 0 1-10.82-7.65 3.407 3.407 0 0 1-0.51-1.84c0.02-1.39 0.08-2.71 0.18-3.97z" fill="#f2b620"/>
    <path d="m58.82 45.49c-2.67 3.64-7.32 8.79-12.86 9.63a127.43 127.43 0 0 0-1.94-20.63 46.645 46.645 0 0 0-1.75-6.78h-24.54a46.645 46.645 0 0 0-1.75 6.78 127.43 127.43 0 0 0-1.94 20.63c-5.54-0.84-10.19-5.99-12.86-9.63 0.98-12.54 5.64-18.4 7.26-19.99l3.51-7.44a15.678 15.678 0 0 1 3.51-5.02l4.7-3.14a23.541 23.541 0 0 1 9.84-1.9 23.541 23.541 0 0 1 9.84 1.9l4.7 3.14a15.678 15.678 0 0 1 3.51 5.02l3.51 7.44c1.62 1.59 6.28 7.45 7.26 19.99z" fill="#db4958"/>
    <path d="m34.871 22.27c4.1-1.87 13.363-7.65 10.634-20.89a0.472 0.472 0 0 0-0.91-0.06 26.685 26.685 0 0 1-12.645 15.07z" fill="#f2b620"/>
    <path d="m28.05 16.39a26.685 26.685 0 0 1-12.645-15.07 0.472 0.472 0 0 0-0.91 0.06c-2.729 13.24 6.53 19.02 10.634 20.89z" fill="#f2b620"/>
    <circle cx="30" cy="21" r="5" fill="#d39a1a"/>
    <path d="m19.22 27.71h-1.49a43.767 43.767 0 0 0-1.57 5.9s-4.15-4.89-7.61-8.34l-0.04-0.04c-0.94-0.94-1.94-1.88-3.01-2.79l1.5-4.44 3.28-1.54c0.6 0.51 1.16 1.04 1.69 1.56a40.929 40.929 0 0 1 4.52 5.22z" fill="#b2394b"/>
    <path d="m10.28 16.46a45.162 45.162 0 0 0-4.78 5.98c-0.55-0.47-1.11-0.94-1.69-1.39a1.931 1.931 0 0 1-0.28-2.74l2.43-2.92a1.937 1.937 0 0 1 2.65-0.3c0.58 0.44 1.14 0.9 1.67 1.37z" fill="#932f42"/>
    <path d="m40.78 27.71h1.49a43.767 43.767 0 0 1 1.57 5.9s4.15-4.89 7.61-8.34l0.04-0.04c0.94-0.94 1.94-1.88 3.01-2.79l-1.5-4.44-3.28-1.54c-0.6 0.51-1.16 1.04-1.69 1.56a40.929 40.929 0 0 0-4.52 5.22z" fill="#b2394b"/>
    <path d="m49.72 16.46a45.162 45.162 0 0 1 4.78 5.98c0.55-0.47 1.11-0.94 1.69-1.39a1.931 1.931 0 0 0 0.28-2.74l-2.43-2.92a1.937 1.937 0 0 0-2.65-0.3c-0.58 0.44-1.14 0.9-1.67 1.37z" fill="#932f42"/>
    <path d="m30 26c5.7 0 9.235-1.431 11.153-2.582a2.151 2.151 0 0 1 3.012 0.913 2.158 2.158 0 0 1-0.859 2.85c-2.092 1.18-6.265 2.819-13.306 2.819s-11.214-1.639-13.306-2.819a2.158 2.158 0 0 1-0.859-2.85 2.151 2.151 0 0 1 3.012-0.913c1.918 1.151 5.453 2.582 11.153 2.582z" fill="#932f42"/>
    <g fill="#b2394b">
     <path d="m14.81 42.62c-0.16 1.47-0.3 3.04-0.41 4.73a32.709 32.709 0 0 1-12.12-9.16 37.141 37.141 0 0 1 1.42-4.72 33.023 33.023 0 0 0 11.11 9.15z"/>
     <path d="m45.19 42.62c0.16 1.47 0.3 3.04 0.41 4.73a32.709 32.709 0 0 0 12.12-9.16 37.141 37.141 0 0 0-1.42-4.72 33.023 33.023 0 0 1-11.11 9.15z"/>
    </g>
   </g>
  </g>
 </g>
</svg>
