<?xml version="1.0" encoding="UTF-8" standalone="no"?>
<svg
   xmlns:dc="http://purl.org/dc/elements/1.1/"
   xmlns:cc="http://creativecommons.org/ns#"
   xmlns:rdf="http://www.w3.org/1999/02/22-rdf-syntax-ns#"
   xmlns:svg="http://www.w3.org/2000/svg"
   xmlns="http://www.w3.org/2000/svg"
   xmlns:sodipodi="http://sodipodi.sourceforge.net/DTD/sodipodi-0.dtd"
   xmlns:inkscape="http://www.inkscape.org/namespaces/inkscape"
   width="133.7845mm"
   height="34.886124mm"
   viewBox="0 0 133.7845 34.886124"
   version="1.1"
   id="svg932"
   sodipodi:docname="boxMatchQuick.svg"
   inkscape:version="1.0.2 (e86c870879, 2021-01-15, custom)">
  <sodipodi:namedview
     pagecolor="#ffffff"
     bordercolor="#666666"
     borderopacity="1"
     objecttolerance="10"
     gridtolerance="10"
     guidetolerance="10"
     inkscape:pageopacity="0"
     inkscape:pageshadow="2"
     inkscape:window-width="1920"
     inkscape:window-height="1050"
     id="namedview716"
     showgrid="false"
     inkscape:zoom="2.4009072"
     inkscape:cx="252.8211"
     inkscape:cy="65.926533"
     inkscape:window-x="0"
     inkscape:window-y="30"
     inkscape:window-maximized="0"
     inkscape:current-layer="svg932" />
  <defs
     id="defs926" />
  <metadata
     id="metadata929">
    <rdf:RDF>
      <cc:Work
         rdf:about="">
        <dc:format>image/svg+xml</dc:format>
        <dc:type
           rdf:resource="http://purl.org/dc/dcmitype/StillImage" />
        <dc:title />
      </cc:Work>
    </rdf:RDF>
  </metadata>
  <g
     id="layer1"
     transform="translate(-40.352772,-109.87712)">
    <g
       id="g921"
       transform="translate(3.846887,57.074074)">
      <rect
         style="fill:#ffffff;stroke:#2d3748;stroke-width:1.92;stroke-linecap:round;stroke-opacity:1;fill-opacity:1"
         id="rect836-7"
         width="131.8645"
         height="32.966125"
         x="37.465885"
         y="53.76305"
         rx="3.3056827"
         ry="3.3056827" />
      <rect
         style="fill:#2d3748;fill-opacity:1;stroke:none;stroke-width:2.38353;stroke-linecap:round;stroke-opacity:1"
         id="rect915"
         width="1.7504175"
         height="29.08008"
         x="75.148987"
         y="55.706074"
         rx="0.65274596"
         ry="0.65274596" />
      <g
         aria-label="Quick"
         id="text1615"
         style="font-size:17.8377px;line-height:1.25;font-family:'URW Gothic';-inkscape-font-specification:'URW Gothic';fill:#2d3748;fill-opacity:1;stroke-width:0.445943">
        <path
           d="m 103.82602,76.676606 c 1.46269,0 2.71133,-0.428104 3.69241,-1.195125 l 1.73025,1.641068 0.87405,-0.909723 -1.73026,-1.62323 c 0.89189,-1.105938 1.39135,-2.604305 1.39135,-4.388075 0,-3.710241 -2.31891,-6.189681 -5.77942,-6.189681 -3.51403,0 -5.850765,2.568628 -5.850765,6.403734 0,3.763754 2.265385,6.261032 5.672385,6.261032 z m 0.17838,-1.284314 c -2.6043,0 -4.334561,-2.069173 -4.334561,-5.190771 0,-2.925382 1.658911,-4.887529 4.156181,-4.887529 2.65782,0 4.44159,2.033497 4.44159,5.101582 0,1.284314 -0.32108,2.390252 -0.89188,3.228623 l -2.76485,-2.604304 -0.80269,0.891885 2.747,2.622142 c -0.69567,0.535131 -1.55188,0.838372 -2.55079,0.838372 z"
           style="font-style:normal;font-variant:normal;font-weight:normal;font-stretch:normal;font-family:Cantarell;-inkscape-font-specification:Cantarell;fill:#2d3748;fill-opacity:1;stroke-width:0.445943"
           id="path718" />
        <path
           d="m 115.27782,76.73012 c 0.94539,0 1.90863,-0.338917 2.71133,-0.927561 l 0.32107,0.749184 h 0.99892 v -8.597772 h -1.42702 v 6.742651 c -0.62432,0.499455 -1.40918,0.784859 -2.1762,0.784859 -1.33783,0 -2.10485,-0.784859 -2.10485,-2.1762 v -5.35131 h -1.42701 v 5.636713 c 0,1.908634 1.26647,3.139436 3.10376,3.139436 z"
           style="font-style:normal;font-variant:normal;font-weight:normal;font-stretch:normal;font-family:Cantarell;-inkscape-font-specification:Cantarell;fill:#2d3748;fill-opacity:1;stroke-width:0.445943"
           id="path720" />
        <path
           d="m 122.27017,76.551743 h 1.42702 v -8.597772 h -1.42702 z m 0.73135,-10.613432 c 0.64215,0 1.01675,-0.374592 1.01675,-1.016749 0,-0.642157 -0.3746,-1.016749 -1.01675,-1.016749 -0.64216,0 -1.01675,0.374592 -1.01675,1.016749 0,0.642157 0.37459,1.016749 1.01675,1.016749 z"
           style="font-style:normal;font-variant:normal;font-weight:normal;font-stretch:normal;font-family:Cantarell;-inkscape-font-specification:Cantarell;fill:#2d3748;fill-opacity:1;stroke-width:0.445943"
           id="path722" />
        <path
           d="m 130.02954,76.73012 c 1.03459,0 2.10485,-0.249728 2.81836,-0.677833 L 132.52682,75.0177 c -0.71351,0.338917 -1.49837,0.535131 -2.15836,0.535131 -1.78377,0 -2.80052,-1.248639 -2.80052,-3.33565 0,-2.069173 0.99891,-3.192948 2.78268,-3.192948 0.67783,0 1.44485,0.160539 2.15836,0.481618 l 0.33892,-1.15945 c -0.78486,-0.374592 -1.62323,-0.570807 -2.47944,-0.570807 -2.55079,0 -4.26321,1.890796 -4.26321,4.726991 0,2.657817 1.46269,4.227535 3.92429,4.227535 z"
           style="font-style:normal;font-variant:normal;font-weight:normal;font-stretch:normal;font-family:Cantarell;-inkscape-font-specification:Cantarell;fill:#2d3748;fill-opacity:1;stroke-width:0.445943"
           id="path724" />
        <path
           d="m 140.4289,76.551743 h 1.8908 l -4.12051,-4.709153 3.72808,-3.888619 h -1.69458 l -3.81727,3.977807 v -8.562096 h -1.42702 v 13.182061 h 1.42702 v -4.548614 z"
           style="font-style:normal;font-variant:normal;font-weight:normal;font-stretch:normal;font-family:Cantarell;-inkscape-font-specification:Cantarell;fill:#2d3748;fill-opacity:1;stroke-width:0.445943"
           id="path726" />
      </g>
      <g
         id="XMLID_806_"
         transform="matrix(-516.77208,0,0,0,132328.17,52.803046)">
        <g
           id="XMLID_386_">
          <path
             id="XMLID_389_"
             d="M 511.005,279.646 C 506.408,233.408 485.751,189.817 452.837,156.902 424.709,128.775 390.281,110.7 354.055,102.663 V 77.255 c 14.796,-3.681 25.794,-17.074 25.794,-32.993 0,-18.748 -15.252,-34 -34,-34 h -72 c -18.748,0 -34,15.252 -34,34 0,15.918 10.998,29.311 25.793,32.993 v 25.479 c -36.115,8.071 -70.429,26.121 -98.477,54.169 -6.138,6.138 -11.798,12.577 -16.979,19.269 -0.251,-0.019 -0.502,-0.038 -0.758,-0.038 H 78.167 c -5.522,0 -10,4.477 -10,10 0,5.523 4.478,10 10,10 h 58.412 c -7.332,12.275 -13.244,25.166 -17.744,38.436 H 10 c -5.522,0 -10,4.477 -10,10 0,5.523 4.478,10 10,10 h 103.184 c -2.882,12.651 -4.536,25.526 -4.963,38.437 H 64 c -5.522,0 -10,4.477 -10,10 0,5.523 4.478,10 10,10 h 44.54 c 0.844,12.944 2.925,25.82 6.244,38.437 H 50 c -5.522,0 -10,4.477 -10,10 0,5.523 4.478,10 10,10 h 71.166 c 9.81,25.951 25.141,50.274 45.999,71.132 32.946,32.946 76.582,53.608 122.868,58.181 6.606,0.652 13.217,0.975 19.819,0.975 39.022,0 77.548,-11.293 110.238,-32.581 4.628,-3.014 5.937,-9.209 2.923,-13.837 -3.014,-4.628 -9.209,-5.937 -13.837,-2.923 -71.557,46.597 -167.39,36.522 -227.869,-23.957 -70.962,-70.962 -70.962,-186.425 0,-257.388 70.961,-70.961 186.424,-70.961 257.387,0 60.399,60.4 70.529,156.151 24.086,227.673 -3.008,4.632 -1.691,10.826 2.94,13.833 4.634,3.008 10.826,1.691 13.833,-2.941 24.814,-38.215 35.984,-84.37 31.452,-129.965 z M 259.849,44.263 c 0,-7.72 6.28,-14 14,-14 h 72 c 7.72,0 14,6.28 14,14 0,7.72 -6.28,14 -14,14 h -1.794 -68.413 -1.793 c -7.72,0 -14,-6.281 -14,-14 z m 25.793,55.033 V 78.263 h 48.413 V 99.26 c -16.076,-1.912 -32.34,-1.9 -48.413,0.036 z" />
          <path
             id="XMLID_391_"
             d="m 445.77,425.5 c -2.64,0 -5.21,1.07 -7.069,2.93 -1.87,1.86 -2.931,4.44 -2.931,7.07 0,2.63 1.061,5.21 2.931,7.07 1.859,1.87 4.43,2.93 7.069,2.93 2.63,0 5.2,-1.06 7.07,-2.93 1.86,-1.86 2.93,-4.44 2.93,-7.07 0,-2.63 -1.069,-5.21 -2.93,-7.07 -1.87,-1.86 -4.441,-2.93 -7.07,-2.93 z" />
          <path
             id="XMLID_394_"
             d="m 310.001,144.609 c -85.538,0 -155.129,69.59 -155.129,155.129 0,85.539 69.591,155.129 155.129,155.129 85.538,0 155.129,-69.59 155.129,-155.129 0,-85.539 -69.591,-155.129 -155.129,-155.129 z m 0,290.258 c -74.511,0 -135.129,-60.619 -135.129,-135.129 0,-74.51 60.618,-135.129 135.129,-135.129 74.511,0 135.129,60.619 135.129,135.129 0,74.51 -60.618,135.129 -135.129,135.129 z" />
          <path
             id="XMLID_397_"
             d="m 373.257,222.34 -49.53,49.529 c -4.142,-2.048 -8.801,-3.205 -13.726,-3.205 -4.926,0 -9.584,1.157 -13.726,3.205 l -22.167,-22.167 c -3.906,-3.905 -10.236,-3.905 -14.143,0 -3.905,3.905 -3.905,10.237 0,14.142 l 22.167,22.167 c -2.049,4.142 -3.205,8.801 -3.205,13.726 0,17.134 13.939,31.074 31.074,31.074 17.135,0 31.074,-13.94 31.074,-31.074 0,-4.925 -1.157,-9.584 -3.205,-13.726 l 48.076,-48.076 v 0 l 1.453,-1.453 c 3.905,-3.905 3.905,-10.237 0,-14.142 -3.905,-3.905 -10.235,-3.905 -14.142,0 z m -63.256,88.472 c -6.106,0 -11.074,-4.968 -11.074,-11.074 0,-6.106 4.968,-11.074 11.074,-11.074 6.106,0 11.074,4.968 11.074,11.074 0,6.106 -4.968,11.074 -11.074,11.074 z" />
          <path
             id="XMLID_398_"
             d="m 416.92,289.86 h -9.265 c -5.522,0 -10,4.477 -10,10 0,5.523 4.478,10 10,10 h 9.265 c 5.522,0 10,-4.477 10,-10 0,-5.523 -4.478,-10 -10,-10 z" />
          <path
             id="XMLID_399_"
             d="m 212.346,289.616 h -9.264 c -5.522,0 -10,4.477 -10,10 0,5.523 4.478,10 10,10 h 9.264 c 5.522,0 10,-4.477 10,-10 0,-5.523 -4.478,-10 -10,-10 z" />
          <path
             id="XMLID_400_"
             d="m 310.123,212.083 c 5.522,0 10,-4.477 10,-10 v -9.264 c 0,-5.523 -4.478,-10 -10,-10 -5.522,0 -10,4.477 -10,10 v 9.264 c 0,5.523 4.478,10 10,10 z" />
          <path
             id="XMLID_424_"
             d="m 309.879,387.393 c -5.522,0 -10,4.477 -10,10 v 9.264 c 0,5.523 4.478,10 10,10 5.522,0 10,-4.477 10,-10 v -9.264 c 0,-5.523 -4.478,-10 -10,-10 z" />
          <path
             id="XMLID_425_"
             d="m 10,351.44 c -2.63,0 -5.21,1.07 -7.07,2.93 -1.86,1.86 -2.93,4.44 -2.93,7.07 0,2.64 1.069,5.21 2.93,7.07 1.861,1.86 4.44,2.93 7.07,2.93 2.63,0 5.21,-1.07 7.069,-2.93 1.86,-1.86 2.931,-4.44 2.931,-7.07 0,-2.63 -1.07,-5.21 -2.931,-7.07 C 15.21,352.51 12.63,351.44 10,351.44 Z" />
        </g>
      </g>
      <g
         id="XMLID_806_-9"
         transform="matrix(0.04340953,0,0,0.04340953,44.182047,58.289636)"
         style="fill:#2d3748;fill-opacity:1">
        <g
           id="XMLID_386_-3"
           style="fill:#2d3748;fill-opacity:1">
          <path
             id="XMLID_389_-7"
             d="M 511.005,279.646 C 506.408,233.408 485.751,189.817 452.837,156.902 424.709,128.775 390.281,110.7 354.055,102.663 V 77.255 c 14.796,-3.681 25.794,-17.074 25.794,-32.993 0,-18.748 -15.252,-34 -34,-34 h -72 c -18.748,0 -34,15.252 -34,34 0,15.918 10.998,29.311 25.793,32.993 v 25.479 c -36.115,8.071 -70.429,26.121 -98.477,54.169 -6.138,6.138 -11.798,12.577 -16.979,19.269 -0.251,-0.019 -0.502,-0.038 -0.758,-0.038 H 78.167 c -5.522,0 -10,4.477 -10,10 0,5.523 4.478,10 10,10 h 58.412 c -7.332,12.275 -13.244,25.166 -17.744,38.436 H 10 c -5.522,0 -10,4.477 -10,10 0,5.523 4.478,10 10,10 h 103.184 c -2.882,12.651 -4.536,25.526 -4.963,38.437 H 64 c -5.522,0 -10,4.477 -10,10 0,5.523 4.478,10 10,10 h 44.54 c 0.844,12.944 2.925,25.82 6.244,38.437 H 50 c -5.522,0 -10,4.477 -10,10 0,5.523 4.478,10 10,10 h 71.166 c 9.81,25.951 25.141,50.274 45.999,71.132 32.946,32.946 76.582,53.608 122.868,58.181 6.606,0.652 13.217,0.975 19.819,0.975 39.022,0 77.548,-11.293 110.238,-32.581 4.628,-3.014 5.937,-9.209 2.923,-13.837 -3.014,-4.628 -9.209,-5.937 -13.837,-2.923 -71.557,46.597 -167.39,36.522 -227.869,-23.957 -70.962,-70.962 -70.962,-186.425 0,-257.388 70.961,-70.961 186.424,-70.961 257.387,0 60.399,60.4 70.529,156.151 24.086,227.673 -3.008,4.632 -1.691,10.826 2.94,13.833 4.634,3.008 10.826,1.691 13.833,-2.941 24.814,-38.215 35.984,-84.37 31.452,-129.965 z M 259.849,44.263 c 0,-7.72 6.28,-14 14,-14 h 72 c 7.72,0 14,6.28 14,14 0,7.72 -6.28,14 -14,14 h -1.794 -68.413 -1.793 c -7.72,0 -14,-6.281 -14,-14 z m 25.793,55.033 V 78.263 h 48.413 V 99.26 c -16.076,-1.912 -32.34,-1.9 -48.413,0.036 z"
             style="fill:#2d3748;fill-opacity:1" />
          <path
             id="XMLID_391_-4"
             d="m 445.77,425.5 c -2.64,0 -5.21,1.07 -7.069,2.93 -1.87,1.86 -2.931,4.44 -2.931,7.07 0,2.63 1.061,5.21 2.931,7.07 1.859,1.87 4.43,2.93 7.069,2.93 2.63,0 5.2,-1.06 7.07,-2.93 1.86,-1.86 2.93,-4.44 2.93,-7.07 0,-2.63 -1.069,-5.21 -2.93,-7.07 -1.87,-1.86 -4.441,-2.93 -7.07,-2.93 z"
             style="fill:#2d3748;fill-opacity:1" />
          <path
             id="XMLID_394_-5"
             d="m 310.001,144.609 c -85.538,0 -155.129,69.59 -155.129,155.129 0,85.539 69.591,155.129 155.129,155.129 85.538,0 155.129,-69.59 155.129,-155.129 0,-85.539 -69.591,-155.129 -155.129,-155.129 z m 0,290.258 c -74.511,0 -135.129,-60.619 -135.129,-135.129 0,-74.51 60.618,-135.129 135.129,-135.129 74.511,0 135.129,60.619 135.129,135.129 0,74.51 -60.618,135.129 -135.129,135.129 z"
             style="fill:#2d3748;fill-opacity:1" />
          <path
             id="XMLID_397_-2"
             d="m 373.257,222.34 -49.53,49.529 c -4.142,-2.048 -8.801,-3.205 -13.726,-3.205 -4.926,0 -9.584,1.157 -13.726,3.205 l -22.167,-22.167 c -3.906,-3.905 -10.236,-3.905 -14.143,0 -3.905,3.905 -3.905,10.237 0,14.142 l 22.167,22.167 c -2.049,4.142 -3.205,8.801 -3.205,13.726 0,17.134 13.939,31.074 31.074,31.074 17.135,0 31.074,-13.94 31.074,-31.074 0,-4.925 -1.157,-9.584 -3.205,-13.726 l 48.076,-48.076 v 0 l 1.453,-1.453 c 3.905,-3.905 3.905,-10.237 0,-14.142 -3.905,-3.905 -10.235,-3.905 -14.142,0 z m -63.256,88.472 c -6.106,0 -11.074,-4.968 -11.074,-11.074 0,-6.106 4.968,-11.074 11.074,-11.074 6.106,0 11.074,4.968 11.074,11.074 0,6.106 -4.968,11.074 -11.074,11.074 z"
             style="fill:#2d3748;fill-opacity:1" />
          <path
             id="XMLID_398_-5"
             d="m 416.92,289.86 h -9.265 c -5.522,0 -10,4.477 -10,10 0,5.523 4.478,10 10,10 h 9.265 c 5.522,0 10,-4.477 10,-10 0,-5.523 -4.478,-10 -10,-10 z"
             style="fill:#2d3748;fill-opacity:1" />
          <path
             id="XMLID_399_-4"
             d="m 212.346,289.616 h -9.264 c -5.522,0 -10,4.477 -10,10 0,5.523 4.478,10 10,10 h 9.264 c 5.522,0 10,-4.477 10,-10 0,-5.523 -4.478,-10 -10,-10 z"
             style="fill:#2d3748;fill-opacity:1" />
          <path
             id="XMLID_400_-7"
             d="m 310.123,212.083 c 5.522,0 10,-4.477 10,-10 v -9.264 c 0,-5.523 -4.478,-10 -10,-10 -5.522,0 -10,4.477 -10,10 v 9.264 c 0,5.523 4.478,10 10,10 z"
             style="fill:#2d3748;fill-opacity:1" />
          <path
             id="XMLID_424_-4"
             d="m 309.879,387.393 c -5.522,0 -10,4.477 -10,10 v 9.264 c 0,5.523 4.478,10 10,10 5.522,0 10,-4.477 10,-10 v -9.264 c 0,-5.523 -4.478,-10 -10,-10 z"
             style="fill:#2d3748;fill-opacity:1" />
          <path
             id="XMLID_425_-4"
             d="m 10,351.44 c -2.63,0 -5.21,1.07 -7.07,2.93 -1.86,1.86 -2.93,4.44 -2.93,7.07 0,2.64 1.069,5.21 2.93,7.07 1.861,1.86 4.44,2.93 7.07,2.93 2.63,0 5.21,-1.07 7.069,-2.93 1.86,-1.86 2.931,-4.44 2.931,-7.07 0,-2.63 -1.07,-5.21 -2.931,-7.07 C 15.21,352.51 12.63,351.44 10,351.44 Z"
             style="fill:#2d3748;fill-opacity:1" />
        </g>
      </g>
    </g>
  </g>
</svg>
