<svg
   id="Layer_1"
   viewBox="0 0 347.51588 263.47151">
<g
   id="g1711"
   transform="rotate(-8.7469605,292.09447,77.905402)"><path
     style="fill:#e3e3e3;fill-opacity:1;stroke:#e3e3e3;stroke-width:5.58765;stroke-linecap:round;stroke-miterlimit:4;stroke-dasharray:none;stroke-opacity:1;paint-order:stroke markers fill"
     d="m 294.08631,37.11958 c -14.84909,5.19165 -29.32191,11.4597 -43.88598,17.40956 -3.46862,1.58282 -7.1904,2.78501 -10.45092,4.7379 2.31695,7.49453 5.59426,14.81941 8.31576,22.23121 8.53411,21.78968 16.85655,43.67248 25.74827,65.31596 0.64755,1.90789 3.09568,3.21781 4.6936,1.53543 5.0123,-5.83544 8.61123,-13.23252 15.52555,-17.20201 7.78387,-4.96248 17.56448,-5.83448 26.33903,-3.44947 3.10426,0.46775 6.67522,1.95315 9.6063,0.67495 0.0187,-4.99101 -2.82509,-9.44423 -4.23643,-14.12152 -9.59836,-24.67324 -19.1041,-49.39235 -29.23769,-73.85112 -0.68211,-1.04184 -0.95182,-3.09194 -2.41749,-3.28089 z"
     id="path1623" /><g
     id="g1621"
     transform="translate(-29.992401,-94.684841)"><g
       id="g1582"
       transform="matrix(1.2628907,3.2078573,-3.2078573,1.2628907,328.96012,74.816535)"><g
         id="g1525">
	<g
   id="g1523">
		<path
   style="fill:#89979f;fill-opacity:1"
   d="m 9.66,51.48 c 2.523,0 4.5,-2.416 4.5,-5.5 V 27.5 h 27.732 c 1.89,0 3.362,-0.732 4.039,-2.009 0.678,-1.277 0.458,-2.907 -0.601,-4.473 l -1.392,-2.054 c -1.208,-1.784 -1.194,-4.788 0.031,-6.56 l 1.315,-1.902 C 46.758,8.371 46.318,6.794 45.925,6.044 45.531,5.294 44.485,4.036 41.893,4.036 H 13.985 C 13.471,1.69 11.765,0 9.66,0 7.137,0 5.161,2.416 5.161,5.5 v 40.48 c 0,3.084 1.976,5.5 4.499,5.5 z M 43.266,7.438 c 0.073,0.139 0.072,0.602 -0.451,1.359 L 41.5,10.699 c -1.921,2.778 -1.942,7.147 -0.047,9.947 l 1.392,2.054 c 0.45,0.665 0.541,1.184 0.435,1.384 -0.106,0.2 -0.586,0.415 -1.389,0.415 H 14.16 V 7.037 h 27.732 c 0.921,0 1.302,0.263 1.374,0.401 z M 8.161,5.5 C 8.161,4.069 8.953,3 9.66,3 c 0.708,0 1.5,1.069 1.5,2.5 v 40.48 c 0,1.431 -0.792,2.5 -1.5,2.5 -0.707,0 -1.499,-1.069 -1.499,-2.5 z"
   id="path1521" />
	</g>
</g><g
         id="g1527">
</g><g
         id="g1529">
</g><g
         id="g1531">
</g><g
         id="g1533">
</g><g
         id="g1535">
</g><g
         id="g1537">
</g><g
         id="g1539">
</g><g
         id="g1541">
</g><g
         id="g1543">
</g><g
         id="g1545">
</g><g
         id="g1547">
</g><g
         id="g1549">
</g><g
         id="g1551">
</g><g
         id="g1553">
</g><g
         id="g1555">
</g></g><rect
       style="fill:none;fill-opacity:1;stroke:#467e9f;stroke-width:13;stroke-linecap:round;stroke-miterlimit:4;stroke-dasharray:none;stroke-opacity:1;paint-order:stroke markers fill"
       id="rect1599"
       width="168.07716"
       height="21.935196"
       x="104.35231"
       y="214.47029"
       rx="13.301043"
       ry="10.418743"
       transform="rotate(-21.889447)" /></g></g><g
   id="g1258"
   transform="translate(-12.492253,-99.017375)">
</g>
<g
   id="g1260"
   transform="translate(-12.492253,-99.017375)">
</g>
<g
   id="g1262"
   transform="translate(-12.492253,-99.017375)">
</g>
<g
   id="g1264"
   transform="translate(-12.492253,-99.017375)">
</g>
<g
   id="g1266"
   transform="translate(-12.492253,-99.017375)">
</g>
<g
   id="g1268"
   transform="translate(-12.492253,-99.017375)">
</g>
<g
   id="g1270"
   transform="translate(-12.492253,-99.017375)">
</g>
<g
   id="g1272"
   transform="translate(-12.492253,-99.017375)">
</g>
<g
   id="g1274"
   transform="translate(-12.492253,-99.017375)">
</g>
<g
   id="g1276"
   transform="translate(-12.492253,-99.017375)">
</g>
<g
   id="g1278"
   transform="translate(-12.492253,-99.017375)">
</g>
<g
   id="g1280"
   transform="translate(-12.492253,-99.017375)">
</g>
<g
   id="g1282"
   transform="translate(-12.492253,-99.017375)">
</g>
<g
   id="g1284"
   transform="translate(-12.492253,-99.017375)">
</g>
<g
   id="g1286"
   transform="translate(-12.492253,-99.017375)">
</g>
<g
   id="g1256"
   transform="translate(-7.261,-103.1645)"><g
     id="g1236"><polygon
       style="fill:#ffb819;fill-opacity:0.33606"
       points="7.261,366.636 230.796,262.472 109.313,142.129 "
       id="polygon1222" /><circle
       style="fill:#f6d37f;fill-opacity:1"
       cx="139.46001"
       cy="232.5"
       r="27.121"
       id="circle1224" /><path
       style="fill:#f6d37f;fill-opacity:1"
       d="m 64.791,240.073 c 7.507,0.439 15.158,-2.219 20.866,-7.982 10.454,-10.552 10.455,-27.525 0.076,-38.087 z"
       id="path1226" /><path
       style="fill:#f6d37f;fill-opacity:1"
       d="m 34.985,337.966 c -5.319,5.371 -7.93,12.403 -7.847,19.408 l 44.797,-20.876 c -10.697,-9.221 -26.859,-8.718 -36.95,1.468 z"
       id="path1228" /><path
       style="fill:#f6d37f;fill-opacity:1"
       d="m 142.845,283.129 c -6.434,6.495 -8.903,15.423 -7.436,23.792 l 47.484,-22.127 c -0.534,-0.634 -1.093,-1.252 -1.693,-1.846 -10.641,-10.541 -27.813,-10.46 -38.355,0.181 z"
       id="path1230" /><circle
       style="fill:#f6d37f;fill-opacity:1"
       cx="77.177002"
       cy="286.45099"
       r="27.121"
       id="circle1232" /><polygon
       style="fill:#467e9f;fill-opacity:1"
       points="109.313,142.129 96.306,170.743 202.305,275.748 230.796,262.472 "
       id="polygon1234" /></g></g></svg>
