<svg version="1.1" viewBox="0 0 40.532 40.532" xmlns="http://www.w3.org/2000/svg">
 <g transform="translate(-87.836 -95.692)">
  <g transform="rotate(90 97.51 84.073)">
   <g transform="matrix(.0928 0 0 .0928 109.13 53.215)">
    <path d="m218.38 0c120.61 0 218.38 97.774 218.38 218.38s-97.774 218.38-218.38 218.38-218.38-97.774-218.38-218.38 97.774-218.38 218.38-218.38z" fill="#d8a246" fill-opacity=".99917"/>
    <circle cx="218.38" cy="218.38" r="185.77" fill="#fee265" stroke-width="1.1288"/>
   </g>
   <g transform="matrix(.059686 0 0 .059686 113.71 57.652)">
    <g>
     <path d="m61.411 230.51c-31.357-4.082-53.468-32.812-49.385-64.169l2.582-19.834c2.041-15.679 16.406-26.734 32.085-24.692 15.679 2.041 26.734 16.406 24.692 32.084z" fill="#c06376"/>
     <path d="m167.27 228.5c29.11 12.35 62.721-1.236 75.071-30.346l7.812-18.412c6.175-14.555-0.618-31.36-15.173-37.535s-31.36 0.618-37.536 15.173z" fill="#ad596a"/>
     <path d="m374.21 8.318c0-4.594-3.724-8.318-8.318-8.318h-32.988c-34.562 0-62.579 28.018-62.579 62.579v16.637c0 34.562 28.018 62.579 62.579 62.579h32.988c4.594 0 8.318-3.724 8.318-8.318 0-34.562-28.018-62.579-62.579-62.579 34.561 0 62.579-28.018 62.579-62.58z" fill="#c06376"/>
    </g>
    <g fill="#c06376">
     <path d="m283.24 47.727-11.017-0.484c-1.237 4.908-1.9 10.044-1.9 15.336v16.637c0 5.902 0.835 11.606 2.362 17.019 3.967-1.039 8.048-1.813 12.226-2.301 11.689-1.365 20.503-11.268 20.503-23.036 1e-3 -12.413-9.773-22.626-22.174-23.171z" enable-background="new" opacity=".3"/>
     <path d="m197.44 157.38-30.174 71.121c13.753 5.835 28.508 5.874 41.553 1.229v-47.983c0-15.313 4.545-29.658 12.4-41.7-10.169 0.927-19.512 7.276-23.779 17.333z" enable-background="new" opacity=".3"/>
     <path d="m61.819 128.63c-17.27 24.49-29.709 52.624-35.908 83.006 8.846 10.018 21.206 17.01 35.5 18.871l9.974-76.611c1.283-9.852-2.608-19.183-9.566-25.266z" enable-background="new" opacity=".3"/>
    </g>
    <path d="m196.82 256v-74.257c0-44.859 33.596-82.606 78.152-87.809 11.689-1.365 20.503-11.268 20.503-23.036 0-12.413-9.773-22.625-22.174-23.171l-21.248-0.934c-119.15-5.238-218.61 89.944-218.61 209.21 0 45.114 36.572 81.687 81.687 81.687 45.114 0 81.686-36.573 81.686-81.687z" fill="#e978a0"/>
    <path d="m114.32 244.64c-25.15 0-49.25-26.621-79.596-11.786-0.834 7.597-1.273 15.316-1.273 23.142 0 45.114 36.573 81.687 81.687 81.687s81.687-36.572 81.687-81.687v-21.6c-31.726-18.092-56.556 10.244-82.505 10.244z" fill="#c06376"/>
    <path d="m273.64 47.751c-0.114-7e-3 -0.227-0.018-0.342-0.023l-21.248-0.934c-119.15-5.239-218.61 89.943-218.61 209.21 0 45.114 36.573 81.687 81.687 81.687 5.806 0 11.467-0.616 16.931-1.768-34.808-9.355-60.438-41.116-60.438-78.878-1e-3 -113.68 90.367-205.48 202.02-209.29z" enable-background="new" opacity=".1"/>
    <g fill="#485358">
     <path d="m67.345 293.62c-4.143 0-7.5-3.358-7.5-7.5v-7.797c0-4.142 3.357-7.5 7.5-7.5s7.5 3.358 7.5 7.5v7.797c0 4.142-3.358 7.5-7.5 7.5z"/>
     <path d="m161.29 293.62c-4.142 0-7.5-3.358-7.5-7.5v-7.797c0-4.142 3.358-7.5 7.5-7.5 4.143 0 7.5 3.358 7.5 7.5v7.797c0 4.142-3.357 7.5-7.5 7.5z"/>
    </g>
    <g>
     <path d="m450.59 281.49c31.357 4.083 53.468 32.812 49.385 64.169l-2.582 19.834c-2.041 15.679-16.406 26.734-32.085 24.693-15.678-2.041-26.734-16.406-24.692-32.085z" fill="#4d94ae"/>
     <path d="m344.73 283.5c-29.11-12.35-62.721 1.236-75.071 30.346l-7.812 18.412c-6.175 14.555 0.618 31.36 15.173 37.535s31.36-0.618 37.536-15.173z" fill="#45859d"/>
     <path d="m137.79 503.68c0 4.594 3.724 8.318 8.318 8.318h32.988c34.562 0 62.579-28.018 62.579-62.579v-16.637c0-34.562-28.018-62.579-62.579-62.579h-32.988c-4.594 0-8.318 3.724-8.318 8.318 0 34.562 28.018 62.579 62.579 62.579-34.561 0-62.579 28.018-62.579 62.58z" fill="#4d94ae"/>
    </g>
    <g fill="#51b4db">
     <path d="m228.76 464.27 11.017 0.484c1.237-4.908 1.9-10.044 1.9-15.337v-16.637c0-5.902-0.835-11.606-2.362-17.019-3.967 1.039-8.048 1.813-12.226 2.301-11.689 1.365-20.503 11.268-20.503 23.036 0 12.414 9.774 22.627 22.174 23.172z" enable-background="new" opacity=".3"/>
     <path d="m314.56 354.62 30.174-71.121c-13.753-5.835-28.508-5.874-41.553-1.229v47.983c0 15.313-4.545 29.658-12.4 41.7 10.169-0.927 19.512-7.275 23.779-17.333z" enable-background="new" opacity=".3"/>
     <path d="m450.18 383.37c17.27-24.49 29.709-52.624 35.908-83.006-8.846-10.018-21.206-17.01-35.5-18.871l-9.974 76.611c-1.283 9.852 2.608 19.183 9.566 25.266z" enable-background="new" opacity=".3"/>
     <path d="m315.18 256v74.257c0 44.859-33.596 82.606-78.152 87.809-11.689 1.365-20.503 11.268-20.503 23.036 0 12.413 9.773 22.625 22.174 23.171l21.248 0.934c119.15 5.238 218.61-89.944 218.61-209.21 0-45.114-36.572-81.687-81.687-81.687-45.114 0-81.686 36.573-81.686 81.687z"/>
    </g>
    <path d="m397.68 267.36c25.15 0 49.25 26.621 79.596 11.786 0.834-7.597 1.273-15.316 1.273-23.142 0-45.114-36.573-81.687-81.687-81.687s-81.687 36.572-81.687 81.687v21.6c31.726 18.092 56.556-10.244 82.505-10.244z" fill="#4d94ae"/>
    <path d="m396.86 174.31c-45.114 0-81.687 36.572-81.687 81.687v74.257c0 44.859-33.596 82.607-78.152 87.809-11.689 1.365-20.503 11.268-20.503 23.036 0 12.413 9.773 22.625 22.174 23.171l6.743 0.296c-0.298-0.282-0.607-0.716-1.137-0.881-12.823-3.997-17.636-28.747 4.46-28.747s106.85-27.273 101.95-125.32c-5.881-117.65 23.55-123.51 46.155-135.31z" enable-background="new" opacity=".1"/>
    <g fill="#485358">
     <path d="m444.66 241.18c-4.143 0-7.5-3.358-7.5-7.5v-7.797c0-4.142 3.357-7.5 7.5-7.5s7.5 3.358 7.5 7.5v7.797c0 4.142-3.357 7.5-7.5 7.5z"/>
     <path d="m350.71 241.18c-4.143 0-7.5-3.358-7.5-7.5v-7.797c0-4.142 3.357-7.5 7.5-7.5s7.5 3.358 7.5 7.5v7.797c0 4.142-3.357 7.5-7.5 7.5z"/>
    </g>
   </g>
   <path d="m138.45 72.614c-0.043 1.1004-0.11095 2.2254-0.29657 3.3573-0.18515 1.1292-0.49528 2.2719-1.0212 3.3328-0.26327 0.52905-0.5793 1.0342-0.94297 1.4992-0.36337 0.46543-0.77376 0.89003-1.2162 1.2684-0.88454 0.76213-1.8955 1.3212-2.928 1.7631-0.25731 0.11012-0.55514-0.0092-0.66526-0.2665-0.10463-0.24441-2e-3 -0.52547 0.22896-0.64735l9e-3 -0.0046c0.92393-0.48405 1.7898-1.0614 2.4975-1.7771 0.71204-0.71038 1.2637-1.5459 1.6313-2.4626 0.36791-0.91808 0.55968-1.9098 0.6458-2.9287 0.0865-1.0201 0.0705-2.0676 0.0284-3.1342-0.0221-0.56039 0.41428-1.0326 0.97461-1.0547 0.56039-0.02214 1.0326 0.41422 1.0547 0.97461 1e-3 0.02596 1e-3 0.05181 1.8e-4 0.07735z" fill="#88dedc" stroke-width=".059686"/>
   <path d="m119.6 73.049c0.043-1.1004 0.11096-2.2254 0.29658-3.3573 0.18514-1.1292 0.49527-2.2719 1.0212-3.3328 0.26327-0.52905 0.57931-1.0342 0.94297-1.4992 0.36337-0.46543 0.77377-0.89003 1.2162-1.2684 0.88454-0.76213 1.8955-1.3212 2.928-1.7631 0.25731-0.11012 0.55514 0.0092 0.66526 0.2665 0.10463 0.24441 2e-3 0.52547-0.22895 0.64735l-9e-3 0.0046c-0.92393 0.48405-1.7898 1.0614-2.4975 1.7771-0.71205 0.71038-1.2637 1.5459-1.6313 2.4626-0.3679 0.91808-0.55967 1.9098-0.6458 2.9287-0.0865 1.0201-0.0705 2.0676-0.0284 3.1342 0.0221 0.56039-0.41422 1.0326-0.9746 1.0547-0.56039 0.02214-1.0326-0.41422-1.0547-0.97461-1e-3 -0.02596-1e-3 -0.05181-1.8e-4 -0.07735z" fill="#f0bdd5" stroke-width=".059686"/>
  </g>
 </g>
</svg>
