<?xml version="1.0" encoding="UTF-8" standalone="no"?>
<!-- Created with Inkscape (http://www.inkscape.org/) -->

<svg
   width="40.532047mm"
   height="40.532047mm"
   viewBox="0 0 40.532047 40.532047"
   version="1.1"
   id="svg1936"
   inkscape:version="1.1 (c4e8f9ed74, 2021-05-24)"
   sodipodi:docname="koin.svg"
   xmlns:inkscape="http://www.inkscape.org/namespaces/inkscape"
   xmlns:sodipodi="http://sodipodi.sourceforge.net/DTD/sodipodi-0.dtd"
   xmlns="http://www.w3.org/2000/svg"
   xmlns:svg="http://www.w3.org/2000/svg">
  <sodipodi:namedview
     id="namedview1938"
     pagecolor="#ffffff"
     bordercolor="#666666"
     borderopacity="1.0"
     inkscape:pageshadow="2"
     inkscape:pageopacity="0.0"
     inkscape:pagecheckerboard="0"
     inkscape:document-units="mm"
     showgrid="false"
     inkscape:zoom="0.77058782"
     inkscape:cx="64.236676"
     inkscape:cy="199.19858"
     inkscape:window-width="926"
     inkscape:window-height="996"
     inkscape:window-x="965"
     inkscape:window-y="55"
     inkscape:window-maximized="1"
     inkscape:current-layer="layer1" />
  <defs
     id="defs1933" />
  <g
     inkscape:label="Layer 1"
     inkscape:groupmode="layer"
     id="layer1"
     transform="translate(-87.835636,-95.69176)">
    <g
       id="g19784"
       transform="rotate(90,97.509663,84.072853)">
      <g
         id="g2065-3-6"
         transform="matrix(0.09279995,0,0,0.09279995,109.12857,53.214831)">
        <g
           id="g2033-6-9">
          <path
             style="fill:#d8a246;fill-opacity:0.999169"
             d="m 218.384,0 c 120.61,0 218.384,97.774 218.384,218.384 0,120.61 -97.774,218.384 -218.384,218.384 C 97.774,436.768 0,338.994 0,218.384 0,97.774 97.774,0 218.384,0 c 0,0 0,0 0,0 z"
             id="path2027-7-3" />
          <circle
             style="fill:#fee265;fill-opacity:1;stroke-width:1.12879"
             cx="218.384"
             cy="218.384"
             r="185.76671"
             id="circle2029-5-7" />
        </g>
        <g
           id="g2035-3-4" />
        <g
           id="g2037-5-5" />
        <g
           id="g2039-6-2" />
        <g
           id="g2041-2-5" />
        <g
           id="g2043-9-4" />
        <g
           id="g2045-1-7" />
        <g
           id="g2047-2-4" />
        <g
           id="g2049-7-4" />
        <g
           id="g2051-0-3" />
        <g
           id="g2053-9-0" />
        <g
           id="g2055-3-7" />
        <g
           id="g2057-6-8" />
        <g
           id="g2059-0-6" />
        <g
           id="g2061-6-8" />
        <g
           id="g2063-2-8" />
      </g>
      <g
         id="g19716">
        <g
           id="g1699-6-4"
           transform="matrix(0.05968563,0,0,0.05968563,113.71197,57.651571)">
          <g
             id="g1565-1-3">
            <path
               style="fill:#c06376;fill-opacity:1"
               d="m 61.411,230.509 v 0 C 30.054,226.427 7.943,197.697 12.026,166.34 l 2.582,-19.834 c 2.041,-15.679 16.406,-26.734 32.085,-24.692 v 0 c 15.679,2.041 26.734,16.406 24.692,32.084 z"
               id="path1559-8-1" />
            <path
               style="fill:#ad596a;fill-opacity:1"
               d="m 167.269,228.498 v 0 c 29.11,12.35 62.721,-1.236 75.071,-30.346 l 7.812,-18.412 c 6.175,-14.555 -0.618,-31.36 -15.173,-37.535 v 0 c -14.555,-6.175 -31.36,0.618 -37.536,15.173 z"
               id="path1561-7-4" />
            <path
               style="fill:#c06376;fill-opacity:1"
               d="m 374.206,8.318 v 0 C 374.206,3.724 370.482,0 365.888,0 H 332.9 c -34.562,0 -62.579,28.018 -62.579,62.579 v 16.637 c 0,34.562 28.018,62.579 62.579,62.579 h 32.988 c 4.594,0 8.318,-3.724 8.318,-8.318 v 0 c 0,-34.562 -28.018,-62.579 -62.579,-62.579 34.561,0 62.579,-28.018 62.579,-62.58 z"
               id="path1563-9-9" />
          </g>
          <g
             id="g1573-2-2">
            <path
               style="opacity:0.3;fill:#c06376;enable-background:new"
               d="M 283.237,47.727 272.22,47.243 c -1.237,4.908 -1.9,10.044 -1.9,15.336 v 16.637 c 0,5.902 0.835,11.606 2.362,17.019 3.967,-1.039 8.048,-1.813 12.226,-2.301 11.689,-1.365 20.503,-11.268 20.503,-23.036 v 0 c 10e-4,-12.413 -9.773,-22.626 -22.174,-23.171 z"
               id="path1567-0-0" />
            <path
               style="opacity:0.3;fill:#c06376;enable-background:new"
               d="m 197.443,157.377 -30.174,71.121 v 0 c 13.753,5.835 28.508,5.874 41.553,1.229 v -47.983 c 0,-15.313 4.545,-29.658 12.4,-41.7 -10.169,0.927 -19.512,7.276 -23.779,17.333 z"
               id="path1569-2-6" />
            <path
               style="opacity:0.3;fill:#c06376;enable-background:new"
               d="m 61.819,128.632 c -17.27,24.49 -29.709,52.624 -35.908,83.006 8.846,10.018 21.206,17.01 35.5,18.871 l 9.974,-76.611 c 1.283,-9.852 -2.608,-19.183 -9.566,-25.266 z"
               id="path1571-3-8" />
          </g>
          <path
             style="fill:#e978a0"
             d="m 196.822,256 v -74.257 c 0,-44.859 33.596,-82.606 78.152,-87.809 v 0 c 11.689,-1.365 20.503,-11.268 20.503,-23.036 v 0 c 0,-12.413 -9.773,-22.625 -22.174,-23.171 L 252.055,46.793 C 132.907,41.555 33.449,136.737 33.449,256 v 0 c 0,45.114 36.572,81.687 81.687,81.687 45.114,0 81.686,-36.573 81.686,-81.687 z"
             id="path1575-7-9" />
          <path
             style="fill:#c06376"
             d="m 114.317,244.643 c -25.15,0 -49.25,-26.621 -79.596,-11.786 -0.834,7.597 -1.273,15.316 -1.273,23.142 v 0 c 0,45.114 36.573,81.687 81.687,81.687 45.114,0 81.687,-36.572 81.687,-81.687 v -21.6 c -31.726,-18.092 -56.556,10.244 -82.505,10.244 z"
             id="path1577-5-2" />
          <path
             style="opacity:0.1;enable-background:new"
             d="m 273.645,47.751 c -0.114,-0.007 -0.227,-0.018 -0.342,-0.023 L 252.055,46.794 C 132.907,41.555 33.449,136.737 33.449,256 v 0 c 0,45.114 36.573,81.687 81.687,81.687 5.806,0 11.467,-0.616 16.931,-1.768 -34.808,-9.355 -60.438,-41.116 -60.438,-78.878 v 0 C 71.628,143.359 161.996,51.557 273.645,47.751 Z"
             id="path1579-9-6" />
          <g
             id="g1585-2-6">
            <path
               style="fill:#485358"
               d="m 67.345,293.62 c -4.143,0 -7.5,-3.358 -7.5,-7.5 v -7.797 c 0,-4.142 3.357,-7.5 7.5,-7.5 4.143,0 7.5,3.358 7.5,7.5 v 7.797 c 0,4.142 -3.358,7.5 -7.5,7.5 z"
               id="path1581-2-4" />
            <path
               style="fill:#485358"
               d="m 161.29,293.62 c -4.142,0 -7.5,-3.358 -7.5,-7.5 v -7.797 c 0,-4.142 3.358,-7.5 7.5,-7.5 4.143,0 7.5,3.358 7.5,7.5 v 7.797 c 0,4.142 -3.357,7.5 -7.5,7.5 z"
               id="path1583-8-9" />
          </g>
          <g
             id="g1595-7-5">
            <path
               style="fill:#4d94ae;fill-opacity:1"
               d="m 450.589,281.491 v 0 c 31.357,4.083 53.468,32.812 49.385,64.169 l -2.582,19.834 c -2.041,15.679 -16.406,26.734 -32.085,24.693 v 0 c -15.678,-2.041 -26.734,-16.406 -24.692,-32.085 z"
               id="path1589-3-0" />
            <path
               style="fill:#45859d;fill-opacity:1"
               d="m 344.731,283.502 v 0 c -29.11,-12.35 -62.721,1.236 -75.071,30.346 l -7.812,18.412 c -6.175,14.555 0.618,31.36 15.173,37.535 v 0 c 14.555,6.175 31.36,-0.618 37.536,-15.173 z"
               id="path1591-6-4" />
            <path
               style="fill:#4d94ae;fill-opacity:1"
               d="m 137.794,503.682 v 0 c 0,4.594 3.724,8.318 8.318,8.318 H 179.1 c 34.562,0 62.579,-28.018 62.579,-62.579 v -16.637 c 0,-34.562 -28.018,-62.579 -62.579,-62.579 h -32.988 c -4.594,0 -8.318,3.724 -8.318,8.318 v 0 c 0,34.562 28.018,62.579 62.579,62.579 -34.561,0 -62.579,28.018 -62.579,62.58 z"
               id="path1593-1-8" />
          </g>
          <g
             id="g1605-2-7">
            <path
               style="opacity:0.3;fill:#51b4db;enable-background:new"
               d="m 228.762,464.273 11.017,0.484 c 1.237,-4.908 1.9,-10.044 1.9,-15.337 v -16.637 c 0,-5.902 -0.835,-11.606 -2.362,-17.019 -3.967,1.039 -8.048,1.813 -12.226,2.301 -11.689,1.365 -20.503,11.268 -20.503,23.036 v 0 c 0,12.414 9.774,22.627 22.174,23.172 z"
               id="path1597-9-1" />
            <path
               style="opacity:0.3;fill:#51b4db;enable-background:new"
               d="m 314.557,354.623 30.174,-71.121 v 0 c -13.753,-5.835 -28.508,-5.874 -41.553,-1.229 v 47.983 c 0,15.313 -4.545,29.658 -12.4,41.7 10.169,-0.927 19.512,-7.275 23.779,-17.333 z"
               id="path1599-3-7" />
            <path
               style="opacity:0.3;fill:#51b4db;enable-background:new"
               d="m 450.181,383.368 c 17.27,-24.49 29.709,-52.624 35.908,-83.006 -8.846,-10.018 -21.206,-17.01 -35.5,-18.871 l -9.974,76.611 c -1.283,9.852 2.608,19.183 9.566,25.266 z"
               id="path1601-1-2" />
            <path
               style="fill:#51b4db"
               d="m 315.178,256 v 74.257 c 0,44.859 -33.596,82.606 -78.152,87.809 v 0 c -11.689,1.365 -20.503,11.268 -20.503,23.036 v 0 c 0,12.413 9.773,22.625 22.174,23.171 l 21.248,0.934 C 379.093,470.445 478.551,375.263 478.551,256 v 0 c 0,-45.114 -36.572,-81.687 -81.687,-81.687 -45.114,0 -81.686,36.573 -81.686,81.687 z"
               id="path1603-9-7" />
          </g>
          <path
             style="fill:#4d94ae"
             d="m 397.683,267.357 c 25.15,0 49.25,26.621 79.596,11.786 0.834,-7.597 1.273,-15.316 1.273,-23.142 v 0 c 0,-45.114 -36.573,-81.687 -81.687,-81.687 -45.114,0 -81.687,36.572 -81.687,81.687 v 21.6 c 31.726,18.092 56.556,-10.244 82.505,-10.244 z"
             id="path1607-4-2" />
          <path
             style="opacity:0.1;enable-background:new"
             d="m 396.865,174.313 c -45.114,0 -81.687,36.572 -81.687,81.687 v 74.257 c 0,44.859 -33.596,82.607 -78.152,87.809 v 0 c -11.689,1.365 -20.503,11.268 -20.503,23.036 v 0 c 0,12.413 9.773,22.625 22.174,23.171 l 6.743,0.296 c -0.298,-0.282 -0.607,-0.716 -1.137,-0.881 -12.823,-3.997 -17.636,-28.747 4.46,-28.747 22.096,0 106.849,-27.273 101.947,-125.322 -5.881,-117.647 23.55,-123.512 46.155,-135.306 z"
             id="path1609-7-2" />
          <g
             id="g1615-8-6">
            <path
               style="fill:#485358"
               d="m 444.655,241.177 c -4.143,0 -7.5,-3.358 -7.5,-7.5 v -7.797 c 0,-4.142 3.357,-7.5 7.5,-7.5 4.143,0 7.5,3.358 7.5,7.5 v 7.797 c 0,4.142 -3.357,7.5 -7.5,7.5 z"
               id="path1611-4-1" />
            <path
               style="fill:#485358"
               d="m 350.71,241.177 c -4.143,0 -7.5,-3.358 -7.5,-7.5 v -7.797 c 0,-4.142 3.357,-7.5 7.5,-7.5 4.143,0 7.5,3.358 7.5,7.5 v 7.797 c 0,4.142 -3.357,7.5 -7.5,7.5 z"
               id="path1613-5-0" />
          </g>
          <g
             id="g1619-3-6" />
          <g
             id="g1621-6-1" />
          <g
             id="g1623-1-5" />
          <g
             id="g1625-0-9" />
          <g
             id="g1627-6-4" />
          <g
             id="g1629-3-9" />
          <g
             id="g1631-2-0" />
          <g
             id="g1633-0-9" />
          <g
             id="g1635-6-1" />
          <g
             id="g1637-1-7" />
          <g
             id="g1639-5-7" />
          <g
             id="g1641-5-1" />
          <g
             id="g1643-4-1" />
          <g
             id="g1645-7-5" />
          <g
             id="g1647-6-9" />
        </g>
        <path
           style="fill:#88dedc;stroke-width:0.0596856"
           d="m 138.45066,72.613734 c -0.043,1.100364 -0.11095,2.225379 -0.29657,3.357316 -0.18515,1.129193 -0.49528,2.271874 -1.02117,3.332846 -0.26327,0.529053 -0.5793,1.034173 -0.94297,1.499243 -0.36337,0.465429 -0.77376,0.890033 -1.21615,1.268439 -0.88454,0.762126 -1.8955,1.321202 -2.928,1.763054 -0.25731,0.11012 -0.55514,-0.0092 -0.66526,-0.266496 -0.10463,-0.244413 -0.002,-0.525472 0.22896,-0.64735 l 0.009,-0.0046 c 0.92393,-0.484051 1.78979,-1.061449 2.49749,-1.77708 0.71204,-0.710379 1.26366,-1.545858 1.63132,-2.46257 0.36791,-0.918084 0.55968,-1.90982 0.6458,-2.928654 0.0865,-1.020147 0.0705,-2.06757 0.0284,-3.134152 -0.0221,-0.560389 0.41428,-1.032562 0.97461,-1.054705 0.56039,-0.02214 1.03256,0.414218 1.0547,0.974607 0.001,0.02596 0.001,0.05181 1.8e-4,0.07735 z"
           id="path1617-7" />
        <path
           style="fill:#f0bdd5;stroke-width:0.0596856"
           d="m 119.59923,73.049297 c 0.043,-1.100365 0.11096,-2.225379 0.29658,-3.357317 0.18514,-1.129192 0.49527,-2.271874 1.02116,-3.332846 0.26327,-0.529053 0.57931,-1.034172 0.94297,-1.499243 0.36337,-0.465428 0.77377,-0.890032 1.21616,-1.268439 0.88454,-0.762126 1.89549,-1.321201 2.92799,-1.763054 0.25731,-0.11012 0.55514,0.0092 0.66526,0.266497 0.10463,0.244412 0.002,0.525472 -0.22895,0.64735 l -0.009,0.0046 c -0.92393,0.48405 -1.78979,1.061449 -2.49748,1.77708 -0.71205,0.710378 -1.26366,1.545858 -1.63133,2.462569 -0.3679,0.918085 -0.55967,1.909821 -0.6458,2.928655 -0.0865,1.020146 -0.0705,2.06757 -0.0284,3.134152 0.0221,0.560388 -0.41422,1.032561 -0.9746,1.054705 -0.56039,0.02214 -1.03256,-0.414219 -1.05471,-0.974607 -0.001,-0.02596 -0.001,-0.05181 -1.8e-4,-0.07735 z"
           id="path1587-7" />
      </g>
    </g>
  </g>
</svg>
