<svg id="Capa_1" enable-background="new 0 0 512 512" height="512" viewBox="0 0 512 512" width="512" xmlns="http://www.w3.org/2000/svg"><g><path d="m119.455 468.733c-26.96 0-48.816-21.855-48.816-48.816v-106.715h97.632v106.715c0 26.96-21.856 48.816-48.816 48.816z" fill="#6ad7d4"/><path d="m301.245 505.676c-29.21 0-52.889-23.679-52.889-52.888v-139.586h105.777v139.586c0 29.209-23.679 52.888-52.888 52.888z" fill="#6ad7d4"/><ellipse cx="256" cy="141.248" fill="#efedff" rx="164.866" ry="134.924"/><path d="m208.289 12.07c-67.787 16.746-117.155 68.24-117.155 129.178 0 72.419 69.719 131.505 157.222 134.775v-100.833c-79.712-3.981-82.389-124.781-40.067-163.12z" fill="#d4d4ff"/><g><g fill="#eda1ab"><ellipse cx="174.042" cy="105.026" rx="30.241" ry="24.082"/><ellipse cx="337.958" cy="105.026" rx="30.241" ry="24.082"/></g><g fill="#565e75"><path d="m283.298 119.029c-2.373 0-4.706-1.123-6.164-3.218-5.463-7.854-13.166-12.358-21.134-12.358s-15.671 4.504-21.134 12.358c-2.365 3.399-7.04 4.237-10.439 1.874-3.4-2.366-4.24-7.04-1.874-10.44 8.307-11.942 20.498-18.792 33.447-18.792 12.948 0 25.14 6.85 33.448 18.792 2.365 3.4 1.526 8.074-1.874 10.44-1.305.908-2.799 1.344-4.276 1.344z"/><path d="m189.422 91.159c-8.895 0-17.354-3.853-23.208-10.569-2.721-3.123-2.396-7.86.727-10.582 3.124-2.721 7.86-2.396 10.582.727 3.004 3.447 7.341 5.425 11.899 5.425 4.557 0 8.894-1.978 11.898-5.425 2.721-3.123 7.458-3.447 10.582-.727 3.123 2.722 3.448 7.459.727 10.582-5.854 6.717-14.313 10.569-23.207 10.569z"/><path d="m322.578 91.159c-8.896 0-17.354-3.853-23.207-10.57-2.722-3.122-2.396-7.86.727-10.581 3.122-2.721 7.86-2.396 10.581.728 3.004 3.446 7.341 5.424 11.898 5.424 4.558 0 8.895-1.978 11.898-5.424 2.72-3.124 7.459-3.449 10.581-.728 3.123 2.721 3.449 7.459.728 10.581-5.852 6.718-14.31 10.57-23.206 10.57z"/></g></g><path d="m70.639 409.971c13.705 2.145 28.166.631 41.91-5.222 17.965-7.651 35.837-14.159 55.721-19.029v-72.517h-97.631z" fill="#5abfd6"/><path d="m248.356 376.197c2.514-.038 5.052-.064 7.644-.064 17.926 0 34.441.929 50.105 2.829v37.111c0 28.806 14.527 54.274 36.63 69.494 7.13-9.013 11.399-20.394 11.399-32.779v-139.586h-105.778z" fill="#5abfd6"/><path d="m470.938 191.728c-56.548-22.508-122.04-39.863-214.938-39.863s-158.39 17.356-214.938 39.864c-34.849 13.871-50.81 54.23-34.864 88.18l34.633 73.734c10.515 22.386 36.855 32.362 59.61 22.672 42.236-17.987 86.736-31.086 155.56-31.086 25.691 0 47.986 1.83 68.044 5.055 7.467 1.201 12.967 7.622 12.967 15.185v50.605c0 29.507 23.92 53.427 53.426 53.427 29.507 0 53.426-23.92 53.426-53.427v-27.976c0-5.868 3.278-11.159 8.387-14.044 8.004-4.519 14.722-11.476 18.918-20.411l34.633-73.734c15.947-33.95-.015-74.31-34.864-88.181z" fill="#8ee2e1"/><g><g><path d="m98.619 322.949-32.219-88.521c-1.417-3.893.59-8.196 4.483-9.613 3.892-1.416 8.196.591 9.613 4.482l29.681 81.549c6.627-2.407 16.799-6.154 23.909-8.787 3.882-1.44 8.199.545 9.638 4.429 1.438 3.884-.544 8.199-4.429 9.638-30.601 11.332-31.498 11.495-32.29 11.639-3.647.656-7.152-1.428-8.386-4.816z" fill="#fff"/></g><path d="m441.117 226.175-36.989-13.463c-3.897-1.415-8.197.591-9.613 4.482l-31.952 87.786c-1.415 3.891.591 8.196 4.482 9.613l36.99 13.463c3.934 1.429 8.211-.629 9.613-4.482 1.417-3.893-.591-8.196-4.482-9.613l-29.942-10.897 10.846-29.798 27.214 9.905c3.931 1.428 8.21-.627 9.613-4.482 1.417-3.893-.59-8.196-4.482-9.613l-27.215-9.906 10.845-29.797 29.941 10.897c3.897 1.417 8.196-.592 9.613-4.482 1.418-3.892-.59-8.196-4.482-9.613z" fill="#fff"/><g><path d="m306.333 299.211c-14.669-1.283-28.439-8.657-36.834-19.725-2.503-3.3-1.857-8.004 1.443-10.508 3.3-2.501 8.004-1.856 10.508 1.443 5.879 7.75 15.67 12.927 26.189 13.847 11.761 1.032 20.021-5.619 21.852-12.394 1.903-7.041-3.02-13.914-13.505-18.859-7.253-3.42-25.807-12.798-27.783-14.352-17.571-13.778-11.062-42.553 13.773-47.726 24.093-5.019 42.094 12.681 42.849 13.436 2.927 2.932 2.923 7.68-.009 10.607-2.924 2.921-7.654 2.921-10.584.014-.206-.2-13.203-12.702-29.197-9.371-12.311 2.562-14.855 14.987-7.987 20.898 2.584 1.417 13.493 7.342 25.337 12.926 13.469 6.352 26.212 19.233 21.588 36.34-3.918 14.494-19.762 24.991-37.64 23.424z" fill="#fff"/></g><path d="m196.109 299.323c-30.129 0-54.641-24.512-54.641-54.641s24.512-54.641 54.641-54.641 54.641 24.512 54.641 54.641-24.512 54.641-54.641 54.641zm0-94.281c-21.858 0-39.641 17.783-39.641 39.641s17.783 39.641 39.641 39.641 39.641-17.783 39.641-39.641-17.783-39.641-39.641-39.641z" fill="#fff"/></g></g></svg>