<svg width="27.097mm" height="22.638mm" version="1.1" viewBox="0 0 27.097 22.638" xmlns="http://www.w3.org/2000/svg">
 <g id="XMLID_806_" transform="matrix(-516.77 0 0 0 132285 -5.9459)">
  <g id="XMLID_386_">
   <path id="XMLID_389_" d="m511 279.65c-4.597-46.238-25.254-89.829-58.168-122.74-28.128-28.127-62.556-46.202-98.782-54.239v-25.408c14.796-3.681 25.794-17.074 25.794-32.993 0-18.748-15.252-34-34-34h-72c-18.748 0-34 15.252-34 34 0 15.918 10.998 29.311 25.793 32.993v25.479c-36.115 8.071-70.429 26.121-98.477 54.169-6.138 6.138-11.798 12.577-16.979 19.269-0.251-0.019-0.502-0.038-0.758-0.038h-71.261c-5.522 0-10 4.477-10 10s4.478 10 10 10h58.412c-7.332 12.275-13.244 25.166-17.744 38.436h-108.84c-5.522 0-10 4.477-10 10s4.478 10 10 10h103.18c-2.882 12.651-4.536 25.526-4.963 38.437h-44.221c-5.522 0-10 4.477-10 10s4.478 10 10 10h44.54c0.844 12.944 2.925 25.82 6.244 38.437h-64.784c-5.522 0-10 4.477-10 10s4.478 10 10 10h71.166c9.81 25.951 25.141 50.274 45.999 71.132 32.946 32.946 76.582 53.608 122.87 58.181 6.606 0.652 13.217 0.975 19.819 0.975 39.022 0 77.548-11.293 110.24-32.581 4.628-3.014 5.937-9.209 2.923-13.837s-9.209-5.937-13.837-2.923c-71.557 46.597-167.39 36.522-227.87-23.957-70.962-70.962-70.962-186.42 0-257.39 70.961-70.961 186.42-70.961 257.39 0 60.399 60.4 70.529 156.15 24.086 227.67-3.008 4.632-1.691 10.826 2.94 13.833 4.634 3.008 10.826 1.691 13.833-2.941 24.814-38.215 35.984-84.37 31.452-129.96zm-251.16-235.38c0-7.72 6.28-14 14-14h72c7.72 0 14 6.28 14 14s-6.28 14-14 14h-72c-7.72 0-14-6.281-14-14zm25.793 55.033v-21.033h48.413v20.997c-16.076-1.912-32.34-1.9-48.413 0.036z"/>
   <path id="XMLID_391_" d="m445.77 425.5c-2.64 0-5.21 1.07-7.069 2.93-1.87 1.86-2.931 4.44-2.931 7.07s1.061 5.21 2.931 7.07c1.859 1.87 4.43 2.93 7.069 2.93 2.63 0 5.2-1.06 7.07-2.93 1.86-1.86 2.93-4.44 2.93-7.07s-1.069-5.21-2.93-7.07c-1.87-1.86-4.441-2.93-7.07-2.93z"/>
   <path id="XMLID_394_" d="m310 144.61c-85.538 0-155.13 69.59-155.13 155.13s69.591 155.13 155.13 155.13 155.13-69.59 155.13-155.13-69.591-155.13-155.13-155.13zm0 290.26c-74.511 0-135.13-60.619-135.13-135.13s60.618-135.13 135.13-135.13 135.13 60.619 135.13 135.13-60.618 135.13-135.13 135.13z"/>
   <path id="XMLID_397_" d="m373.26 222.34-49.53 49.529c-4.142-2.048-8.801-3.205-13.726-3.205-4.926 0-9.584 1.157-13.726 3.205l-22.167-22.167c-3.906-3.905-10.236-3.905-14.143 0-3.905 3.905-3.905 10.237 0 14.142l22.167 22.167c-2.049 4.142-3.205 8.801-3.205 13.726 0 17.134 13.939 31.074 31.074 31.074s31.074-13.94 31.074-31.074c0-4.925-1.157-9.584-3.205-13.726l49.529-49.529c3.905-3.905 3.905-10.237 0-14.142s-10.235-3.905-14.142 0zm-63.256 88.472c-6.106 0-11.074-4.968-11.074-11.074s4.968-11.074 11.074-11.074 11.074 4.968 11.074 11.074-4.968 11.074-11.074 11.074z"/>
   <path id="XMLID_398_" d="m416.92 289.86h-9.265c-5.522 0-10 4.477-10 10s4.478 10 10 10h9.265c5.522 0 10-4.477 10-10s-4.478-10-10-10z"/>
   <path id="XMLID_399_" d="m212.35 289.62h-9.264c-5.522 0-10 4.477-10 10s4.478 10 10 10h9.264c5.522 0 10-4.477 10-10s-4.478-10-10-10z"/>
   <path id="XMLID_400_" d="m310.12 212.08c5.522 0 10-4.477 10-10v-9.264c0-5.523-4.478-10-10-10s-10 4.477-10 10v9.264c0 5.523 4.478 10 10 10z"/>
   <path id="XMLID_424_" d="m309.88 387.39c-5.522 0-10 4.477-10 10v9.264c0 5.523 4.478 10 10 10s10-4.477 10-10v-9.264c0-5.523-4.478-10-10-10z"/>
   <path id="XMLID_425_" d="m10 351.44c-2.63 0-5.21 1.07-7.07 2.93s-2.93 4.44-2.93 7.07c0 2.64 1.069 5.21 2.93 7.07s4.44 2.93 7.07 2.93 5.21-1.07 7.069-2.93c1.86-1.86 2.931-4.44 2.931-7.07s-1.07-5.21-2.931-7.07c-1.859-1.86-4.439-2.93-7.069-2.93z"/>
  </g>
 </g>
 <g transform="scale(.052924)" style="fill:#2d3748">
  <path d="m457.73 427.74c-4.1797 0-8.0117-2.6875-9.4141-6.6289-1.3789-3.8672-0.21485-8.3398 2.9375-10.992 3.2969-2.7734 8.082-3.1211 11.75-0.86328 3.4023 2.0977 5.2305 6.1797 4.5859 10.121-0.78125 4.7656-5.0391 8.3633-9.8594 8.3633z" style="fill:#2d3748"/>
  <path d="m256 370.64c-5.5234 0-10-4.4766-10-10v-75.027c0-5.5234 4.4766-10 10-10s10 4.4766 10 10v75.027c0 5.5234-4.4766 10-10 10z" style="fill:#2d3748"/>
  <path d="m502 242.72h-144.01v-26.668c0-5.5234-4.4766-10-10-10h-183.98c-5.5234 0-10 4.4766-10 10v53.297h-144.01c-5.5234 0-10 4.4766-10 10v138.39c0 5.5234 4.4766 10 10 10h402.68c5.5234 0 10-4.4766 10-10 0-5.5234-4.4766-10-10-10h-54.695v-145.02h134.01v155.02c0 5.5234 4.4766 10 10 10s10-4.4766 10-10v-165.02c0-5.5234-4.4766-10-10-10zm-482 46.629h134.01v118.39h-134.01zm154.01-63.297h163.98v181.69h-163.98z" style="fill:#2d3748"/>
  <path d="m109.77 217.42c-2.1445 0-4.3047-0.42187-6.3672-1.2773l-16.395-6.793-16.398 6.793c-5.3594 2.2227-11.367 1.5117-16.062-1.8984-4.6992-3.4141-7.2305-8.9062-6.7734-14.691l1.3984-17.695-11.531-13.496c-3.7734-4.4141-4.9531-10.344-3.1602-15.863 1.7969-5.5234 6.2344-9.6289 11.883-10.98l17.258-4.1406 9.2734-15.137c3.0312-4.9492 8.3086-7.9024 14.113-7.9024 5.8047 0 11.082 2.9531 14.113 7.9024l9.2695 15.137 17.262 4.1406c5.6445 1.3516 10.086 5.457 11.879 10.98 1.793 5.5195 0.61328 11.449-3.1562 15.863l-11.527 13.496 1.3945 17.695c0.45703 5.7852-2.0742 11.277-6.7734 14.691-2.8906 2.0977-6.2773 3.1758-9.6992 3.1758zm-53.266-57.77 10.562 12.367c1.7227 2.0156 2.5742 4.6367 2.3672 7.2812l-1.2812 16.211 15.023-6.2266c2.4531-1.0156 5.207-1.0156 7.6562 0l15.023 6.2266-1.2773-16.211c-0.20704-2.6445 0.64453-5.2656 2.3672-7.2812l10.562-12.367-15.812-3.793c-2.582-0.61718-4.8086-2.2383-6.1953-4.5l-8.4961-13.867-8.4922 13.867c-1.3867 2.2617-3.6172 3.8828-6.1953 4.5zm66.48 1.3164h8e-3z" style="fill:#2d3748"/>
  <path d="m402.23 217.42c-3.4258 0-6.8125-1.0781-9.7031-3.1758-4.6953-3.4141-7.2266-8.9062-6.7695-14.691l1.3945-17.695-11.527-13.492c-3.7734-4.418-4.9531-10.348-3.1562-15.867 1.793-5.5234 6.2344-9.6289 11.879-10.98l17.258-4.1406 9.2734-15.137c3.0312-4.9492 8.3086-7.9024 14.109-7.9024 5.8086-4e-3 11.082 2.9531 14.117 7.9024v4e-3l9.2734 15.133 17.258 4.1406c5.6445 1.3555 10.086 5.4609 11.879 10.98 1.7969 5.5234 0.61328 11.453-3.1562 15.867l-11.527 13.492 1.3945 17.695c0.45703 5.7891-2.0742 11.281-6.7695 14.691-4.6992 3.4102-10.703 4.1211-16.066 1.8984l-16.398-6.793-16.395 6.793c-2.0664 0.85547-4.2266 1.2773-6.3672 1.2773zm22.758-28.898c1.3047 0 2.6055 0.2539 3.8281 0.76172l15.027 6.2266-1.2812-16.211c-0.20703-2.6445 0.64453-5.2656 2.3672-7.2812l10.562-12.367-15.812-3.793c-2.582-0.61718-4.8086-2.2383-6.1953-4.5l-8.4961-13.871-8.4922 13.871c-1.3867 2.2617-3.6133 3.8828-6.1953 4.5l-15.816 3.793 10.566 12.363c1.7226 2.0195 2.5742 4.6367 2.3672 7.2852l-1.2812 16.211 15.023-6.2266c1.2266-0.50782 2.5274-0.76172 3.8281-0.76172z" style="fill:#2d3748"/>
  <path d="m216.12 165.6c-4.4453 0-8.8398-1.3984-12.59-4.1211-6.0938-4.4297-9.3789-11.559-8.7891-19.07l2.6914-34.117-22.23-26.02c-4.8945-5.7305-6.4258-13.426-4.0976-20.594 2.3281-7.1641 8.0898-12.492 15.418-14.25l33.281-7.9844 17.875-29.184c3.9375-6.4258 10.785-10.262 18.32-10.262 7.5312 0 14.383 3.8359 18.316 10.262l17.875 29.184 33.281 7.9844c7.3281 1.7578 13.094 7.0859 15.422 14.25 2.3281 7.168 0.79297 14.863-4.1016 20.594l-22.23 26.02 2.6914 34.117c0.59375 7.5117-2.6914 14.641-8.7891 19.066-6.0938 4.4297-13.891 5.3516-20.852 2.4688l-31.613-13.102-31.617 13.102c-2.6797 1.1094-5.4805 1.6562-8.2617 1.6562zm39.879-145.6c-0.82813 0-1.1562 0.53125-1.2656 0.70703l-20.039 32.719c-1.3867 2.2617-3.6133 3.8828-6.1953 4.5l-37.309 8.9531c-0.20313 0.04687-0.8086 0.19141-1.0664 0.98047-0.25391 0.78906 0.14844 1.2656 0.28516 1.4219l24.922 29.168c1.7266 2.0195 2.5742 4.6406 2.3672 7.2852l-3.0195 38.25c-0.0156 0.20313-0.0625 0.82813 0.60937 1.3164 0.67188 0.48828 1.2461 0.24609 1.4375 0.16797l35.445-14.691c2.4531-1.0156 5.2031-1.0156 7.6562 0l35.445 14.691c0.1914 0.0781 0.76562 0.32031 1.4375-0.16797 0.67187-0.48828 0.625-1.1133 0.60547-1.3164l-3.0156-38.25c-0.21094-2.6445 0.64063-5.2656 2.3633-7.2852l24.926-29.168c0.13282-0.15625 0.53907-0.63281 0.28125-1.4219-0.2539-0.78906-0.86328-0.93359-1.0625-0.98047l-37.312-8.9531c-2.5781-0.61719-4.8086-2.2383-6.1914-4.5l-20.043-32.719c-0.10547-0.17578-0.4336-0.70703-1.2617-0.70703z" style="fill:#2d3748"/>
 </g>
</svg>
