<svg id="Capa_1" enable-background="new 0 0 512 512" height="512" viewBox="0 0 512 512" width="512" xmlns="http://www.w3.org/2000/svg"><g><path d="m117.386 249.611c-18.994-1.093-46.381-10.934-68.996-51.612-13.585-24.437-20.48-51.197-22.254-66.687-1.684-14.68 8.853-27.944 23.534-29.627 14.667-1.693 27.945 8.853 29.628 23.534 3.053 26.641 23.13 69.934 41.161 70.971 14.753.849 26.023 13.495 25.175 28.247-.853 14.803-13.555 26.024-28.248 25.174z" fill="#ebca5f"/><path d="m385.858 249.655c-14.764 0-26.74-11.962-26.754-26.731-.014-14.776 11.954-26.765 26.731-26.779 4.011-.003 11.472-3.639 20.386-13.832 9.021-10.315 17.218-24.979 21.926-39.227 4.636-14.029 19.767-21.649 33.799-17.008 14.03 4.636 21.644 19.768 17.008 33.799-14.28 43.212-49.496 89.738-93.071 89.777-.009.001-.017.001-.025.001z" fill="#ebca5f"/><path d="m420.035 161.906c-4.047 7.599-8.802 14.675-13.815 20.407-8.914 10.193-16.375 13.829-20.386 13.832-14.777.014-26.744 12.003-26.73 26.779.014 14.768 11.989 26.731 26.754 26.731h.025c16.489-.015 31.779-6.69 45.193-17.32.074-2.168.125-4.342.125-6.528 0-22.422-3.945-43.939-11.166-63.901z" fill="#ee8c49"/><path d="m120.459 196.189c-16.793-.965-35.359-38.583-40.296-65.266-13.674 23.353-22.46 49.895-24.955 78.219 21.118 31.379 45.057 39.483 62.178 40.468 14.692.85 27.395-10.371 28.247-25.174.849-14.751-10.421-27.398-25.174-28.247z" fill="#ee8c49"/><ellipse cx="242.832" cy="225.807" fill="#f5ea72" rx="157.464" ry="157.464" transform="matrix(.707 -.707 .707 .707 -88.546 237.845)"/><g><g><path d="m188.992 176.719c.007 13.843-14.079 25.072-31.463 25.081-17.383.009-31.481-11.206-31.488-25.049s14.079-25.073 31.463-25.081c17.383-.009 31.481 11.206 31.488 25.049z" fill="#eda1ab"/><path d="m296.648 176.665c.007 13.843 14.105 25.058 31.488 25.049s31.47-11.238 31.463-25.081-14.105-25.059-31.488-25.05-31.47 11.239-31.463 25.082z" fill="#eda1ab"/><path d="m273.668 165.345c-.01-19.068-13.824-20.852-30.864-20.844s-30.853 1.807-30.843 20.875 13.831 34.518 30.871 34.509 30.845-15.473 30.836-34.54z" fill="#565e75"/></g><g fill="#565e75"><path d="m160.865 156.958c-4.141 0-7.498-3.355-7.5-7.496-.003-6.006 2.333-11.652 6.576-15.9 4.244-4.249 9.889-6.59 15.894-6.593h.014c6 0 11.642 2.335 15.887 6.576 4.249 4.244 6.59 9.889 6.593 15.894.002 4.143-3.354 7.502-7.496 7.504-.001 0-.003 0-.004 0-4.141 0-7.498-3.355-7.5-7.496-.001-1.999-.78-3.877-2.193-5.289-1.413-1.411-3.29-2.188-5.287-2.188-.001 0-.003 0-.004 0-2 .001-3.878.78-5.29 2.193-1.412 1.414-2.189 3.294-2.189 5.292.002 4.143-3.354 7.502-7.496 7.504-.002-.001-.004-.001-.005-.001z"/><path d="m294.785 156.891c-4.141 0-7.497-3.355-7.5-7.495-.004-6.006 2.332-11.653 6.576-15.901 4.244-4.249 9.889-6.59 15.894-6.593h.014c6 0 11.642 2.335 15.887 6.576 4.249 4.244 6.59 9.889 6.593 15.894.002 4.143-3.354 7.502-7.496 7.504-.001 0-.003 0-.004 0-4.141 0-7.498-3.355-7.5-7.496-.001-1.998-.78-3.877-2.194-5.289-1.412-1.411-3.29-2.188-5.286-2.188-.001 0-.003 0-.004 0-2 .001-3.878.78-5.29 2.193-1.412 1.414-2.189 3.293-2.188 5.291.003 4.143-3.354 7.503-7.495 7.505-.004-.001-.006-.001-.007-.001z"/></g></g><path d="m268.442 251.155c-24.486-17.976-55.495-24.424-86.839-7.553-16.288-19.788-44.125-24.063-65.227-11.555-9.65-11.651-24.234-18.887-40.24-18.535-27.86.604-50.308 23.608-49.721 51.885 1.104 52.57 1.718 82.668 2.07 99.939.527 25.812.578 28.289 1.671 32.512 8.434 38.54 54.208 54.715 85.054 30.938 19.724 31.548 65.983 33.504 88.251 3.619 4.96 22.866 25.342 40.051 49.672 40.051 18.442 0 34.619-9.873 43.53-24.61 25.741 18.297 62.494 9.019 75.866-20.666 16.751 15.408 35.978 14.157 35.871 14.136 32.222-.004 57.176-29.15 51.24-62.734l-21.664-116.286c-5.159-27.687-31.842-45.817-59.287-40.662-17.112 3.19-30.63 14.652-37.19 29.482l-.345-.349c-9.638-9.764-22.453-15.142-36.081-15.142-13.889.001-27.037 5.627-36.631 15.53z" fill="#a78cd6"/><g><g><path d="m326.114 413.896c-3.571 0-6.735-2.56-7.377-6.198l-21.145-119.916c-.57-3.232 1.028-6.46 3.944-7.967s6.473-.94 8.779 1.396l88.565 89.722-18.25-97.95c-.759-4.072 1.928-7.988 5.999-8.747 4.064-.766 7.988 1.927 8.747 5.999l21.593 115.895c.838 4.76-.991 9.009-4.646 10.898-2.8 1.446-7.135 1.64-10.901-2.168l-84.88-85.988 16.967 96.222c.72 4.079-2.004 7.97-6.083 8.689-.441.075-.879.113-1.312.113z" fill="#f5ea72"/></g><g><path d="m253.133 429.122c-4.143 0-7.5-3.358-7.5-7.5v-121.993c0-4.143 3.357-7.5 7.5-7.5s7.5 3.357 7.5 7.5v121.993c0 4.143-3.358 7.5-7.5 7.5z" fill="#f5ea72"/></g><g><path d="m160.621 410.369c-.567 0-1.139-.047-1.711-.143-4.3-.728-7.676-4.107-8.4-8.406-.018-.105-.033-.211-.047-.316l-12.573-100.643-46.309 90.229c-.032.063-.065.124-.1.187-2.101 3.822-6.401 5.898-10.698 5.173-4.3-.728-7.676-4.106-8.399-8.406-.061-.36-.096-.726-.103-1.091l-2.541-122.465c-.086-4.141 3.201-7.567 7.343-7.653 4.139-.092 7.567 3.201 7.653 7.343l2.143 103.222 48.766-95.017c1.503-2.928 4.742-4.532 7.979-3.961 3.24.573 5.729 3.19 6.137 6.456l13.239 105.967 37.366-96.06c1.502-3.86 5.85-5.768 9.709-4.271 3.86 1.502 5.773 5.849 4.271 9.709l-44.321 113.937c-.119.307-.259.604-.417.893-1.82 3.313-5.293 5.316-8.987 5.316z" fill="#f5ea72"/></g></g><path d="m234.972 456.276-11.669-6.083c-2.521-1.314-4.577-3.371-5.891-5.891l-6.084-11.668c-5.188-9.952-19.429-9.952-24.617 0l-6.083 11.668c-.256.491-.548.959-.859 1.413-5.737 23.888 9.967 53.501 40.149 43.744.991-.988 2.13-1.827 3.385-2.481l11.669-6.083c9.952-5.19 9.952-19.431 0-24.619z" fill="#8ee2e1"/><path d="m179.769 445.713c-1.283 1.875-3.003 3.421-5.033 4.479l-11.669 6.083c-9.952 5.188-9.952 19.429 0 24.617l11.669 6.083c2.521 1.314 4.577 3.371 5.891 5.891l6.083 11.668c5.188 9.952 19.429 9.952 24.617 0l6.083-11.668c.66-1.266 1.508-2.414 2.507-3.411-27.985-4.743-38.385-26.382-40.148-43.742z" fill="#6ad7d4"/><path d="m478.577 83.087-11.669-6.084c-2.521-1.314-4.577-3.371-5.891-5.891l-6.083-11.668c-5.189-9.952-19.429-9.952-24.617 0l-6.083 11.668c-.256.491-.548.959-.858 1.412-6.903 21.872 6.041 50.497 40.149 43.744.991-.988 2.13-1.827 3.385-2.481l11.669-6.083c9.95-5.188 9.95-19.428-.002-24.617z" fill="#8ee2e1"/><path d="m423.374 72.525c-1.283 1.875-3.003 3.421-5.033 4.479l-11.669 6.084c-9.952 5.188-9.952 19.429 0 24.617l11.669 6.083c2.521 1.314 4.577 3.371 5.891 5.891l6.084 11.669c5.188 9.952 19.429 9.952 24.617 0l6.083-11.669c.66-1.266 1.508-2.414 2.507-3.41-27.986-4.746-38.386-26.384-40.149-43.744z" fill="#6ad7d4"/><path d="m126.421 60.323-5.421 10.397c-4.623 8.867-17.312 8.867-21.935 0l-5.421-10.397c-1.171-2.246-3.003-4.078-5.249-5.25l-10.397-5.421c-8.867-4.623-8.867-17.312 0-21.935l10.397-5.421c2.246-1.171 4.078-3.003 5.249-5.25l5.421-10.397c4.623-8.868 17.312-8.868 21.935 0l5.421 10.397c1.171 2.246 3.003 4.078 5.249 5.25l10.397 5.421c8.867 4.623 8.867 17.312 0 21.935l-10.397 5.421c-2.245 1.172-4.078 3.004-5.249 5.25z" fill="#8ee2e1"/><path d="m92.88 18.306c-1.143 1.671-2.676 3.048-4.484 3.991l-10.397 5.421c-8.867 4.623-8.867 17.312 0 21.935l10.397 5.421c2.246 1.171 4.078 3.003 5.249 5.25l5.421 10.397c4.623 8.867 17.312 8.867 21.935 0l5.421-10.397c.588-1.128 1.343-2.151 2.234-3.039-24.938-4.229-34.205-23.51-35.776-38.979z" fill="#6ad7d4"/></g></svg>