<?xml version="1.0" encoding="UTF-8" standalone="no"?>
<svg
   xmlns:dc="http://purl.org/dc/elements/1.1/"
   xmlns:cc="http://creativecommons.org/ns#"
   xmlns:rdf="http://www.w3.org/1999/02/22-rdf-syntax-ns#"
   xmlns:svg="http://www.w3.org/2000/svg"
   xmlns="http://www.w3.org/2000/svg"
   width="133.7845mm"
   height="34.886124mm"
   viewBox="0 0 133.7845 34.886124"
   version="1.1"
   id="svg932">
  <defs
     id="defs926" />
  <metadata
     id="metadata929">
    <rdf:RDF>
      <cc:Work
         rdf:about="">
        <dc:format>image/svg+xml</dc:format>
        <dc:type
           rdf:resource="http://purl.org/dc/dcmitype/StillImage" />
        <dc:title></dc:title>
      </cc:Work>
    </rdf:RDF>
  </metadata>
  <g
     id="layer1"
     transform="translate(-40.352772,-109.87712)">
    <g
       id="g921"
       transform="translate(3.846887,57.074074)">
      <rect
         style="fill:#ffffff;stroke:#2d3748;stroke-width:1.92;stroke-linecap:round;stroke-opacity:1;fill-opacity:1"
         id="rect836-7"
         width="131.8645"
         height="32.966125"
         x="37.465885"
         y="53.76305"
         rx="3.3056827"
         ry="3.3056827" />
      <rect
         style="fill:#2d3748;fill-opacity:1;stroke:none;stroke-width:2.38353;stroke-linecap:round;stroke-opacity:1"
         id="rect915"
         width="1.7504175"
         height="29.08008"
         x="75.148987"
         y="55.706074"
         rx="0.65274596"
         ry="0.65274596" />
      <text
         xml:space="preserve"
         style="font-size:17.8377px;line-height:1.25;font-family:'URW Gothic';-inkscape-font-specification:'URW Gothic';fill:#2d3748;fill-opacity:1;stroke-width:0.445943"
         x="93.486229"
         y="76.551743"
         id="text1615"><tspan
           id="tspan1613"
           x="93.486229"
           y="76.551743"
           style="font-style:normal;font-variant:normal;font-weight:normal;font-stretch:normal;font-family:Cantarell;-inkscape-font-specification:Cantarell;fill:#2d3748;fill-opacity:1;stroke-width:0.445943">Custom</tspan></text>
      <g
         id="XMLID_806_"
         transform="matrix(-516.77208,0,0,0,132328.17,52.803046)">
	<g
   id="XMLID_386_">
		<path
   id="XMLID_389_"
   d="M 511.005,279.646 C 506.408,233.408 485.751,189.817 452.837,156.902 424.709,128.775 390.281,110.7 354.055,102.663 V 77.255 c 14.796,-3.681 25.794,-17.074 25.794,-32.993 0,-18.748 -15.252,-34 -34,-34 h -72 c -18.748,0 -34,15.252 -34,34 0,15.918 10.998,29.311 25.793,32.993 v 25.479 c -36.115,8.071 -70.429,26.121 -98.477,54.169 -6.138,6.138 -11.798,12.577 -16.979,19.269 -0.251,-0.019 -0.502,-0.038 -0.758,-0.038 H 78.167 c -5.522,0 -10,4.477 -10,10 0,5.523 4.478,10 10,10 h 58.412 c -7.332,12.275 -13.244,25.166 -17.744,38.436 H 10 c -5.522,0 -10,4.477 -10,10 0,5.523 4.478,10 10,10 h 103.184 c -2.882,12.651 -4.536,25.526 -4.963,38.437 H 64 c -5.522,0 -10,4.477 -10,10 0,5.523 4.478,10 10,10 h 44.54 c 0.844,12.944 2.925,25.82 6.244,38.437 H 50 c -5.522,0 -10,4.477 -10,10 0,5.523 4.478,10 10,10 h 71.166 c 9.81,25.951 25.141,50.274 45.999,71.132 32.946,32.946 76.582,53.608 122.868,58.181 6.606,0.652 13.217,0.975 19.819,0.975 39.022,0 77.548,-11.293 110.238,-32.581 4.628,-3.014 5.937,-9.209 2.923,-13.837 -3.014,-4.628 -9.209,-5.937 -13.837,-2.923 -71.557,46.597 -167.39,36.522 -227.869,-23.957 -70.962,-70.962 -70.962,-186.425 0,-257.388 70.961,-70.961 186.424,-70.961 257.387,0 60.399,60.4 70.529,156.151 24.086,227.673 -3.008,4.632 -1.691,10.826 2.94,13.833 4.634,3.008 10.826,1.691 13.833,-2.941 24.814,-38.215 35.984,-84.37 31.452,-129.965 z M 259.849,44.263 c 0,-7.72 6.28,-14 14,-14 h 72 c 7.72,0 14,6.28 14,14 0,7.72 -6.28,14 -14,14 h -1.794 -68.413 -1.793 c -7.72,0 -14,-6.281 -14,-14 z m 25.793,55.033 V 78.263 h 48.413 V 99.26 c -16.076,-1.912 -32.34,-1.9 -48.413,0.036 z" />

		<path
   id="XMLID_391_"
   d="m 445.77,425.5 c -2.64,0 -5.21,1.07 -7.069,2.93 -1.87,1.86 -2.931,4.44 -2.931,7.07 0,2.63 1.061,5.21 2.931,7.07 1.859,1.87 4.43,2.93 7.069,2.93 2.63,0 5.2,-1.06 7.07,-2.93 1.86,-1.86 2.93,-4.44 2.93,-7.07 0,-2.63 -1.069,-5.21 -2.93,-7.07 -1.87,-1.86 -4.441,-2.93 -7.07,-2.93 z" />

		<path
   id="XMLID_394_"
   d="m 310.001,144.609 c -85.538,0 -155.129,69.59 -155.129,155.129 0,85.539 69.591,155.129 155.129,155.129 85.538,0 155.129,-69.59 155.129,-155.129 0,-85.539 -69.591,-155.129 -155.129,-155.129 z m 0,290.258 c -74.511,0 -135.129,-60.619 -135.129,-135.129 0,-74.51 60.618,-135.129 135.129,-135.129 74.511,0 135.129,60.619 135.129,135.129 0,74.51 -60.618,135.129 -135.129,135.129 z" />

		<path
   id="XMLID_397_"
   d="m 373.257,222.34 -49.53,49.529 c -4.142,-2.048 -8.801,-3.205 -13.726,-3.205 -4.926,0 -9.584,1.157 -13.726,3.205 l -22.167,-22.167 c -3.906,-3.905 -10.236,-3.905 -14.143,0 -3.905,3.905 -3.905,10.237 0,14.142 l 22.167,22.167 c -2.049,4.142 -3.205,8.801 -3.205,13.726 0,17.134 13.939,31.074 31.074,31.074 17.135,0 31.074,-13.94 31.074,-31.074 0,-4.925 -1.157,-9.584 -3.205,-13.726 l 48.076,-48.076 v 0 l 1.453,-1.453 c 3.905,-3.905 3.905,-10.237 0,-14.142 -3.905,-3.905 -10.235,-3.905 -14.142,0 z m -63.256,88.472 c -6.106,0 -11.074,-4.968 -11.074,-11.074 0,-6.106 4.968,-11.074 11.074,-11.074 6.106,0 11.074,4.968 11.074,11.074 0,6.106 -4.968,11.074 -11.074,11.074 z" />

		<path
   id="XMLID_398_"
   d="m 416.92,289.86 h -9.265 c -5.522,0 -10,4.477 -10,10 0,5.523 4.478,10 10,10 h 9.265 c 5.522,0 10,-4.477 10,-10 0,-5.523 -4.478,-10 -10,-10 z" />

		<path
   id="XMLID_399_"
   d="m 212.346,289.616 h -9.264 c -5.522,0 -10,4.477 -10,10 0,5.523 4.478,10 10,10 h 9.264 c 5.522,0 10,-4.477 10,-10 0,-5.523 -4.478,-10 -10,-10 z" />

		<path
   id="XMLID_400_"
   d="m 310.123,212.083 c 5.522,0 10,-4.477 10,-10 v -9.264 c 0,-5.523 -4.478,-10 -10,-10 -5.522,0 -10,4.477 -10,10 v 9.264 c 0,5.523 4.478,10 10,10 z" />

		<path
   id="XMLID_424_"
   d="m 309.879,387.393 c -5.522,0 -10,4.477 -10,10 v 9.264 c 0,5.523 4.478,10 10,10 5.522,0 10,-4.477 10,-10 v -9.264 c 0,-5.523 -4.478,-10 -10,-10 z" />

		<path
   id="XMLID_425_"
   d="m 10,351.44 c -2.63,0 -5.21,1.07 -7.07,2.93 -1.86,1.86 -2.93,4.44 -2.93,7.07 0,2.64 1.069,5.21 2.93,7.07 1.861,1.86 4.44,2.93 7.07,2.93 2.63,0 5.21,-1.07 7.069,-2.93 1.86,-1.86 2.931,-4.44 2.931,-7.07 0,-2.63 -1.07,-5.21 -2.931,-7.07 C 15.21,352.51 12.63,351.44 10,351.44 Z" />

	</g>

</g>
      <g
         id="g2663"
         transform="matrix(0.05264802,0,0,0.05264802,42.910338,57.009952)"
         style="fill:#2d3748;fill-opacity:1">
        <path
           d="m 256.517,405.604 c 1.447,-1.043 3.178,-2.43 4.448,-3.699 l 47.507,-47.508 c 5.011,-5.01 7.771,-11.672 7.771,-18.757 0,-7.085 -2.76,-13.747 -7.77,-18.757 l -9.53,-9.531 c -5.27,-5.27 -12.224,-7.848 -19.146,-7.747 0.002,-0.134 0.01,-0.268 0.01,-0.403 0,-7.085 -2.76,-13.747 -7.77,-18.757 l -9.53,-9.53 c -5.151,-5.15 -12.13,-7.822 -19.163,-7.732 0.098,-7.012 -2.56,-13.991 -7.744,-19.175 l -9.529,-9.53 c -5.01,-5.01 -11.672,-7.77 -18.757,-7.77 -0.131,0 -0.26,0.008 -0.39,0.01 0.002,-0.13 0.01,-0.26 0.01,-0.39 0,-7.085 -2.76,-13.747 -7.77,-18.757 l -9.53,-9.53 c -5.01,-5.01 -11.671,-7.77 -18.757,-7.77 -7.085,0 -13.747,2.759 -18.757,7.77 l -65.215,65.214 c -2.929,2.929 -2.929,7.678 0,10.606 1.465,1.464 3.385,2.197 5.304,2.197 1.919,0 3.839,-0.732 5.304,-2.197 l 7.012,-7.012 c 1.294,6.311 4.397,12.112 9.057,16.773 5.468,5.468 12.505,8.795 20.095,9.567 -4.754,11.972 -2.299,26.167 7.373,35.839 5.074,5.074 11.395,8.154 17.984,9.258 -5.672,9.455 -6.296,21.204 -1.617,31.203 -10.257,5.318 -19.025,13.436 -25.284,23.786 -2.145,3.544 -1.009,8.155 2.535,10.299 3.542,2.142 8.155,1.008 10.299,-2.536 8.973,-14.834 24.666,-23.691 41.979,-23.691 h 9.354 c 4.143,0 7.5,-3.358 7.5,-7.5 V 311.82 c 0,-16.714 13.598,-30.312 30.312,-30.312 2.607,0 4.776,2.025 4.962,4.62 l 4.253,100.45 c 0.417,9.865 -1.642,19.773 -5.954,28.653 l -14.963,30.818 c -3.614,7.445 -9.896,13.086 -17.685,15.884 l -18.005,6.468 c -8.327,2.991 -17.036,4.507 -25.883,4.507 h -47.345 c -4.143,0 -7.5,3.358 -7.5,7.5 0,4.125 3.33,7.47 7.449,7.497 l -11.283,11.283 c -2.929,2.929 -2.929,7.678 0,10.606 1.465,1.464 3.385,2.197 5.304,2.197 1.919,0 3.839,-0.732 5.304,-2.197 l 21.887,-21.887 h 26.185 c 10.58,0 20.994,-1.813 30.953,-5.39 l 18.005,-6.468 c 11.5,-4.131 20.771,-12.458 26.108,-23.45 l 14.963,-30.818 c 2.501,-5.158 4.389,-10.597 5.65,-16.177 z m 8.289,-106.401 c 0,3.075 -1.197,5.967 -3.37,8.143 -0.002,0.002 -0.005,0.004 -0.007,0.007 l -6.186,6.186 -1.191,-28.129 c -0.002,-0.045 -0.004,-0.091 -0.007,-0.137 -0.037,-0.609 -0.107,-1.209 -0.198,-1.802 l 7.583,7.582 c 2.177,2.177 3.376,5.071 3.376,8.15 z m -145.969,-39.1 c 0,-4.879 1.899,-9.465 5.35,-12.915 l 38.539,-38.539 c 2.177,-2.177 5.071,-3.376 8.149,-3.376 3.079,0 5.974,1.199 8.15,3.376 l 9.53,9.53 c 2.177,2.177 3.376,5.071 3.376,8.15 0,3.077 -1.198,5.97 -3.373,8.147 -0.001,0.001 -0.003,0.002 -0.004,0.004 l -38.534,38.534 c -0.002,0.002 -0.003,0.003 -0.005,0.005 -3.449,3.45 -8.036,5.35 -12.915,5.35 -4.878,0 -9.465,-1.9 -12.914,-5.35 -3.449,-3.451 -5.349,-8.037 -5.349,-12.916 z m 68.106,102.246 c -5.273,0 -10.429,0.637 -15.388,1.847 -3.858,-6.998 -2.739,-15.891 3.083,-21.712 l 14.158,-14.159 v 34.023 h -1.853 z m 2.134,-55.518 -11.591,11.591 c -10e-4,10e-4 -0.002,10e-4 -0.002,0.002 -7.119,7.121 -18.708,7.122 -25.829,0 -7.122,-7.122 -7.122,-18.709 0,-25.831 l 47.507,-47.508 c 2.178,-2.177 5.072,-3.376 8.151,-3.376 3.078,0 5.973,1.199 8.15,3.376 l 9.529,9.53 c 3.266,3.266 4.224,8.164 2.571,12.372 -20.271,2.947 -36.231,19.359 -38.486,39.844 z m 108.788,36.959 -39.662,39.663 -2.099,-49.568 c 0.024,-0.023 0.049,-0.042 0.073,-0.065 l 15.858,-15.859 c 4.495,-4.495 11.808,-4.495 16.301,0 l 9.53,9.53 c 2.177,2.177 3.376,5.072 3.376,8.15 0,3.077 -1.199,5.971 -3.377,8.149 z"
           id="path2643"
           style="fill:#2d3748;fill-opacity:1" />
        <path
           d="M 61.829,288.363 C 46.73,303.82 37.176,323.285 34.196,344.656 l -3.654,26.231 -28.345,28.345 c -2.929,2.929 -2.929,7.678 0,10.606 1.465,1.465 3.384,2.197 5.304,2.197 1.919,0 3.839,-0.732 5.304,-2.197 l 30.123,-30.123 c 1.153,-1.154 1.899,-2.652 2.125,-4.268 l 4.001,-28.721 c 2.534,-18.176 10.662,-34.733 23.507,-47.882 2.895,-2.963 2.839,-7.711 -0.124,-10.606 -2.966,-2.895 -7.713,-2.838 -10.608,0.125 z"
           id="path2645"
           style="fill:#2d3748;fill-opacity:1" />
        <path
           d="m 414.803,237.568 c -8.772,4.175 -18.524,6.167 -28.225,5.754 l -100.451,-4.253 c -2.594,-0.186 -4.618,-2.355 -4.618,-4.962 0,-16.714 13.598,-30.312 30.312,-30.312 h 58.028 c 1.989,0 3.896,-0.79 5.304,-2.197 1.406,-1.406 2.196,-3.314 2.196,-5.303 v -9.354 c 0,-17.313 8.856,-33.005 23.691,-41.978 3.544,-2.144 4.68,-6.755 2.536,-10.299 -2.145,-3.545 -6.757,-4.679 -10.3,-2.536 -10.349,6.26 -18.467,15.027 -23.785,25.284 -9.993,-4.676 -21.733,-4.056 -31.185,1.606 -1.131,-6.775 -4.321,-13.019 -9.276,-17.973 -9.677,-9.676 -23.881,-12.129 -35.857,-7.366 -0.753,-7.345 -3.932,-14.486 -9.548,-20.102 -4.661,-4.661 -10.462,-7.764 -16.773,-9.058 l 31.271,-31.27 C 311.179,60.193 328.44,51.6 346.727,49.051 l 28.721,-4.002 c 1.616,-0.225 3.114,-0.971 4.269,-2.125 l 30.122,-30.123 c 2.929,-2.929 2.929,-7.678 0,-10.606 -2.93,-2.929 -7.678,-2.929 -10.607,0 l -28.344,28.345 -26.23,3.655 c -21.499,2.996 -41.792,13.099 -57.142,28.448 l -89.473,89.473 c -5.949,5.948 -8.729,14.482 -7.435,22.83 0.573,3.704 3.767,6.353 7.402,6.353 0.381,0 0.769,-0.029 1.157,-0.089 4.093,-0.634 6.897,-4.467 6.263,-8.56 -0.571,-3.691 0.602,-7.309 3.219,-9.926 l 38.539,-38.539 c 3.449,-3.45 8.036,-5.35 12.915,-5.35 4.879,0 9.466,1.9 12.915,5.35 7.122,7.122 7.122,18.708 0,25.83 0,0 0,0.001 -10e-4,0.001 l -38.533,38.534 c -0.002,0.002 -0.003,0.003 -0.005,0.005 -2.694,2.695 -6.546,3.882 -10.307,3.17 -4.071,-0.771 -7.993,1.907 -8.763,5.977 -0.769,4.07 1.907,7.993 5.978,8.762 1.647,0.311 3.302,0.464 4.945,0.464 0.129,0 0.258,-0.008 0.386,-0.01 -0.002,0.131 -0.01,0.261 -0.01,0.393 0,7.085 2.76,13.747 7.77,18.757 l 9.53,9.53 c 5.108,5.108 11.911,7.769 18.781,7.768 0.132,0 0.265,-0.011 0.397,-0.013 -0.085,7.033 2.591,14.014 7.729,19.151 l 9.529,9.53 c 5.01,5.01 11.672,7.77 18.757,7.77 0.131,0 0.26,-0.008 0.39,-0.01 -0.002,0.13 -0.01,0.26 -0.01,0.39 0,7.085 2.76,13.747 7.77,18.757 l 9.53,9.53 c 5.01,5.01 11.671,7.769 18.757,7.769 7.085,0 13.747,-2.759 18.757,-7.77 l 47.508,-47.508 c 1.375,-1.375 2.625,-2.868 3.736,-4.453 5.376,-1.219 10.62,-3.026 15.608,-5.4 3.74,-1.78 5.329,-6.255 3.55,-9.995 -1.778,-3.737 -6.254,-5.324 -9.994,-3.546 z m -50.607,-66.012 c -1.21,4.958 -1.847,10.114 -1.847,15.387 v 1.854 h -34.023 l 14.158,-14.158 c 5.819,-5.822 14.713,-6.943 21.712,-3.083 z m -109.581,53.436 -9.53,-9.53 c -2.177,-2.177 -3.376,-5.072 -3.376,-8.15 0,-3.078 1.199,-5.973 3.377,-8.15 l 47.508,-47.508 c 7.121,-7.122 18.707,-7.12 25.83,0 3.449,3.45 5.35,8.037 5.35,12.916 0,4.876 -1.899,9.46 -5.345,12.91 l -11.076,11.076 c -0.165,0.165 -0.318,0.338 -0.464,0.514 -20.513,2.231 -36.954,18.205 -39.901,38.498 -4.211,1.658 -9.094,0.703 -12.373,-2.576 z m 44.587,39.813 c -3.078,0 -5.973,-1.199 -8.15,-3.376 l -7.582,-7.582 c 0.593,0.09 1.192,0.161 1.801,0.198 0.046,0.002 0.092,0.005 0.138,0.007 l 28.13,1.191 -6.186,6.186 c -2.177,2.177 -5.072,3.376 -8.151,3.376 z m 44.587,33.061 c -2.177,2.177 -5.071,3.376 -8.149,3.376 -3.079,0 -5.974,-1.199 -8.15,-3.376 l -9.53,-9.53 c -2.177,-2.177 -3.376,-5.071 -3.376,-8.15 0,-3.077 1.198,-5.97 3.373,-8.147 0.001,-10e-4 0.003,-0.002 0.004,-0.004 l 15.86,-15.86 c 0.023,-0.023 0.042,-0.048 0.064,-0.071 l 49.568,2.099 z"
           id="path2647"
           style="fill:#2d3748;fill-opacity:1" />
        <path
           d="m 509.796,102.154 c -2.93,-2.929 -7.678,-2.93 -10.607,0 l -11.283,11.283 c -0.028,-4.118 -3.372,-7.449 -7.497,-7.449 -4.143,0 -7.5,3.358 -7.5,7.5 v 47.345 c 0,8.849 -1.517,17.557 -4.508,25.882 l -6.467,18.005 c -2.732,7.606 -8.218,13.806 -15.446,17.457 -3.697,1.868 -5.181,6.378 -3.313,10.076 1.319,2.613 3.96,4.12 6.7,4.12 1.137,0 2.291,-0.259 3.375,-0.807 10.669,-5.388 18.767,-14.542 22.802,-25.775 l 6.467,-18.005 c 3.577,-9.957 5.391,-20.371 5.391,-30.953 v -26.185 l 21.888,-21.887 c 2.927,-2.929 2.927,-7.678 -0.002,-10.607 z"
           id="path2649"
           style="fill:#2d3748;fill-opacity:1" />
        <path
           d="m 360.648,344.877 c -2.925,-2.932 -7.674,-2.938 -10.606,-0.012 -2.932,2.926 -2.938,7.674 -0.013,10.607 l 19.165,19.209 c 1.465,1.468 3.387,2.203 5.31,2.203 1.916,0 3.833,-0.73 5.297,-2.19 2.933,-2.926 2.938,-7.674 0.013,-10.607 z"
           id="path2651"
           style="fill:#2d3748;fill-opacity:1" />
        <path
           d="m 339.162,362.641 c -0.713,-4.08 -4.598,-6.809 -8.678,-6.099 -4.081,0.712 -6.812,4.597 -6.1,8.678 l 4.145,23.748 c 0.637,3.644 3.803,6.212 7.38,6.212 0.428,0 0.862,-0.037 1.298,-0.113 4.081,-0.712 6.812,-4.597 6.1,-8.678 z"
           id="path2653"
           style="fill:#2d3748;fill-opacity:1" />
        <path
           d="m 394.111,323.388 -23.748,-4.145 c -4.086,-0.714 -7.966,2.019 -8.679,6.099 -0.712,4.081 2.019,7.966 6.099,8.678 l 23.748,4.145 c 0.437,0.076 0.871,0.113 1.299,0.113 3.576,0 6.743,-2.568 7.38,-6.212 0.711,-4.081 -2.019,-7.966 -6.099,-8.678 z"
           id="path2655"
           style="fill:#2d3748;fill-opacity:1" />
        <path
           d="m 151.349,156.836 c 1.465,1.469 3.387,2.203 5.31,2.203 1.916,0 3.833,-0.73 5.297,-2.19 2.933,-2.926 2.938,-7.674 0.013,-10.606 l -19.165,-19.21 c -2.925,-2.932 -7.674,-2.939 -10.606,-0.013 -2.933,2.926 -2.938,7.674 -0.013,10.606 z"
           id="path2657"
           style="fill:#2d3748;fill-opacity:1" />
        <path
           d="m 172.834,139.071 c 0.637,3.644 3.803,6.212 7.38,6.212 0.428,0 0.862,-0.037 1.298,-0.113 4.081,-0.712 6.812,-4.597 6.1,-8.678 l -4.145,-23.749 c -0.713,-4.08 -4.6,-6.81 -8.678,-6.099 -4.081,0.712 -6.812,4.597 -6.1,8.678 z"
           id="path2659"
           style="fill:#2d3748;fill-opacity:1" />
        <path
           d="m 117.886,178.324 23.748,4.146 c 0.437,0.076 0.871,0.113 1.299,0.113 3.576,0 6.743,-2.568 7.38,-6.212 0.712,-4.08 -2.019,-7.965 -6.099,-8.678 l -23.748,-4.146 c -4.086,-0.713 -7.966,2.019 -8.679,6.099 -0.712,4.08 2.019,7.965 6.099,8.678 z"
           id="path2661"
           style="fill:#2d3748;fill-opacity:1" />
      </g>
    </g>
  </g>
</svg>
