<?xml version="1.0" encoding="UTF-8" standalone="no"?>
<svg
   xmlns:dc="http://purl.org/dc/elements/1.1/"
   xmlns:cc="http://creativecommons.org/ns#"
   xmlns:rdf="http://www.w3.org/1999/02/22-rdf-syntax-ns#"
   xmlns:svg="http://www.w3.org/2000/svg"
   xmlns="http://www.w3.org/2000/svg"
   width="133.7845mm"
   height="34.886124mm"
   viewBox="0 0 133.7845 34.886124"
   version="1.1"
   id="svg932">
  <defs
     id="defs926" />
  <metadata
     id="metadata929">
    <rdf:RDF>
      <cc:Work
         rdf:about="">
        <dc:format>image/svg+xml</dc:format>
        <dc:type
           rdf:resource="http://purl.org/dc/dcmitype/StillImage" />
        <dc:title></dc:title>
      </cc:Work>
    </rdf:RDF>
  </metadata>
  <g
     id="layer1"
     transform="translate(-40.352772,-109.87712)">
    <g
       id="g921"
       transform="translate(3.846887,57.074074)">
      <rect
         style="fill:#ffffff;stroke:#2d3748;stroke-width:1.92;stroke-linecap:round;stroke-opacity:1;fill-opacity:1"
         id="rect836-7"
         width="131.8645"
         height="32.966125"
         x="37.465885"
         y="53.76305"
         rx="3.3056827"
         ry="3.3056827" />
      <rect
         style="fill:#2d3748;fill-opacity:1;stroke:none;stroke-width:2.38353;stroke-linecap:round;stroke-opacity:1"
         id="rect915"
         width="1.7504175"
         height="29.08008"
         x="75.148987"
         y="55.706074"
         rx="0.65274596"
         ry="0.65274596" />
      <text
         xml:space="preserve"
         style="font-size:17.8377px;line-height:1.25;font-family:'URW Gothic';-inkscape-font-specification:'URW Gothic';fill:#2d3748;fill-opacity:1;stroke-width:0.445943"
         x="96.132065"
         y="76.551743"
         id="text1615"><tspan
           id="tspan1613"
           x="96.132065"
           y="76.551743"
           style="font-style:normal;font-variant:normal;font-weight:normal;font-stretch:normal;font-family:Cantarell;-inkscape-font-specification:Cantarell;fill:#2d3748;fill-opacity:1;stroke-width:0.445943">Ranked</tspan></text>
      <g
         id="XMLID_806_"
         transform="matrix(-516.77208,0,0,0,132328.17,52.803046)">
	<g
   id="XMLID_386_">
		<path
   id="XMLID_389_"
   d="M 511.005,279.646 C 506.408,233.408 485.751,189.817 452.837,156.902 424.709,128.775 390.281,110.7 354.055,102.663 V 77.255 c 14.796,-3.681 25.794,-17.074 25.794,-32.993 0,-18.748 -15.252,-34 -34,-34 h -72 c -18.748,0 -34,15.252 -34,34 0,15.918 10.998,29.311 25.793,32.993 v 25.479 c -36.115,8.071 -70.429,26.121 -98.477,54.169 -6.138,6.138 -11.798,12.577 -16.979,19.269 -0.251,-0.019 -0.502,-0.038 -0.758,-0.038 H 78.167 c -5.522,0 -10,4.477 -10,10 0,5.523 4.478,10 10,10 h 58.412 c -7.332,12.275 -13.244,25.166 -17.744,38.436 H 10 c -5.522,0 -10,4.477 -10,10 0,5.523 4.478,10 10,10 h 103.184 c -2.882,12.651 -4.536,25.526 -4.963,38.437 H 64 c -5.522,0 -10,4.477 -10,10 0,5.523 4.478,10 10,10 h 44.54 c 0.844,12.944 2.925,25.82 6.244,38.437 H 50 c -5.522,0 -10,4.477 -10,10 0,5.523 4.478,10 10,10 h 71.166 c 9.81,25.951 25.141,50.274 45.999,71.132 32.946,32.946 76.582,53.608 122.868,58.181 6.606,0.652 13.217,0.975 19.819,0.975 39.022,0 77.548,-11.293 110.238,-32.581 4.628,-3.014 5.937,-9.209 2.923,-13.837 -3.014,-4.628 -9.209,-5.937 -13.837,-2.923 -71.557,46.597 -167.39,36.522 -227.869,-23.957 -70.962,-70.962 -70.962,-186.425 0,-257.388 70.961,-70.961 186.424,-70.961 257.387,0 60.399,60.4 70.529,156.151 24.086,227.673 -3.008,4.632 -1.691,10.826 2.94,13.833 4.634,3.008 10.826,1.691 13.833,-2.941 24.814,-38.215 35.984,-84.37 31.452,-129.965 z M 259.849,44.263 c 0,-7.72 6.28,-14 14,-14 h 72 c 7.72,0 14,6.28 14,14 0,7.72 -6.28,14 -14,14 h -1.794 -68.413 -1.793 c -7.72,0 -14,-6.281 -14,-14 z m 25.793,55.033 V 78.263 h 48.413 V 99.26 c -16.076,-1.912 -32.34,-1.9 -48.413,0.036 z" />

		<path
   id="XMLID_391_"
   d="m 445.77,425.5 c -2.64,0 -5.21,1.07 -7.069,2.93 -1.87,1.86 -2.931,4.44 -2.931,7.07 0,2.63 1.061,5.21 2.931,7.07 1.859,1.87 4.43,2.93 7.069,2.93 2.63,0 5.2,-1.06 7.07,-2.93 1.86,-1.86 2.93,-4.44 2.93,-7.07 0,-2.63 -1.069,-5.21 -2.93,-7.07 -1.87,-1.86 -4.441,-2.93 -7.07,-2.93 z" />

		<path
   id="XMLID_394_"
   d="m 310.001,144.609 c -85.538,0 -155.129,69.59 -155.129,155.129 0,85.539 69.591,155.129 155.129,155.129 85.538,0 155.129,-69.59 155.129,-155.129 0,-85.539 -69.591,-155.129 -155.129,-155.129 z m 0,290.258 c -74.511,0 -135.129,-60.619 -135.129,-135.129 0,-74.51 60.618,-135.129 135.129,-135.129 74.511,0 135.129,60.619 135.129,135.129 0,74.51 -60.618,135.129 -135.129,135.129 z" />

		<path
   id="XMLID_397_"
   d="m 373.257,222.34 -49.53,49.529 c -4.142,-2.048 -8.801,-3.205 -13.726,-3.205 -4.926,0 -9.584,1.157 -13.726,3.205 l -22.167,-22.167 c -3.906,-3.905 -10.236,-3.905 -14.143,0 -3.905,3.905 -3.905,10.237 0,14.142 l 22.167,22.167 c -2.049,4.142 -3.205,8.801 -3.205,13.726 0,17.134 13.939,31.074 31.074,31.074 17.135,0 31.074,-13.94 31.074,-31.074 0,-4.925 -1.157,-9.584 -3.205,-13.726 l 48.076,-48.076 v 0 l 1.453,-1.453 c 3.905,-3.905 3.905,-10.237 0,-14.142 -3.905,-3.905 -10.235,-3.905 -14.142,0 z m -63.256,88.472 c -6.106,0 -11.074,-4.968 -11.074,-11.074 0,-6.106 4.968,-11.074 11.074,-11.074 6.106,0 11.074,4.968 11.074,11.074 0,6.106 -4.968,11.074 -11.074,11.074 z" />

		<path
   id="XMLID_398_"
   d="m 416.92,289.86 h -9.265 c -5.522,0 -10,4.477 -10,10 0,5.523 4.478,10 10,10 h 9.265 c 5.522,0 10,-4.477 10,-10 0,-5.523 -4.478,-10 -10,-10 z" />

		<path
   id="XMLID_399_"
   d="m 212.346,289.616 h -9.264 c -5.522,0 -10,4.477 -10,10 0,5.523 4.478,10 10,10 h 9.264 c 5.522,0 10,-4.477 10,-10 0,-5.523 -4.478,-10 -10,-10 z" />

		<path
   id="XMLID_400_"
   d="m 310.123,212.083 c 5.522,0 10,-4.477 10,-10 v -9.264 c 0,-5.523 -4.478,-10 -10,-10 -5.522,0 -10,4.477 -10,10 v 9.264 c 0,5.523 4.478,10 10,10 z" />

		<path
   id="XMLID_424_"
   d="m 309.879,387.393 c -5.522,0 -10,4.477 -10,10 v 9.264 c 0,5.523 4.478,10 10,10 5.522,0 10,-4.477 10,-10 v -9.264 c 0,-5.523 -4.478,-10 -10,-10 z" />

		<path
   id="XMLID_425_"
   d="m 10,351.44 c -2.63,0 -5.21,1.07 -7.07,2.93 -1.86,1.86 -2.93,4.44 -2.93,7.07 0,2.64 1.069,5.21 2.93,7.07 1.861,1.86 4.44,2.93 7.07,2.93 2.63,0 5.21,-1.07 7.069,-2.93 1.86,-1.86 2.931,-4.44 2.931,-7.07 0,-2.63 -1.07,-5.21 -2.931,-7.07 C 15.21,352.51 12.63,351.44 10,351.44 Z" />

	</g>

</g>
      <g
         id="g2558"
         transform="matrix(0.05292368,0,0,0.05292368,43.528133,58.748922)"
         style="fill:#2d3748;fill-opacity:1">
        <path
           d="m 457.73047,427.74219 c -4.17969,0 -8.01172,-2.6875 -9.41406,-6.62891 -1.37891,-3.86719 -0.21485,-8.33984 2.9375,-10.99219 3.29687,-2.77343 8.08203,-3.12109 11.75,-0.86328 3.40234,2.09766 5.23047,6.17969 4.58593,10.1211 -0.78125,4.76562 -5.03906,8.36328 -9.85937,8.36328 z m 0,0"
           id="path2532"
           style="fill:#2d3748;fill-opacity:1" />
        <path
           d="m 256,370.63672 c -5.52344,0 -10,-4.47656 -10,-10 v -75.02735 c 0,-5.52343 4.47656,-10 10,-10 5.52344,0 10,4.47657 10,10 v 75.02735 c 0,5.52344 -4.47656,10 -10,10 z m 0,0"
           id="path2534"
           style="fill:#2d3748;fill-opacity:1" />
        <path
           d="M 502,242.72266 H 357.98828 v -26.66797 c 0,-5.52344 -4.47656,-10 -10,-10 H 164.01172 c -5.52344,0 -10,4.47656 -10,10 v 53.29687 H 10 c -5.523438,0 -10,4.47656 -10,10 v 138.39453 c 0,5.52344 4.476562,10 10,10 h 402.68359 c 5.52344,0 10,-4.47656 10,-10 0,-5.52343 -4.47656,-10 -10,-10 H 357.98828 V 262.72266 H 492 v 155.02343 c 0,5.52344 4.47656,10 10,10 5.52344,0 10,-4.47656 10,-10 V 252.72266 c 0,-5.52344 -4.47656,-10 -10,-10 z M 20,289.35156 H 154.01172 V 407.74609 H 20 Z m 154.01172,-63.29687 h 163.97656 v 181.6875 H 174.01172 Z m 0,0"
           id="path2536"
           style="fill:#2d3748;fill-opacity:1" />
        <path
           d="m 109.76953,217.42187 c -2.14453,0 -4.30469,-0.42187 -6.36719,-1.27734 l -16.394528,-6.79297 -16.398437,6.79297 c -5.359375,2.22266 -11.367187,1.51172 -16.0625,-1.89844 -4.699219,-3.41406 -7.230469,-8.90625 -6.773437,-14.6914 l 1.398437,-17.69532 -11.53125,-13.49609 C 33.867188,163.94922 32.6875,158.01953 34.480469,152.5 c 1.796875,-5.52344 6.234375,-9.62891 11.882812,-10.98047 l 17.257813,-4.14062 9.273437,-15.13672 c 3.03125,-4.94922 8.308594,-7.90235 14.113281,-7.90235 5.804688,0 11.082032,2.95313 14.113278,7.90235 l 9.26954,15.13672 17.26171,4.14062 c 5.64453,1.35156 10.08594,5.45703 11.87891,10.98047 1.79297,5.51953 0.61328,11.44922 -3.15625,15.86328 l -11.52734,13.49609 1.39453,17.69532 c 0.45703,5.78515 -2.07422,11.27734 -6.77344,14.6914 -2.89062,2.09766 -6.27734,3.17578 -9.69922,3.17578 z m -53.265624,-57.76953 10.5625,12.36719 c 1.722656,2.01563 2.574219,4.63672 2.367188,7.28125 l -1.28125,16.21094 15.023437,-6.22656 c 2.453125,-1.01563 5.207031,-1.01563 7.65625,0 l 15.023439,6.22656 -1.27734,-16.21094 c -0.20704,-2.64453 0.64453,-5.26562 2.36718,-7.28125 l 10.5625,-12.36719 -15.8125,-3.79297 c -2.582029,-0.61718 -4.808591,-2.23828 -6.19531,-4.5 l -8.496094,-13.86718 -8.492187,13.86718 c -1.386719,2.26172 -3.617188,3.88282 -6.195313,4.5 z m 66.480474,1.31641 h 0.008 z m 0,0"
           id="path2538"
           style="fill:#2d3748;fill-opacity:1" />
        <path
           d="m 402.23437,217.42187 c -3.42578,0 -6.8125,-1.07812 -9.70312,-3.17578 -4.69531,-3.41406 -7.22656,-8.90625 -6.76953,-14.6914 l 1.39453,-17.69532 -11.52734,-13.49218 c -3.77344,-4.41797 -4.95313,-10.34766 -3.15625,-15.86719 1.79297,-5.52344 6.23437,-9.62891 11.8789,-10.98047 l 17.25782,-4.14062 9.27343,-15.13672 c 3.03125,-4.94922 8.3086,-7.90235 14.10938,-7.90235 5.80859,-0.004 11.08203,2.95313 14.11719,7.90235 v 0.004 l 9.27343,15.13282 17.25782,4.14062 c 5.64453,1.35547 10.08593,5.46094 11.8789,10.98047 1.79688,5.52344 0.61328,11.45312 -3.15625,15.86719 l -11.52734,13.49218 1.39453,17.69532 c 0.45703,5.78906 -2.07422,11.28125 -6.76953,14.6914 -4.69922,3.41016 -10.70313,4.1211 -16.06641,1.89844 l -16.39844,-6.79297 -16.39453,6.79297 c -2.0664,0.85547 -4.22656,1.27734 -6.36719,1.27734 z m 22.75782,-28.89843 c 1.30468,0 2.60547,0.2539 3.82812,0.76172 l 15.02735,6.22656 -1.28125,-16.21094 c -0.20703,-2.64453 0.64453,-5.26562 2.36718,-7.28125 l 10.5625,-12.36719 -15.8125,-3.79297 c -2.58203,-0.61718 -4.80859,-2.23828 -6.19531,-4.5 L 424.99219,137.48828 416.5,151.35937 c -1.38672,2.26172 -3.61328,3.88282 -6.19531,4.5 l -15.81641,3.79297 10.56641,12.36328 c 1.72265,2.01954 2.57422,4.63672 2.36719,7.28516 l -1.28125,16.21094 15.02343,-6.22656 c 1.22657,-0.50782 2.52735,-0.76172 3.82813,-0.76172 z m 0,0"
           id="path2540"
           style="fill:#2d3748;fill-opacity:1" />
        <path
           d="m 216.12109,165.60156 c -4.44531,0 -8.83984,-1.39844 -12.58984,-4.12109 -6.09375,-4.42969 -9.37891,-11.5586 -8.78906,-19.07031 l 2.6914,-34.11719 -22.23047,-26.019532 c -4.89453,-5.730469 -6.42578,-13.425782 -4.09765,-20.59375 2.32812,-7.164063 8.08984,-12.492188 15.41797,-14.25 l 33.28125,-7.984376 17.875,-29.183593 C 241.61719,3.835938 248.46484,0 256,0 c 7.53125,0 14.38281,3.835938 18.31641,10.261719 l 17.875,29.183593 33.28125,7.984376 c 7.32812,1.757812 13.09375,7.085937 15.42187,14.25 2.32813,7.167968 0.79297,14.863281 -4.10156,20.59375 l -22.23047,26.019532 2.69141,34.11719 c 0.59375,7.51171 -2.69141,14.64062 -8.78907,19.0664 -6.09375,4.42969 -13.89062,5.35156 -20.85156,2.46875 L 256,150.84375 224.38281,163.94531 c -2.67969,1.10938 -5.48047,1.65625 -8.26172,1.65625 z M 256,20 c -0.82813,0 -1.15625,0.53125 -1.26563,0.707031 l -20.03906,32.71875 c -1.38672,2.261719 -3.61328,3.882813 -6.19531,4.5 l -37.30859,8.953125 c -0.20313,0.04687 -0.8086,0.191406 -1.06641,0.980469 -0.25391,0.789063 0.14844,1.265625 0.28516,1.421875 l 24.92187,29.167969 c 1.72656,2.019531 2.57422,4.640621 2.36719,7.285161 l -3.01953,38.24999 c -0.0156,0.20313 -0.0625,0.82813 0.60937,1.31641 0.67188,0.48828 1.2461,0.24609 1.4375,0.16797 l 35.44531,-14.69141 c 2.45313,-1.01562 5.20313,-1.01562 7.65625,0 l 35.44532,14.69141 c 0.1914,0.0781 0.76562,0.32031 1.4375,-0.16797 0.67187,-0.48828 0.625,-1.11328 0.60547,-1.31641 l -3.01563,-38.24999 c -0.21094,-2.64454 0.64063,-5.26563 2.36328,-7.285161 L 321.58984,69.28125 c 0.13282,-0.15625 0.53907,-0.632812 0.28125,-1.421875 -0.2539,-0.789063 -0.86328,-0.933594 -1.0625,-0.980469 l -37.3125,-8.953125 c -2.57812,-0.617187 -4.80859,-2.238281 -6.1914,-4.5 L 257.26172,20.707031 C 257.15625,20.53125 256.82812,20 256,20 Z m 0,0"
           id="path2542"
           style="fill:#2d3748;fill-opacity:1" />
      </g>
    </g>
  </g>
</svg>
