<?xml version="1.0" encoding="UTF-8" standalone="no"?>
<svg
   xmlns:dc="http://purl.org/dc/elements/1.1/"
   xmlns:cc="http://creativecommons.org/ns#"
   xmlns:rdf="http://www.w3.org/1999/02/22-rdf-syntax-ns#"
   xmlns:svg="http://www.w3.org/2000/svg"
   xmlns="http://www.w3.org/2000/svg"
   xmlns:xlink="http://www.w3.org/1999/xlink"
   viewBox="0 0 187.55937 43.959087"
   version="1.1"
   id="svg8">
  <defs
     id="defs2">
    <linearGradient
       id="linearGradient949">
      <stop
         style="stop-color:#ff2079;stop-opacity:1"
         offset="0"
         id="stop945" />
      <stop
         style="stop-color:#00b3fe;stop-opacity:1"
         offset="1"
         id="stop947" />
    </linearGradient>
    <linearGradient
       xlink:href="#linearGradient949"
       id="linearGradient951"
       x1="113.31434"
       y1="97.761909"
       x2="85.950333"
       y2="147.12155"
       gradientUnits="userSpaceOnUse" />
    <linearGradient
       xlink:href="#linearGradient949"
       id="linearGradient953"
       gradientUnits="userSpaceOnUse"
       x1="113.31434"
       y1="97.761909"
       x2="85.950333"
       y2="147.12155" />
    <linearGradient
       xlink:href="#linearGradient949"
       id="linearGradient955"
       gradientUnits="userSpaceOnUse"
       x1="113.31434"
       y1="97.761909"
       x2="85.950333"
       y2="147.12155" />
    <linearGradient
       xlink:href="#linearGradient949"
       id="linearGradient957"
       gradientUnits="userSpaceOnUse"
       x1="113.31434"
       y1="97.761909"
       x2="85.950333"
       y2="147.12155" />
    <linearGradient
       xlink:href="#linearGradient949"
       id="linearGradient959"
       gradientUnits="userSpaceOnUse"
       x1="113.31434"
       y1="97.761909"
       x2="85.950333"
       y2="147.12155" />
  </defs>
  <metadata
     id="metadata5">
    <rdf:RDF>
      <cc:Work
         rdf:about="">
        <dc:format>image/svg+xml</dc:format>
        <dc:type
           rdf:resource="http://purl.org/dc/dcmitype/StillImage" />
        <dc:title></dc:title>
      </cc:Work>
    </rdf:RDF>
  </metadata>
  <g
     id="layer1"
     transform="translate(-9.15626,-92.837024)">
    <g
       id="g943"
       style="fill:url(#linearGradient951);fill-opacity:1"
       transform="rotate(-28.464537,99.44967,113.52713)">
      <path
         d="M 25.945351,94.016884 Q 34.394736,82.140116 37.191573,78.152558 L 47.29277,83.753539 37.920158,100.65676 Z M 40.64911,102.16992 51.512305,82.578486 38.96727,75.622429 45.871239,65.764441 63.426142,75.498404 64.93931,72.769452 33.4138,55.288971 l -1.513168,2.728952 11.241655,6.23335 -6.903969,9.857988 -8.675625,-4.81052 -1.490583,2.688221 8.39051,4.652427 Q 31.665784,80.626948 23.216399,92.503716 L 11.6489,86.089689 l -1.513167,2.728949 38.61264,21.410202 1.513167,-2.72895 z"
         style="font-size:47.6908px;line-height:1.25;font-family:'URW Gothic';-inkscape-font-specification:'URW Gothic';fill:url(#linearGradient953);fill-opacity:1;stroke-width:1.19227"
         id="path43" />
      <path
         d="m 75.897549,91.999269 4.06523,-7.331517 18.736092,10.388916 -4.06523,7.331522 z m -5.623566,10.141931 4.132983,-7.45371 18.736092,10.38892 -4.132983,7.4537 z m -6.436607,11.60822 4.923441,-8.87927 18.736092,10.38891 -4.923441,8.87928 z m 17.222921,13.11788 -1.332492,2.4031 2.688222,1.49059 L 102.90026,93.8183 78.787726,80.448216 58.235738,117.5131 l 2.688221,1.49058 1.400246,-2.5253 z"
         style="font-size:47.6908px;line-height:1.25;font-family:'URW Gothic';-inkscape-font-specification:'URW Gothic';fill:url(#linearGradient955);fill-opacity:1;stroke-width:1.19227"
         id="path45" />
      <path
         d="m 111.56114,141.48971 12.28602,-22.15746 5.45791,3.02633 -12.28602,22.15747 z m 8.18686,4.53951 12.28603,-22.15747 11.11946,6.1656 1.51317,-2.72896 -9.28659,-5.14929 q 4.34982,-2.27438 7.96649,-4.9553 2.0317,0.75378 1.35182,-0.90129 l -0.83354,-1.474 q -0.37141,-0.57872 -0.90574,-1.24777 -4.83258,3.81732 -10.79675,6.79418 l -7.49443,-4.15557 q 1.14868,-5.91325 0.0761,-12.04634 l -3.02581,0.55887 q 0.83184,4.93455 0.0986,9.90655 l -10.38631,-5.75907 -1.51317,2.72895 11.20093,6.21077 -12.28603,22.15747 -12.911613,-7.15932 -1.513166,2.72894 37.757299,20.93593 1.51317,-2.72895 z m -9.9563,-27.56758 q -0.43732,7.3195 -3.82906,14.01264 l 3.04958,0.83889 q 3.35988,-6.92381 3.87827,-14.67765 z m 28.33208,12.19502 q -8.41701,7.20841 -15.49787,10.95067 l 2.06473,2.42296 q 6.40254,-3.47935 13.98797,-9.76427 1.95023,0.70861 1.30663,-0.81984 l -0.75651,-1.32478 q -0.43029,-0.66462 -1.10495,-1.46474 z"
         style="font-size:47.6908px;line-height:1.25;font-family:'URW Gothic';-inkscape-font-specification:'URW Gothic';fill:url(#linearGradient957);fill-opacity:1;stroke-width:1.19227"
         id="path47" />
      <path
         d="m 185.36687,140.34375 q 2.32844,4.06027 3.30428,8.06284 l -3.88521,0.66814 q -0.10274,-3.94447 -2.31786,-7.7289 z m -6.63961,1.21775 q 2.32843,4.06026 3.30427,8.06284 l -3.8852,0.66814 q -0.10275,-3.94448 -2.31786,-7.7289 z m -12.19347,-2.98012 q 2.28091,1.26474 3.6745,7.20305 1.43432,5.9609 9.55957,23.67311 l -0.31177,0.46617 q -2.20272,0.32298 -5.34994,1.77309 -6.32618,-19.32407 -7.47421,-23.68839 -1.08472,-4.38245 -2.22517,-5.01482 -1.09972,-0.60978 -2.35676,0.0245 -1.23446,0.5936 -15.18678,4.14696 -0.40483,-2.72738 -1.58275,-4.92488 l 0.18067,-0.32584 q 13.21187,-1.8338 16.2869,-3.05769 3.11576,-1.20128 4.78572,-0.27531 z"
         style="font-size:47.6908px;line-height:1.25;font-family:'URW Gothic';-inkscape-font-specification:'URW Gothic';fill:url(#linearGradient959);fill-opacity:1;stroke-width:1.19227"
         id="path49" />
    </g>
  </g>
</svg>
